<svg width="28" height="29" viewBox="0 0 28 29" fill="none" xmlns="http://www.w3.org/2000/svg">
<rect y="0.5" width="28" height="28" rx="4" fill="#29C5F6"/>
<path d="M10.6467 9.01256C10.6467 8.25554 11.2597 7.64257 12.0139 7.64257H18.0319C18.7875 7.64257 19.3991 8.25554 19.3991 9.01256C19.3991 9.76959 18.7861 10.3825 18.0319 10.3825H12.0153C11.2597 10.3825 10.6467 9.76959 10.6467 9.01256Z" fill="white"/>
<path d="M10.6467 17.0475C10.6467 16.2904 11.2597 15.6775 12.0139 15.6775H15.4784C16.234 15.6775 16.8456 16.2904 16.8456 17.0475C16.8456 17.8045 16.2326 18.4175 15.4784 18.4175H12.0153C11.2597 18.4175 10.6467 17.8045 10.6467 17.0475Z" fill="white"/>
<path d="M14.0519 21.43C14.0519 20.673 14.6649 20.06 15.4191 20.06H18.8836C19.6392 20.06 20.2507 20.673 20.2507 21.43C20.2507 22.187 19.6378 22.8 18.8836 22.8H15.4191C14.6635 22.8 14.0519 22.187 14.0519 21.43Z" fill="white"/>
<path d="M10.6467 13.0307C10.6467 12.2737 11.2597 11.6607 12.0139 11.6607H19.8553C20.6109 11.6607 21.2224 12.2737 21.2224 13.0307C21.2224 13.7877 20.6095 14.4007 19.8553 14.4007H12.0153C11.2597 14.3993 10.6467 13.7863 10.6467 13.0307Z" fill="white"/>
<path d="M7 7.27818C7 6.57201 7.57201 6 8.27677 6C8.98154 6 9.55354 6.57201 9.55354 7.27818V18.7818C9.55354 19.488 8.98154 20.06 8.27677 20.06C7.57201 20.06 7 19.488 7 18.7833V7.27818Z" fill="white"/>
<path d="M7 20.2436V7.82618H9.56484C9.55778 7.8855 9.55354 7.94764 9.55354 8.00837V18.5996C9.55354 19.4061 10.2061 20.06 11.0125 20.06H16.6662V22.7986H9.55354C8.1426 22.8 7 21.656 7 20.2436Z" fill="white"/>
</svg>
