<svg width="188" height="228" viewBox="0 0 188 228" fill="none" xmlns="http://www.w3.org/2000/svg">
<path d="M220.5 210C195.614 210 170.973 205.098 147.981 195.575C124.99 186.052 104.1 172.093 86.5033 154.497C68.9066 136.9 54.9481 116.01 45.4248 93.0185C35.9016 70.0273 31 45.3855 31 20.5L220.5 20.5L220.5 210Z" fill="white" fill-opacity="0.1"/>
<path d="M189.5 228C164.614 228 139.973 223.098 116.981 213.575C93.9903 204.052 73.1 190.093 55.5033 172.497C37.9066 154.9 23.9481 134.01 14.4248 111.018C4.90156 88.0273 -2.17556e-06 63.3855 0 38.5L189.5 38.5L189.5 228Z" fill="white" fill-opacity="0.1"/>
</svg>
