<svg width="288" height="288" viewBox="0 0 288 288" fill="none" xmlns="http://www.w3.org/2000/svg">
<path d="M239.38 193.726L247.444 193.565L251.412 193.501C252.731 193.473 254.045 193.501 255.364 193.467L255.105 193.726L255.076 186.975L255.364 187.263L247.363 187.2C244.702 187.2 242.041 187.137 239.38 187.108L239.535 186.952C239.535 188.058 239.483 189.17 239.46 190.293L239.38 193.726ZM239.38 193.726L239.293 190.385C239.293 189.233 239.23 188.122 239.219 186.975V186.82H239.38C242.041 186.785 244.702 186.728 247.363 186.722L255.352 186.687H255.64V186.975L255.606 193.726V193.985H255.352C254.004 193.985 252.657 193.985 251.32 193.985L247.288 193.922L239.38 193.726Z" fill="#EBEBEB"/>
<path d="M248.291 202.234L256.355 202.078L260.323 202.009C261.642 202.009 262.956 202.009 264.275 202.009L264.015 202.262V195.517L264.303 195.8L256.314 195.765C253.653 195.765 250.992 195.702 248.331 195.673L248.486 195.517C248.486 196.618 248.435 197.729 248.412 198.858L248.291 202.234ZM248.291 202.234L248.204 198.893C248.204 197.77 248.141 196.629 248.129 195.489V195.333H248.291C250.952 195.304 253.613 195.241 256.274 195.241L264.263 195.206H264.551V195.5L264.522 202.245V202.504H264.269C262.921 202.504 261.573 202.504 260.237 202.47L256.205 202.406L248.291 202.234Z" fill="#EBEBEB"/>
<path d="M101.745 86.279L109.809 86.1178L113.783 86.0544C115.102 86.0256 116.415 86.0544 117.734 86.0198L117.475 86.279L117.446 79.5283L117.734 79.8163L109.745 79.7818C107.084 79.7818 104.417 79.7126 101.756 79.6838L101.917 79.5283C101.917 80.6342 101.866 81.7459 101.837 82.8691L101.745 86.279ZM101.745 86.279L101.664 82.9382C101.664 81.7862 101.601 80.6746 101.589 79.5283V79.3728H101.745C104.406 79.344 107.073 79.2806 109.734 79.2749L117.723 79.2403H118.011V79.5283L117.982 86.279V86.5382H117.729C116.381 86.5382 115.033 86.5382 113.697 86.5037L109.665 86.4403L101.745 86.279Z" fill="#EBEBEB"/>
<path d="M110.655 94.7923L118.719 94.631L122.694 94.5677C124.013 94.5389 125.326 94.5677 126.645 94.5331L126.386 94.7923L126.357 88.0416L126.645 88.3296L118.656 88.2893C115.995 88.2893 113.328 88.2259 110.667 88.1971L110.828 88.0416C110.828 89.1475 110.776 90.2592 110.747 91.3824L110.655 94.7923ZM110.655 94.7923L110.575 91.4515C110.575 90.2995 110.511 89.1821 110.5 88.0416V87.8861H110.655C113.316 87.8861 115.983 87.7997 118.644 87.7939L126.634 87.7594H126.922V88.0474L126.893 94.7981V95.04H126.639C125.291 95.04 123.944 95.04 122.607 95.04L118.575 94.9766L110.655 94.7923Z" fill="#EBEBEB"/>
<path d="M177.512 166.153L185.576 165.992L189.55 165.928C190.869 165.9 192.182 165.928 193.496 165.894L193.242 166.153L193.213 159.402L193.496 159.69L185.512 159.65C182.851 159.65 180.184 159.587 177.523 159.558L177.679 159.402C177.679 160.508 177.633 161.62 177.604 162.743L177.512 166.153ZM177.512 166.153L177.431 162.812C177.402 161.66 177.368 160.543 177.356 159.402V159.247H177.512C180.173 159.247 182.84 159.16 185.501 159.155L193.484 159.12H193.778V159.408L193.749 166.159V166.418H193.49C192.148 166.418 190.8 166.418 189.458 166.418L185.426 166.355L177.512 166.153Z" fill="#EBEBEB"/>
<path d="M186.572 174.66L194.636 174.505L198.605 174.436C199.93 174.436 201.243 174.436 202.556 174.436L202.303 174.689L202.268 167.939L202.556 168.227L194.561 168.192C191.894 168.192 189.233 168.129 186.572 168.1L186.728 167.939C186.728 169.044 186.682 170.156 186.653 171.285L186.572 174.66ZM186.572 174.66L186.491 171.32C186.491 170.196 186.422 169.056 186.417 167.91V167.754H186.578C189.239 167.725 191.9 167.662 194.567 167.662L202.55 167.628H202.838V167.916L202.81 174.666V174.925H202.55C201.208 174.925 199.855 174.925 198.518 174.891L194.486 174.828L186.572 174.66Z" fill="#EBEBEB"/>
<path d="M23.7369 202.234L31.8009 202.078L35.7696 202.009C37.0944 202.009 38.4077 202.009 39.7209 202.009L39.4675 202.262L39.4329 195.517L39.7209 195.8L31.7376 195.765C29.0707 195.765 26.4096 195.702 23.7485 195.673L23.904 195.517C23.904 196.618 23.8579 197.729 23.8291 198.858L23.7369 202.234ZM23.7369 202.234L23.6563 198.893C23.6563 197.77 23.5929 196.629 23.5814 195.489V195.333H23.7369C26.3981 195.304 29.0592 195.241 31.7261 195.241L39.7094 195.206H40.0032V195.5V202.245V202.504H39.744C38.4019 202.504 37.0541 202.504 35.712 202.47L31.68 202.406L23.7369 202.234Z" fill="#EBEBEB"/>
<path d="M32.6477 36.7776L40.7117 36.6163L44.6803 36.553C46.0051 36.5242 47.3184 36.553 48.6317 36.5242L48.3783 36.7776L48.3437 30.0269L48.6317 30.3149L40.6483 30.2803C37.9872 30.2803 35.3203 30.217 32.6592 30.1824L32.8147 30.0269C32.8147 31.1328 32.7687 32.2445 32.7399 33.3677L32.6477 36.7776ZM32.6477 36.7776L32.5671 33.4368C32.5671 32.2848 32.5037 31.1731 32.4922 30.0269V29.8714H32.6477C35.3088 29.8714 37.9757 29.7792 40.6368 29.7792L48.6202 29.7389H48.9139V30.0269V36.7776V37.0368H48.6547C47.3127 37.0368 45.9648 37.0368 44.6227 37.0022L40.5907 36.9389L32.6477 36.7776Z" fill="#EBEBEB"/>
<path d="M23.7369 45.2909L31.8009 45.1296L35.7696 45.0662C37.0944 45.0662 38.4077 45.0662 39.7209 45.0317L39.4675 45.2909L39.4329 38.5402L39.7209 38.8282L31.7376 38.7936C29.0707 38.7936 26.4096 38.7245 23.7485 38.6957L23.904 38.5402C23.904 39.6461 23.8579 40.7578 23.8291 41.881L23.7369 45.2909ZM23.7369 45.2909L23.6563 41.9501C23.6563 40.7981 23.5929 39.6864 23.5814 38.5402V38.3846H23.7369C26.3981 38.3501 29.0592 38.2925 31.7261 38.2867L39.7094 38.2522H40.0032V38.5402V45.2909V45.5501H39.744C38.4019 45.5501 37.0541 45.5501 35.712 45.5501L31.68 45.4867L23.7369 45.2909Z" fill="#EBEBEB"/>
<path d="M248.291 36.7776L256.355 36.6163L260.323 36.553C261.642 36.5242 262.956 36.553 264.275 36.5242L264.015 36.7776V30.0269L264.303 30.3149L256.314 30.2803C253.653 30.2803 250.992 30.217 248.331 30.1824L248.486 30.0269C248.486 31.1328 248.435 32.2445 248.412 33.3677L248.291 36.7776ZM248.291 36.7776L248.204 33.4368C248.204 32.2848 248.141 31.1731 248.129 30.0269V29.8714H248.291C250.952 29.8714 253.613 29.7792 256.274 29.7792L264.263 29.7389H264.551V30.0269L264.522 36.7776V37.0368H264.269C262.921 37.0368 261.573 37.0368 260.237 37.0022L256.205 36.9389L248.291 36.7776Z" fill="#EBEBEB"/>
<path d="M195.633 166.153L203.697 165.992L207.665 165.928C208.984 165.9 210.298 165.928 211.617 165.894L211.357 166.153L211.329 159.402L211.617 159.69L203.627 159.65C200.966 159.65 198.305 159.587 195.644 159.558L195.8 159.402C195.8 160.508 195.748 161.62 195.725 162.743L195.633 166.153ZM195.633 166.153L195.546 162.812C195.546 161.66 195.483 160.543 195.471 159.402V159.247H195.633C198.294 159.247 200.955 159.16 203.616 159.155L211.605 159.12H211.893V159.408L211.864 166.159V166.418H211.611C210.263 166.418 208.915 166.418 207.579 166.418L203.547 166.355L195.633 166.153Z" fill="#EBEBEB"/>
<path d="M58.4294 128.402V102.862H32.8896V128.402H58.4294Z" fill="#DBDBDB"/>
<path d="M54.4666 124.439V106.819H36.8467V124.439H54.4666Z" fill="white"/>
<path d="M54.4665 106.825H36.8467V124.445L54.4665 106.825Z" fill="#EBEBEB"/>
<path d="M30.3954 128.402H32.8895V102.862H30.3954L30.3954 128.402Z" fill="#C7C7C7"/>
<path d="M90.046 128.408V102.868H64.5062V128.408H90.046Z" fill="#DBDBDB"/>
<path d="M86.0831 124.439V106.819H68.4633V124.439H86.0831Z" fill="white"/>
<path d="M80.9107 106.825H68.4634V119.267L80.9107 106.825Z" fill="#EBEBEB"/>
<path d="M62.0121 128.402H64.5062V102.862H62.0121V128.402Z" fill="#C7C7C7"/>
<path d="M90.0403 167.898V134.519H32.8838V167.898H90.0403Z" fill="#DBDBDB"/>
<path d="M85.8701 163.768V138.643H37.0599V163.768H85.8701Z" fill="white"/>
<path d="M69.0566 138.643H37.0598V155.111L69.0566 138.643Z" fill="#EBEBEB"/>
<path d="M30.3954 167.893H32.8895L32.8895 134.513H30.3954L30.3954 167.893Z" fill="#C7C7C7"/>
<path d="M90.046 96.912V39.7555H32.8895V96.912H90.046Z" fill="#DBDBDB"/>
<path d="M85.8758 43.9258H37.0598V92.7303H85.8758V43.9258Z" fill="white"/>
<path d="M37.0598 79.0675C44.4787 71.689 65.5027 50.7686 72.2592 43.9315H37.0598V79.0675Z" fill="#EBEBEB"/>
<path d="M30.3954 96.912H32.8895L32.8895 39.7555H30.3954L30.3954 96.912Z" fill="#C7C7C7"/>
<path d="M227.255 211.432H189.02V248.17H227.255V211.432Z" fill="#EBEBEB"/>
<path d="M241.787 211.432H227.255V248.17H241.787V211.432Z" fill="#C7C7C7"/>
<path d="M189.02 229.801H227.255L197.395 230.746L189.02 229.801Z" fill="#C7C7C7"/>
<path d="M227.255 243.734H189.02L218.88 244.679L227.255 243.734Z" fill="#C7C7C7"/>
<path d="M189.02 219.531H213.235L191.71 220.303L189.02 219.531Z" fill="#C7C7C7"/>
<path d="M227.255 238.326H203.034L224.565 239.098L227.255 238.326Z" fill="#C7C7C7"/>
<path d="M198.19 215.441H225.504L220.954 215.908L198.19 215.441Z" fill="#C7C7C7"/>
<path d="M192.735 233.741H220.055L215.499 234.202L192.735 233.741Z" fill="#C7C7C7"/>
<path d="M209.531 223.027H227.255L230.417 224.266L209.531 223.027Z" fill="#EBEBEB"/>
<path d="M184.141 223.027H201.859L205.021 224.266L184.141 223.027Z" fill="#DBDBDB"/>
<path d="M206.876 239.541H189.158L185.99 240.774L206.876 239.541Z" fill="#DBDBDB"/>
<path d="M227.255 235.348H241.482L244.65 236.586L227.255 235.348Z" fill="#C7C7C7"/>
<path d="M232.22 229.801H243.256L241.782 228.793L232.22 229.801Z" fill="#C7C7C7"/>
<path d="M249.166 198.144C246.246 198.144 240.325 195.84 241.327 193.916C242.329 191.992 245.359 194.463 245.491 194.538C245.405 194.394 243.429 190.535 245.192 189.867C246.954 189.199 248.728 191.059 249.166 193.196C249.61 191.059 251.343 189.164 253.146 189.867C254.949 190.57 252.927 194.394 252.847 194.538C252.973 194.463 256.038 192.021 257.011 193.916C257.985 195.811 252.092 198.144 249.166 198.144Z" fill="#455A64"/>
<path d="M263.935 213.926C263.791 215.54 263.543 217.143 263.192 218.724C262.495 221.864 261.354 224.911 259.736 226.95C252.932 229.607 245.377 229.607 238.573 226.95C235.083 222.595 233.839 213.633 234.334 209.019C235.238 200.696 240.209 197.499 244.529 196.376C246.035 195.989 247.583 195.795 249.137 195.8C253.371 195.8 262.691 197.332 263.958 209.048C264.101 210.671 264.093 212.304 263.935 213.926Z" fill="#219ABF"/>
<path d="M249.443 195.777C249.564 198.541 249.633 201.306 249.685 204.071C249.736 206.836 249.748 209.606 249.759 212.371C249.771 215.136 249.731 217.901 249.65 220.671C249.628 223.438 249.436 226.2 249.074 228.943L249.183 227.912L249.241 226.881C249.287 226.189 249.287 225.498 249.31 224.807C249.345 223.425 249.362 222.048 249.368 220.666C249.391 217.901 249.391 215.136 249.368 212.371V204.077C249.408 201.312 249.408 198.547 249.443 195.777Z" fill="white"/>
<path d="M247.646 195.84C247.238 197.164 246.907 198.51 246.655 199.872C246.384 201.226 246.182 202.591 246.01 203.956C245.671 206.691 245.479 209.443 245.434 212.198V214.266C245.434 214.952 245.462 215.643 245.468 216.328C245.468 217.711 245.595 219.082 245.658 220.458C245.658 221.149 245.75 221.835 245.814 222.52L245.998 224.582L246.465 228.701C246.24 227.336 246.015 225.971 245.814 224.605L245.578 222.543C245.503 221.858 245.416 221.172 245.37 220.481C245.261 219.105 245.157 217.722 245.128 216.34C245.128 215.649 245.071 214.957 245.077 214.266V212.187C245.133 209.416 245.348 206.65 245.722 203.904C246.086 201.157 246.731 198.455 247.646 195.84Z" fill="white"/>
<path d="M245.249 196.18C244.402 197.306 243.698 198.532 243.153 199.832C243.014 200.154 242.865 200.471 242.738 200.799L242.387 201.79L242.208 202.291C242.156 202.458 242.11 202.625 242.064 202.798L241.782 203.812C241.104 206.539 240.783 209.343 240.826 212.152L240.872 214.255L241.073 216.357L241.177 217.405C241.229 217.751 241.298 218.097 241.356 218.442L241.713 220.522C241.77 220.869 241.845 221.213 241.937 221.553L242.185 222.578L242.686 224.634L243.936 228.666C243.446 227.341 242.986 226.005 242.508 224.675L241.932 222.624L241.655 221.604C241.563 221.259 241.465 220.919 241.407 220.568L241.016 218.483C240.952 218.137 240.883 217.786 240.826 217.44L240.716 216.38L240.492 214.266L240.428 212.141C240.401 209.301 240.755 206.471 241.482 203.725L241.793 202.706C241.845 202.539 241.891 202.366 241.949 202.199L242.139 201.704L242.519 200.707C242.657 200.385 242.813 200.062 242.963 199.745C243.566 198.462 244.335 197.264 245.249 196.18Z" fill="white"/>
<path d="M243.487 196.658C242.384 197.577 241.414 198.645 240.607 199.832C239.784 200.999 239.098 202.257 238.562 203.581C237.489 206.225 236.943 209.052 236.955 211.905C236.955 212.619 236.989 213.327 237.012 214.036C237.036 214.744 237.128 215.459 237.249 216.161L237.41 217.221L237.629 218.264C237.698 218.615 237.773 218.966 237.865 219.312L238.124 220.349C238.308 221.04 238.533 221.72 238.735 222.405L239.455 224.421L240.25 226.42L241.125 228.384C239.776 225.848 238.692 223.181 237.888 220.424C237.704 219.732 237.485 219.041 237.352 218.333L237.128 217.279L236.955 216.213C236.822 215.505 236.782 214.779 236.696 214.065C236.609 213.35 236.604 212.625 236.627 211.899C236.629 209 237.217 206.132 238.355 203.466C238.926 202.141 239.649 200.887 240.509 199.728C240.939 199.15 241.404 198.6 241.903 198.081C242.387 197.56 242.917 197.083 243.487 196.658Z" fill="white"/>
<path d="M251.136 195.84C252.054 198.454 252.698 201.157 253.06 203.904C253.44 206.646 253.659 209.408 253.716 212.175V214.272C253.716 214.963 253.682 215.654 253.665 216.346C253.636 217.734 253.532 219.11 253.423 220.487C253.382 221.178 253.296 221.864 253.215 222.555L252.979 224.611C252.78 225.982 252.563 227.347 252.328 228.707L252.801 224.594L252.979 222.532C253.043 221.846 253.112 221.155 253.135 220.47C253.204 219.093 253.313 217.716 253.325 216.34C253.325 215.649 253.371 214.957 253.359 214.272V212.204C253.311 209.448 253.119 206.697 252.783 203.962C252.611 202.596 252.409 201.231 252.132 199.884C251.882 198.517 251.55 197.166 251.136 195.84Z" fill="white"/>
<path d="M253.526 196.197C254.434 197.285 255.195 198.488 255.79 199.774C255.94 200.097 256.095 200.413 256.234 200.742L256.614 201.732L256.804 202.228C256.862 202.395 256.908 202.568 256.959 202.735L257.27 203.754C257.998 206.501 258.353 209.334 258.325 212.175L258.261 214.301L258.042 216.415L257.927 217.469C257.875 217.82 257.8 218.166 257.737 218.517L257.345 220.602C257.281 220.95 257.198 221.294 257.098 221.633L256.821 222.659L256.245 224.703C255.773 226.04 255.306 227.37 254.822 228.695L256.067 224.663L256.568 222.612L256.821 221.587C256.902 221.242 256.994 220.902 257.04 220.556L257.397 218.477C257.455 218.125 257.524 217.78 257.576 217.434L257.679 216.386L257.881 214.289L257.927 212.181C257.97 209.371 257.648 206.568 256.971 203.841L256.689 202.827C256.643 202.66 256.597 202.487 256.545 202.32L256.372 201.825L256.015 200.828C255.888 200.506 255.738 200.189 255.6 199.86C255.063 198.558 254.366 197.328 253.526 196.197Z" fill="white"/>
<path d="M255.289 196.675C255.867 197.101 256.407 197.577 256.902 198.098C257.4 198.617 257.866 199.168 258.296 199.745C259.158 200.906 259.882 202.162 260.456 203.489C261.591 206.156 262.179 209.024 262.184 211.922C262.184 212.642 262.143 213.362 262.109 214.082C262.074 214.802 261.982 215.522 261.85 216.23L261.683 217.296L261.452 218.356C261.32 219.064 261.101 219.75 260.917 220.447C260.098 223.202 259.002 225.867 257.645 228.401L258.515 226.437L259.315 224.444L260.03 222.422C260.231 221.737 260.462 221.057 260.64 220.366L260.899 219.329C260.997 218.984 261.072 218.638 261.135 218.287L261.354 217.238L261.516 216.179C261.642 215.476 261.677 214.767 261.752 214.059C261.827 213.35 261.832 212.636 261.809 211.922C261.823 209.069 261.277 206.241 260.202 203.599C259.666 202.278 258.982 201.022 258.163 199.855C257.357 198.667 256.39 197.597 255.289 196.675Z" fill="white"/>
<path d="M248.458 205.661C248.9 206.253 249.307 206.871 249.679 207.51H249.454C249.667 207.135 249.886 206.767 250.111 206.41C250.226 206.225 250.341 206.047 250.462 205.868C250.583 205.69 250.704 205.517 250.837 205.344C250.762 205.546 250.664 205.741 250.577 205.92C250.491 206.099 250.393 206.306 250.295 206.496C250.099 206.876 249.892 207.251 249.679 207.648L249.564 207.844L249.454 207.648C249.083 207.006 248.75 206.342 248.458 205.661Z" fill="white"/>
<path d="M249.477 204.705C249.678 205.652 249.709 206.627 249.569 207.585C249.361 206.639 249.329 205.662 249.477 204.705Z" fill="white"/>
<path d="M258.048 195.84C258.091 196.579 258.091 197.319 258.048 198.058L257.858 197.937C258.238 197.735 258.618 197.545 259.01 197.361C259.198 197.268 259.39 197.182 259.586 197.101C259.782 197.021 259.978 196.934 260.162 196.865C259.983 196.992 259.805 197.101 259.621 197.222L259.073 197.551C258.699 197.758 258.325 197.965 257.921 198.156L257.72 198.259V198.035C257.789 197.298 257.899 196.565 258.048 195.84Z" fill="white"/>
<path d="M259.413 195.615C259.246 196.067 259.036 196.501 258.785 196.911C258.542 197.324 258.256 197.71 257.933 198.063C258.096 197.612 258.307 197.18 258.561 196.773C258.804 196.359 259.09 195.971 259.413 195.615Z" fill="white"/>
<path d="M255.744 202.481C256.117 203.119 256.452 203.779 256.746 204.457H256.522C256.775 204.111 257.034 203.772 257.299 203.437C257.437 203.27 257.57 203.103 257.714 202.942C257.858 202.781 257.996 202.62 258.146 202.464C258.042 202.654 257.927 202.838 257.818 203.04C257.708 203.242 257.587 203.403 257.472 203.581C257.23 203.933 256.988 204.284 256.729 204.624L256.597 204.803L256.51 204.601C256.212 203.91 255.957 203.203 255.744 202.481Z" fill="white"/>
<path d="M256.896 201.652C256.945 202.131 256.945 202.613 256.896 203.092C256.865 203.572 256.782 204.047 256.648 204.509C256.549 203.542 256.631 202.565 256.89 201.629L256.896 201.652Z" fill="white"/>
<path d="M251.585 224.335C252.029 224.926 252.437 225.543 252.806 226.184H252.588C252.795 225.809 253.014 225.441 253.238 225.084C253.354 224.899 253.469 224.721 253.59 224.542C253.711 224.364 253.837 224.191 253.97 224.018C253.889 224.22 253.797 224.415 253.711 224.594L253.423 225.17C253.227 225.55 253.025 225.924 252.806 226.293L252.697 226.489L252.588 226.293C252.215 225.661 251.881 225.007 251.585 224.335Z" fill="white"/>
<path d="M252.605 223.379C252.71 223.848 252.769 224.326 252.783 224.807C252.803 225.289 252.774 225.771 252.697 226.247C252.488 225.301 252.457 224.324 252.605 223.367V223.379Z" fill="white"/>
<path d="M241.857 199.129C242.109 199.823 242.32 200.53 242.49 201.249L242.277 201.185C242.588 200.886 242.899 200.609 243.222 200.316L243.717 199.907C243.884 199.774 244.051 199.636 244.224 199.509C244.092 199.682 243.948 199.837 243.809 200.004L243.372 200.471C243.072 200.774 242.767 201.074 242.456 201.37L242.289 201.519L242.243 201.306C242.068 200.589 241.939 199.862 241.857 199.129Z" fill="white"/>
<path d="M243.107 198.507C243.073 198.986 242.992 199.461 242.865 199.924C242.742 200.389 242.576 200.843 242.369 201.277C242.4 200.796 242.481 200.319 242.611 199.855C242.728 199.389 242.894 198.937 243.107 198.507Z" fill="white"/>
<path d="M264.586 207.095C264.55 207.832 264.471 208.567 264.349 209.295L264.182 209.151C264.58 208.996 264.983 208.852 265.386 208.719L265.997 208.529L266.625 208.362C266.435 208.472 266.239 208.558 266.049 208.656L265.473 208.921C265.081 209.088 264.684 209.244 264.28 209.393L264.073 209.468L264.113 209.255C264.225 208.526 264.383 207.804 264.586 207.095Z" fill="white"/>
<path d="M265.98 207.003C265.764 207.434 265.503 207.842 265.202 208.218C264.912 208.602 264.584 208.955 264.223 209.272C264.442 208.843 264.702 208.436 265 208.057C265.29 207.673 265.618 207.32 265.98 207.003Z" fill="white"/>
<path d="M244.224 215.228C244.672 215.815 245.085 216.426 245.462 217.06H245.244C245.445 216.685 245.658 216.317 245.883 215.948C245.998 215.77 246.108 215.585 246.228 215.407C246.349 215.228 246.465 215.055 246.597 214.883C246.522 215.084 246.43 215.274 246.344 215.459C246.257 215.643 246.165 215.844 246.067 216.035C245.877 216.42 245.676 216.795 245.491 217.187L245.376 217.377L245.267 217.187C244.879 216.556 244.531 215.902 244.224 215.228Z" fill="white"/>
<path d="M245.249 214.272C245.469 215.216 245.512 216.192 245.376 217.152C245.164 216.207 245.121 215.232 245.249 214.272Z" fill="white"/>
<path d="M236.604 220.124C237.249 220.496 237.87 220.908 238.464 221.357L238.257 221.443C238.308 221.017 238.366 220.596 238.441 220.17C238.476 219.963 238.516 219.75 238.556 219.542C238.596 219.335 238.643 219.122 238.7 218.915C238.7 219.128 238.7 219.347 238.7 219.56C238.7 219.773 238.7 219.986 238.66 220.199C238.625 220.625 238.579 221.052 238.522 221.472L238.493 221.697L238.32 221.558C237.72 221.115 237.147 220.636 236.604 220.124Z" fill="white"/>
<path d="M237.174 218.845C237.726 219.637 238.128 220.524 238.36 221.46C238.083 221.066 237.846 220.646 237.652 220.205C237.446 219.77 237.285 219.314 237.174 218.845Z" fill="white"/>
<path d="M234.708 200.701C235.402 200.959 236.079 201.259 236.736 201.6L236.552 201.721C236.523 201.295 236.5 200.868 236.494 200.442C236.494 200.229 236.494 200.016 236.494 199.797C236.494 199.578 236.494 199.371 236.494 199.158C236.54 199.365 236.569 199.578 236.604 199.791C236.638 200.004 236.661 200.212 236.684 200.425C236.73 200.851 236.771 201.277 236.794 201.704V201.928L236.598 201.83C235.946 201.493 235.315 201.116 234.708 200.701Z" fill="white"/>
<path d="M235.008 199.342C235.356 199.675 235.671 200.042 235.947 200.436C236.228 200.829 236.471 201.248 236.673 201.686C236.324 201.353 236.01 200.987 235.734 200.592C235.453 200.199 235.21 199.781 235.008 199.342Z" fill="white"/>
<path d="M260.79 214.739C261.175 215.369 261.523 216.021 261.832 216.691H261.613C261.855 216.34 262.103 215.994 262.368 215.66C262.495 215.487 262.627 215.32 262.765 215.153C262.904 214.986 263.042 214.825 263.192 214.669C263.094 214.865 262.984 215.044 262.875 215.245L262.541 215.793C262.31 216.15 262.069 216.507 261.821 216.852L261.688 217.037L261.602 216.829C261.288 216.15 261.017 215.452 260.79 214.739Z" fill="white"/>
<path d="M261.896 213.88C261.955 214.358 261.969 214.84 261.936 215.32C261.912 215.801 261.838 216.277 261.717 216.743C261.601 215.78 261.662 214.804 261.896 213.863V213.88Z" fill="white"/>
<path d="M236.702 227.157H261.832L259.304 248.17H239.23L236.702 227.157Z" fill="#455A64"/>
<path d="M236.702 227.157L237.272 231.898L261.4 230.734L261.832 227.157H236.702Z" fill="#263238"/>
<path d="M263.416 224.502H235.123V228.257H263.416V224.502Z" fill="#455A64"/>
<path d="M21.145 248.17L51.8573 248.031L82.5697 247.98L144 247.882L205.425 247.98L236.143 248.031L266.855 248.17L236.143 248.314L205.425 248.365L144 248.458L82.5697 248.36L51.8573 248.314L21.145 248.17Z" fill="#263238"/>
<path d="M96.9466 101.67C110.897 102.09 124.595 132.693 115.955 143.827C107.315 154.961 96.2497 151.01 91.9354 158.481C90.0634 161.718 88.8596 159.028 85.1386 155.67C81.4176 152.312 66.3264 133.206 67.9392 122.504C69.552 111.802 83.9348 101.272 96.9466 101.67Z" fill="#263238"/>
<path d="M92.1082 155.641C99.3024 152.525 107.545 151.741 113.921 146.851C117.084 144.432 119.307 141.293 119.56 137.226C119.796 133.551 118.927 129.738 117.769 126.282C116.304 121.875 114.069 117.762 111.168 114.134C111.11 114.06 111.22 113.962 111.283 114.036C116.277 120.05 119.894 127.964 120.067 135.884C120.138 137.626 119.848 139.363 119.217 140.987C118.586 142.611 117.626 144.088 116.398 145.325C113.702 148.09 110.177 149.898 106.606 151.235C101.889 152.997 96.9581 154.115 92.2349 155.843C92.0794 155.889 91.9757 155.699 92.1082 155.641Z" fill="#263238"/>
<path d="M96.3821 177.696C114.866 199.233 145.803 225.752 156.246 219.744C165.041 214.669 172.103 182.408 172.195 172.212C172.236 167.604 140.648 157.127 140.59 162.086C140.527 167.328 139.438 182.045 138.724 181.809C136.42 181.071 130.084 177.074 107.562 166.303C95.04 160.284 84.1479 163.44 96.3821 177.696Z" fill="#EB9481"/>
<path d="M145.117 201.859C143.217 198.858 138.62 190.299 138.856 181.44C138.856 181.342 138.971 181.331 138.983 181.44C139.622 188.663 143.591 198.72 145.215 201.784C145.256 201.859 145.152 201.934 145.117 201.859Z" fill="#263238"/>
<path d="M119.918 205.972L130.142 175.404C130.142 175.404 109.043 164.321 96.9178 160.969C90.121 159.085 88.5716 164.339 91.5034 169.989C101.768 189.781 119.918 205.972 119.918 205.972Z" fill="#219ABF"/>
<path d="M119.918 205.972L130.142 175.404C130.142 175.404 109.043 164.321 96.9178 160.969C90.121 159.085 88.5716 164.339 91.5034 169.989C101.768 189.781 119.918 205.972 119.918 205.972Z" fill="#219ABF"/>
<path opacity="0.1" d="M117.291 182.125C117.228 182.004 117.12 181.91 116.991 181.865C116.861 181.82 116.719 181.827 116.594 181.884L113.656 183.318C113.633 183.327 113.611 183.341 113.593 183.358C113.593 183.358 113.553 183.393 113.53 183.41L113.489 183.462C113.489 183.462 113.489 183.462 113.489 183.491V183.542V183.577C113.489 183.577 113.489 183.612 113.489 183.629C113.488 183.646 113.488 183.663 113.489 183.681C113.489 183.681 113.489 183.681 113.489 183.727C113.489 183.773 113.489 183.761 113.489 183.779C113.485 183.792 113.485 183.806 113.489 183.819C113.484 183.842 113.484 183.865 113.489 183.888C113.489 183.888 113.489 183.934 113.489 183.946L114.883 186.906C114.95 187.029 115.058 187.123 115.188 187.171C115.312 187.22 115.45 187.22 115.574 187.171C115.637 187.143 115.693 187.102 115.739 187.052C115.785 187.001 115.821 186.942 115.844 186.878C115.867 186.813 115.877 186.745 115.873 186.677C115.869 186.608 115.852 186.542 115.822 186.48L114.641 183.992L117.112 182.794C117.218 182.723 117.295 182.616 117.327 182.493C117.36 182.37 117.347 182.24 117.291 182.125ZM121.738 183.583C121.696 183.54 121.646 183.507 121.591 183.484C121.536 183.461 121.477 183.449 121.418 183.449C121.358 183.449 121.3 183.461 121.245 183.484C121.19 183.507 121.14 183.54 121.098 183.583L117.642 187.413C117.601 187.457 117.57 187.508 117.549 187.565C117.529 187.621 117.52 187.68 117.523 187.74C117.526 187.8 117.542 187.858 117.568 187.912C117.594 187.966 117.631 188.014 117.677 188.053C117.718 188.091 117.767 188.12 117.821 188.139C117.905 188.167 117.995 188.17 118.08 188.149C118.166 188.127 118.244 188.082 118.305 188.018L121.761 184.176C121.832 184.092 121.869 183.985 121.865 183.875C121.861 183.765 121.815 183.661 121.738 183.583ZM124.871 187.413C124.873 187.384 124.873 187.355 124.871 187.327C124.863 187.302 124.851 187.279 124.836 187.258L123.443 184.297C123.379 184.175 123.272 184.082 123.142 184.037C123.013 183.992 122.871 183.998 122.746 184.055C122.684 184.084 122.628 184.125 122.583 184.176C122.537 184.226 122.502 184.285 122.479 184.35C122.457 184.414 122.447 184.482 122.452 184.55C122.456 184.619 122.473 184.685 122.504 184.746L123.656 187.235L121.185 188.433C121.122 188.462 121.066 188.503 121.02 188.554C120.973 188.605 120.938 188.664 120.915 188.729C120.892 188.794 120.882 188.863 120.885 188.932C120.889 189 120.907 189.068 120.937 189.13C120.999 189.251 121.107 189.344 121.236 189.389C121.299 189.416 121.367 189.43 121.435 189.43C121.503 189.43 121.571 189.416 121.634 189.389L124.571 187.949C124.598 187.941 124.623 187.929 124.646 187.914L124.71 187.857L124.756 187.799V187.741V187.707C124.759 187.692 124.759 187.676 124.756 187.661C124.757 187.644 124.757 187.626 124.756 187.609C124.756 187.609 124.756 187.609 124.756 187.58C124.756 187.551 124.756 187.534 124.756 187.505L124.871 187.413ZM90.1036 164.65C90.146 164.674 90.1931 164.69 90.2419 164.696C90.3776 164.716 90.5157 164.683 90.6278 164.604C90.7398 164.524 90.8163 164.404 90.8409 164.269L91.2614 161.683C90.5047 162.484 90.0894 163.548 90.1036 164.65ZM104.884 174.874L102.177 174.407L102.62 171.688C102.635 171.556 102.6 171.423 102.521 171.316C102.442 171.209 102.325 171.136 102.194 171.112C102.062 171.098 101.93 171.134 101.823 171.213C101.716 171.292 101.643 171.408 101.618 171.539L101.094 174.77C101.088 174.795 101.088 174.82 101.094 174.845C101.091 174.874 101.091 174.902 101.094 174.931C101.094 174.931 101.094 174.966 101.094 174.995C101.094 175.023 101.094 174.995 101.094 175.029L101.128 175.075V175.116C101.128 175.116 101.128 175.116 101.163 175.15V175.196C101.163 175.196 101.163 175.196 101.203 175.196C101.243 175.196 101.203 175.196 101.243 175.196C101.25 175.2 101.257 175.202 101.264 175.202C101.271 175.202 101.278 175.2 101.284 175.196C101.301 175.213 101.32 175.226 101.341 175.237H101.37C101.38 175.242 101.391 175.245 101.402 175.245C101.413 175.245 101.424 175.242 101.434 175.237L104.653 175.813C104.791 175.828 104.931 175.793 105.045 175.715C105.1 175.677 105.147 175.628 105.182 175.572C105.218 175.515 105.242 175.452 105.252 175.386C105.257 175.272 105.223 175.159 105.156 175.066C105.09 174.974 104.994 174.906 104.884 174.874ZM107.608 173.687L106.456 168.636C106.431 168.521 106.362 168.421 106.264 168.358C106.166 168.294 106.047 168.272 105.932 168.296C105.815 168.322 105.712 168.394 105.647 168.495C105.583 168.597 105.561 168.72 105.587 168.837L106.739 173.883C106.751 173.941 106.774 173.996 106.809 174.045C106.843 174.094 106.887 174.135 106.937 174.167C106.988 174.198 107.044 174.218 107.103 174.227C107.162 174.236 107.222 174.232 107.28 174.217C107.335 174.206 107.386 174.182 107.43 174.148C107.502 174.097 107.557 174.027 107.589 173.945C107.621 173.863 107.628 173.773 107.608 173.687ZM111.139 168.301C111.139 168.301 111.139 168.301 111.139 168.273C111.139 168.244 111.139 168.238 111.139 168.204L111.099 168.152C111.098 168.138 111.098 168.125 111.099 168.111H111.064L111.03 168.065C111.007 168.053 110.985 168.037 110.966 168.019L110.891 167.985C110.865 167.981 110.838 167.981 110.811 167.985L107.591 167.409C107.459 167.395 107.327 167.431 107.22 167.51C107.113 167.589 107.04 167.705 107.015 167.835C106.997 167.968 107.031 168.102 107.111 168.21C107.19 168.317 107.309 168.39 107.441 168.411L110.154 168.877L109.705 171.596C109.69 171.728 109.725 171.861 109.804 171.968C109.883 172.075 110 172.148 110.131 172.172C110.267 172.192 110.405 172.159 110.517 172.08C110.625 171.997 110.701 171.879 110.73 171.746L111.254 168.515C111.257 168.488 111.257 168.461 111.254 168.434C111.218 168.395 111.189 168.35 111.168 168.301H111.139Z" fill="#030402"/>
<path opacity="0.1" d="M127.82 182.333L119.912 205.949C119.912 205.949 101.768 189.757 91.5033 169.966C90.4089 167.852 89.9366 165.802 90.1324 164.148L127.82 182.333Z" fill="black"/>
<path d="M124.992 174.856C123.028 179.43 118.08 191.987 115.903 200.569C115.903 200.621 116.076 200.696 116.099 200.644C118.979 193.778 123.713 179.689 125.274 174.966C125.286 174.879 124.992 174.77 124.992 174.856Z" fill="#263238"/>
<path d="M162.467 181.693C159.011 183.421 140.63 168.889 140.515 164.943C140.435 162.196 140.953 150.451 138.326 143.136C136.138 136.984 132.175 128.102 135.446 126.801C140.198 124.888 146.557 135.516 149.846 141.84C151.966 138.597 154.097 136.011 155.889 134.957C161.85 131.46 180.847 156.067 178.353 162.634C175.91 168.964 165.888 179.965 162.467 181.693Z" fill="#EB9481"/>
<path d="M153.895 125.9L148.916 128.197L160.599 153.516L165.578 151.219L153.895 125.9Z" fill="#C7C7C7"/>
<path d="M174.931 168.134L167.397 171.608L157.041 149.161L164.575 145.688L174.931 168.134Z" fill="#263238"/>
<path d="M147.779 142.18C148.412 145.717 152.214 142.94 152.214 142.94C152.214 142.94 147.709 148.251 149.772 151.638C151.776 154.898 156.246 151.384 156.568 151.137C156.332 151.419 152.323 156.413 154.748 159.598C157.271 162.916 161.153 158.619 161.407 158.337C161.269 158.677 159.506 163.164 161.902 165.168C166.021 168.624 170.836 157.26 174.931 155.797C174.931 155.797 178.197 162.455 178.33 162.628C178.33 162.628 183.133 151.914 180.858 146.5C180.54 145.707 179.961 145.046 179.216 144.627C178.471 144.208 177.606 144.056 176.763 144.196C176.763 144.196 178.693 140.913 176.861 138.344C175.916 137.025 172.967 137.359 172.967 137.359C172.967 137.359 174.407 134.669 172.633 132.48C171.222 130.752 168.486 131.328 168.486 131.328C168.486 131.328 168.664 128.108 166.643 126.783C162.576 124.14 146.413 134.611 147.779 142.18Z" fill="#EB9481"/>
<path d="M168.036 131.386C168.094 131.351 168.036 131.27 168.002 131.288C161.844 133.436 155.739 137.687 151.989 143.067C151.868 143.245 152.104 143.522 152.277 143.349C157.196 138.54 161.954 134.669 168.036 131.386Z" fill="#263238"/>
<path d="M173.03 137.29C173.094 137.249 173.03 137.14 172.961 137.169C166.625 139.415 159.886 144.386 156.298 151.102C156.171 151.332 156.298 151.678 156.453 151.407C159.178 147.122 167.535 140.216 173.03 137.29Z" fill="#263238"/>
<path d="M161.315 158.895C165.007 152.588 170.346 148.101 176.492 144.282C176.573 144.236 176.492 144.127 176.417 144.15C172.904 145.198 169.235 148.044 166.573 150.486C164.058 152.716 162.169 155.565 161.096 158.751C161.055 158.89 161.24 159.028 161.315 158.895Z" fill="#263238"/>
<path d="M152.093 142.94C151.943 143.153 152.415 143.136 152.277 143.349C151.701 144.265 148.596 150.054 150.238 151.718C151.563 153.049 154.27 152.197 155.18 151.459L157.484 149.61L155.981 152.145C155.301 153.263 154.806 154.485 154.518 155.762C154.259 157.012 154.328 158.331 155.03 159.247C155.337 159.72 155.796 160.073 156.332 160.247C156.868 160.421 157.448 160.406 157.974 160.203C159.144 159.729 160.173 158.963 160.963 157.98L163.267 155.336L161.983 158.561C161.626 159.46 161.386 160.401 161.269 161.361C161.116 162.264 161.236 163.193 161.614 164.028C161.8 164.396 162.085 164.706 162.437 164.922C162.789 165.138 163.194 165.251 163.607 165.249C164.528 165.11 165.39 164.71 166.09 164.097C167.629 162.79 169.062 161.363 170.375 159.829C171.066 159.08 171.757 158.325 172.489 157.599C173.183 156.836 174.028 156.226 174.972 155.808C174.091 156.316 173.319 156.991 172.696 157.795C172.028 158.561 171.4 159.362 170.767 160.163C169.536 161.829 168.147 163.372 166.62 164.771C165.806 165.541 164.785 166.058 163.682 166.257C163.071 166.299 162.46 166.162 161.926 165.863C161.392 165.563 160.957 165.113 160.675 164.569C160.179 163.546 159.997 162.4 160.151 161.274C160.266 160.203 160.52 159.152 160.906 158.147L161.902 158.723C160.986 159.903 159.777 160.823 158.394 161.389C157.619 161.683 156.766 161.697 155.981 161.43C155.22 161.143 154.563 160.633 154.097 159.967C153.684 159.319 153.413 158.59 153.302 157.83C153.191 157.069 153.242 156.294 153.452 155.555C153.786 154.153 154.348 152.816 155.117 151.597L155.9 152.283C154.708 153.181 151.788 154.466 149.478 152.657C146.782 149.829 151.206 143.96 152.093 142.94Z" fill="#263238"/>
<path d="M152.214 142.94C151.543 143.253 150.828 143.46 150.094 143.556C149.801 143.603 149.501 143.57 149.225 143.46C148.95 143.351 148.709 143.169 148.527 142.934C148.197 142.368 148.039 141.717 148.072 141.062C148.072 140.337 148.113 139.576 148.182 138.793C147.736 139.456 147.433 140.206 147.295 140.993C147.194 141.423 147.18 141.868 147.252 142.302C147.324 142.737 147.482 143.154 147.715 143.528C148.006 143.912 148.409 144.197 148.867 144.346C149.309 144.473 149.779 144.473 150.221 144.346C151.019 144.103 151.718 143.611 152.214 142.94Z" fill="#263238"/>
<path d="M31.4381 247.853L118.189 247.68L113.391 217.849C113.391 217.849 120.252 209.526 118.956 200.494C117.533 190.598 99.6883 165.519 98.1908 164.102C92.1485 158.435 85.7549 157.421 79.6147 159.466C51.264 177.264 31.4381 247.853 31.4381 247.853Z" fill="#219ABF"/>
<path d="M99.648 215.539C96.0982 215.852 92.5768 216.43 89.1129 217.267C87.3849 217.705 85.7145 218.223 84.0326 218.776C83.1917 219.053 82.3507 219.3 81.504 219.542C80.6236 219.822 79.7127 219.994 78.791 220.055C78.7742 220.055 78.7581 220.062 78.7462 220.074C78.7343 220.085 78.7277 220.102 78.7277 220.118C78.7277 220.135 78.7343 220.151 78.7462 220.163C78.7581 220.175 78.7742 220.182 78.791 220.182C79.6628 220.224 80.5364 220.209 81.4061 220.136C82.2449 220.033 83.0762 219.875 83.8944 219.663C85.6224 219.231 87.3504 218.725 89.0784 218.275C92.592 217.377 96.0998 216.472 99.6653 215.827C99.8726 215.804 99.8323 215.522 99.648 215.539Z" fill="#263238"/>
<path d="M108.432 218.684C105.509 218.375 102.57 218.233 99.6308 218.258C98.162 218.258 96.7047 218.379 95.2359 218.523C94.5389 218.592 93.842 218.673 93.145 218.759C92.448 218.845 91.6244 219.059 90.841 219.145C90.7604 219.145 90.7604 219.277 90.841 219.272C91.5668 219.208 92.3098 219.272 93.0356 219.272L95.2301 219.214C96.6989 219.18 98.162 219.156 99.6308 219.11C102.563 219.007 105.483 218.938 108.421 218.943C108.593 218.926 108.582 218.696 108.432 218.684Z" fill="#263238"/>
<path opacity="0.1" d="M83.6582 208.356C83.5962 208.234 83.4892 208.139 83.3594 208.093C83.2296 208.047 83.087 208.053 82.9613 208.109L80.0237 209.549C79.9983 209.554 79.9757 209.568 79.9603 209.589C79.9603 209.589 79.92 209.629 79.897 209.647L79.8566 209.704V209.762V209.797C79.8566 209.797 79.8566 209.831 79.8566 209.843V209.9C79.8566 209.9 79.8566 209.9 79.8566 209.94C79.8566 209.981 79.8566 209.975 79.8566 209.992C79.8518 210.005 79.8518 210.02 79.8566 210.033C79.851 210.055 79.851 210.079 79.8566 210.102C79.8566 210.131 79.8566 210.148 79.8566 210.165L81.2506 213.126C81.3155 213.248 81.4247 213.341 81.5558 213.385C81.617 213.41 81.6826 213.424 81.7488 213.424C81.815 213.424 81.8806 213.41 81.9418 213.385C82.0042 213.356 82.0602 213.315 82.1066 213.264C82.153 213.213 82.1887 213.153 82.2118 213.088C82.2348 213.024 82.2447 212.955 82.2409 212.886C82.2371 212.817 82.2196 212.75 82.1894 212.688L81.0374 210.205L83.5085 209.002C83.6048 208.928 83.6725 208.824 83.6998 208.706C83.7272 208.588 83.7125 208.465 83.6582 208.356ZM88.105 209.814C88.0632 209.771 88.0134 209.738 87.9585 209.715C87.9036 209.692 87.8448 209.68 87.7853 209.68C87.7258 209.68 87.6669 209.692 87.612 209.715C87.5572 209.738 87.5074 209.771 87.4656 209.814L84.0096 213.65C83.9689 213.693 83.9374 213.744 83.917 213.8C83.8966 213.856 83.8877 213.915 83.8909 213.974C83.8942 214.033 83.9094 214.091 83.9358 214.145C83.9621 214.198 83.999 214.245 84.0442 214.284C84.0859 214.322 84.1348 214.351 84.1882 214.37C84.2713 214.4 84.3613 214.405 84.4472 214.384C84.5331 214.364 84.6112 214.319 84.672 214.255L88.128 210.413C88.2041 210.332 88.2465 210.225 88.2465 210.113C88.2465 210.002 88.2041 209.895 88.128 209.814H88.105ZM91.2384 213.638C91.2404 213.612 91.2404 213.585 91.2384 213.558C91.2317 213.531 91.22 213.505 91.2038 213.483L89.8099 210.522C89.7469 210.4 89.6394 210.307 89.5097 210.262C89.38 210.217 89.238 210.224 89.113 210.28C89.051 210.31 88.9956 210.351 88.9498 210.403C88.904 210.454 88.8689 210.513 88.8464 210.578C88.8239 210.643 88.8145 210.712 88.8187 210.78C88.8229 210.849 88.8407 210.916 88.871 210.977L90.0518 213.46L87.575 214.664C87.4514 214.723 87.3565 214.83 87.3112 214.959C87.2658 215.089 87.2737 215.231 87.3331 215.355C87.3955 215.478 87.5027 215.573 87.6326 215.62C87.7609 215.667 87.9018 215.667 88.0301 215.62L90.9677 214.18C90.9941 214.172 91.0193 214.16 91.0426 214.145C91.0661 214.129 91.0874 214.11 91.1059 214.088L91.152 214.024C91.1544 214.003 91.1544 213.982 91.152 213.961C91.1537 213.95 91.1537 213.938 91.152 213.926C91.152 213.926 91.152 213.892 91.152 213.886V213.828C91.152 213.828 91.152 213.777 91.152 213.748C91.152 213.719 91.2384 213.65 91.2384 213.638ZM46.1203 211.444C46.0352 211.36 45.9203 211.313 45.8006 211.313C45.681 211.313 45.5661 211.36 45.481 211.444L43.4765 213.696C43.1482 214.479 42.8314 215.251 42.5203 216C42.5801 215.976 42.6335 215.939 42.6758 215.891L46.1318 212.049C46.2081 211.966 46.2495 211.857 46.2473 211.744C46.2452 211.631 46.1997 211.524 46.1203 211.444ZM49.2422 215.188C49.2331 215.162 49.2216 215.137 49.2077 215.113L47.808 212.141C47.746 212.018 47.6389 211.924 47.5091 211.877C47.3793 211.831 47.2368 211.837 47.111 211.893C47.0491 211.923 46.9936 211.964 46.9479 212.015C46.9021 212.067 46.8669 212.126 46.8444 212.191C46.8219 212.256 46.8125 212.325 46.8168 212.393C46.821 212.462 46.8388 212.529 46.8691 212.59L48.0211 215.073L45.5443 216.277C45.4824 216.306 45.4269 216.348 45.3811 216.399C45.3354 216.45 45.3002 216.51 45.2777 216.574C45.2552 216.639 45.2458 216.708 45.25 216.776C45.2543 216.845 45.2721 216.912 45.3024 216.973C45.365 217.095 45.4723 217.188 45.6019 217.233C45.7279 217.282 45.8676 217.282 45.9936 217.233L48.937 215.793C48.9621 215.786 48.9856 215.774 49.0061 215.758L49.0694 215.706L49.1155 215.643C49.1179 215.622 49.1179 215.601 49.1155 215.58V215.545C49.1155 215.545 49.1155 215.51 49.1155 215.505V215.453C49.1186 215.443 49.1186 215.433 49.1155 215.424C49.1126 215.399 49.1126 215.374 49.1155 215.349C49.1155 215.349 49.2422 215.222 49.2422 215.188ZM110.016 240.941C109.953 240.82 109.847 240.728 109.718 240.683C109.59 240.638 109.449 240.644 109.325 240.699L106.387 242.139C106.362 242.146 106.339 242.157 106.318 242.173C106.318 242.173 106.278 242.214 106.255 242.231L106.22 242.289C106.22 242.289 106.22 242.289 106.191 242.289V242.346V242.381C106.191 242.381 106.191 242.415 106.191 242.427V242.485C106.191 242.485 106.191 242.484 106.191 242.525C106.191 242.565 106.191 242.559 106.191 242.577C106.188 242.583 106.186 242.59 106.186 242.597C106.186 242.604 106.188 242.611 106.191 242.617C106.188 242.64 106.188 242.663 106.191 242.686C106.187 242.696 106.185 242.707 106.185 242.718C106.185 242.729 106.187 242.739 106.191 242.749L107.591 245.704C107.621 245.767 107.664 245.823 107.716 245.868C107.769 245.914 107.83 245.948 107.896 245.969C107.957 245.995 108.023 246.008 108.089 246.008C108.156 246.008 108.221 245.995 108.282 245.969C108.344 245.94 108.4 245.898 108.445 245.847C108.491 245.796 108.526 245.736 108.549 245.671C108.571 245.607 108.581 245.538 108.577 245.469C108.572 245.401 108.554 245.334 108.524 245.272L107.372 242.79L109.849 241.586C109.948 241.515 110.019 241.412 110.05 241.294C110.08 241.176 110.068 241.051 110.016 240.941ZM114.468 242.404C114.427 242.362 114.377 242.328 114.322 242.305C114.267 242.282 114.208 242.27 114.149 242.27C114.089 242.27 114.03 242.282 113.976 242.305C113.921 242.328 113.871 242.362 113.829 242.404L110.373 246.24C110.333 246.284 110.302 246.335 110.282 246.391C110.262 246.447 110.253 246.506 110.257 246.565C110.261 246.625 110.277 246.683 110.304 246.736C110.331 246.789 110.368 246.836 110.413 246.874C110.454 246.913 110.503 246.943 110.557 246.96C110.64 246.99 110.729 246.995 110.814 246.975C110.899 246.954 110.976 246.909 111.036 246.845L114.492 243.003C114.564 242.918 114.601 242.809 114.596 242.698C114.59 242.586 114.543 242.481 114.463 242.404H114.468ZM117.585 246.148C117.576 246.122 117.564 246.097 117.55 246.073L116.145 243.072C116.083 242.95 115.976 242.858 115.848 242.812C115.719 242.767 115.578 242.774 115.453 242.83C115.392 242.86 115.336 242.901 115.29 242.952C115.245 243.003 115.209 243.063 115.187 243.128C115.164 243.193 115.155 243.262 115.159 243.33C115.163 243.399 115.181 243.465 115.212 243.527L116.364 246.01L113.887 247.213C113.804 247.251 113.734 247.311 113.683 247.386C113.632 247.461 113.603 247.549 113.599 247.64H115.384L117.274 246.718C117.3 246.71 117.325 246.698 117.348 246.684L117.412 246.626C117.423 246.602 117.438 246.58 117.458 246.563C117.46 246.542 117.46 246.52 117.458 246.499V246.465C117.458 246.465 117.458 246.43 117.458 246.424V246.367C117.455 246.34 117.455 246.313 117.458 246.286C117.504 246.246 117.545 246.199 117.579 246.148H117.585ZM68.1638 175.041C68.1018 174.918 67.9948 174.823 67.865 174.777C67.7352 174.731 67.5926 174.737 67.4669 174.793L64.512 176.256C64.4866 176.261 64.464 176.275 64.4486 176.296C64.4486 176.296 64.4083 176.337 64.3853 176.354L64.345 176.412V176.469C64.345 176.469 64.345 176.498 64.345 176.504C64.345 176.509 64.345 176.538 64.345 176.55V176.607C64.345 176.607 64.345 176.607 64.345 176.653C64.345 176.7 64.345 176.653 64.345 176.7C64.3401 176.713 64.3401 176.727 64.345 176.74C64.3393 176.763 64.3393 176.786 64.345 176.809V176.838C64.3399 176.847 64.3372 176.856 64.3372 176.867C64.3372 176.877 64.3399 176.887 64.345 176.895L65.7389 179.856C65.8038 179.978 65.913 180.071 66.0442 180.115C66.1053 180.141 66.1709 180.154 66.2371 180.154C66.3034 180.154 66.3689 180.141 66.4301 180.115C66.4925 180.086 66.5486 180.045 66.5949 179.994C66.6413 179.943 66.677 179.884 66.7001 179.819C66.7232 179.754 66.7331 179.685 66.7292 179.616C66.7254 179.547 66.7079 179.48 66.6778 179.418L65.5258 176.936L67.9968 175.732C68.1066 175.659 68.1843 175.547 68.2143 175.418C68.2442 175.29 68.2241 175.155 68.1581 175.041H68.1638ZM72.6106 176.498C72.5688 176.456 72.519 176.422 72.4641 176.399C72.4092 176.376 72.3504 176.364 72.2909 176.364C72.2314 176.364 72.1725 176.376 72.1176 176.399C72.0628 176.422 72.013 176.456 71.9712 176.498L68.5152 180.334C68.4745 180.377 68.443 180.428 68.4226 180.484C68.4022 180.54 68.3933 180.599 68.3965 180.658C68.3998 180.718 68.415 180.776 68.4414 180.829C68.4677 180.882 68.5046 180.929 68.5498 180.968C68.5915 181.006 68.6404 181.035 68.6938 181.054C68.7769 181.084 68.8669 181.089 68.9528 181.068C69.0387 181.048 69.1168 181.003 69.1776 180.939L72.6336 177.097C72.7059 177.012 72.7432 176.903 72.7379 176.792C72.7325 176.68 72.6849 176.575 72.6048 176.498H72.6106ZM75.744 180.323C75.746 180.296 75.746 180.269 75.744 180.242C75.7373 180.215 75.7256 180.19 75.7094 180.167L74.304 177.195C74.242 177.072 74.1349 176.978 74.0051 176.931C73.8753 176.885 73.7328 176.891 73.607 176.947C73.5451 176.977 73.4896 177.018 73.4439 177.069C73.3981 177.121 73.3629 177.18 73.3404 177.245C73.3179 177.31 73.3085 177.379 73.3128 177.447C73.317 177.516 73.3348 177.583 73.3651 177.644L74.5459 180.127L72.0749 181.331C72.0126 181.359 71.9567 181.4 71.9104 181.45C71.8641 181.5 71.8284 181.56 71.8053 181.624C71.7822 181.688 71.7722 181.757 71.776 181.825C71.7798 181.893 71.7972 181.96 71.8272 182.022C71.8571 182.084 71.899 182.139 71.9504 182.184C72.0018 182.23 72.0617 182.265 72.1267 182.287C72.255 182.334 72.3959 182.334 72.5242 182.287L75.4618 180.847C75.4882 180.839 75.5134 180.827 75.5366 180.812C75.5602 180.796 75.5815 180.776 75.6 180.755L75.6461 180.691V180.628V180.593C75.6461 180.593 75.6461 180.559 75.6461 180.553C75.6453 180.536 75.6453 180.518 75.6461 180.501C75.6461 180.467 75.6461 180.449 75.6461 180.426C75.6461 180.403 75.7382 180.334 75.7382 180.323H75.744ZM89.3261 192.632L87.2467 190.829L89.0266 188.732C89.0716 188.681 89.1059 188.621 89.1274 188.556C89.1489 188.491 89.1573 188.422 89.1519 188.354C89.1465 188.286 89.1276 188.22 89.0962 188.159C89.0647 188.098 89.0215 188.044 88.969 188.001C88.8632 187.914 88.728 187.872 88.5916 187.882C88.4553 187.893 88.3284 187.956 88.2374 188.058L86.1293 190.558C86.1074 190.571 86.091 190.591 86.0832 190.616C86.0832 190.616 86.0832 190.662 86.0486 190.691C86.0486 190.691 86.0486 190.731 86.0486 190.754C86.0486 190.777 86.0486 190.754 86.0486 190.788C86.0515 190.808 86.0515 190.827 86.0486 190.846C86.0486 190.846 86.0486 190.881 86.0486 190.886C86.0508 190.904 86.0508 190.921 86.0486 190.938C86.0522 190.955 86.0522 190.973 86.0486 190.99C86.0486 190.99 86.0486 190.99 86.0486 191.03C86.047 191.048 86.047 191.065 86.0486 191.082C86.0509 191.089 86.0547 191.095 86.0597 191.1C86.0647 191.105 86.0708 191.109 86.0774 191.111C86.0846 191.133 86.0943 191.154 86.1062 191.174C86.1062 191.203 86.1062 191.215 86.1523 191.22L88.6234 193.369C88.734 193.453 88.871 193.493 89.0093 193.484C89.0755 193.48 89.1401 193.462 89.1994 193.432C89.2587 193.403 89.3116 193.362 89.3549 193.311C89.4333 193.213 89.473 193.09 89.4667 192.965C89.4603 192.84 89.4082 192.721 89.3203 192.632H89.3261ZM93.6288 187.54C93.515 187.501 93.3905 187.509 93.2826 187.562C93.1747 187.615 93.0921 187.709 93.0528 187.822L91.4227 192.73C91.4022 192.787 91.3936 192.847 91.3975 192.908C91.4013 192.968 91.4175 193.027 91.445 193.081C91.4725 193.135 91.5108 193.183 91.5575 193.222C91.6042 193.26 91.6583 193.289 91.7165 193.306C91.7697 193.317 91.8246 193.317 91.8778 193.306C91.9657 193.299 92.0499 193.267 92.1204 193.214C92.1908 193.161 92.2446 193.089 92.2752 193.006L93.9053 188.093C93.9399 187.982 93.9298 187.862 93.877 187.759C93.8243 187.655 93.7331 187.577 93.623 187.54H93.6288ZM98.1043 189.988C98.1036 189.974 98.1036 189.961 98.1043 189.948V189.896C98.1043 189.896 98.1043 189.896 98.1043 189.867C98.0908 189.846 98.0811 189.822 98.0755 189.798C98.0755 189.798 98.0755 189.757 98.0294 189.729L97.9718 189.677L95.5008 187.534C95.3956 187.446 95.26 187.403 95.1233 187.414C94.9865 187.424 94.8594 187.488 94.7693 187.592C94.7239 187.643 94.6892 187.702 94.6672 187.767C94.6452 187.832 94.6364 187.9 94.6412 187.968C94.646 188.037 94.6644 188.103 94.6953 188.164C94.7262 188.225 94.769 188.279 94.8211 188.323L96.9062 190.12L95.1264 192.217C95.0574 192.294 95.0133 192.39 94.9998 192.492C94.9863 192.595 95.004 192.699 95.0507 192.791C95.0974 192.883 95.1709 192.959 95.2615 193.009C95.3521 193.058 95.4556 193.08 95.5584 193.069C95.695 193.059 95.8226 192.997 95.9155 192.897L98.0237 190.397C98.0443 190.379 98.0618 190.357 98.0755 190.333L98.1101 190.259C98.1101 190.259 98.1101 190.218 98.1101 190.184C98.1129 190.163 98.1129 190.141 98.1101 190.12C98.1101 190.12 98.1043 189.999 98.0986 189.988H98.1043ZM96.0653 230.918L93.9859 229.121L95.7658 227.025C95.8101 226.973 95.8437 226.913 95.8648 226.848C95.8859 226.783 95.894 226.715 95.8887 226.647C95.8833 226.579 95.8646 226.513 95.8336 226.452C95.8027 226.391 95.76 226.337 95.7082 226.293C95.602 226.205 95.4655 226.161 95.3278 226.172C95.1901 226.183 95.062 226.247 94.9709 226.351L92.8627 228.851C92.844 228.867 92.8283 228.886 92.8166 228.908C92.8017 228.931 92.7901 228.957 92.7821 228.983C92.7821 228.983 92.7821 229.029 92.7821 229.052C92.7821 229.075 92.7821 229.052 92.7821 229.087C92.7821 229.121 92.7821 229.127 92.7821 229.144C92.7821 229.162 92.7821 229.173 92.7821 229.185C92.7821 229.196 92.7821 229.213 92.7821 229.231C92.7795 229.25 92.7795 229.269 92.7821 229.288C92.7821 229.288 92.7821 229.288 92.7821 229.329C92.7821 229.369 92.7821 229.363 92.7821 229.375C92.7795 229.38 92.7782 229.386 92.7782 229.392C92.7782 229.398 92.7795 229.404 92.7821 229.409C92.7893 229.431 92.7989 229.453 92.8109 229.473C92.8109 229.473 92.8109 229.513 92.857 229.519L95.328 231.667C95.4386 231.751 95.5756 231.792 95.7139 231.782C95.8465 231.769 95.9695 231.708 96.0595 231.61C96.1434 231.514 96.1896 231.391 96.1896 231.264C96.1896 231.137 96.1434 231.014 96.0595 230.918H96.0653ZM100.368 225.832C100.312 225.812 100.252 225.804 100.192 225.807C100.133 225.811 100.074 225.826 100.021 225.853C99.9671 225.879 99.9193 225.916 99.88 225.961C99.8407 226.006 99.8108 226.058 99.792 226.115L98.1619 231.022C98.1404 231.079 98.1309 231.139 98.134 231.2C98.137 231.26 98.1526 231.319 98.1796 231.373C98.2067 231.427 98.2447 231.475 98.2912 231.514C98.3377 231.553 98.3918 231.581 98.4499 231.598C98.505 231.609 98.5619 231.609 98.617 231.598C98.7054 231.59 98.7898 231.557 98.8602 231.503C98.9305 231.449 98.9841 231.376 99.0144 231.293L100.639 226.38C100.673 226.27 100.664 226.152 100.612 226.049C100.561 225.947 100.471 225.869 100.362 225.832H100.368ZM104.844 228.28V228.24C104.844 228.24 104.844 228.2 104.844 228.182C104.832 228.16 104.823 228.137 104.815 228.113L104.769 228.044C104.752 228.022 104.73 228.005 104.705 227.992L102.182 225.792C102.076 225.707 101.941 225.665 101.805 225.676C101.669 225.687 101.543 225.749 101.451 225.85C101.361 225.955 101.317 226.092 101.327 226.23C101.338 226.368 101.403 226.497 101.508 226.587L103.588 228.384L101.808 230.481C101.742 230.559 101.7 230.655 101.688 230.757C101.676 230.859 101.695 230.962 101.742 231.053C101.789 231.145 101.862 231.22 101.951 231.27C102.041 231.32 102.143 231.342 102.246 231.333C102.381 231.323 102.506 231.261 102.597 231.16L104.711 228.655C104.73 228.637 104.747 228.618 104.763 228.597L104.797 228.522C104.793 228.497 104.793 228.472 104.797 228.447C104.797 228.447 104.797 228.401 104.797 228.378L104.844 228.28ZM55.607 188.928C55.6078 188.915 55.6078 188.901 55.607 188.888C55.607 188.888 55.607 188.847 55.607 188.83C55.5919 188.807 55.5803 188.782 55.5725 188.755L55.5264 188.686C55.5264 188.686 55.5264 188.652 55.4746 188.646C55.0771 189.36 54.6797 190.086 54.288 190.812L55.5206 189.348C55.5395 189.331 55.5568 189.311 55.5725 189.291C55.5806 189.264 55.5922 189.239 55.607 189.216C55.604 189.191 55.604 189.166 55.607 189.141C55.607 189.141 55.607 189.101 55.607 189.078V188.928ZM60.071 227.75L57.9917 225.953L59.7715 223.851C59.8158 223.799 59.8495 223.739 59.8706 223.674C59.8917 223.609 59.8998 223.541 59.8944 223.473C59.8891 223.405 59.8704 223.339 59.8394 223.278C59.8084 223.218 59.7658 223.164 59.7139 223.119C59.6072 223.032 59.471 222.99 59.3337 223.001C59.1965 223.011 59.0686 223.074 58.9766 223.177L56.8685 225.677C56.851 225.694 56.8356 225.714 56.8224 225.734C56.8064 225.757 56.7946 225.782 56.7878 225.809C56.7878 225.809 56.7878 225.85 56.7878 225.873C56.7878 225.896 56.7878 225.873 56.7878 225.907C56.785 225.926 56.785 225.946 56.7878 225.965V226.005C56.7878 226.034 56.7878 226.04 56.7878 226.057C56.7857 226.076 56.7857 226.095 56.7878 226.115C56.7878 226.115 56.7878 226.115 56.7878 226.149C56.7878 226.184 56.7878 226.184 56.7878 226.201C56.7857 226.222 56.7857 226.243 56.7878 226.264C56.7878 226.264 56.7878 226.299 56.8339 226.305L59.305 228.453C59.4155 228.537 59.5526 228.578 59.6909 228.568C59.7924 228.56 59.8891 228.522 59.9689 228.459C60.0486 228.395 60.1077 228.31 60.1385 228.213C60.1694 228.116 60.1708 228.012 60.1423 227.914C60.1139 227.816 60.057 227.729 59.9789 227.664L60.071 227.75ZM64.3738 222.659C64.3174 222.639 64.2577 222.63 64.1981 222.634C64.1385 222.637 64.0801 222.653 64.0265 222.679C63.9729 222.705 63.925 222.742 63.8857 222.787C63.8465 222.832 63.8166 222.884 63.7978 222.941L62.1677 227.848C62.1471 227.905 62.1382 227.965 62.1417 228.025C62.1452 228.086 62.1608 228.144 62.1878 228.198C62.2147 228.252 62.2524 228.3 62.2985 228.339C62.3445 228.378 62.398 228.407 62.4557 228.424C62.5108 228.436 62.5676 228.436 62.6227 228.424C62.7105 228.42 62.7949 228.388 62.8647 228.335C62.9346 228.282 62.9868 228.208 63.0144 228.125L64.6445 223.212C64.678 223.103 64.6686 222.986 64.6183 222.884C64.5679 222.782 64.4804 222.704 64.3738 222.664V222.659ZM68.8493 225.107C68.8485 225.093 68.8485 225.08 68.8493 225.066C68.8493 225.066 68.8493 225.026 68.8493 225.014C68.8493 225.003 68.8493 225.014 68.8493 224.986C68.8479 224.963 68.8479 224.94 68.8493 224.917C68.8493 224.917 68.8493 224.882 68.8032 224.847C68.783 224.829 68.7619 224.812 68.7398 224.796L66.2688 222.653C66.163 222.566 66.0278 222.524 65.8915 222.535C65.7551 222.545 65.6282 222.608 65.5373 222.71C65.4922 222.762 65.458 222.822 65.4364 222.887C65.4149 222.952 65.4066 223.02 65.412 223.088C65.4173 223.156 65.4363 223.223 65.4677 223.284C65.4991 223.344 65.5423 223.398 65.5949 223.442L67.6742 225.239L65.8944 227.336C65.8046 227.441 65.7602 227.578 65.771 227.716C65.7818 227.854 65.8469 227.983 65.952 228.073C66.0596 228.158 66.1954 228.199 66.3322 228.188C66.467 228.178 66.5928 228.116 66.6835 228.015L68.7974 225.516C68.7974 225.516 68.832 225.469 68.8493 225.452C68.8626 225.426 68.8741 225.399 68.8838 225.372C68.8838 225.372 68.8838 225.331 68.8838 225.297C68.881 225.276 68.881 225.254 68.8838 225.233C68.8838 225.233 68.8493 225.124 68.8493 225.112V225.107ZM63.7229 203.985L61.0157 203.518L61.4592 200.799C61.4745 200.667 61.439 200.534 61.3599 200.427C61.2807 200.32 61.1639 200.247 61.033 200.223C60.901 200.209 60.7686 200.245 60.662 200.324C60.5553 200.403 60.4822 200.519 60.457 200.65L59.9328 203.881C59.9275 203.906 59.9275 203.931 59.9328 203.956C59.9328 203.956 59.9328 204.008 59.9328 204.042C59.9328 204.042 59.9328 204.077 59.9328 204.106C59.9328 204.134 59.9328 204.106 59.9328 204.14L59.9674 204.186C59.9661 204.2 59.9661 204.213 59.9674 204.227C59.9674 204.227 59.9674 204.227 60.0019 204.261V204.307C60.0019 204.307 60.0019 204.307 60.0422 204.307C60.0826 204.307 60.0422 204.307 60.0826 204.336C60.0887 204.34 60.0956 204.341 60.1027 204.341C60.1098 204.341 60.1168 204.34 60.1229 204.336C60.1386 204.354 60.1584 204.368 60.1805 204.376C60.1901 204.382 60.201 204.385 60.2122 204.385C60.2233 204.385 60.2342 204.382 60.2438 204.376L63.4637 204.952C63.6018 204.968 63.7409 204.933 63.8554 204.854C63.9103 204.816 63.9569 204.768 63.9926 204.711C64.0282 204.655 64.0521 204.592 64.0627 204.526C64.0744 204.412 64.0473 204.297 63.9856 204.199C63.924 204.102 63.8314 204.029 63.7229 203.99V203.985ZM66.4474 202.798L65.2954 197.747C65.2705 197.632 65.2014 197.532 65.1033 197.469C65.0051 197.405 64.8857 197.383 64.7712 197.407C64.6537 197.433 64.5513 197.505 64.4866 197.606C64.4218 197.708 64.3999 197.831 64.4256 197.948L65.5776 202.994C65.5897 203.052 65.6136 203.107 65.6477 203.156C65.6819 203.205 65.7257 203.246 65.7764 203.278C65.8271 203.309 65.8836 203.329 65.9425 203.338C66.0014 203.347 66.0615 203.343 66.119 203.328C66.1737 203.317 66.225 203.293 66.2688 203.259C66.3399 203.209 66.3947 203.139 66.4264 203.058C66.4582 202.977 66.4655 202.889 66.4474 202.804V202.798ZM69.9782 197.412C69.9782 197.412 69.9782 197.412 69.9782 197.384C69.9782 197.355 69.9782 197.349 69.9782 197.315L69.9379 197.263V197.228C69.9379 197.228 69.9379 197.228 69.9034 197.199L69.8688 197.153C69.8458 197.141 69.8245 197.125 69.8054 197.107L69.7306 197.073C69.7038 197.069 69.6767 197.069 69.6499 197.073L66.4301 196.497C66.2981 196.483 66.1658 196.519 66.0591 196.598C65.9525 196.677 65.8793 196.793 65.8541 196.923C65.8358 197.056 65.8702 197.19 65.9499 197.298C66.0295 197.405 66.1481 197.478 66.2803 197.499L68.9875 197.965L68.544 200.684C68.5287 200.816 68.5642 200.949 68.6433 201.056C68.7225 201.163 68.8394 201.236 68.9702 201.26C69.1022 201.274 69.2346 201.238 69.3412 201.159C69.4479 201.08 69.521 200.964 69.5462 200.834L70.0704 197.603C70.0728 197.576 70.0728 197.549 70.0704 197.522C70.0347 197.492 70.0037 197.457 69.9782 197.418V197.412ZM110.079 210.165L107.366 209.693L107.816 206.98C107.832 206.847 107.798 206.714 107.718 206.606C107.639 206.499 107.521 206.427 107.389 206.404C107.258 206.39 107.125 206.426 107.018 206.505C106.912 206.584 106.839 206.7 106.813 206.83L106.289 210.061C106.281 210.086 106.281 210.112 106.289 210.136C106.289 210.136 106.289 210.188 106.289 210.217V210.28C106.289 210.28 106.289 210.28 106.289 210.321C106.29 210.336 106.29 210.351 106.289 210.367C106.289 210.367 106.289 210.396 106.289 210.401L106.324 210.436L106.358 210.488C106.358 210.488 106.358 210.488 106.399 210.488C106.439 210.488 106.399 210.488 106.439 210.516C106.445 210.52 106.452 210.522 106.459 210.522C106.466 210.522 106.473 210.52 106.479 210.516C106.495 210.534 106.515 210.548 106.537 210.557H106.566C106.575 210.563 106.586 210.566 106.597 210.566C106.609 210.566 106.62 210.563 106.629 210.557L109.849 211.133C109.987 211.148 110.126 211.114 110.241 211.035C110.35 210.957 110.425 210.839 110.448 210.707C110.457 210.589 110.425 210.471 110.358 210.374C110.291 210.276 110.193 210.205 110.079 210.171V210.165ZM112.804 208.979L111.652 203.927C111.64 203.87 111.617 203.816 111.585 203.768C111.552 203.72 111.51 203.679 111.461 203.647C111.412 203.616 111.358 203.594 111.3 203.584C111.243 203.573 111.184 203.575 111.128 203.587C111.07 203.6 111.015 203.623 110.966 203.657C110.917 203.69 110.876 203.733 110.843 203.783C110.811 203.833 110.789 203.889 110.779 203.947C110.768 204.005 110.769 204.065 110.782 204.123L111.934 209.169C111.946 209.227 111.969 209.283 112.003 209.333C112.037 209.382 112.08 209.424 112.131 209.456C112.182 209.488 112.239 209.509 112.298 209.518C112.357 209.527 112.418 209.524 112.476 209.508C112.529 209.495 112.58 209.472 112.625 209.439C112.696 209.389 112.75 209.319 112.782 209.238C112.814 209.158 112.821 209.069 112.804 208.984V208.979ZM116.335 203.587C116.335 203.587 116.335 203.547 116.335 203.512L116.294 203.46C116.294 203.46 116.294 203.426 116.294 203.42L116.266 203.391L116.231 203.345C116.207 203.333 116.185 203.315 116.168 203.293C116.168 203.293 116.122 203.293 116.093 203.259H116.012L112.792 202.683C112.66 202.668 112.527 202.703 112.42 202.782C112.313 202.861 112.24 202.978 112.216 203.109C112.2 203.242 112.235 203.375 112.314 203.483C112.393 203.59 112.511 203.662 112.643 203.685L115.35 204.152L114.906 206.865C114.894 206.932 114.895 207.002 114.91 207.069C114.925 207.137 114.953 207.2 114.992 207.256C115.032 207.313 115.083 207.361 115.141 207.397C115.199 207.434 115.264 207.458 115.332 207.469C115.464 207.481 115.595 207.444 115.701 207.365C115.807 207.287 115.881 207.172 115.908 207.043L116.427 203.812C116.429 203.785 116.429 203.758 116.427 203.731C116.395 203.689 116.369 203.643 116.352 203.593L116.335 203.587ZM85.1155 167.432L82.4083 166.965L82.8518 164.246C82.8686 164.114 82.8337 163.98 82.7543 163.873C82.6749 163.766 82.5571 163.693 82.4256 163.67C82.2937 163.656 82.1613 163.692 82.0546 163.771C81.948 163.85 81.8748 163.966 81.8496 164.097L81.3312 167.328C81.3264 167.353 81.3264 167.378 81.3312 167.403C81.3287 167.432 81.3287 167.461 81.3312 167.489C81.3312 167.489 81.3312 167.524 81.3312 167.553C81.3312 167.581 81.3312 167.553 81.3312 167.587L81.3658 167.633V167.674C81.3658 167.674 81.3658 167.674 81.4003 167.708V167.754C81.4003 167.754 81.4003 167.754 81.4406 167.754C81.481 167.754 81.4406 167.754 81.481 167.783C81.4871 167.787 81.494 167.788 81.5011 167.788C81.5082 167.788 81.5152 167.787 81.5213 167.783C81.538 167.8 81.5575 167.813 81.5789 167.823H81.6077C81.6175 167.828 81.6283 167.831 81.6394 167.831C81.6504 167.831 81.6612 167.828 81.671 167.823L84.8909 168.399C85.029 168.415 85.1681 168.38 85.2826 168.301C85.3375 168.264 85.3841 168.215 85.4198 168.158C85.4554 168.102 85.4793 168.039 85.4899 167.973C85.4996 167.854 85.4675 167.736 85.3992 167.638C85.3308 167.54 85.2305 167.469 85.1155 167.437V167.432ZM87.84 166.245L86.688 161.194C86.6631 161.079 86.5941 160.979 86.4959 160.916C86.3977 160.852 86.2784 160.83 86.1638 160.854C86.0463 160.88 85.944 160.952 85.8792 161.053C85.8144 161.155 85.7925 161.278 85.8182 161.395L86.9702 166.441C86.9831 166.499 87.0074 166.554 87.0418 166.602C87.0762 166.65 87.1199 166.691 87.1704 166.722C87.2208 166.754 87.2771 166.774 87.3357 166.783C87.3943 166.792 87.4542 166.79 87.5117 166.775C87.5663 166.764 87.6176 166.74 87.6614 166.706C87.7325 166.656 87.7873 166.586 87.8191 166.505C87.8508 166.424 87.8581 166.336 87.84 166.251V166.245ZM91.3709 160.86C91.3684 160.837 91.3684 160.813 91.3709 160.79L91.3306 160.739C91.3298 160.725 91.3298 160.712 91.3306 160.698H91.296C91.2878 160.681 91.2761 160.665 91.2614 160.652C91.2384 160.64 91.2171 160.624 91.1981 160.606L91.1232 160.572C91.0964 160.568 91.0693 160.568 91.0426 160.572L87.8227 159.996C87.6908 159.982 87.5584 160.018 87.4518 160.097C87.3451 160.175 87.2719 160.292 87.2467 160.422C87.2285 160.554 87.2628 160.689 87.3425 160.797C87.4222 160.904 87.5408 160.976 87.673 160.998L90.3859 161.464L89.9366 164.183C89.9213 164.315 89.9568 164.448 90.036 164.555C90.1151 164.662 90.232 164.735 90.3629 164.759C90.4986 164.779 90.6367 164.746 90.7488 164.667C90.8608 164.588 90.9373 164.468 90.9619 164.333L91.4861 161.101C91.4885 161.075 91.4885 161.048 91.4861 161.021C91.4374 160.977 91.3981 160.925 91.3709 160.865V160.86ZM73.993 243.919L71.28 243.446L71.7293 240.733C71.7461 240.601 71.7111 240.467 71.6317 240.36C71.5523 240.253 71.4346 240.18 71.303 240.157C71.1711 240.144 71.0387 240.18 70.9321 240.258C70.8254 240.337 70.7523 240.453 70.727 240.584L70.2029 243.815C70.1945 243.839 70.1945 243.866 70.2029 243.89C70.2029 243.89 70.2029 243.942 70.2029 243.971V244.034C70.2029 244.034 70.2029 244.034 70.2029 244.069C70.2164 244.084 70.228 244.102 70.2374 244.12V244.155C70.2374 244.155 70.2374 244.155 70.272 244.189L70.3066 244.236C70.3066 244.236 70.3066 244.236 70.3469 244.236L70.3872 244.27C70.4002 244.275 70.4145 244.275 70.4275 244.27C70.4447 244.286 70.4641 244.3 70.4851 244.31C70.4945 244.317 70.5055 244.32 70.5168 244.32C70.5281 244.32 70.5391 244.317 70.5485 244.31L73.7683 244.886C73.9064 244.902 74.0455 244.867 74.16 244.789C74.2678 244.709 74.3417 244.592 74.3674 244.46C74.3773 244.341 74.3454 244.221 74.2771 244.122C74.2089 244.024 74.1084 243.952 73.993 243.919ZM76.7174 242.732L75.5654 237.681C75.5406 237.566 75.4715 237.466 75.3733 237.403C75.2752 237.339 75.1558 237.317 75.0413 237.341C74.9239 237.366 74.8212 237.436 74.7554 237.536C74.6896 237.637 74.666 237.759 74.6899 237.877L75.8419 242.922C75.857 242.994 75.8898 243.062 75.9373 243.118C75.9849 243.174 76.0457 243.218 76.1143 243.245C76.1829 243.271 76.2571 243.281 76.3302 243.272C76.4034 243.263 76.4731 243.236 76.5331 243.193C76.6057 243.143 76.6619 243.072 76.6947 242.99C76.7275 242.908 76.7354 242.819 76.7174 242.732ZM80.2483 237.341C80.2483 237.341 80.2483 237.301 80.2483 237.266L80.208 237.214C80.208 237.214 80.208 237.18 80.208 237.174V237.145L80.1734 237.099C80.1495 237.088 80.128 237.072 80.1101 237.053C80.1101 237.053 80.064 237.053 80.0352 237.018H79.9546L76.7347 236.442C76.6028 236.428 76.4704 236.464 76.3638 236.543C76.2571 236.622 76.1839 236.738 76.1587 236.869C76.1405 237.001 76.1748 237.136 76.2545 237.243C76.3342 237.351 76.4528 237.423 76.585 237.445L79.2922 237.917L78.8486 240.63C78.8319 240.731 78.8455 240.835 78.8877 240.928C78.9299 241.021 78.9987 241.1 79.0856 241.154C79.1725 241.208 79.2735 241.236 79.3759 241.233C79.4782 241.229 79.5774 241.196 79.6608 241.137C79.7724 241.057 79.8488 240.937 79.8739 240.803L80.3923 237.577C80.3944 237.55 80.3944 237.523 80.3923 237.496C80.3343 237.455 80.2854 237.402 80.2483 237.341ZM37.8144 243.147L35.1014 242.68L35.5507 239.962C35.5659 239.829 35.5296 239.695 35.4493 239.588C35.3689 239.481 35.2507 239.408 35.1187 239.386C34.9873 239.374 34.8562 239.411 34.7501 239.49C34.6441 239.568 34.5703 239.683 34.5427 239.812L34.0243 243.043C34.016 243.067 34.016 243.094 34.0243 243.118C34.0243 243.118 34.0243 243.17 34.0243 243.205C34.0276 243.226 34.0276 243.247 34.0243 243.268C34.0243 243.268 34.0243 243.268 34.0243 243.302L34.0589 243.349C34.0598 243.362 34.0598 243.375 34.0589 243.389L34.0934 243.423L34.128 243.469C34.128 243.469 34.128 243.469 34.1626 243.469C34.1971 243.469 34.1626 243.469 34.2086 243.498C34.2547 243.527 34.2086 243.498 34.2432 243.498L34.3008 243.539H34.3354C34.3441 243.544 34.354 243.546 34.3642 243.546C34.3743 243.546 34.3842 243.544 34.393 243.539L37.6186 244.115C37.7567 244.13 37.8958 244.095 38.0102 244.017C38.0944 243.958 38.1589 243.875 38.1955 243.779C38.2321 243.683 38.2391 243.579 38.2155 243.479C38.1919 243.379 38.1389 243.288 38.0633 243.219C37.9877 243.149 37.8929 243.104 37.7914 243.089L37.8144 243.147ZM40.5389 241.96L39.3869 236.909C39.3607 236.795 39.2913 236.696 39.1935 236.633C39.0957 236.569 38.9771 236.547 38.8627 236.569C38.804 236.581 38.7483 236.605 38.6988 236.639C38.6494 236.673 38.6071 236.716 38.5744 236.767C38.5418 236.817 38.5194 236.873 38.5086 236.932C38.4977 236.991 38.4987 237.052 38.5114 237.11L39.6634 242.156C39.6755 242.214 39.6993 242.27 39.7335 242.318C39.7677 242.367 39.8114 242.409 39.8621 242.44C39.9128 242.471 39.9693 242.492 40.0283 242.5C40.0872 242.509 40.1473 242.506 40.2048 242.49C40.2594 242.479 40.3107 242.456 40.3546 242.421C40.4271 242.371 40.4833 242.3 40.5161 242.218C40.5489 242.137 40.5568 242.047 40.5389 241.96ZM44.064 236.575C44.064 236.575 44.064 236.575 44.064 236.546C44.064 236.517 44.064 236.511 44.064 236.477L44.0294 236.425V236.39C44.0294 236.39 44.0294 236.39 44.0294 236.362L43.9949 236.316L43.9373 236.269L43.8624 236.235C43.8356 236.232 43.8085 236.232 43.7818 236.235L40.5562 235.659C40.4245 235.646 40.2928 235.683 40.1864 235.762C40.0801 235.84 40.0066 235.955 39.9802 236.085C39.9648 236.217 40.0003 236.35 40.0795 236.457C40.1586 236.564 40.2755 236.637 40.4064 236.661L43.1194 237.128L42.6758 239.846C42.6529 239.982 42.685 240.122 42.7649 240.234C42.8448 240.347 42.9661 240.423 43.1021 240.445C43.238 240.468 43.3775 240.436 43.4899 240.356C43.6022 240.276 43.6782 240.155 43.7011 240.019L44.2195 236.788C44.2216 236.761 44.2216 236.734 44.2195 236.707C44.0698 236.621 44.0698 236.592 44.064 236.575ZM104.884 174.874L102.177 174.407L102.62 171.688C102.636 171.556 102.6 171.423 102.521 171.316C102.442 171.209 102.325 171.136 102.194 171.112C102.062 171.098 101.93 171.134 101.823 171.213C101.716 171.292 101.643 171.408 101.618 171.539L101.094 174.77C101.088 174.795 101.088 174.82 101.094 174.845C101.091 174.874 101.091 174.902 101.094 174.931C101.094 174.931 101.094 174.966 101.094 174.995C101.094 175.023 101.094 174.995 101.094 175.029L101.128 175.075V175.116C101.128 175.116 101.128 175.116 101.163 175.15V175.196C101.163 175.196 101.163 175.196 101.203 175.196C101.244 175.196 101.203 175.196 101.244 175.196C101.25 175.2 101.257 175.202 101.264 175.202C101.271 175.202 101.278 175.2 101.284 175.196C101.301 175.213 101.32 175.226 101.341 175.236H101.37C101.38 175.242 101.391 175.245 101.402 175.245C101.413 175.245 101.424 175.242 101.434 175.236L104.653 175.812C104.792 175.828 104.931 175.793 105.045 175.715C105.1 175.677 105.147 175.628 105.182 175.572C105.218 175.515 105.242 175.452 105.252 175.386C105.257 175.272 105.223 175.159 105.156 175.066C105.09 174.974 104.994 174.906 104.884 174.874Z" fill="#030402"/>
<path d="M69.2006 167.247C47.1053 190.408 19.6301 238.804 25.0675 248.463C31.1155 259.183 62.7322 226.408 61.7299 224.847C60.8774 223.505 72.1382 194.175 80.1619 172.863C88.1856 151.551 74.6611 161.522 69.2006 167.247Z" fill="#EB9481"/>
<path d="M42.1287 195.016L73.8547 200.724C73.8547 200.724 81.7747 178.26 83.3415 165.767C84.2227 158.774 80.1159 158.486 74.9434 162.202C56.8397 175.213 42.1287 195.016 42.1287 195.016Z" fill="#219ABF"/>
<path opacity="0.1" d="M68.158 175.041C68.096 174.918 67.989 174.823 67.8592 174.777C67.7294 174.731 67.5868 174.737 67.4611 174.793L64.512 176.256C64.4865 176.261 64.4639 176.275 64.4486 176.296C64.4486 176.296 64.4083 176.337 64.3852 176.354L64.3449 176.412V176.469C64.3449 176.469 64.3449 176.498 64.3449 176.504C64.3449 176.509 64.3449 176.538 64.3449 176.55V176.607C64.3449 176.607 64.3449 176.607 64.3449 176.653C64.3449 176.7 64.3449 176.653 64.3449 176.7C64.3401 176.713 64.3401 176.727 64.3449 176.74C64.3393 176.763 64.3393 176.786 64.3449 176.809V176.838C64.3399 176.847 64.3372 176.856 64.3372 176.867C64.3372 176.877 64.3399 176.887 64.3449 176.895L65.7388 179.856C65.8037 179.978 65.913 180.071 66.0441 180.115C66.1053 180.141 66.1708 180.154 66.2371 180.154C66.3033 180.154 66.3689 180.141 66.43 180.115C66.4925 180.086 66.5485 180.045 66.5949 179.994C66.6412 179.943 66.677 179.884 66.7001 179.819C66.7231 179.754 66.733 179.685 66.7292 179.616C66.7253 179.547 66.7079 179.48 66.6777 179.418L65.5257 176.936L67.9968 175.732C68.1065 175.659 68.1843 175.547 68.2142 175.418C68.2442 175.29 68.2241 175.155 68.158 175.041ZM72.6048 176.498C72.563 176.456 72.5132 176.422 72.4583 176.399C72.4034 176.376 72.3446 176.364 72.2851 176.364C72.2256 176.364 72.1667 176.376 72.1118 176.399C72.057 176.422 72.0072 176.456 71.9654 176.498L68.5094 180.334C68.4687 180.377 68.4372 180.428 68.4168 180.484C68.3964 180.54 68.3875 180.599 68.3907 180.658C68.394 180.718 68.4092 180.776 68.4356 180.829C68.4619 180.882 68.4988 180.929 68.544 180.968C68.5857 181.006 68.6346 181.035 68.688 181.054C68.7711 181.084 68.8611 181.089 68.947 181.068C69.0329 181.048 69.111 181.003 69.1718 180.939L72.6278 177.097C72.7009 177.013 72.7392 176.904 72.7349 176.793C72.7306 176.682 72.6841 176.576 72.6048 176.498ZM75.7382 180.323C75.7402 180.296 75.7402 180.269 75.7382 180.242C75.7315 180.215 75.7198 180.19 75.7036 180.167L74.304 177.195C74.2419 177.072 74.1349 176.978 74.0051 176.931C73.8753 176.885 73.7327 176.891 73.607 176.947C73.5451 176.977 73.4896 177.018 73.4438 177.069C73.3981 177.121 73.3629 177.18 73.3404 177.245C73.3179 177.31 73.3085 177.379 73.3127 177.447C73.317 177.516 73.3348 177.583 73.3651 177.644L74.5459 180.127L72.0748 181.331C72.0126 181.359 71.9567 181.4 71.9104 181.45C71.8641 181.5 71.8283 181.56 71.8052 181.624C71.7822 181.688 71.7722 181.757 71.776 181.825C71.7797 181.893 71.7971 181.96 71.8272 182.022C71.8571 182.084 71.8989 182.139 71.9503 182.184C72.0018 182.23 72.0617 182.265 72.1267 182.287C72.255 182.334 72.3958 182.334 72.5241 182.287L75.4617 180.847C75.4882 180.839 75.5134 180.827 75.5366 180.812C75.5601 180.796 75.5814 180.776 75.6 180.755L75.646 180.691V180.628V180.593C75.646 180.593 75.646 180.559 75.646 180.553C75.6452 180.536 75.6452 180.518 75.646 180.501C75.646 180.467 75.646 180.449 75.646 180.426C75.646 180.403 75.7382 180.334 75.7382 180.323ZM46.8288 191.572L45.6768 190.558C45.4464 190.835 45.2332 191.105 45.0259 191.359L46.1779 192.361C46.283 192.448 46.4177 192.492 46.5541 192.482C46.6904 192.472 46.8177 192.41 46.9094 192.309C46.9526 192.255 46.9847 192.194 47.004 192.128C47.0233 192.062 47.0294 191.992 47.0219 191.924C47.0144 191.855 46.9935 191.789 46.9604 191.729C46.9272 191.668 46.8825 191.615 46.8288 191.572ZM51.1315 186.486C51.0177 186.447 50.8932 186.455 50.7853 186.508C50.6774 186.561 50.5948 186.654 50.5555 186.768L48.9254 191.676C48.9064 191.744 48.9038 191.817 48.918 191.887C48.9321 191.957 48.9626 192.023 49.0069 192.079C49.0512 192.135 49.1082 192.18 49.1731 192.21C49.2379 192.24 49.309 192.254 49.3804 192.252C49.4689 192.244 49.5532 192.211 49.6236 192.157C49.694 192.103 49.7475 192.03 49.7779 191.946L51.4022 187.033C51.4372 186.924 51.4285 186.807 51.378 186.704C51.3274 186.602 51.239 186.524 51.1315 186.486ZM55.607 188.928C55.6077 188.915 55.6077 188.901 55.607 188.888C55.607 188.888 55.607 188.847 55.607 188.83C55.5919 188.807 55.5802 188.782 55.5724 188.755L55.5264 188.686C55.5093 188.664 55.4876 188.647 55.463 188.634L52.992 186.486C52.8856 186.4 52.7507 186.359 52.6148 186.37C52.4789 186.38 52.3521 186.442 52.2604 186.543C52.1706 186.649 52.1263 186.786 52.1371 186.924C52.1478 187.062 52.2129 187.19 52.318 187.281L54.3974 189.078L52.6176 191.174C52.5768 191.276 52.5692 191.387 52.5957 191.493C52.6222 191.599 52.6816 191.694 52.7652 191.765C52.8489 191.835 52.9527 191.877 53.0616 191.885C53.1706 191.893 53.2793 191.866 53.3721 191.808L55.4803 189.308C55.4991 189.29 55.5165 189.271 55.5321 189.251C55.5402 189.224 55.5518 189.199 55.5667 189.176C55.5636 189.151 55.5636 189.126 55.5667 189.101C55.5667 189.101 55.5667 189.061 55.5667 189.037L55.607 188.928ZM65.3126 197.747C65.2877 197.632 65.2187 197.532 65.1205 197.469C65.0223 197.405 64.903 197.383 64.7884 197.407C64.6709 197.433 64.5686 197.505 64.5038 197.606C64.439 197.708 64.4171 197.831 64.4428 197.948L64.6963 199.071L65.6467 199.244L65.3126 197.747ZM69.9782 197.413C69.9782 197.413 69.9782 197.413 69.9782 197.384C69.9782 197.355 69.9782 197.349 69.9782 197.315L69.9379 197.263V197.228C69.9379 197.228 69.9379 197.228 69.9033 197.199L69.8688 197.153C69.8457 197.141 69.8244 197.125 69.8054 197.107L69.7305 197.073C69.7037 197.069 69.6767 197.069 69.6499 197.073L66.43 196.497C66.2981 196.483 66.1657 196.519 66.0591 196.598C65.9524 196.677 65.8793 196.793 65.854 196.923C65.8358 197.056 65.8702 197.19 65.9498 197.298C66.0295 197.405 66.1481 197.478 66.2803 197.499L68.9875 197.965L68.688 199.809L69.7075 199.993L70.0934 197.626C70.0958 197.599 70.0958 197.572 70.0934 197.545C70.0476 197.51 70.0086 197.467 69.9782 197.418V197.413ZM82.4083 166.965L82.8518 164.246C82.8686 164.114 82.8336 163.98 82.7542 163.873C82.6748 163.766 82.5571 163.693 82.4256 163.67C82.2936 163.656 82.1612 163.693 82.0546 163.771C81.9479 163.85 81.8748 163.966 81.8496 164.097L81.3312 167.328C81.3263 167.353 81.3263 167.378 81.3312 167.403C81.3286 167.432 81.3286 167.461 81.3312 167.489C81.3312 167.489 81.3312 167.524 81.3312 167.553C81.3312 167.581 81.3312 167.553 81.3312 167.587L81.3657 167.633V167.674C81.3657 167.674 81.3657 167.674 81.4003 167.708V167.754C81.4003 167.754 81.4003 167.754 81.4406 167.754C81.4809 167.754 81.4406 167.754 81.4809 167.783C81.4871 167.787 81.494 167.788 81.5011 167.788C81.5082 167.788 81.5151 167.787 81.5212 167.783C81.538 167.8 81.5575 167.813 81.5788 167.823H81.6076C81.6174 167.828 81.6283 167.831 81.6393 167.831C81.6503 167.831 81.6612 167.828 81.671 167.823L82.944 168.048C83.0016 167.702 83.0534 167.357 83.1052 167.023L82.4083 166.965Z" fill="#030402"/>
<path d="M73.6416 195.535C68.8377 194.25 55.6934 191.146 46.8921 190.247C46.8345 190.247 46.7942 190.443 46.8461 190.454C54.0576 192.309 68.6765 194.965 73.5782 195.829C73.6704 195.84 73.728 195.558 73.6416 195.535Z" fill="#263238"/>
<path d="M69.984 200.033C71.2915 200.16 72.599 200.31 73.895 200.488L73.6243 200.65C74.569 197.194 75.6173 193.772 76.7405 190.374C77.8637 186.975 79.0733 183.606 80.4384 180.282C79.609 183.773 78.6067 187.194 77.5584 190.65C76.5101 194.106 75.3466 197.464 74.1024 200.822L74.0218 201.024L73.8259 200.984C72.5357 200.684 71.255 200.367 69.984 200.033Z" fill="#263238"/>
<path d="M78.3361 187.119C78.6182 186.413 78.9816 185.743 79.4189 185.121C79.8487 184.49 80.3283 183.895 80.8532 183.341C80.7789 183.719 80.653 184.085 80.4788 184.429C80.3114 184.773 80.1189 185.105 79.9028 185.42C79.4727 186.065 78.944 186.638 78.3361 187.119Z" fill="#263238"/>
<path d="M83.664 164.437C84.096 165.888 91.6992 175.185 98.496 174.528C100.702 174.309 100.017 162.202 100.017 162.202L100.172 161.297L102.315 148.625L87.1027 139.985L84.9139 138.833C84.9139 138.833 84.5568 142.341 84.1536 146.707C84.1536 146.915 84.1132 147.116 84.096 147.329C84.0787 147.542 84.0384 147.813 84.0211 148.044C83.952 148.694 83.8828 149.363 83.831 150.025C83.7907 150.532 83.7446 151.021 83.7216 151.557C83.6985 152.093 83.6524 152.611 83.6179 153.141C83.3299 158.4 83.52 163.809 83.664 164.437Z" fill="#EB9481"/>
<path d="M84.1364 146.667C85.5867 150.119 87.7706 153.214 90.5367 155.737C93.3028 158.26 96.5848 160.152 100.155 161.28L102.298 148.608L87.0855 139.968L84.8967 138.816C84.8967 138.816 84.5396 142.301 84.1364 146.667Z" fill="#263238"/>
<path d="M80.2311 139.213C81.8323 151.701 70.2778 167.887 78.1632 190.092C81.7056 200.068 100.702 208.714 101.624 228.879C101.86 234.104 125.24 201.542 96.5895 165.617C87.5923 154.368 80.2311 139.213 80.2311 139.213Z" fill="#263238"/>
<path d="M96.768 168.129C107.136 179.712 116.294 195.955 112.072 211.968C110.834 216.639 108.323 220.694 105.736 224.738C105.69 224.807 105.587 224.738 105.633 224.657C107.862 221.046 110.074 217.354 111.289 213.264C112.397 209.37 112.774 205.303 112.401 201.272C111.744 193.277 108.565 185.777 104.337 179.044C101.975 175.288 99.2276 171.844 96.5434 168.325C96.4282 168.157 96.6586 167.985 96.768 168.129Z" fill="#263238"/>
<path d="M76.3719 159.99C77.9271 154.881 79.8279 149.8 80.2944 144.438C80.2944 144.38 80.3924 144.392 80.3866 144.438C79.8106 153.147 75.7325 161.142 74.7303 169.782C73.7972 177.846 74.8397 186.198 78.4858 193.507C80.4448 197.396 83.0909 200.899 86.2964 203.846C86.4 203.944 86.2964 204.117 86.1581 204.025C80.4788 199.388 76.6944 192.591 74.9492 185.535C72.841 177.028 73.8317 168.296 76.3719 159.99Z" fill="#263238"/>
<path d="M84.3091 147.456C85.9054 151.026 88.0425 154.329 90.6451 157.248C93.2083 160.163 96.0249 162.835 98.6169 165.715C104.077 171.763 108.708 178.733 110.909 186.647C112.159 191.16 112.492 195.879 111.888 200.523H111.848C112.873 191.975 110.045 183.214 105.644 175.956C103.544 172.533 101.129 169.313 98.4326 166.337C95.8867 163.486 93.1622 160.802 90.6624 157.91C87.9897 154.817 85.3805 151.453 84.0269 147.542C84.0154 147.505 84.0193 147.465 84.0376 147.43C84.056 147.395 84.0873 147.37 84.1248 147.358C84.1622 147.347 84.2026 147.351 84.2372 147.369C84.2718 147.387 84.2976 147.419 84.3091 147.456Z" fill="#263238"/>
<path d="M85.2134 146.39H79.3382C78.298 146.39 77.4547 147.234 77.4547 148.274V149.996C77.4547 151.036 78.298 151.88 79.3382 151.88H85.2134C86.2537 151.88 87.097 151.036 87.097 149.996V148.274C87.097 147.234 86.2537 146.39 85.2134 146.39Z" fill="#219ABF"/>
<path d="M116.819 124.099C123.287 145.711 111.059 152.024 106.41 153.412C102.182 154.673 87.6096 158.435 78.9466 137.606C70.2835 116.778 78.2842 106.94 87.8054 103.542C97.3267 100.143 110.35 102.488 116.819 124.099Z" fill="#EB9481"/>
<path d="M111.98 120.067C111.482 120.216 110.976 120.34 110.465 120.436C109.952 120.642 109.385 120.672 108.852 120.522C108.694 120.443 108.566 120.314 108.489 120.154C108.412 119.995 108.39 119.814 108.426 119.641C108.554 119.306 108.768 119.012 109.048 118.788C109.327 118.564 109.662 118.419 110.016 118.368C110.709 118.15 111.459 118.2 112.118 118.506C112.263 118.587 112.381 118.708 112.459 118.854C112.536 119.001 112.57 119.166 112.555 119.332C112.541 119.497 112.479 119.654 112.377 119.784C112.274 119.915 112.137 120.013 111.98 120.067Z" fill="#263238"/>
<path d="M98.4961 128.897C99.0202 128.805 99.4925 128.638 100.005 128.5C100.554 128.433 101.066 128.188 101.462 127.803C101.565 127.657 101.615 127.482 101.606 127.304C101.596 127.127 101.527 126.958 101.411 126.824C101.143 126.592 100.818 126.435 100.47 126.37C100.122 126.306 99.7624 126.335 99.4292 126.455C98.713 126.604 98.0781 127.014 97.6493 127.607C97.567 127.745 97.5252 127.904 97.5288 128.065C97.5323 128.226 97.581 128.382 97.6693 128.517C97.7576 128.651 97.8819 128.758 98.0281 128.826C98.1743 128.893 98.3364 128.918 98.4961 128.897Z" fill="#263238"/>
<path d="M110.068 127.002C110.068 126.939 110.2 127.048 110.212 127.112C110.471 128.621 111.024 130.314 112.516 130.533C112.556 130.533 112.568 130.614 112.516 130.62C110.788 130.752 110.074 128.477 110.068 127.002Z" fill="#263238"/>
<path d="M111.087 125.153C113.466 124.474 114.659 129.283 112.452 129.917C110.246 130.55 109.089 125.724 111.087 125.153Z" fill="#263238"/>
<path d="M112.17 125.222C112.614 125.384 113.103 125.752 113.564 125.672C114.025 125.591 114.359 124.957 114.572 124.376C114.572 124.318 114.647 124.347 114.664 124.41C114.912 125.326 114.849 126.357 114.008 126.755C113.167 127.152 112.452 126.472 112.009 125.603C111.923 125.447 111.992 125.159 112.17 125.222Z" fill="#263238"/>
<path d="M104.832 142.272C105.252 142.566 105.696 142.992 106.255 142.946C106.818 142.844 107.352 142.622 107.821 142.295C107.831 142.288 107.843 142.284 107.855 142.285C107.867 142.286 107.879 142.29 107.888 142.299C107.896 142.307 107.902 142.318 107.904 142.33C107.905 142.342 107.903 142.354 107.896 142.364C107.731 142.7 107.478 142.985 107.163 143.188C106.849 143.391 106.485 143.504 106.111 143.516C105.788 143.486 105.481 143.36 105.23 143.155C104.979 142.95 104.794 142.674 104.7 142.364C104.63 142.301 104.74 142.272 104.832 142.272Z" fill="#263238"/>
<path d="M109.843 135.464C109.843 135.464 110.655 137.629 110.897 138.684C110.897 138.787 110.673 138.891 110.321 138.989C110.321 138.989 110.321 138.989 110.281 138.989C109.412 139.36 108.458 139.484 107.523 139.348C106.588 139.212 105.709 138.82 104.982 138.217C104.884 138.131 104.982 137.992 105.108 138.038C106.663 138.652 108.373 138.749 109.987 138.315C109.987 138.004 108.467 134.646 108.628 134.6C109.465 134.484 110.314 134.484 111.151 134.6C109.584 130.032 107.297 125.758 105.805 121.19C105.754 121.023 105.984 120.92 106.065 121.058C108.778 125.372 110.673 130.585 112.435 135.256C112.66 135.85 110.304 135.544 109.843 135.464Z" fill="#263238"/>
<path d="M97.4189 131.213C97.8195 130.921 98.2598 130.688 98.7265 130.522C99.2023 130.347 99.7009 130.242 100.207 130.211C100.74 130.188 101.273 130.265 101.779 130.435C102.299 130.629 102.768 130.938 103.15 131.34L103.841 132.06L102.845 132.227C102.139 132.347 101.448 132.54 100.783 132.803C100.086 133.055 99.4641 133.479 98.9741 134.035C99.1881 133.234 99.7015 132.545 100.408 132.111C101.107 131.657 101.891 131.349 102.712 131.207L102.407 132.088C101.802 131.526 101.024 131.185 100.201 131.121C99.2733 131.04 98.3393 131.071 97.4189 131.213Z" fill="#263238"/>
<path d="M101.226 134.317C101.909 133.946 102.542 133.489 103.11 132.958C103.231 132.82 103.686 132.232 103.64 132.117C103.466 131.775 103.245 131.459 102.983 131.178C103.33 131.398 103.626 131.688 103.853 132.031C103.859 132.248 103.817 132.463 103.73 132.663C103.644 132.862 103.515 133.039 103.352 133.183C102.756 133.743 102.023 134.134 101.226 134.317Z" fill="#263238"/>
<path d="M81.8727 139.317C86.3482 137.722 83.0247 127.365 83.0247 127.365C83.0247 127.365 90.1325 123.333 91.5034 117.112C91.5034 117.112 90.9274 122.296 88.5888 125.176C88.1971 125.66 103.087 118.84 100.495 106.497C100.495 106.497 106.762 117.383 114.618 117.36C114.993 117.36 109.947 107.09 106.825 105.373C105.026 104.361 103.104 103.586 101.105 103.069C95.2918 101.206 88.9798 101.692 83.52 104.423C74.5229 109.031 71.7293 121.127 72.4147 125.459C73.728 133.978 79.753 140.072 81.8727 139.317Z" fill="#263238"/>
<path d="M89.1764 125.24C97.4592 121.991 102.315 114.296 100.069 105.494C100.061 105.448 100.07 105.4 100.094 105.359C100.118 105.318 100.155 105.287 100.2 105.271C100.245 105.255 100.294 105.256 100.338 105.272C100.382 105.289 100.42 105.321 100.443 105.362C104.573 113.691 97.3325 123.31 89.1476 125.418C88.9517 125.47 88.9805 125.32 89.1764 125.24Z" fill="#263238"/>
<path d="M81.7286 138.816C85.4841 134.911 84.6374 130.084 83.3875 125.315C83.353 125.176 83.5833 125.09 83.6352 125.234C85.271 129.767 86.3539 135.642 82.0282 139.144C81.9835 139.174 81.9295 139.187 81.876 139.181C81.8225 139.175 81.7731 139.149 81.7368 139.109C81.7005 139.07 81.6797 139.018 81.6782 138.964C81.6767 138.91 81.6946 138.858 81.7286 138.816Z" fill="#263238"/>
<path d="M99.9648 104.671C99.9648 104.619 100.028 104.596 100.057 104.642C102.73 109.112 105.725 117.164 112.314 116.271C112.332 116.268 112.35 116.268 112.367 116.272C112.384 116.275 112.401 116.282 112.416 116.292C112.43 116.302 112.443 116.314 112.453 116.329C112.462 116.344 112.469 116.361 112.473 116.378C112.476 116.395 112.476 116.413 112.473 116.431C112.469 116.448 112.462 116.464 112.452 116.479C112.442 116.494 112.43 116.507 112.415 116.516C112.4 116.526 112.384 116.533 112.366 116.536C106.117 117.959 101.025 109.878 99.9648 104.671Z" fill="#263238"/>
<path d="M73.1923 124.94L72.167 127.117L79.3785 132.198L81.5788 127.29L73.1923 124.94ZM78.8486 129.974L73.8604 126.881L74.0851 126.369L79.6492 128.258L78.8486 129.974Z" fill="#219ABF"/>
<path d="M73.417 121.116L73.2903 123.517L81.8842 125.505L82.0743 120.136L73.417 121.116ZM80.5536 123.65L74.7936 122.659V122.083L80.6573 121.738L80.5536 123.65Z" fill="#219ABF"/>
<path d="M82.8749 138.24C82.8749 138.24 76.6253 132.342 73.8548 134.709C71.0842 137.076 76.7751 146.321 80.7322 146.926C81.2357 147.041 81.7572 147.053 82.2652 146.96C82.7733 146.868 83.2573 146.673 83.6881 146.388C84.1188 146.103 84.4873 145.734 84.7713 145.303C85.0552 144.872 85.2488 144.387 85.3402 143.879L82.8749 138.24Z" fill="#EB9481"/>
<path d="M75.5539 137.318C75.5402 137.318 75.527 137.324 75.5173 137.334C75.5075 137.343 75.5021 137.357 75.5021 137.37C75.5021 137.384 75.5075 137.397 75.5173 137.407C75.527 137.417 75.5402 137.422 75.5539 137.422C78.3418 137.929 80.1965 140.037 81.6595 142.318C80.6918 141.523 79.5456 141.218 78.457 142.393C78.3994 142.456 78.457 142.543 78.5549 142.514C78.9781 142.276 79.4648 142.175 79.9476 142.226C80.4305 142.277 80.8858 142.476 81.2506 142.796C81.8585 143.331 82.4052 143.932 82.8806 144.588C83.0534 144.795 83.4566 144.588 83.3011 144.334L83.2666 144.282C82.6502 140.982 79.1482 136.921 75.5539 137.318Z" fill="#263238"/>
<path d="M25.6839 249.31C32.2675 255.197 45.9879 253.394 80.9799 252.092C85.8183 251.914 93.7383 217.411 88.56 217.336C82.0339 217.244 56.7015 218.298 54.8583 218.609C39.3063 221.23 21.2199 245.313 25.6839 249.31Z" fill="#EB9481"/>
<path d="M77.7024 217.607C77.7024 217.607 90.4377 211.092 98.1907 209.745C108.559 207.93 118.282 210.643 122.279 212.049C130.625 214.929 148.815 227.681 146.056 233.562C143.562 238.884 125.626 224.922 125.626 224.922C125.626 224.922 146.264 236.148 142.082 242.001C137.9 247.853 117.999 230.481 117.999 230.481C117.999 230.481 138.943 242.49 133.672 247.847C129.692 251.879 110.782 237.151 110.782 237.151C110.782 237.151 128.713 247.594 124.796 251.937C120.47 256.729 102.159 244.212 102.159 244.212C90.3513 253.567 80.8992 253.192 74.2118 252.121C72.576 251.81 77.7024 217.607 77.7024 217.607Z" fill="#EB9481"/>
<path d="M118.737 220.55C121.213 221.783 123.719 223.01 126.075 224.461C128.431 225.913 130.735 227.434 132.941 229.069C138.361 233.142 141.114 236.557 140.924 236.344C136.356 231.823 128.01 226.512 125.654 225.066C123.299 223.62 121.046 222.065 118.679 220.62C118.676 220.611 118.675 220.602 118.677 220.593C118.678 220.584 118.682 220.575 118.688 220.568C118.694 220.561 118.701 220.556 118.71 220.553C118.718 220.55 118.728 220.549 118.737 220.55Z" fill="#263238"/>
<path d="M113.363 228.954C116.45 230.682 119.578 232.249 122.579 234.092C125.579 235.935 128.264 237.934 131.126 239.973C131.351 240.129 131.19 240.198 130.965 240.048C128.022 238.124 125.153 236.592 122.187 234.691C119.22 232.79 116.323 230.797 113.305 229.029C113.27 229 113.316 228.931 113.363 228.954Z" fill="#263238"/>
<path d="M107.447 235.342C112.303 237.709 116.715 240.97 120.96 244.276C121.173 244.437 120.96 244.5 120.735 244.345C116.3 241.292 112.844 238.867 107.366 235.509C107.28 235.457 107.349 235.29 107.447 235.342Z" fill="#263238"/>
<path d="M41.472 225.216C44.041 223.206 51.431 218.304 59.3856 218.195C59.4778 218.195 59.495 218.304 59.3856 218.316C52.9459 219.231 44.1907 223.54 41.5296 225.308C41.472 225.366 41.3914 225.279 41.472 225.216Z" fill="#263238"/>
<path d="M156.787 110.494C156.778 111.558 156.697 112.62 156.545 113.674C156.459 114.324 156.338 114.958 156.194 115.574C155.949 116.664 155.61 117.729 155.18 118.76C154.913 119.412 154.605 120.047 154.259 120.66C153.608 121.82 152.809 122.889 151.88 123.84C151.398 124.338 150.876 124.794 150.319 125.205C149.962 125.292 149.587 125.361 149.207 125.418C146.123 125.809 142.993 125.259 140.227 123.84C138.505 122.994 136.902 121.925 135.458 120.66C135.348 120.568 135.233 120.47 135.124 120.367C133.535 118.94 132.12 117.332 130.908 115.574C130.481 114.964 130.072 114.33 129.686 113.674C128.316 111.342 127.253 108.842 126.524 106.237L126.386 105.719C126.34 105.552 126.3 105.391 126.265 105.224C125.507 102.236 125.258 99.1417 125.528 96.071C125.585 95.4259 125.672 94.7923 125.787 94.1703C126.309 90.7958 127.791 87.6426 130.055 85.0867C130.416 84.7018 130.801 84.3401 131.207 84.0039C131.432 83.808 131.668 83.6237 131.904 83.4279C132.268 83.3353 132.637 83.2641 133.01 83.2147C135.39 82.8948 137.812 83.1597 140.066 83.9866C141.429 84.472 142.734 85.1096 143.954 85.8874C145.408 86.8019 146.76 87.8698 147.986 89.0727C148.591 89.6487 149.178 90.2995 149.714 90.9677C150.564 91.9746 151.343 93.0389 152.047 94.153C152.438 94.7693 152.807 95.4029 153.158 96.0538C153.712 97.0846 154.206 98.1462 154.639 99.2333C154.886 99.8554 155.117 100.489 155.324 101.134C155.532 101.779 155.693 102.286 155.848 102.92C156.334 104.771 156.639 106.666 156.758 108.576C156.776 109.238 156.793 109.866 156.787 110.494Z" fill="white"/>
<path d="M149.691 91.008H130.055V89.113H147.911C148.545 89.6832 149.132 90.3168 149.691 91.008Z" fill="#A6A6A6"/>
<path d="M153.135 96.0711H130.055V94.1703H152.024C152.415 94.7866 152.784 95.4202 153.135 96.0711Z" fill="#219ABF"/>
<path d="M143.931 85.9046H130.055V85.0867C130.416 84.7018 130.801 84.3401 131.207 84.0038H140.066C141.421 84.4909 142.718 85.1285 143.931 85.9046Z" fill="#455A64"/>
<path d="M155.301 101.151H135.141V99.2506H154.633C154.863 99.8727 155.094 100.506 155.301 101.151Z" fill="#455A64"/>
<path d="M144.023 104.337H135.124V106.237H144.023V104.337Z" fill="#A6A6A6"/>
<path d="M126.265 94.1703V96.0711H125.528C125.585 95.4259 125.672 94.7923 125.787 94.1703H126.265Z" fill="#455A64"/>
<path d="M131.466 99.2506H126.265V101.151H131.466V99.2506Z" fill="#A6A6A6"/>
<path d="M131.466 104.337V106.237H126.524L126.386 105.719C126.34 105.552 126.3 105.391 126.265 105.224V104.337H131.466Z" fill="#455A64"/>
<path d="M156.787 110.494H130.055V108.593H156.735C156.776 109.238 156.793 109.866 156.787 110.494Z" fill="#455A64"/>
<path d="M131.466 113.674V115.574H130.89C130.464 114.964 130.055 114.33 129.669 113.674H131.466Z" fill="#455A64"/>
<path d="M156.545 113.674C156.459 114.324 156.338 114.958 156.194 115.574H135.124V113.674H156.545Z" fill="#A6A6A6"/>
<path d="M155.18 118.76C154.912 119.412 154.605 120.047 154.258 120.66H135.458C135.348 120.568 135.233 120.47 135.124 120.367V118.76H155.18Z" fill="#219ABF"/>
<path d="M151.88 123.84C151.398 124.338 150.876 124.794 150.319 125.205C149.962 125.292 149.587 125.361 149.207 125.418C146.123 125.809 142.993 125.259 140.227 123.84H151.88Z" fill="#455A64"/>
<path d="M145.584 131.414C146.478 131.283 147.358 131.075 148.216 130.792C148.842 130.581 149.452 130.327 150.042 130.032C150.063 130.027 150.083 130.017 150.1 130.003C150.342 129.882 150.584 129.756 150.82 129.617C151.056 129.479 151.102 129.456 151.24 129.364C153.205 128.14 154.881 126.505 156.154 124.572C156.447 124.14 156.73 123.684 156.983 123.224C157.382 122.513 157.736 121.778 158.043 121.023C158.152 120.764 158.256 120.499 158.348 120.24C158.544 119.716 158.723 119.174 158.878 118.627C159.034 118.08 159.183 117.475 159.304 116.899C159.425 116.323 159.535 115.747 159.615 115.137C160.179 110.899 159.896 106.592 158.78 102.465C155.019 88.1165 143.027 77.7543 131.985 79.3555C131.53 79.4189 131.08 79.5111 130.637 79.609C130.193 79.7069 129.779 79.8394 129.352 79.9776C129.122 80.0583 128.886 80.1389 128.655 80.2311L128.494 80.2944L127.918 80.5363C119.555 84.3552 115.523 95.7715 118.789 108.253C122.544 122.688 134.542 133.016 145.584 131.414ZM121.749 107.873C120.877 104.61 120.61 101.216 120.96 97.8567C120.989 97.5975 121.018 97.344 121.058 97.0848C121.784 92.016 124.093 87.8112 127.578 85.3747L127.786 85.2365C127.901 85.1501 128.022 85.0752 128.143 85.0003L128.367 84.8679C128.525 84.7667 128.689 84.6745 128.857 84.5914C129.053 84.48 129.245 84.3821 129.433 84.2976H129.473C129.893 84.1001 130.324 83.9271 130.764 83.7792C131.141 83.6533 131.526 83.5494 131.916 83.4682C132.28 83.3756 132.649 83.3044 133.021 83.2551C142.433 81.8957 152.663 90.7431 155.86 102.96C158.325 112.395 155.906 121.104 150.353 125.228C149.576 125.813 148.731 126.302 147.836 126.685C147.686 126.749 147.537 126.818 147.375 126.876C147.214 126.933 147.036 127.008 146.857 127.066C146.125 127.307 145.373 127.484 144.611 127.596C135.164 128.938 124.946 120.113 121.749 107.873Z" fill="#455A64"/>
<path opacity="0.4" d="M149.184 125.418C149.564 125.361 149.939 125.292 150.296 125.205C155.848 121.081 158.268 112.372 155.802 102.937C152.605 90.697 142.376 81.8727 132.964 83.232C132.591 83.2814 132.222 83.3526 131.858 83.4451C126.311 87.5693 123.886 96.2784 126.363 105.719C129.6 117.959 139.801 126.783 149.184 125.418Z" fill="white"/>
<g opacity="0.3">
<path d="M126.144 92.5402L153.13 96.0711C152.382 94.6732 151.525 93.3366 150.566 92.0736L127.4 89.0439C126.865 90.1641 126.444 91.3355 126.144 92.5402Z" fill="#EBEBEB"/>
<path d="M130.136 85.0061L145.538 87.0221C141.673 84.0903 137.249 82.6215 132.987 83.232C132.614 83.2814 132.245 83.3526 131.881 83.4451C131.251 83.9092 130.667 84.4319 130.136 85.0061Z" fill="#EBEBEB"/>
<path d="M125.603 95.3395L154.564 99.1296C154.293 98.4672 153.988 97.8106 153.7 97.1827L125.902 93.5482C125.781 94.1299 125.683 94.729 125.603 95.3395Z" fill="#EBEBEB"/>
<path d="M133.851 119.14C134.588 119.905 135.375 120.621 136.207 121.283L152.3 123.391C152.774 122.869 153.21 122.312 153.602 121.726L133.851 119.14Z" fill="#EBEBEB"/>
<path d="M129.024 112.527L156.096 116.064C156.709 113.609 156.933 111.072 156.758 108.547L126.127 104.515C126.207 104.901 126.305 105.299 126.409 105.667C127.005 108.05 127.882 110.353 129.024 112.527Z" fill="#EBEBEB"/>
</g>
<path d="M144.576 127.572C145.339 127.461 146.09 127.284 146.822 127.043C147.001 126.985 147.174 126.916 147.341 126.852C147.508 126.789 147.652 126.726 147.802 126.662L148.118 126.53L152.726 124.37C152.306 124.566 151.875 124.739 151.436 124.888C151.058 125.014 150.674 125.12 150.284 125.205C149.927 125.292 149.553 125.361 149.172 125.418C139.766 126.783 129.542 117.93 126.351 105.719C123.875 96.2784 126.3 87.5693 131.846 83.4451C132.533 82.9268 133.272 82.4828 134.052 82.1203L129.444 84.2746H129.404C129.208 84.359 129.016 84.457 128.828 84.5683C128.66 84.6514 128.497 84.7437 128.339 84.8448L128.114 84.9773C127.993 85.0522 127.872 85.127 127.757 85.2134L127.549 85.3517C124.065 87.7882 121.755 91.993 121.029 97.0618C120.989 97.321 120.96 97.5744 120.931 97.8336C120.591 101.194 120.868 104.589 121.749 107.85C124.946 120.113 135.164 128.938 144.576 127.572Z" fill="#37474F"/>
<path d="M163.405 100.356C166.654 112.798 162.657 124.168 154.356 128.033L149.76 130.176C158.06 126.323 162.046 114.947 158.803 102.528C155.048 88.1799 143.05 77.8234 132.013 79.4131C131.119 79.5448 130.238 79.7549 129.381 80.041C128.866 80.2161 128.36 80.418 127.866 80.6458L132.474 78.4915C132.971 78.274 133.479 78.0818 133.995 77.9155C134.85 77.6293 135.729 77.4211 136.621 77.2935C147.658 75.6461 159.65 86.0026 163.405 100.356Z" fill="#37474F"/>
<path d="M169.039 250.042H93.6057V253.423H169.039V250.042Z" fill="#455A64"/>
<path d="M131.576 250.042H93.6057V253.423H131.576V250.042Z" fill="#263238"/>
<path d="M130.164 253.423H203.685L214.07 203.495H140.555L130.164 253.423Z" fill="#263238"/>
<path d="M133.5 253.423H207.014L217.405 203.495H143.891L133.5 253.423Z" fill="#37474F"/>
<path d="M166.948 229.576C166.865 230.195 166.918 230.825 167.102 231.421C167.286 232.018 167.596 232.568 168.013 233.033C168.429 233.498 168.942 233.868 169.514 234.116C170.087 234.365 170.707 234.486 171.331 234.472C172.672 234.444 173.957 233.933 174.951 233.034C175.945 232.134 176.582 230.907 176.746 229.576C176.829 228.957 176.777 228.327 176.594 227.73C176.41 227.132 176.1 226.582 175.683 226.116C175.266 225.65 174.754 225.28 174.181 225.031C173.607 224.782 172.987 224.661 172.362 224.675C171.021 224.704 169.735 225.215 168.741 226.116C167.746 227.016 167.11 228.245 166.948 229.576Z" fill="#EBEBEB"/>
</svg>
