<svg width="238" height="238" viewBox="0 0 238 238" fill="none" xmlns="http://www.w3.org/2000/svg">
<path d="M90.2734 108.837C91.9433 110.136 93.9453 110.939 96.05 111.152C98.1547 111.366 100.277 110.983 102.174 110.046C104.071 109.11 105.666 107.658 106.776 105.857C107.886 104.056 108.466 101.978 108.45 99.8629C108.434 97.7474 107.822 95.6792 106.685 93.8951C105.548 92.1111 103.932 90.6833 102.021 89.7755C100.11 88.8676 97.9824 88.5163 95.8811 88.7617C93.7799 89.0072 91.7902 89.8396 90.1401 91.1635L87.6745 89.2595L84.0045 90.4067L84.4234 86.7367L81.3294 84.3329L77.6642 85.4753L78.0831 81.8054L75.4222 79.7395L73.185 80.4345L73.4421 78.1973L71.876 76.9787L68.3631 77.3214L67.8871 82.7193L86.2893 97.0231C85.7175 99.1659 85.7905 101.43 86.4991 103.531C87.2078 105.633 88.5207 107.479 90.2734 108.837ZM103.682 104.996C103.291 105.5 102.759 105.876 102.153 106.078C101.548 106.279 100.896 106.297 100.281 106.128C99.6653 105.959 99.1138 105.612 98.6958 105.13C98.2778 104.647 98.0121 104.052 97.9323 103.419C97.8525 102.786 97.9622 102.143 98.2475 101.573C98.5327 101.002 98.9808 100.529 99.535 100.212C100.089 99.8961 100.725 99.7513 101.361 99.7962C101.998 99.8411 102.607 100.074 103.111 100.465C103.786 100.991 104.225 101.763 104.332 102.612C104.439 103.462 104.206 104.319 103.682 104.996Z" fill="#EBEBEB"/>
<path d="M105.106 65.8165C105.823 64.9397 106.279 63.8786 106.421 62.7546C106.564 61.6307 106.386 60.4894 105.91 59.4615C105.434 58.4336 104.677 57.5607 103.728 56.9427C102.778 56.3247 101.674 55.9867 100.541 55.9673C99.4085 55.9479 98.2932 56.248 97.3231 56.8331C96.353 57.4183 95.5673 58.2649 95.0561 59.2759C94.5449 60.2869 94.3288 61.4215 94.4325 62.5496C94.5362 63.6778 94.9557 64.7539 95.6427 65.6547L94.5812 66.9494L95.1477 68.9296L93.1865 68.6583L91.868 70.2862L92.4345 72.2663L90.4781 71.9903L89.3357 73.3897L89.6784 74.594L88.4837 74.4274L87.822 75.2413L87.9601 77.1453L90.8446 77.469L98.7367 67.8015C99.8759 68.1332 101.088 68.1219 102.22 67.7689C103.353 67.4158 104.357 66.7368 105.106 65.8165ZM103.202 58.5909C103.466 58.8074 103.66 59.0974 103.76 59.4243C103.859 59.7511 103.86 60.1002 103.761 60.4273C103.662 60.7544 103.468 61.0448 103.204 61.2619C102.941 61.479 102.618 61.613 102.278 61.6469C101.938 61.6808 101.596 61.6132 101.294 61.4525C100.993 61.2919 100.746 61.0454 100.584 60.7443C100.423 60.4432 100.354 60.101 100.387 59.7609C100.42 59.4208 100.553 59.0981 100.769 58.8336C100.913 58.6546 101.091 58.506 101.292 58.3966C101.494 58.2873 101.716 58.2193 101.944 58.1967C102.172 58.174 102.403 58.1973 102.622 58.265C102.841 58.3326 103.045 58.4434 103.221 58.5909H103.202Z" fill="#EBEBEB"/>
<path d="M79.6443 24.9281V59.857H29.4691L27.6651 25.1709L79.6443 24.9281Z" fill="#E0E0E0"/>
<path d="M27.6651 25.1709L27.6651 59.7856H77.8403V25.1709H27.6651Z" fill="white"/>
<path d="M78.064 60.0238H27.4271V24.933H78.064V60.0238ZM27.8936 59.5478H77.588V25.409H27.9031L27.8936 59.5478Z" fill="#E0E0E0"/>
<path d="M72.3996 29.4692H33.0963V55.4826H72.3996V29.4692Z" fill="white"/>
<path d="M72.4044 29.4692H72.2092H71.6475L69.496 29.512H61.404L33.1106 29.5691L33.2248 29.4549C33.2248 37.4041 33.2248 46.2101 33.2248 55.4683L33.101 55.3445L72.4091 55.3731L72.3092 55.4683C72.3092 47.5524 72.3472 41.0645 72.3615 36.5425C72.3615 34.2815 72.3615 32.5203 72.3853 31.3065C72.3853 30.7068 72.3853 30.2498 72.3853 29.9309C72.3853 29.612 72.3853 29.4549 72.3853 29.4549C72.3853 29.4549 72.3853 29.6072 72.3853 29.9309C72.3853 30.2546 72.3853 30.6972 72.3853 31.2875C72.3853 32.4918 72.3853 34.253 72.3853 36.5235C72.3853 41.0598 72.4186 47.5714 72.4377 55.5111V55.6111H72.3425H33.0344H32.9106V55.4826C32.9106 46.2244 32.9106 37.4184 32.9106 29.4692V29.3549H33.0249L61.3945 29.412L69.4865 29.4454H71.6237H72.1711L72.4044 29.4692Z" fill="#E0E0E0"/>
<path d="M27.6603 25.0709C27.9703 25.2233 28.2611 25.4118 28.5267 25.6326C29.0407 26.0039 29.7357 26.5275 30.4925 27.132C31.2494 27.7365 31.9205 28.3077 32.3965 28.7361C32.6655 28.9498 32.9069 29.196 33.1153 29.4692C33.0677 29.5215 31.8634 28.5172 30.3545 27.3272C29.4104 26.6319 28.5106 25.8783 27.6603 25.0709Z" fill="#E0E0E0"/>
<path d="M77.8355 25.1709C77.0131 25.9801 76.1351 26.7309 75.208 27.4176C74.3255 28.1657 73.3919 28.8512 72.4139 29.4692C73.2393 28.6596 74.1205 27.9089 75.0509 27.2225C75.9298 26.474 76.8603 25.7885 77.8355 25.1709Z" fill="#E0E0E0"/>
<path d="M77.7975 59.7904L72.2045 55.2541L77.7975 59.7904Z" fill="white"/>
<path d="M72.2045 55.2541C73.2041 55.9127 74.1583 56.6378 75.0605 57.4246C76.0183 58.1568 76.9263 58.9519 77.7784 59.8046C76.7778 59.1474 75.8236 58.4221 74.9224 57.6341C73.9607 56.9067 73.0524 56.1114 72.2045 55.2541Z" fill="#E0E0E0"/>
<path d="M27.6603 59.7856C28.4777 58.9837 29.351 58.2409 30.2736 57.5627C31.1469 56.8216 32.071 56.1424 33.0391 55.5302C32.2263 56.3366 31.3544 57.0812 30.4307 57.7579C29.5565 58.4986 28.6307 59.1763 27.6603 59.7856Z" fill="#E0E0E0"/>
<path d="M41.0788 37.5755V46.2863H65.8118V37.5755H41.0788Z" fill="#E0E0E0"/>
<path d="M204.204 223.339C204.204 223.406 163.325 223.463 112.907 223.463C62.4893 223.463 21.5961 223.406 21.5961 223.339C21.5961 223.273 62.4702 223.215 112.907 223.215C163.344 223.215 204.204 223.273 204.204 223.339Z" fill="#263238"/>
<path d="M166.024 206.108L177.805 223.239L182.018 223.339L174.297 205.722L166.024 206.108Z" fill="#263238"/>
<path d="M41.7072 206.979L35.5001 223.163H38.6036L49.4422 207.05L41.7072 206.979Z" fill="#263238"/>
<path d="M39.032 148.179L39.508 169.123C39.5383 170.548 40.1176 171.906 41.1251 172.915C42.1325 173.923 43.4904 174.503 44.9154 174.535L162.102 177.143C162.839 177.16 163.572 177.029 164.258 176.758C164.944 176.487 165.569 176.082 166.097 175.566C166.624 175.051 167.043 174.435 167.329 173.755C167.614 173.075 167.762 172.345 167.761 171.608V146.38C167.76 142.783 166.458 139.309 164.096 136.597C161.734 133.885 158.472 132.119 154.909 131.624C133.456 128.672 89.2215 124.136 53.4501 130.581C49.3442 131.315 45.6354 133.492 42.992 136.718C40.3485 139.944 38.9442 144.009 39.032 148.179Z" fill="#219ABF"/>
<path d="M38.5179 155.495C38.5179 155.495 28.8647 151.025 26.8893 155.495C24.9139 159.965 27.132 165.448 29.3026 168.504C31.4731 171.56 31.4636 209.316 31.4636 209.316L177.872 207.75L179.604 171.446C179.604 171.446 186.625 162.797 186.187 159.07C185.749 155.343 179.823 149.916 173.021 155.481C166.219 161.045 164.453 172.674 164.453 172.674L47.7238 173.554C47.7238 173.554 48.1236 157.223 38.5179 155.495Z" fill="#219ABF"/>
<path d="M162.973 179.928C162.973 179.995 137.036 180.052 105.048 180.052C73.0613 180.052 47.124 180.009 47.124 179.928C47.124 179.847 73.0517 179.804 105.048 179.804C137.045 179.804 162.973 179.871 162.973 179.928Z" fill="#263238"/>
<path d="M47.124 195.922C47.1179 195.884 47.1179 195.845 47.124 195.807C47.124 195.717 47.124 195.603 47.124 195.469C47.124 195.171 47.1145 194.738 47.0955 194.17C47.0955 193.023 47.0955 191.4 47.0955 189.41C47.0955 185.383 47.124 179.819 46.9384 173.702C46.9021 170.822 46.6795 167.947 46.272 165.096C46.1863 164.782 46.1006 164.468 46.0197 164.144C45.9388 163.82 45.7817 163.549 45.658 163.258C45.4057 162.683 45.1486 162.13 44.8678 161.612C44.3608 160.646 43.7648 159.73 43.0876 158.875C42.5221 158.174 41.8839 157.536 41.1836 156.971C40.6516 156.547 40.0792 156.177 39.4747 155.866C38.948 155.623 38.4095 155.407 37.8611 155.219H37.9706L38.299 155.309C38.7191 155.43 39.1271 155.589 39.5176 155.785C40.1393 156.08 40.7267 156.443 41.2692 156.866C41.9843 157.427 42.6356 158.066 43.2113 158.77C43.9072 159.626 44.5193 160.548 45.0392 161.521C45.3295 162.045 45.5913 162.597 45.8484 163.178C45.9769 163.468 46.0959 163.768 46.2149 164.068L46.4862 165.02C46.9109 167.884 47.1415 170.773 47.1764 173.669C47.362 179.809 47.3002 185.373 47.2621 189.4C47.2335 191.395 47.2097 193.018 47.1954 194.16C47.1954 194.708 47.1954 195.141 47.1954 195.46V195.793C47.124 195.879 47.124 195.922 47.124 195.922Z" fill="#263238"/>
<path d="M37.3803 163.92C37.494 163.843 37.6283 163.801 37.7658 163.801C38.1485 163.772 38.5292 163.878 38.8416 164.101C39.0612 164.255 39.2408 164.459 39.3652 164.696C39.5075 164.975 39.5559 165.292 39.5032 165.6C39.4514 165.956 39.2931 166.287 39.0492 166.55C38.8053 166.814 38.4873 166.997 38.1371 167.076C37.7843 167.127 37.4244 167.072 37.1025 166.919C36.7807 166.765 36.5114 166.52 36.3283 166.214C36.168 165.948 36.0871 165.64 36.0951 165.329C36.1122 165.002 36.2171 164.685 36.3989 164.412C36.5806 164.139 36.8325 163.92 37.128 163.777C37.2494 163.712 37.3851 163.677 37.5231 163.677C37.5231 163.701 37.385 163.734 37.1708 163.863C36.8715 164.048 36.6319 164.316 36.4806 164.634C36.3675 164.857 36.3134 165.106 36.3234 165.356C36.3334 165.606 36.4072 165.849 36.5378 166.062C36.7008 166.323 36.9358 166.532 37.2144 166.663C37.493 166.793 37.8035 166.841 38.1086 166.8C38.4069 166.73 38.6783 166.574 38.889 166.352C39.0996 166.129 39.2404 165.85 39.2938 165.548C39.3358 165.3 39.3072 165.044 39.2112 164.811C39.1153 164.578 38.9559 164.377 38.7512 164.23C38.4799 164.014 38.1458 163.892 37.7992 163.882C37.5231 163.896 37.385 163.944 37.3803 163.92Z" fill="#263238"/>
<path d="M38.042 173.316C37.7644 173.11 37.538 172.843 37.3803 172.536C36.9458 171.82 36.7113 171.001 36.7012 170.164C36.6912 169.326 36.906 168.502 37.3232 167.776C37.475 167.465 37.6946 167.191 37.9658 166.976C37.9991 167.005 37.7516 167.304 37.4898 167.857C37.1326 168.572 36.9499 169.361 36.9567 170.16C36.9698 170.961 37.1703 171.746 37.5422 172.455C37.8182 172.997 38.08 173.293 38.042 173.316Z" fill="#263238"/>
<path d="M36.5092 159.184C36.4833 159.426 36.4356 159.665 36.3664 159.898C36.1576 161.037 36.4074 162.212 37.0614 163.168C37.2156 163.355 37.3572 163.552 37.485 163.758C37.485 163.758 37.2185 163.625 36.9186 163.282C36.5324 162.811 36.2637 162.254 36.1346 161.658C36.0055 161.062 36.0197 160.444 36.176 159.855C36.2293 159.607 36.3438 159.376 36.5092 159.184Z" fill="#263238"/>
<path d="M33.658 164.448C33.7151 164.401 34.1578 164.848 34.8337 165.196C35.5096 165.543 36.1236 165.672 36.1141 165.729C35.6268 165.791 35.1329 165.68 34.7194 165.415C34.2644 165.225 33.8892 164.884 33.658 164.448Z" fill="#263238"/>
<path d="M178.433 195.922C178.433 195.988 145.413 196.045 104.682 196.045C63.9506 196.045 30.94 195.988 30.94 195.922C30.94 195.855 63.9554 195.798 104.72 195.798C145.485 195.798 178.433 195.85 178.433 195.922Z" fill="#263238"/>
<path d="M162.464 172.812C162.535 172.812 162.587 177.981 162.587 184.355C162.587 190.728 162.535 195.907 162.464 195.907C162.392 195.907 162.34 190.738 162.34 184.355C162.34 177.972 162.397 172.812 162.464 172.812Z" fill="#263238"/>
<path d="M113.574 132.871H113.345L112.679 132.894L110.123 132.966L100.707 133.185L69.6531 133.808C66.621 133.88 63.6555 133.87 60.809 134.061C58.068 134.178 55.3563 134.673 52.7504 135.531C50.3996 136.32 48.2959 137.71 46.648 139.563C45.9005 140.4 45.2609 141.328 44.744 142.324C44.2727 143.24 43.8824 144.196 43.5778 145.18C43.0886 146.89 42.7697 148.644 42.6258 150.416C42.4783 151.987 42.464 153.343 42.4545 154.457C42.445 155.571 42.4545 156.428 42.4878 157.013C42.4878 157.299 42.4878 157.518 42.4878 157.68C42.4878 157.842 42.4878 157.908 42.4878 157.908C42.4878 157.908 42.4878 157.832 42.4878 157.68C42.4878 157.527 42.4878 157.299 42.4497 157.013C42.4212 156.433 42.3831 155.585 42.3736 154.457C42.364 153.329 42.3736 151.982 42.5021 150.402C42.6422 148.612 42.9611 146.84 43.4541 145.113C43.7555 144.112 44.1441 143.139 44.6155 142.205C45.1279 141.189 45.7677 140.242 46.5195 139.387C48.1898 137.506 50.3231 136.095 52.7075 135.293C55.3222 134.421 58.0457 133.916 60.7995 133.794C63.6555 133.604 66.6258 133.608 69.6579 133.537L100.717 132.985L110.127 132.847L112.688 132.818H113.355L113.574 132.871Z" fill="#263238"/>
<path d="M76.0934 149.178C76.0934 149.178 75.9363 149.255 75.6936 149.44C75.3504 149.704 75.0935 150.063 74.9558 150.473C74.8448 150.765 74.8106 151.081 74.8564 151.39C74.9022 151.699 75.0266 151.992 75.2176 152.239C75.4328 152.565 75.7429 152.816 76.1059 152.96C76.4689 153.103 76.8672 153.132 77.2469 153.042C77.6267 152.951 77.9695 152.746 78.2288 152.455C78.4882 152.163 78.6517 151.799 78.6971 151.411C78.7552 151.103 78.7341 150.786 78.6359 150.489C78.5376 150.191 78.3654 149.924 78.1354 149.712C77.8268 149.41 77.436 149.206 77.0121 149.126C76.7122 149.074 76.5361 149.093 76.5361 149.074C76.6882 149.018 76.8524 149.003 77.0121 149.031C77.4002 149.075 77.7697 149.222 78.0831 149.455C78.3966 149.688 78.6429 150 78.7971 150.359C78.9373 150.706 78.9753 151.086 78.9066 151.454C78.8451 151.88 78.657 152.277 78.3666 152.595C78.0763 152.913 77.6971 153.136 77.2784 153.236C76.8596 153.335 76.4206 153.307 76.0183 153.153C75.616 153 75.269 152.73 75.0224 152.377C74.7965 152.08 74.6595 151.725 74.6273 151.354C74.6059 151.029 74.6562 150.704 74.7749 150.402C74.9374 149.969 75.2344 149.601 75.6222 149.35C75.7611 149.252 75.9238 149.192 76.0934 149.178Z" fill="#263238"/>
<path d="M74.0894 161.512C73.9082 161.053 73.7866 160.573 73.7277 160.084C73.4954 158.921 73.5214 157.722 73.8038 156.571C74.1089 155.404 74.8412 154.395 75.8554 153.743C76.1619 153.554 76.4982 153.417 76.8502 153.339C76.9763 153.299 77.1092 153.286 77.2405 153.301C76.7873 153.446 76.3528 153.644 75.9458 153.891C75.0079 154.554 74.3337 155.526 74.0418 156.637C73.7733 157.757 73.7248 158.917 73.899 160.055C74.0133 160.959 74.1275 161.502 74.0894 161.512Z" fill="#263238"/>
<path d="M75.822 141.848C75.5692 142.184 75.3356 142.533 75.1223 142.895C74.6389 143.786 74.4964 144.822 74.7215 145.811C74.9467 146.799 75.524 147.671 76.3456 148.265C76.6955 148.501 77.0595 148.715 77.4357 148.907C77.3178 148.907 77.2012 148.882 77.0929 148.836C76.7933 148.73 76.5085 148.586 76.2457 148.407C75.3475 147.821 74.712 146.908 74.4732 145.862C74.2344 144.816 74.4108 143.718 74.9652 142.8C75.125 142.525 75.3202 142.272 75.5459 142.048C75.7078 141.881 75.8125 141.815 75.822 141.848Z" fill="#263238"/>
<path d="M75.3841 151.368C74.5141 151.514 73.6528 151.708 72.8042 151.949C71.9824 152.27 71.1784 152.636 70.3956 153.044C71.7712 151.847 73.5651 151.244 75.3841 151.368Z" fill="#263238"/>
<g opacity="0.3">
<path d="M60.0046 180.375C64.6258 183.917 70.3799 185.652 76.1886 185.254C74.9827 190.849 73.78 196.445 72.5805 202.043C72.2616 203.533 71.9617 205.194 72.7423 206.508C73.8371 208.35 76.3837 208.531 78.5257 208.502C80.9057 208.469 83.3905 208.412 85.5039 207.308C88.4979 205.746 90.1068 202.433 91.2683 199.263C92.4297 196.093 93.4341 192.694 95.8236 190.31C98.5666 193.435 102.279 195.548 106.367 196.312C107.557 196.531 108.909 196.598 109.861 195.836C110.813 195.074 111.084 193.732 110.841 192.552C110.525 191.388 109.997 190.293 109.285 189.319L102.316 178.514C101.364 177.053 100.346 175.511 98.751 174.816C97.4991 174.268 96.0806 174.34 94.7193 174.402C83.3422 175.064 72.05 176.771 60.9851 179.5" fill="black"/>
</g>
<g opacity="0.3">
<path d="M97.2373 126.806C94.4194 134.251 83.9093 135.96 80.2013 142.99C76.5504 149.959 81.0771 159.174 77.3167 166.105C75.922 168.666 73.5087 170.575 72.1664 173.155C71.2525 174.887 70.7812 176.963 69.3104 178.243C67.5873 179.742 64.9169 179.714 62.8463 178.743C60.7757 177.772 59.1859 176.03 57.7103 174.283C54.9495 171.008 52.3553 167.466 51.0463 163.377C48.8281 156.347 50.8654 148.393 55.3303 142.519C59.7951 136.645 66.4068 132.68 73.3897 130.305C80.3726 127.93 87.7602 127.035 95.1048 126.345" fill="black"/>
</g>
<path d="M63.3937 107.229C64.4605 105.566 65.9353 104.204 67.6777 103.273C69.4325 102.339 71.4838 102.132 73.3897 102.697C74.3262 102.994 75.1694 103.529 75.8369 104.25C76.5045 104.971 76.9733 105.853 77.1977 106.81C77.4976 108.338 77.0882 110.042 77.8784 111.384C78.7828 112.926 80.9676 113.412 81.7387 115.03C81.9413 115.531 82.0256 116.072 81.9852 116.612C81.9447 117.151 81.7806 117.673 81.5055 118.138C80.9505 119.065 80.2442 119.892 79.4158 120.585C79.9147 120.897 80.3559 121.294 80.7201 121.756C80.9008 121.989 81.0207 122.263 81.0689 122.554C81.1171 122.845 81.0921 123.143 80.9962 123.422C80.6857 123.973 80.1739 124.383 79.5682 124.564C76.9089 125.685 73.9691 125.961 71.1477 125.355C70.3956 125.193 69.5341 124.988 68.9153 125.445" fill="#263238"/>
<path d="M82.448 112.879L80.92 117.539L91.3254 123.446L80.8534 123.784L81.634 132.271L101.793 127.32C101.793 127.32 103.002 119.1 82.448 112.879L81.02 112.536C80.7625 112.475 80.5236 112.353 80.3237 112.18C80.1239 112.007 79.9692 111.787 79.8728 111.541C79.7095 111.14 79.4046 110.813 79.016 110.622L77.2977 109.728V111.089L78.2497 112.198L78.0974 114.83C78.0574 115.394 78.2194 115.954 78.5543 116.409C78.8892 116.864 79.3751 117.185 79.9252 117.315L80.8772 117.539" fill="#B78876"/>
<path d="M59.6523 129.729C59.2382 129.729 55.3969 130.681 53.1978 133.461C50.9987 136.241 47.819 146.76 47.819 146.76L55.911 148.16L59.4048 156.932C59.4048 156.932 80.087 154.224 78.9875 153.124C77.9246 152.146 76.8125 151.223 75.6555 150.359L80.4155 134.503L86.1275 131.419L84.1996 123.498L72.6947 125.055L59.6523 129.729Z" fill="#FAFAFA"/>
<path d="M79.4254 138.169C79.4254 138.235 72.9756 138.292 65.0264 138.292C57.0772 138.292 50.6226 138.235 50.6226 138.169C50.6226 138.102 57.0724 138.045 65.0264 138.045C72.9803 138.045 79.4254 138.102 79.4254 138.169Z" fill="#219ABF"/>
<path d="M78.1354 142.829C78.1354 142.895 71.6856 142.952 63.7364 142.952C55.7872 142.952 49.3326 142.895 49.3326 142.829C49.3326 142.762 55.7777 142.705 63.7364 142.705C71.6951 142.705 78.1354 142.762 78.1354 142.829Z" fill="#219ABF"/>
<path d="M78.1354 147.86C78.1354 147.931 73.2516 147.988 67.2255 147.988C61.1993 147.988 56.3203 147.931 56.3203 147.86C56.3203 147.788 61.2041 147.736 67.2255 147.736C73.2469 147.736 78.1354 147.793 78.1354 147.86Z" fill="#219ABF"/>
<path d="M79.8062 152.71C79.8062 152.777 74.9224 152.834 68.901 152.834C62.8796 152.834 57.9958 152.777 57.9958 152.71C57.9958 152.644 62.8749 152.587 68.901 152.587C74.9272 152.587 79.8062 152.639 79.8062 152.71Z" fill="#219ABF"/>
<path d="M84.9708 131.9C84.9708 131.971 81.7435 132.023 77.7689 132.023C73.7943 132.023 70.5623 131.971 70.5623 131.9C70.5623 131.828 73.7848 131.776 77.7689 131.776C81.753 131.776 84.9708 131.852 84.9708 131.9Z" fill="#219ABF"/>
<path d="M85.4944 126.959C85.4944 127.03 82.2814 127.159 78.3211 127.249C74.3608 127.34 71.1382 127.363 71.1382 127.297C71.1382 127.23 74.3465 127.097 78.3116 127.002C82.2766 126.906 85.4944 126.892 85.4944 126.959Z" fill="#219ABF"/>
<path d="M57.596 140.587C57.4191 141.899 57.1599 143.2 56.8202 144.48C56.5612 145.78 56.2226 147.063 55.8063 148.322C55.9834 147.009 56.2409 145.709 56.5774 144.428C56.8339 143.127 57.1741 141.844 57.596 140.587Z" fill="#263238"/>
<path d="M80.1108 200.02L74.0847 219.027L81.3484 219.76L88.1743 203.242L80.1108 200.02Z" fill="#B78876"/>
<path d="M85.4277 212.363L81.9672 220.931C81.9672 220.931 89.5261 227.333 89.0406 228.98L72.1616 222.882L77.0025 209.288L85.4277 212.363Z" fill="#455A64"/>
<path d="M77.0121 218.322C76.8318 218.313 76.6544 218.37 76.5138 218.484C76.3733 218.597 76.2795 218.758 76.2505 218.936C76.2339 219.116 76.2869 219.295 76.3985 219.437C76.5101 219.578 76.6718 219.672 76.8502 219.698C77.0411 219.707 77.2287 219.646 77.3772 219.526C77.5256 219.405 77.6244 219.234 77.6547 219.046C77.6547 218.684 77.2977 218.27 76.9407 218.322" fill="#E0E0E0"/>
<path d="M72.1616 222.882L72.7043 221.53L88.6883 227.899C88.6883 227.899 89.3214 228.494 89.0406 228.994L72.1616 222.882Z" fill="#E0E0E0"/>
<path d="M82.2719 220.959C82.2385 221.04 81.7959 220.931 81.3199 221.045C80.8439 221.159 80.4773 221.435 80.4155 221.373C80.3536 221.311 80.6439 220.897 81.2532 220.75C81.8625 220.602 82.3147 220.888 82.2719 220.959Z" fill="#263238"/>
<path d="M83.776 222.33C83.776 222.421 83.3572 222.43 82.9526 222.678C82.548 222.925 82.348 223.244 82.2528 223.244C82.1576 223.244 82.2862 222.725 82.7955 222.43C83.3048 222.135 83.8046 222.254 83.776 222.33Z" fill="#263238"/>
<path d="M84.014 224.815C83.9331 224.815 83.9664 224.339 84.3424 223.977C84.7185 223.615 85.1707 223.563 85.1802 223.644C85.1897 223.725 84.8613 223.882 84.5614 224.191C84.2615 224.501 84.0997 224.839 84.014 224.815Z" fill="#263238"/>
<path d="M82.824 218.917C82.7621 218.979 82.4242 218.727 81.9482 218.589C81.4722 218.451 81.0533 218.47 81.0343 218.384C81.0152 218.298 81.4769 218.127 82.0339 218.298C82.5908 218.47 82.9049 218.865 82.824 218.917Z" fill="#263238"/>
<path d="M83.5095 217.17C83.2061 217.144 82.9152 217.037 82.6669 216.861C82.3807 216.697 82.1167 216.497 81.8815 216.266C81.7379 216.133 81.6057 215.988 81.4865 215.833C81.4113 215.746 81.3502 215.648 81.3056 215.542C81.2723 215.464 81.266 215.378 81.2875 215.296C81.3091 215.214 81.3573 215.142 81.4246 215.09C81.4864 215.047 81.5575 215.02 81.6319 215.01C81.7064 215 81.7821 215.008 81.853 215.033C81.9606 215.073 82.0629 215.125 82.1576 215.19C82.3273 215.299 82.4866 215.423 82.6336 215.561C82.8722 215.794 83.0729 216.062 83.2286 216.356C83.3988 216.612 83.4853 216.915 83.4761 217.223C83.4285 217.223 83.3333 216.908 83.043 216.466C82.8745 216.209 82.6728 215.975 82.4432 215.771C82.3099 215.648 82.1648 215.538 82.0101 215.442C81.8482 215.333 81.6959 215.276 81.6245 215.338C81.5531 215.4 81.5912 215.376 81.6245 215.438C81.6617 215.514 81.7081 215.586 81.7625 215.652C81.8726 215.797 81.9902 215.937 82.1148 216.071C82.3316 216.294 82.5674 216.498 82.8193 216.68C83.0606 216.827 83.2912 216.991 83.5095 217.17Z" fill="#263238"/>
<path d="M83.3571 217.251C83.2845 216.951 83.3113 216.635 83.4333 216.352C83.5899 215.842 83.8849 215.385 84.2853 215.033C84.3709 214.938 84.4793 214.867 84.6001 214.827C84.7209 214.786 84.8501 214.777 84.9755 214.8C85.0504 214.83 85.1154 214.88 85.1633 214.944C85.2112 215.009 85.2402 215.086 85.2468 215.166C85.2552 215.281 85.2456 215.397 85.2183 215.509C85.1797 215.707 85.1107 215.898 85.0136 216.075C84.8539 216.376 84.6215 216.631 84.3377 216.818C83.8617 217.137 83.4666 217.113 83.4714 217.08C83.7259 216.951 83.9723 216.806 84.2092 216.647C84.4437 216.457 84.6338 216.218 84.7661 215.947C84.8403 215.796 84.8947 215.636 84.9279 215.471C84.966 215.285 84.9517 215.114 84.8756 215.109C84.7994 215.104 84.5995 215.162 84.4805 215.281C84.3435 215.395 84.2176 215.523 84.1044 215.661C83.9113 215.901 83.7512 216.165 83.6284 216.447C83.4333 216.913 83.4095 217.256 83.3571 217.251Z" fill="#263238"/>
<path d="M102.983 182.127L111.979 197.764L119.338 193.042L110.303 177.167L102.983 182.127Z" fill="#B78876"/>
<path d="M116.796 188.572L121.447 196.588C121.447 196.588 131.138 194.551 132.142 195.945L116.948 205.513L109.194 193.332L116.796 188.572Z" fill="#455A64"/>
<path d="M116.33 198.878C116.209 199.011 116.142 199.185 116.142 199.365C116.142 199.546 116.209 199.72 116.33 199.853C116.46 199.972 116.629 200.038 116.806 200.038C116.982 200.038 117.152 199.972 117.282 199.853C117.407 199.708 117.473 199.522 117.469 199.33C117.464 199.138 117.389 198.955 117.258 198.816C117.106 198.702 116.917 198.652 116.73 198.674C116.542 198.696 116.37 198.789 116.249 198.935" fill="#E0E0E0"/>
<path d="M116.948 205.503L116.215 204.247L131.057 195.546C131.057 195.546 131.919 195.412 132.142 195.936L116.948 205.503Z" fill="#E0E0E0"/>
<path d="M121.642 196.345C121.685 196.421 121.337 196.688 121.123 197.154C120.909 197.621 120.909 198.059 120.823 198.073C120.737 198.087 120.576 197.597 120.823 197.026C121.071 196.455 121.613 196.264 121.642 196.345Z" fill="#263238"/>
<path d="M123.651 195.998C123.712 196.06 123.47 196.388 123.417 196.864C123.365 197.34 123.498 197.711 123.417 197.754C123.336 197.797 123.032 197.411 123.108 196.802C123.184 196.193 123.603 195.931 123.651 195.998Z" fill="#263238"/>
<path d="M125.759 197.335C125.697 197.397 125.364 197.093 125.283 196.564C125.202 196.036 125.464 195.66 125.536 195.698C125.607 195.736 125.536 196.093 125.588 196.526C125.64 196.959 125.826 197.283 125.759 197.335Z" fill="#263238"/>
<path d="M120.38 194.636C120.38 194.727 119.985 194.836 119.585 195.112C119.186 195.388 118.943 195.741 118.862 195.703C118.781 195.665 118.933 195.198 119.409 194.86C119.885 194.522 120.38 194.555 120.38 194.636Z" fill="#263238"/>
<path d="M119.414 193.042C119.414 193.07 119.171 193.304 118.653 193.518C118.346 193.639 118.026 193.725 117.701 193.775C117.506 193.799 117.311 193.814 117.115 193.818C117 193.822 116.884 193.809 116.772 193.78C116.691 193.758 116.619 193.709 116.569 193.642C116.518 193.575 116.491 193.493 116.491 193.408C116.495 193.333 116.517 193.259 116.555 193.194C116.594 193.128 116.647 193.073 116.71 193.032C116.807 192.973 116.911 192.927 117.02 192.894C117.523 192.722 118.062 192.681 118.586 192.775C119.148 192.88 119.443 193.085 119.424 193.113C119.405 193.142 119.09 193.032 118.562 192.989C118.253 192.967 117.943 192.983 117.639 193.037C117.462 193.069 117.289 193.115 117.12 193.175C116.929 193.237 116.791 193.323 116.796 193.418C116.801 193.513 116.796 193.465 116.868 193.494C116.95 193.513 117.035 193.521 117.12 193.518C117.613 193.524 118.104 193.455 118.576 193.313C118.849 193.202 119.129 193.112 119.414 193.042Z" fill="#263238"/>
<path d="M119.386 193.208C119.386 193.237 119.052 193.061 118.719 192.599C118.528 192.326 118.386 192.022 118.3 191.7C118.249 191.509 118.215 191.315 118.2 191.119C118.179 190.992 118.19 190.862 118.234 190.741C118.277 190.62 118.351 190.513 118.448 190.429C118.515 190.386 118.592 190.364 118.672 190.364C118.751 190.364 118.828 190.386 118.895 190.429C118.991 190.492 119.078 190.569 119.152 190.657C119.283 190.813 119.392 190.986 119.476 191.171C119.611 191.483 119.669 191.823 119.643 192.161C119.595 192.742 119.343 193.028 119.319 193.004C119.372 192.724 119.408 192.441 119.428 192.156C119.422 191.856 119.351 191.56 119.219 191.29C119.144 191.133 119.046 190.987 118.929 190.857C118.805 190.714 118.662 190.619 118.61 190.676C118.562 190.733 118.528 190.799 118.509 190.871C118.49 190.943 118.487 191.017 118.5 191.09C118.509 191.27 118.533 191.448 118.572 191.623C118.641 191.922 118.754 192.209 118.905 192.475C119.162 192.942 119.419 193.17 119.386 193.208Z" fill="#263238"/>
<path d="M76.2029 179.928L93.872 167.914L105.015 189.605L115.144 184.117C115.144 184.117 103.478 155.652 99.2889 154.748C96.9422 154.234 70.0292 159.37 70.0292 159.37L67.0208 157.861L59.4048 156.932L58.9288 158.165C57.5994 161.532 56.988 165.139 57.1339 168.755C57.2798 172.372 58.1798 175.918 59.7761 179.166L60.1474 179.923L76.2029 179.928Z" fill="#263238"/>
<path d="M70.0006 164.896C70.1339 165.491 84.7566 179.176 84.7566 179.176L76.3314 207.493L88.9073 209.897L101.536 175.787L78.4543 153.143L67.8919 157.556L70.0006 164.896Z" fill="#263238"/>
<path d="M93.872 167.909C93.9101 167.966 89.9831 170.698 85.1088 174.016C80.2346 177.334 76.2457 179.976 76.2029 179.928C76.16 179.88 80.087 177.134 84.966 173.816C89.845 170.498 93.8291 167.852 93.872 167.909Z" fill="#455A64"/>
<path d="M102.94 185.559C102.777 185.356 102.634 185.137 102.511 184.907C102.25 184.479 101.888 183.845 101.445 183.065C100.565 181.499 99.3936 179.309 98.156 176.877C96.9184 174.444 95.8236 172.203 95.0572 170.579C94.6717 169.765 94.367 169.104 94.1624 168.647C94.0421 168.416 93.9448 168.173 93.872 167.923C94.0157 168.14 94.143 168.368 94.2528 168.604L95.2048 170.508C96.033 172.15 97.1421 174.345 98.3654 176.777C99.5888 179.209 100.745 181.418 101.588 183.003C101.993 183.769 102.331 184.402 102.588 184.883C102.722 185.099 102.84 185.325 102.94 185.559Z" fill="#455A64"/>
<path d="M87.3794 174.111C87.0038 175.155 86.5519 176.17 86.0275 177.148C85.5746 178.16 85.048 179.136 84.452 180.071C85.2786 178.014 86.2571 176.022 87.3794 174.111Z" fill="#455A64"/>
<path d="M47.819 146.76L44.963 157.308C44.5943 158.673 44.7648 160.127 45.439 161.369C46.0142 162.437 46.9245 163.286 48.0298 163.786C49.135 164.285 50.3738 164.408 51.5556 164.134L74.1894 158.56L71.8094 153.857L53.9784 155.404L55.8824 148.16L47.819 146.76Z" fill="#B78876"/>
<path d="M57.8578 162.768L58.153 161.235L70.4195 159.032L73.9847 140.12L96.7661 137.407L92.939 157.594L57.8578 162.768Z" fill="#455A64"/>
<path d="M84.214 150.307C83.9521 150.295 83.6999 150.204 83.4914 150.045C83.2829 149.886 83.1279 149.667 83.0473 149.418C82.9667 149.168 82.9642 148.9 83.0403 148.649C83.1165 148.399 83.2675 148.177 83.4731 148.014C83.6788 147.852 83.9292 147.756 84.1908 147.74C84.4525 147.724 84.7128 147.788 84.9369 147.924C85.161 148.06 85.3382 148.261 85.4447 148.501C85.5511 148.74 85.5818 149.007 85.5325 149.264C85.4943 149.576 85.3344 149.861 85.0875 150.056C84.8407 150.252 84.5267 150.341 84.214 150.307Z" fill="#EBEBEB"/>
<path d="M61.1898 108.528L61.2327 109.894L61.7467 130.362C61.8086 132.742 63.8983 134.579 66.4401 134.494C69.0105 134.413 71.0763 132.399 71.0573 129.996C71.0335 127.478 71.0573 124.821 71.0573 124.821C71.0573 124.821 74.2989 124.246 74.9224 120C75.2318 117.891 75.0843 114.435 74.8748 111.612C74.8301 111.01 74.6641 110.424 74.3867 109.888C74.1092 109.351 73.7262 108.877 73.2606 108.493C72.795 108.108 72.2564 107.822 71.6773 107.652C71.0983 107.481 70.4907 107.429 69.8911 107.5L61.1898 108.528Z" fill="#B78876"/>
<path d="M73.2326 113.988C73.2353 114.13 73.1826 114.267 73.0858 114.371C72.989 114.475 72.8556 114.537 72.7138 114.545C72.6456 114.551 72.5769 114.543 72.5117 114.522C72.4465 114.501 72.3861 114.468 72.3339 114.424C72.2817 114.379 72.2387 114.325 72.2075 114.264C72.1763 114.203 72.1575 114.137 72.1521 114.069C72.1494 113.927 72.2013 113.791 72.2971 113.687C72.393 113.583 72.5252 113.52 72.6662 113.512C72.8044 113.5 72.9416 113.543 73.0478 113.633C73.154 113.722 73.2205 113.85 73.2326 113.988Z" fill="#263238"/>
<path d="M74.1465 113.436C74.0799 113.507 73.6705 113.207 73.0803 113.212C72.4901 113.217 72.0712 113.521 72.0045 113.45C71.9379 113.378 72.0426 113.288 72.2283 113.15C72.4788 112.972 72.7779 112.876 73.085 112.874C73.3893 112.871 73.687 112.962 73.9371 113.136C74.118 113.288 74.1799 113.402 74.1465 113.436Z" fill="#263238"/>
<path d="M67.4635 114.197C67.4674 114.34 67.4151 114.478 67.3181 114.582C67.221 114.686 67.0869 114.748 66.9446 114.754C66.8064 114.766 66.6692 114.723 66.563 114.633C66.4568 114.544 66.3903 114.416 66.3782 114.278C66.3756 114.137 66.4284 114 66.5253 113.896C66.6222 113.793 66.7556 113.732 66.897 113.726C66.9652 113.719 67.034 113.726 67.0995 113.747C67.165 113.767 67.2258 113.8 67.2784 113.844C67.3311 113.887 67.3746 113.941 67.4063 114.002C67.4381 114.063 67.4575 114.129 67.4635 114.197Z" fill="#263238"/>
<path d="M68.4012 113.612C68.3346 113.683 67.9252 113.383 67.335 113.388C66.7447 113.393 66.3259 113.697 66.2592 113.626C66.1926 113.555 66.2925 113.464 66.4782 113.326C66.7305 113.148 67.0311 113.052 67.3397 113.05C67.6425 113.047 67.9387 113.139 68.187 113.312C68.3679 113.45 68.4345 113.578 68.4012 113.612Z" fill="#263238"/>
<path d="M70.5718 117.919C70.8804 117.82 71.2002 117.759 71.5238 117.739C71.6761 117.739 71.8141 117.691 71.8379 117.586C71.8492 117.433 71.8126 117.28 71.7332 117.148L71.281 116.015C70.8594 115.058 70.5155 114.068 70.2529 113.055C70.7528 113.97 71.1747 114.925 71.5143 115.911L71.9522 117.048C72.0467 117.228 72.0769 117.435 72.0379 117.634C72.0165 117.687 71.9836 117.734 71.9416 117.773C71.8997 117.812 71.8496 117.841 71.7951 117.858C71.7113 117.881 71.625 117.893 71.5381 117.896C71.2184 117.945 70.8936 117.953 70.5718 117.919Z" fill="#263238"/>
<path d="M71.0573 124.836C69.0576 124.9 67.0796 124.405 65.3453 123.408C65.3453 123.408 66.7733 126.302 70.9906 125.854L71.0573 124.836Z" fill="#AA6550"/>
<path d="M68.6344 112.645C68.5726 112.802 67.9918 112.703 67.3016 112.75C66.6114 112.798 66.0498 112.964 65.9641 112.817C65.926 112.745 66.0307 112.603 66.2592 112.46C66.5649 112.28 66.9095 112.177 67.2636 112.16C67.6162 112.133 67.9701 112.19 68.2965 112.326C68.544 112.441 68.663 112.574 68.6344 112.645Z" fill="#263238"/>
<path d="M73.9038 111.384C73.799 111.517 73.3944 111.384 72.9137 111.384C72.4329 111.384 72.0188 111.484 71.9236 111.346C71.8284 111.208 71.9236 111.146 72.1188 111.017C72.3582 110.863 72.6385 110.783 72.9236 110.789C73.2086 110.795 73.4853 110.886 73.7181 111.051C73.8895 111.203 73.9466 111.341 73.9038 111.384Z" fill="#263238"/>
<path d="M70.5099 120.038C70.3385 120.065 70.1628 120.047 70.0006 119.985L69.5246 119.852C69.3913 119.809 69.2437 119.747 69.0771 119.685C68.9101 119.64 68.7587 119.549 68.6392 119.424C68.5393 119.295 68.5583 119.067 68.7868 118.862C68.9454 118.746 69.1293 118.67 69.3232 118.64C69.5172 118.61 69.7155 118.627 69.9017 118.689C70.0879 118.75 70.2567 118.856 70.3939 118.996C70.5312 119.136 70.6329 119.308 70.6908 119.495C70.7907 119.795 70.667 119.995 70.5099 120.038Z" fill="#AA6550"/>
<path d="M70.5908 119.985C70.5337 120.028 70.2481 119.443 69.5627 119.267C69.1435 119.206 68.716 119.254 68.3203 119.405C68.3203 119.405 68.3965 119.252 68.6297 119.133C68.9378 118.98 69.2912 118.942 69.6246 119.029C69.959 119.113 70.2516 119.316 70.448 119.6C70.5956 119.814 70.6194 119.976 70.5908 119.985Z" fill="#263238"/>
<path d="M66.0926 105.777C66.7464 106.808 67.027 108.031 66.8875 109.244C66.748 110.457 66.197 111.585 65.3262 112.441C64.3124 113.393 62.8034 114.121 62.7035 115.501C62.5892 117.029 64.36 118.172 64.36 119.704C64.36 121.237 62.5464 122.284 62.1894 123.822C61.9038 125.06 62.6654 126.297 63.5032 127.235C64.3409 128.173 65.4072 129.001 65.8832 130.162C66.1359 130.817 66.2535 131.515 66.2289 132.216C66.2044 132.918 66.0382 133.606 65.7404 134.242C65.1379 135.504 64.3341 136.66 63.3604 137.664C62.0945 137.211 60.7768 136.918 59.4381 136.793C59.519 136.288 59.6047 135.779 59.6904 135.274C59.6778 135.569 59.5719 135.853 59.388 136.084C59.2041 136.315 58.9517 136.481 58.667 136.56C58.0931 136.706 57.4929 136.714 56.9153 136.583C55.1312 136.301 53.378 135.85 51.6793 135.236C52.439 134.552 53.0821 133.748 53.5833 132.856C53.8304 132.405 53.9642 131.901 53.9733 131.387C53.9824 130.873 53.8666 130.365 53.6357 129.905C53.2168 129.191 52.4457 128.734 52.0601 128.001C51.4842 126.906 51.9602 125.516 52.7789 124.588C53.5976 123.66 54.7114 123.056 55.6872 122.294C56.663 121.532 57.5579 120.504 57.6341 119.267C57.7388 117.667 56.4393 116.206 56.6012 114.611C56.782 112.793 58.7051 111.679 59.4572 110.013C60.0046 108.809 59.9332 107.324 60.7709 106.3C61.0996 105.935 61.5081 105.651 61.9646 105.469C62.4212 105.287 62.9135 105.213 63.4032 105.253C64.3819 105.338 65.3242 105.665 66.145 106.205" fill="#263238"/>
<path d="M71.4 125.293C70.6384 125.712 70.6813 126.878 71.1478 127.616C71.6142 128.353 72.3616 128.882 72.8233 129.624C73.2135 130.302 73.3498 131.097 73.2076 131.866C73.0655 132.635 72.6542 133.329 72.0474 133.823L73.8752 134.513L74.2751 134.289L75.3984 133.651L74.8701 134.951H76.041C76.6631 134.964 77.2763 134.802 77.8112 134.484C78.3461 134.166 78.7814 133.705 79.0677 133.153C79.3541 132.601 79.48 131.979 79.4313 131.359C79.3827 130.739 79.1613 130.144 78.7923 129.643C78.3163 128.977 77.5642 128.449 77.3976 127.644C77.2025 126.668 77.9403 125.788 78.2973 124.864C78.5814 124.084 78.611 123.234 78.3818 122.436C78.1526 121.638 77.6764 120.934 77.0216 120.423" fill="#263238"/>
<path d="M35.343 86.77C35.4503 86.8232 35.5405 86.9054 35.6036 87.0071C35.6667 87.1089 35.7001 87.2263 35.7 87.346V90.5161C35.6998 90.614 35.677 90.7105 35.6332 90.7981C35.5894 90.8856 35.5259 90.9618 35.4477 91.0207C35.37 91.0813 35.2789 91.1223 35.182 91.1406C35.0851 91.1588 34.9853 91.1536 34.8908 91.1254C34.6295 91.0586 34.3573 91.0452 34.0907 91.0861C33.824 91.127 33.5684 91.2213 33.3391 91.3634C33.1277 91.4841 32.9435 91.6469 32.7977 91.8418C32.652 92.0367 32.5478 92.2595 32.4918 92.4963C32.4493 92.7371 32.4561 92.984 32.5117 93.222C32.5674 93.4601 32.6707 93.6844 32.8155 93.8815C32.9659 94.1049 33.159 94.2964 33.3836 94.4451C33.6082 94.5938 33.86 94.6966 34.1245 94.7478C34.6616 94.8015 35.201 94.6711 35.6543 94.3779C36.1075 94.0847 36.4476 93.6461 36.6187 93.1341C36.644 93.0548 36.6847 92.9811 36.7385 92.9175C36.7923 92.8538 36.858 92.8014 36.9321 92.7631C37.0061 92.7249 37.087 92.7016 37.17 92.6946C37.253 92.6876 37.3366 92.6971 37.416 92.7224C37.4954 92.7477 37.569 92.7884 37.6327 92.8422C37.6963 92.896 37.7488 92.9617 37.787 93.0358C37.8252 93.1098 37.8485 93.1907 37.8555 93.2737C37.8625 93.3567 37.8531 93.4403 37.8277 93.5197C37.5628 94.32 37.0297 95.0043 36.3185 95.457C35.6074 95.9097 34.7618 96.1031 33.9245 96.0044C33.489 95.9297 33.0732 95.7671 32.7025 95.5265C32.3317 95.2859 32.0139 94.9724 31.7683 94.605C31.5249 94.2641 31.3531 93.8775 31.2631 93.4685C31.1731 93.0595 31.1668 92.6365 31.2447 92.225C31.3362 91.8179 31.5101 91.4339 31.7557 91.0967C32.0013 90.7594 32.3134 90.476 32.6727 90.2639C33.1999 89.947 33.8045 89.7822 34.4196 89.7879V87.346C34.4196 87.1768 34.4868 87.0146 34.6064 86.895C34.726 86.7753 34.8883 86.7081 35.0574 86.7081C35.156 86.7075 35.2535 86.7287 35.343 86.77Z" fill="#219ABF"/>
<path d="M34.4672 85.4372C34.4653 85.3348 34.4938 85.2342 34.5491 85.148C34.6043 85.0618 34.6839 84.9938 34.7777 84.9527C34.8714 84.9116 34.9753 84.8992 35.0761 84.917C35.177 84.9348 35.2703 84.982 35.3443 85.0527C35.4184 85.1235 35.4698 85.2145 35.4922 85.3145C35.5146 85.4144 35.5069 85.5187 35.4701 85.6143C35.4334 85.7098 35.3691 85.7924 35.2855 85.8515C35.2019 85.9106 35.1027 85.9437 35.0003 85.9465C34.9318 85.9484 34.8635 85.9367 34.7996 85.9121C34.7356 85.8875 34.6771 85.8504 34.6275 85.8031C34.578 85.7557 34.5383 85.699 34.5107 85.6362C34.4832 85.5734 34.4684 85.5058 34.4672 85.4372Z" fill="#219ABF"/>
<path d="M49.98 102.411C49.98 102.411 49.8229 102.411 49.5611 102.545C49.2026 102.699 48.9001 102.96 48.6948 103.292C48.5491 103.519 48.4564 103.776 48.4235 104.044C48.3868 104.351 48.4415 104.663 48.5806 104.939C48.723 105.267 48.9628 105.544 49.2676 105.731C49.5723 105.919 49.9273 106.008 50.2845 105.988C50.6417 105.967 50.9839 105.837 51.2649 105.615C51.5459 105.394 51.752 105.091 51.8554 104.749C51.962 104.457 51.9802 104.141 51.9078 103.839C51.8412 103.577 51.7195 103.332 51.5508 103.121C51.3058 102.814 50.974 102.588 50.5988 102.473C50.3275 102.397 50.1656 102.407 50.1656 102.392H50.2799C50.3274 102.388 50.3752 102.388 50.4227 102.392C50.4853 102.396 50.5475 102.405 50.6083 102.421C51.0113 102.516 51.3722 102.74 51.6365 103.059C51.8244 103.276 51.9596 103.533 52.0316 103.811C52.1097 104.126 52.0948 104.456 51.9887 104.763C51.8724 105.11 51.6614 105.419 51.3794 105.653C51.079 105.911 50.7036 106.066 50.3084 106.096C49.9133 106.111 49.5233 106.001 49.1946 105.781C48.8859 105.583 48.6387 105.303 48.4806 104.972C48.3392 104.676 48.2847 104.346 48.3235 104.02C48.3638 103.736 48.4679 103.464 48.6282 103.225C48.856 102.877 49.1898 102.612 49.5802 102.469C49.6408 102.447 49.7028 102.429 49.7658 102.416C49.8106 102.402 49.857 102.394 49.9038 102.392C49.93 102.395 49.9556 102.402 49.98 102.411Z" fill="#263238"/>
<path d="M54.6258 107.014C54.6258 107.014 54.5258 107.038 54.3688 107.11C54.1424 107.209 53.9515 107.375 53.8214 107.586C53.723 107.735 53.6651 107.907 53.6534 108.086C53.6417 108.265 53.6766 108.443 53.7547 108.604C53.8434 108.806 53.9918 108.976 54.1801 109.092C54.3683 109.207 54.5873 109.262 54.8076 109.249C55.0279 109.236 55.239 109.156 55.4124 109.019C55.5859 108.883 55.7133 108.696 55.7777 108.485C55.837 108.316 55.851 108.134 55.8184 107.958C55.7859 107.782 55.7078 107.618 55.5921 107.481C55.4384 107.287 55.2292 107.144 54.9923 107.071C54.8257 107.019 54.7258 107.024 54.7258 107.01C54.8178 106.986 54.9145 106.986 55.0066 107.01C55.2238 107.061 55.4232 107.17 55.5839 107.325C55.7447 107.48 55.8609 107.675 55.9205 107.89C55.9796 108.094 55.9796 108.31 55.9205 108.514C55.8504 108.75 55.7092 108.959 55.5161 109.112C55.323 109.265 55.0875 109.355 54.8415 109.37C54.5955 109.384 54.351 109.323 54.1412 109.193C53.9314 109.064 53.7666 108.873 53.669 108.647C53.5739 108.456 53.539 108.24 53.5691 108.028C53.5947 107.847 53.6615 107.675 53.7642 107.524C53.9105 107.303 54.1243 107.136 54.3735 107.048C54.4542 107.018 54.5403 107.007 54.6258 107.014Z" fill="#263238"/>
<path d="M49.2279 92.9771C49.2279 92.9771 49.2279 92.8961 49.2279 92.7391C49.2279 92.582 49.2279 92.344 49.2279 92.0393C49.2279 91.8823 49.2279 91.7109 49.2279 91.5205C49.2279 91.3301 49.1994 91.1254 49.1851 90.9017C49.1708 90.678 49.1518 90.4257 49.128 90.1782C49.122 90.0452 49.1044 89.913 49.0756 89.7831L49.0042 89.3642C48.7694 87.9648 48.3249 86.6089 47.6857 85.342C46.8539 83.6658 45.7082 82.1646 44.3109 80.92L43.7159 80.4011C43.5064 80.2393 43.2827 80.087 43.0637 79.9251L42.7258 79.6871C42.6195 79.5997 42.5047 79.5231 42.3831 79.4587L41.65 79.016C41.5263 78.9446 41.4073 78.8684 41.2787 78.8018L40.8837 78.6209L40.0887 78.2591C39.8127 78.1449 39.5271 78.0592 39.2462 77.9593L38.8178 77.8117L38.5989 77.7403L38.3751 77.6879C37.7743 77.5293 37.1637 77.41 36.5473 77.3309C36.2331 77.2976 35.9142 77.2405 35.5953 77.2215L34.6433 77.1929C34.4815 77.1929 34.3196 77.1929 34.1673 77.1929L33.6913 77.231C33.3581 77.2595 33.0249 77.2691 32.6965 77.3119C32.0232 77.4076 31.3569 77.5475 30.702 77.7308L30.2022 77.8736C30.1213 77.8736 30.0356 77.9164 29.9547 77.945L29.7119 78.0402L28.7314 78.421C28.4125 78.5638 28.0983 78.7351 27.7794 78.897C27.6223 78.9827 27.4605 79.0493 27.3034 79.1445L26.8274 79.4349C26.2105 79.8214 25.6205 80.2492 25.0614 80.7153L24.257 81.4721L24.0523 81.6625L23.8667 81.872L23.5001 82.2956L23.1289 82.7145L22.7957 83.1905L22.4672 83.6665L22.3006 83.8997C22.2483 83.9807 22.2007 84.0616 22.1531 84.1425L21.5771 85.1373C21.42 85.4848 21.2582 85.8323 21.1011 86.1845C19.8622 89.0956 19.6098 92.332 20.3823 95.3999L20.6965 96.5137L21.1106 97.58L21.2153 97.8465L21.3439 98.0988L21.6009 98.6081L21.8532 99.1079L22.1578 99.584L22.4577 100.06L22.6053 100.293L22.7766 100.512L23.4573 101.388C23.938 101.935 24.4548 102.448 25.0043 102.925L25.4089 103.282C25.5422 103.401 25.6945 103.497 25.8373 103.601C26.1277 103.806 26.4085 104.025 26.7036 104.215L27.608 104.72L27.8317 104.853L28.0697 104.963L28.5457 105.177C29.1641 105.459 29.8001 105.701 30.4497 105.9C30.7734 105.996 31.1019 106.058 31.4017 106.138L31.8777 106.253C32.0396 106.286 32.2014 106.296 32.3537 106.319L33.3057 106.443C33.6247 106.476 33.9436 106.443 34.2577 106.481C34.8805 106.502 35.504 106.48 36.1237 106.415H36.3521L36.5759 106.376L37.0233 106.3C37.3184 106.243 37.6135 106.205 37.8991 106.134L38.7464 105.9L39.1653 105.786L39.5651 105.629L40.3505 105.325C40.4805 105.278 40.6063 105.221 40.7266 105.153L41.0979 104.968C41.3406 104.844 41.5739 104.73 41.8166 104.601L42.483 104.177C44.0672 103.164 45.4396 101.853 46.5243 100.317C46.6433 100.15 46.767 99.9885 46.8813 99.841L47.1764 99.3364L47.462 98.8604C47.5096 98.7795 47.5572 98.7033 47.6 98.6224C47.6429 98.5415 47.6714 98.4558 47.7095 98.3749L48.1379 97.4515C48.2617 97.1563 48.3473 96.8565 48.4473 96.5851L48.5901 96.1805C48.6369 96.0568 48.6735 95.9294 48.6996 95.7997L48.8709 95.0905C48.9185 94.8715 48.9757 94.6716 49.009 94.486C49.0423 94.3003 49.0566 94.129 49.0804 93.9767C49.1185 93.672 49.1518 93.4435 49.1756 93.2817C49.1994 93.1199 49.2137 93.0485 49.2137 93.0485C49.2137 93.0485 49.2137 93.1294 49.2137 93.2865L49.128 93.9814C49.128 94.1337 49.0899 94.3051 49.0661 94.4907C49.0423 94.6764 48.9804 94.8811 48.9328 95.1C48.8852 95.319 48.8281 95.576 48.771 95.8093C48.7456 95.9407 48.709 96.0697 48.6615 96.1948C48.6139 96.3281 48.5711 96.4614 48.5235 96.5994C48.4235 96.8755 48.3426 97.1754 48.2141 97.4753C48.0855 97.7751 47.938 98.0798 47.7952 98.4273L47.6809 98.6748C47.6429 98.7557 47.5905 98.8366 47.5477 98.9175C47.4525 99.0746 47.3573 99.2412 47.2621 99.3935C47.1669 99.5459 47.0669 99.7315 46.9669 99.9076C46.867 100.084 46.7289 100.236 46.6099 100.407C45.5162 101.936 44.1375 103.239 42.5497 104.244L41.8785 104.672C41.6453 104.801 41.4025 104.92 41.155 105.044L40.7885 105.234C40.6661 105.301 40.5388 105.358 40.4077 105.405L39.6127 105.715L39.2129 105.872L38.794 105.991L37.942 106.229C37.6516 106.3 37.3517 106.338 37.0566 106.396L36.6044 106.476L36.3807 106.515H36.1475C35.5248 106.583 34.8982 106.609 34.272 106.591C33.9531 106.591 33.6294 106.591 33.32 106.553L32.368 106.429C32.2014 106.429 32.0396 106.396 31.892 106.357L31.416 106.248C31.0923 106.167 30.7591 106.105 30.4355 106.01C29.7847 105.812 29.1485 105.568 28.5315 105.282L28.0555 105.067L27.8175 104.958L27.589 104.825L26.6703 104.292C26.3752 104.101 26.0896 103.877 25.7992 103.673C25.6517 103.563 25.4993 103.468 25.3661 103.349L24.9567 102.992C24.3764 102.511 23.8308 101.989 23.324 101.431L22.6338 100.55L22.4625 100.327L22.3101 100.089L22.0103 99.6125L21.7056 99.1365L21.4486 98.6319L21.1868 98.1179L21.0583 97.8608L20.944 97.58C20.8012 97.223 20.6632 96.8612 20.5251 96.5042C20.3871 96.1472 20.3157 95.7569 20.2062 95.3809C19.4352 92.2859 19.6942 89.0239 20.944 86.0893L21.42 85.0279C21.6152 84.6947 21.8103 84.3615 22.0007 84.0283C22.0531 83.9473 22.0959 83.8617 22.1483 83.7807L22.3149 83.5475L22.6529 83.0715L22.9861 82.5955L23.3621 82.1671L23.7334 81.7435L23.919 81.534L24.1237 81.3389L24.9377 80.5725C25.5024 80.1035 26.0988 79.6741 26.7227 79.2873L27.1987 78.9969C27.351 78.897 27.5176 78.8303 27.6747 78.7447C27.9936 78.5876 28.3077 78.4115 28.6267 78.2687L29.6167 77.8831L29.8643 77.7879L30.1118 77.7165L30.6163 77.5785C31.2756 77.3934 31.9468 77.2534 32.6251 77.1596C32.963 77.1167 33.2962 77.1025 33.6294 77.0739L34.1054 77.0406C34.2673 77.0406 34.4339 77.0406 34.5814 77.0406L35.562 77.0691C35.8857 77.0691 36.1998 77.1453 36.514 77.1834C37.1361 77.2605 37.7518 77.383 38.3561 77.5499L38.5846 77.6023C38.656 77.6023 38.7274 77.6499 38.7988 77.6737L39.2319 77.8212C39.5175 77.9259 39.8079 78.0069 40.0792 78.1211L40.936 78.54L41.3311 78.7209L41.7071 78.9351L42.4402 79.3635C42.5614 79.4329 42.6775 79.5108 42.7877 79.5967L43.1256 79.8395C43.3446 80.0013 43.5731 80.1536 43.7825 80.3155L44.3823 80.8391C45.7915 82.0996 46.9439 83.6205 47.7761 85.3182C48.4156 86.5921 48.8555 87.9567 49.0804 89.3642C49.1042 89.507 49.128 89.6498 49.1518 89.7831C49.1765 89.9152 49.1924 90.0488 49.1994 90.1829C49.1994 90.44 49.2375 90.6827 49.2517 90.9065C49.266 91.1302 49.2851 91.3396 49.2898 91.53C49.2946 91.7204 49.2898 91.8918 49.2898 92.0489C49.2898 92.3535 49.2898 92.5867 49.2898 92.7486L49.2279 92.9771Z" fill="#263238"/>
<path d="M209.645 211.82C209.623 211.753 209.596 211.688 209.564 211.625C209.497 211.487 209.411 211.306 209.302 211.068C208.983 210.347 208.726 209.6 208.536 208.835C207.921 205.994 207.942 203.052 208.597 200.22C209.007 198.257 209.541 196.322 210.197 194.427C210.873 192.375 211.663 190.195 212.301 187.839C213.028 185.378 213.379 182.822 213.343 180.256C213.243 177.577 212.453 174.901 211.577 172.236C210.701 169.57 209.806 166.962 209.535 164.339C209.231 161.818 209.731 159.266 210.963 157.047C212.12 154.919 213.572 153.096 214.662 151.211C215.676 149.462 216.426 147.573 216.885 145.604C217.538 142.748 217.585 139.787 217.023 136.912C216.822 135.861 216.519 134.833 216.118 133.842C216.13 133.911 216.147 133.98 216.171 134.046C216.218 134.194 216.275 134.389 216.356 134.637C216.583 135.391 216.77 136.157 216.918 136.931C217.437 139.791 217.361 142.727 216.694 145.556C216.23 147.504 215.478 149.371 214.462 151.097C213.376 152.958 211.92 154.771 210.739 156.923C209.467 159.184 208.946 161.791 209.25 164.368C209.521 167.033 210.425 169.661 211.296 172.322C212.167 174.982 212.953 177.634 213.053 180.266C213.092 182.803 212.75 185.332 212.039 187.768C211.406 190.114 210.611 192.294 209.959 194.356C209.308 196.261 208.783 198.207 208.388 200.182C207.655 203.809 207.864 206.874 208.412 208.864C208.617 209.63 208.891 210.375 209.23 211.092L209.521 211.639C209.555 211.704 209.597 211.764 209.645 211.82Z" fill="#263238"/>
<path d="M213.205 153.053C213.205 153.053 215.414 145.989 211.449 141.853C211.418 141.819 211.378 141.795 211.334 141.783C211.291 141.77 211.244 141.771 211.2 141.784C211.157 141.796 211.118 141.821 211.087 141.856C211.057 141.89 211.037 141.932 211.03 141.977C210.82 143.143 210.554 146.694 213.205 153.053Z" fill="#219ABF"/>
<path d="M211.882 144.228C211.886 144.667 211.935 145.104 212.029 145.532C212.172 146.432 212.344 147.484 212.534 148.65C212.724 149.816 212.886 150.868 213.01 151.763C213.045 152.2 213.123 152.632 213.243 153.053C213.282 152.615 213.267 152.174 213.2 151.739C213.129 150.935 212.986 149.835 212.786 148.602C212.586 147.37 212.377 146.289 212.201 145.499C212.141 145.065 212.034 144.639 211.882 144.228Z" fill="#263238"/>
<path d="M210.611 169.708C210.611 169.708 209.259 162.435 203.823 160.631C203.78 160.617 203.735 160.615 203.691 160.625C203.647 160.635 203.607 160.657 203.574 160.689C203.542 160.72 203.519 160.76 203.507 160.803C203.496 160.847 203.496 160.892 203.509 160.936C203.866 162.064 205.294 165.329 210.611 169.708Z" fill="#219ABF"/>
<path d="M205.303 162.511C205.513 162.895 205.76 163.257 206.041 163.592L207.945 166.11C208.655 167.062 209.292 167.909 209.849 168.633C210.089 168.999 210.36 169.345 210.658 169.665C210.487 169.261 210.27 168.878 210.011 168.523C209.568 167.842 208.921 166.928 208.174 165.943C207.426 164.958 206.746 164.091 206.208 163.473C205.943 163.12 205.639 162.798 205.303 162.511Z" fill="#263238"/>
<path d="M212.077 187.963C212.077 187.963 212.9 180.609 208.221 177.305C208.184 177.279 208.141 177.264 208.096 177.261C208.051 177.257 208.006 177.267 207.966 177.287C207.926 177.308 207.892 177.339 207.868 177.377C207.844 177.416 207.831 177.46 207.831 177.505C207.845 178.69 208.264 182.227 212.077 187.963Z" fill="#219ABF"/>
<path d="M209.093 179.533C209.179 179.963 209.311 180.383 209.488 180.785C209.802 181.637 210.168 182.641 210.573 183.746C210.977 184.85 211.344 185.854 211.653 186.711C211.773 187.131 211.933 187.539 212.129 187.93C212.086 187.492 211.988 187.062 211.839 186.649C211.615 185.873 211.263 184.807 210.835 183.65C210.406 182.494 209.987 181.456 209.668 180.713C209.52 180.3 209.327 179.904 209.093 179.533Z" fill="#263238"/>
<path d="M207.983 206.327C207.983 206.327 208.54 198.944 203.747 195.812C203.71 195.786 203.666 195.771 203.62 195.769C203.574 195.767 203.529 195.778 203.489 195.8C203.45 195.822 203.417 195.855 203.395 195.895C203.373 195.935 203.363 195.981 203.366 196.026C203.423 197.207 203.966 200.729 207.983 206.327Z" fill="#219ABF"/>
<path d="M204.68 198.016C204.788 198.442 204.936 198.856 205.123 199.254C205.465 200.096 205.87 201.081 206.317 202.171C206.765 203.262 207.16 204.256 207.503 205.094C207.633 205.512 207.807 205.916 208.021 206.298C207.958 205.863 207.845 205.437 207.683 205.027C207.431 204.261 207.041 203.209 206.57 202.067C206.098 200.924 205.646 199.906 205.299 199.173C205.139 198.764 204.931 198.376 204.68 198.016Z" fill="#263238"/>
<path d="M216.38 146.846C216.38 146.846 222.939 143.419 223.068 137.693C223.069 137.647 223.057 137.603 223.034 137.564C223.011 137.525 222.978 137.493 222.938 137.471C222.899 137.449 222.854 137.439 222.809 137.441C222.764 137.443 222.72 137.458 222.682 137.483C221.706 138.159 219.008 140.477 216.38 146.846Z" fill="#219ABF"/>
<path d="M221.706 139.663C221.396 139.973 221.122 140.316 220.888 140.687L219.036 143.243C218.346 144.195 217.718 145.061 217.18 145.794C216.902 146.132 216.652 146.492 216.432 146.87C216.771 146.59 217.075 146.271 217.337 145.918C217.856 145.294 218.541 144.409 219.241 143.405C219.94 142.4 220.593 141.501 221.031 140.796C221.295 140.443 221.521 140.063 221.706 139.663Z" fill="#263238"/>
<path d="M209.335 162.016C209.335 162.016 216.104 158.984 216.58 153.272C216.585 153.226 216.578 153.18 216.558 153.139C216.538 153.097 216.507 153.063 216.468 153.038C216.429 153.014 216.384 153.001 216.338 153.001C216.292 153.001 216.247 153.014 216.209 153.039C215.18 153.667 212.344 155.819 209.335 162.016Z" fill="#219ABF"/>
<path d="M215.085 155.176C214.762 155.463 214.468 155.782 214.209 156.128L212.205 158.565L210.202 161.002C209.9 161.32 209.627 161.664 209.388 162.03C209.739 161.769 210.059 161.467 210.34 161.131C210.896 160.541 211.634 159.703 212.415 158.751C213.196 157.799 213.881 156.909 214.357 156.257C214.642 155.926 214.886 155.564 215.085 155.176Z" fill="#263238"/>
<path d="M213.219 178.933C213.219 178.933 217.86 173.169 215.685 167.871C215.668 167.829 215.64 167.792 215.604 167.765C215.568 167.737 215.524 167.72 215.479 167.716C215.434 167.712 215.388 167.72 215.347 167.739C215.307 167.759 215.272 167.79 215.247 167.828C214.624 168.837 213.081 172.05 213.219 178.933Z" fill="#219ABF"/>
<path d="M215.223 170.218C215.068 170.627 214.955 171.051 214.885 171.484C214.69 172.374 214.466 173.416 214.214 174.568L213.538 177.648C213.414 178.068 213.328 178.498 213.281 178.933C213.481 178.543 213.629 178.128 213.724 177.7C213.952 176.92 214.228 175.834 214.486 174.63C214.743 173.426 214.962 172.322 215.076 171.522C215.173 171.094 215.223 170.656 215.223 170.218Z" fill="#263238"/>
<path d="M208.626 198.844C208.626 198.844 215.328 195.712 215.709 189.995C215.712 189.951 215.703 189.906 215.682 189.866C215.662 189.826 215.631 189.792 215.592 189.769C215.554 189.746 215.509 189.734 215.464 189.734C215.42 189.735 215.376 189.748 215.338 189.772C214.333 190.4 211.534 192.599 208.626 198.844Z" fill="#219ABF"/>
<path d="M214.262 191.904C213.943 192.204 213.654 192.534 213.4 192.889L211.444 195.365C210.706 196.288 210.044 197.121 209.473 197.83C209.179 198.153 208.914 198.502 208.683 198.873C209.036 198.608 209.356 198.301 209.635 197.959C210.183 197.359 210.906 196.507 211.668 195.536C212.429 194.565 213.096 193.67 213.572 193.008C213.841 192.667 214.073 192.296 214.262 191.904Z" fill="#263238"/>
<path d="M195.274 169.751C195.274 169.751 195.274 169.808 195.274 169.913C195.274 170.018 195.274 170.199 195.274 170.389C195.298 170.836 195.322 171.436 195.355 172.183C195.441 173.764 195.565 175.963 195.707 178.595C196.183 181.27 197.549 184.241 199.382 187.12C200.724 189.243 202.133 191.176 203.352 192.97C204.456 194.538 205.448 196.181 206.322 197.887C206.899 199.044 207.366 200.252 207.717 201.496C207.836 201.938 207.922 202.281 207.974 202.519C207.994 202.641 208.027 202.761 208.074 202.876C208.066 202.751 208.05 202.627 208.026 202.505C207.993 202.267 207.921 201.914 207.822 201.467C207.506 200.204 207.062 198.976 206.498 197.802C205.645 196.073 204.663 194.41 203.561 192.828C202.357 191.019 200.953 189.086 199.615 186.973C197.797 184.117 196.44 181.185 195.941 178.548C195.755 175.915 195.598 173.721 195.488 172.145C195.426 171.398 195.379 170.798 195.346 170.351C195.346 170.165 195.307 170.008 195.298 169.875C195.294 169.833 195.286 169.792 195.274 169.751Z" fill="#263238"/>
<path d="M199.263 186.592C199.263 186.592 196.407 179.757 199.996 175.277C200.024 175.241 200.061 175.213 200.103 175.197C200.146 175.181 200.192 175.177 200.237 175.186C200.282 175.195 200.323 175.216 200.356 175.248C200.389 175.279 200.413 175.319 200.424 175.363C200.743 176.496 201.348 180.009 199.263 186.592Z" fill="#219ABF"/>
<path d="M199.782 177.653C199.66 178.075 199.584 178.509 199.558 178.947C199.458 179.747 199.344 180.851 199.254 182.094C199.163 183.336 199.125 184.44 199.125 185.254C199.096 185.692 199.123 186.132 199.206 186.563C199.282 186.133 199.32 185.696 199.32 185.259C199.382 184.35 199.453 183.289 199.53 182.113C199.606 180.937 199.687 179.871 199.753 178.962C199.806 178.527 199.816 178.089 199.782 177.653Z" fill="#263238"/>
<g opacity="0.3">
<path d="M199.263 186.592C199.263 186.592 196.407 179.757 199.996 175.277C200.024 175.241 200.061 175.213 200.103 175.197C200.146 175.181 200.192 175.177 200.237 175.186C200.282 175.195 200.323 175.216 200.356 175.248C200.389 175.279 200.413 175.319 200.424 175.363C200.743 176.496 201.348 180.009 199.263 186.592Z" fill="black"/>
</g>
<path d="M208.06 203.052C208.06 203.052 205.784 196.007 209.706 191.833C209.738 191.801 209.777 191.778 209.82 191.766C209.863 191.755 209.908 191.755 209.951 191.767C209.994 191.78 210.033 191.803 210.064 191.836C210.094 191.868 210.116 191.908 210.125 191.952C210.349 193.118 210.649 196.669 208.06 203.052Z" fill="#219ABF"/>
<path d="M209.297 194.208C209.141 194.618 209.031 195.044 208.969 195.479C208.802 196.269 208.602 197.383 208.412 198.587C208.221 199.791 208.093 200.92 208.026 201.729C207.972 202.165 207.972 202.606 208.026 203.043C208.136 202.62 208.209 202.188 208.245 201.753C208.379 200.853 208.536 199.796 208.721 198.63C208.907 197.464 209.059 196.412 209.197 195.512C209.275 195.082 209.309 194.645 209.297 194.208Z" fill="#263238"/>
<g opacity="0.3">
<path d="M208.06 203.052C208.06 203.052 205.784 196.007 209.706 191.833C209.738 191.801 209.777 191.778 209.82 191.766C209.863 191.755 209.908 191.755 209.951 191.767C209.994 191.78 210.033 191.803 210.064 191.836C210.094 191.868 210.116 191.908 210.125 191.952C210.349 193.118 210.649 196.669 208.06 203.052Z" fill="black"/>
</g>
<path d="M195.636 178.229C195.636 178.229 189.572 173.983 190.186 168.29C190.189 168.245 190.205 168.201 190.232 168.165C190.259 168.128 190.296 168.1 190.338 168.083C190.38 168.066 190.426 168.061 190.47 168.069C190.515 168.077 190.557 168.098 190.59 168.128C191.485 168.923 193.865 171.574 195.636 178.229Z" fill="#219ABF"/>
<g opacity="0.3">
<path d="M195.636 178.229C195.636 178.229 189.572 173.983 190.186 168.29C190.189 168.245 190.205 168.201 190.232 168.165C190.259 168.128 190.296 168.1 190.338 168.083C190.38 168.066 190.426 168.061 190.47 168.069C190.515 168.077 190.557 168.098 190.59 168.128C191.485 168.923 193.865 171.574 195.636 178.229Z" fill="black"/>
</g>
<path d="M191.295 170.408C191.418 170.828 191.587 171.234 191.799 171.617C192.142 172.35 192.647 173.35 193.227 174.435C193.808 175.52 194.379 176.491 194.812 177.172C195.027 177.556 195.286 177.914 195.584 178.238C195.421 177.831 195.22 177.441 194.984 177.072C194.546 176.277 194.032 175.339 193.47 174.306L191.966 171.531C191.781 171.135 191.556 170.759 191.295 170.408Z" fill="#263238"/>
<path d="M205.632 196.069C205.632 196.069 198.321 194.927 196.364 189.548C196.348 189.506 196.343 189.46 196.351 189.416C196.359 189.371 196.379 189.33 196.409 189.296C196.439 189.262 196.478 189.238 196.522 189.225C196.565 189.213 196.611 189.212 196.655 189.224C197.778 189.548 201.081 190.876 205.632 196.069Z" fill="#219ABF"/>
<g opacity="0.3">
<path d="M205.632 196.069C205.632 196.069 198.321 194.927 196.364 189.548C196.348 189.506 196.343 189.46 196.351 189.416C196.359 189.371 196.379 189.33 196.409 189.296C196.439 189.262 196.478 189.238 196.522 189.225C196.565 189.213 196.611 189.212 196.655 189.224C197.778 189.548 201.081 190.876 205.632 196.069Z" fill="black"/>
</g>
<path d="M198.263 190.971C198.558 191.297 198.888 191.588 199.249 191.838C199.882 192.342 200.772 193.018 201.776 193.742C202.781 194.465 203.718 195.079 204.409 195.498C204.769 195.75 205.159 195.958 205.57 196.117C205.244 195.823 204.89 195.562 204.513 195.336L201.938 193.518L199.368 191.685C199.024 191.412 198.654 191.172 198.263 190.971Z" fill="#263238"/>
<path d="M214.267 209.526L212.167 223.282L203.795 223.268L200.972 209.526H214.267Z" fill="#455A64"/>
<path d="M206.622 213.943C206.85 213.6 206.983 213.202 207.008 212.791C207.033 212.561 206.993 212.329 206.893 212.12C206.793 211.912 206.636 211.735 206.441 211.611C206.219 211.499 205.971 211.45 205.723 211.47C205.475 211.49 205.238 211.579 205.037 211.725C204.621 212.03 204.336 212.48 204.237 212.986C204.126 213.497 204.091 214.022 204.133 214.543C204.159 215.086 204.273 215.621 204.471 216.128C204.671 216.66 204.997 217.135 205.423 217.513C205.871 217.911 206.438 218.148 207.036 218.189C207.63 218.202 208.213 218.036 208.712 217.713C209.189 217.407 209.612 217.025 209.964 216.58C210.323 216.153 210.543 215.627 210.597 215.071C210.618 214.798 210.575 214.524 210.471 214.27C210.368 214.017 210.207 213.791 210.002 213.61C209.789 213.453 209.536 213.362 209.272 213.346C209.009 213.329 208.747 213.39 208.517 213.519C208.298 213.629 208.107 213.787 207.958 213.982C207.81 214.177 207.708 214.403 207.66 214.643C207.597 215.07 207.665 215.506 207.855 215.894C208.044 216.282 208.346 216.604 208.721 216.818C209.339 217.155 210.056 217.259 210.744 217.113C211.249 217.006 211.732 216.815 212.172 216.547C212.453 216.383 212.723 216.201 212.981 216.004C213.076 215.941 213.163 215.865 213.239 215.78C213.14 215.837 213.045 215.899 212.953 215.966C212.767 216.085 212.477 216.271 212.129 216.471C211.685 216.719 211.202 216.892 210.701 216.985C210.051 217.107 209.378 216.999 208.797 216.68C208.459 216.479 208.187 216.181 208.018 215.825C207.848 215.469 207.788 215.071 207.845 214.681C207.89 214.471 207.982 214.273 208.114 214.103C208.246 213.934 208.414 213.796 208.607 213.7C208.802 213.59 209.025 213.539 209.249 213.553C209.473 213.566 209.688 213.644 209.868 213.776C210.046 213.936 210.185 214.135 210.273 214.357C210.361 214.579 210.397 214.819 210.378 215.057C210.324 215.568 210.117 216.051 209.783 216.442C209.447 216.863 209.045 217.226 208.593 217.518C208.134 217.819 207.595 217.977 207.046 217.97C206.5 217.929 205.982 217.712 205.57 217.351C205.168 216.999 204.856 216.555 204.661 216.056C204.471 215.571 204.36 215.058 204.333 214.538C204.29 214.04 204.32 213.538 204.423 213.048C204.506 212.59 204.759 212.18 205.132 211.901C205.302 211.775 205.503 211.697 205.713 211.676C205.924 211.655 206.136 211.692 206.327 211.782C206.492 211.891 206.623 212.043 206.707 212.222C206.791 212.401 206.824 212.599 206.803 212.796C206.784 213.176 206.664 213.544 206.456 213.862C206.075 214.411 205.528 214.822 204.894 215.033C204.418 215.2 203.911 215.261 203.409 215.209C202.979 215.158 202.56 215.034 202.172 214.843C202.172 214.843 202.172 214.843 202.238 214.895C202.311 214.94 202.385 214.981 202.462 215.019C202.761 215.166 203.083 215.26 203.414 215.3C203.932 215.369 204.46 215.319 204.956 215.152C205.624 214.943 206.205 214.522 206.613 213.952" fill="#263238"/>
</svg>
