<svg width="140" height="140" viewBox="0 0 140 140" fill="none" xmlns="http://www.w3.org/2000/svg">
<path d="M170.711 29.2893C160.969 19.5476 149.319 11.924 136.493 6.89642C123.666 1.86888 109.939 -0.454061 96.1722 0.0732868C82.4055 0.600634 68.8963 3.96689 56.4917 9.96094C44.0872 15.955 33.0551 24.4475 24.0872 34.9059C15.1193 45.3642 8.40915 57.5628 4.37757 70.7365C0.346 83.9102 -0.920014 97.7749 0.658934 111.461C2.23788 125.147 6.62773 138.359 13.5531 150.269C20.4786 162.178 29.7902 172.528 40.9039 180.67L58.6327 156.469C50.8531 150.77 44.335 143.525 39.4872 135.188C34.6394 126.851 31.5665 117.603 30.4613 108.023C29.356 98.4424 30.2422 88.7372 33.0643 79.5156C35.8864 70.294 40.5835 61.755 46.861 54.4341C53.1386 47.1133 60.8611 41.1685 69.5442 36.9727C78.2274 32.7768 87.6839 30.4204 97.3205 30.0513C106.957 29.6822 116.566 31.3082 125.545 34.8275C134.524 38.3468 142.678 43.6833 149.497 50.5025L170.711 29.2893Z" fill="#219ABF"/>
</svg>
