<svg width="99" height="106" viewBox="0 0 99 106" fill="none" xmlns="http://www.w3.org/2000/svg">
<path d="M-54.8174 56.8382C-49.746 68.9776 -41.7591 79.6788 -31.5641 87.9942C-21.3691 96.3095 -9.28068 101.982 3.63032 104.51C16.5413 107.037 29.8764 106.342 42.4544 102.485C55.0323 98.6275 66.4649 91.7279 75.7395 82.3971C85.014 73.0662 91.8443 61.5921 95.6252 48.991C99.4061 36.3899 100.021 23.0508 97.4152 10.1554C94.8096 -2.74008 89.0638 -14.7939 80.687 -24.9384C72.3101 -35.0829 61.5607 -43.0049 49.3908 -48.0027L40.2736 -25.8019C48.7925 -22.3034 56.3171 -16.758 62.1809 -9.65688C68.0447 -2.55574 72.0667 5.88194 73.8907 14.9088C75.7146 23.9356 75.2842 33.2729 72.6376 42.0937C69.991 50.9144 65.2098 58.9464 58.7176 65.478C52.2255 72.0096 44.2226 76.8392 35.4181 79.5392C26.6135 82.2392 17.2789 82.7261 8.24122 80.9568C-0.796478 79.1875 -9.25835 75.2166 -16.3948 69.3959C-23.5313 63.5752 -29.1222 56.0843 -32.6722 47.5868L-54.8174 56.8382Z" fill="#219ABF"/>
</svg>
