<svg width="44" height="51" viewBox="0 0 44 51" fill="none" xmlns="http://www.w3.org/2000/svg">
<path d="M21.935 81.8376C27.1187 78.8448 31.628 74.8132 35.1803 69.9956C38.7325 65.178 41.251 59.6784 42.5777 53.8417C43.9045 48.005 44.0109 41.9571 42.8903 36.0773C41.7696 30.1975 39.4462 24.6127 36.0656 19.6732C32.685 14.7336 28.3202 10.5459 23.245 7.3726C18.1698 4.19932 12.4936 2.10895 6.57253 1.23259C0.651421 0.356242 -5.3869 0.712817 -11.1637 2.27995C-16.9405 3.84709 -22.3312 6.59098 -26.9977 10.3395L-18.8349 20.5011C-15.5684 17.8771 -11.7949 15.9564 -7.75116 14.8594C-3.70739 13.7624 0.519435 13.5128 4.66421 14.1262C8.80899 14.7397 12.7823 16.2029 16.3349 18.4243C19.8876 20.6456 22.9429 23.577 25.3093 27.0347C27.6758 30.4923 29.3022 34.4017 30.0866 38.5175C30.8711 42.6334 30.7966 46.8669 29.8679 50.9526C28.9391 55.0383 27.1762 58.8881 24.6896 62.2604C22.2031 65.6327 19.0465 68.4548 15.4179 70.5498L21.935 81.8376Z" fill="#12B8EC"/>
</svg>
