<svg width="243" height="208" viewBox="0 0 243 208" fill="none" xmlns="http://www.w3.org/2000/svg">
<path d="M202.627 180.946H222.127V174.74H202.627V180.946Z" fill="#EBEBEB"/>
<path d="M213.503 73.9143H233.003V67.7084H213.503V73.9143Z" fill="#EBEBEB"/>
<path d="M213.503 188.777L223.319 188.61L228.172 188.544H233.003L232.748 188.799V182.593L233.025 182.87L223.275 182.832L218.4 182.782L213.525 182.721L213.658 182.593L213.503 188.777ZM213.503 188.777L213.375 182.571V182.438H213.509L218.383 182.377L223.258 182.332L233.008 182.294H233.285V182.571V188.777V189.026H233.036H228.117L223.22 188.96L213.503 188.777Z" fill="#EBEBEB"/>
<path d="M51.6552 173.276L61.4716 173.115L66.3243 173.048L71.1548 173.021L70.8997 173.276V167.07L71.177 167.347L61.4272 167.308L56.5523 167.264L51.6774 167.203L51.8105 167.07L51.6552 173.276ZM51.6552 173.276L51.5221 167.092V166.959H51.6552L56.5301 166.898L61.405 166.854L71.1548 166.815H71.4321V167.092V173.298V173.553H71.1493H66.23L61.3329 173.487L51.6552 173.276Z" fill="#EBEBEB"/>
<path d="M62.5308 181.101L72.3471 180.94L77.1998 180.874L82.0304 180.846L81.7753 181.101V174.895L82.0526 175.173L72.2584 175.134L67.3835 175.089L62.5086 175.028L62.6417 174.895L62.5308 181.101ZM62.5308 181.101L62.4032 174.895V174.762H62.5363L67.4112 174.701L72.2861 174.657L82.0359 174.618H82.3132V174.895V181.101V181.356H82.0636H77.1444L72.2473 181.29L62.5308 181.101Z" fill="#EBEBEB"/>
<path d="M73.3621 173.276H92.8617V167.07H73.3621V173.276Z" fill="#EBEBEB"/>
<path d="M3.57717 188.771H23.0768V182.565H3.57717V188.771Z" fill="#EBEBEB"/>
<path d="M14.4528 16.314L33.9524 16.314V10.108L14.4528 10.108V16.314Z" fill="#EBEBEB"/>
<path d="M3.5772 24.1338L13.3936 23.973L18.2463 23.9064H23.0768L22.8217 24.156V17.9501L23.099 18.2274L13.3492 18.1885L8.47983 18.122L3.60493 18.061L3.7103 17.9057L3.5772 24.1338ZM3.5772 24.1338L3.44409 17.9057V17.7781H3.5772L8.47983 17.7393L13.3547 17.6894L23.1045 17.6506H23.3818V17.9057V24.1116V24.3667H23.1323H18.213L13.3159 24.3002L3.5772 24.1338Z" fill="#EBEBEB"/>
<path d="M202.627 16.3084L212.444 16.1475L217.296 16.081H222.127L221.872 16.3305V10.1246L222.149 10.4019L212.399 10.3631L207.524 10.3187L202.65 10.2577L202.783 10.1246L202.627 16.3084ZM202.627 16.3084L202.494 10.1024V9.97488H202.627L207.502 9.91387L212.377 9.86396L222.127 9.82513H222.404V10.1024L222.377 16.3084V16.5635H222.127H217.208L212.311 16.4969L202.627 16.3084Z" fill="#EBEBEB"/>
<path d="M217.719 53.2448C230.363 49.461 237.546 36.1434 233.762 23.4992C229.978 10.855 216.661 3.67219 204.016 7.45602C191.372 11.2399 184.189 24.5574 187.973 37.2017C191.757 49.8459 205.075 57.0287 217.719 53.2448Z" fill="#EBEBEB"/>
<path d="M232.011 41.7587C238.006 30.6855 233.889 16.8492 222.815 10.8544C211.742 4.85967 197.906 8.97658 191.911 20.0498C185.916 31.123 190.033 44.9593 201.106 50.9541C212.18 56.9488 226.016 52.8319 232.011 41.7587Z" fill="#DBDBDB"/>
<path d="M218.669 51.1987C229.871 47.494 235.948 35.41 232.244 24.2082C228.539 13.0064 216.455 6.92878 205.253 10.6334C194.052 14.338 187.974 26.4221 191.679 37.6239C195.383 48.8257 207.467 54.9033 218.669 51.1987Z" fill="white"/>
<path opacity="0.5" d="M232.842 26.3688C223.114 32.2642 207.125 41.9308 198.191 47.2327C195.665 45.1034 193.668 42.4171 192.356 39.3852L221.905 11.9937C224.666 13.4477 227.075 15.4878 228.964 17.9709C230.853 20.4541 232.177 23.3203 232.842 26.3688Z" fill="#EBEBEB"/>
<path opacity="0.5" d="M233.308 31.6485C233.233 34.026 232.757 36.3736 231.899 38.5921L205.278 51.1925C204.116 50.8087 202.99 50.3243 201.912 49.745C209.937 45.0809 224.645 36.6344 233.308 31.6485Z" fill="#EBEBEB"/>
<path d="M212.166 11.0952H211.756V14.3341H212.166V11.0952Z" fill="#C7C7C7"/>
<path d="M202.233 13.6311L201.873 13.8391L203.492 16.644L203.853 16.4361L202.233 13.6311Z" fill="#C7C7C7"/>
<path d="M194.901 20.8099L194.696 21.1653L197.501 22.7847L197.706 22.4293L194.901 20.8099Z" fill="#C7C7C7"/>
<path d="M195.39 30.6946H192.151V31.105H195.39V30.6946Z" fill="#C7C7C7"/>
<path d="M198.385 39.257L195.567 40.8765L195.772 41.2335L198.59 39.6141L198.385 39.257Z" fill="#C7C7C7"/>
<path d="M203.503 45.1552L201.885 47.9613L202.241 48.1662L203.858 45.3602L203.503 45.1552Z" fill="#C7C7C7"/>
<path d="M212.166 47.4768H211.756V50.7156H212.166V47.4768Z" fill="#C7C7C7"/>
<path d="M220.425 45.151L220.07 45.3562L221.689 48.1611L222.044 47.9559L220.425 45.151Z" fill="#C7C7C7"/>
<path d="M226.435 39.0255L226.23 39.3808L229.035 41.0007L229.24 40.6454L226.435 39.0255Z" fill="#C7C7C7"/>
<path d="M231.777 30.6946H228.538V31.105H231.777V30.6946Z" fill="#C7C7C7"/>
<path d="M229.021 20.8364L226.217 22.4563L226.422 22.8117L229.227 21.1918L229.021 20.8364Z" fill="#C7C7C7"/>
<path d="M221.684 13.6368L220.066 16.4425L220.422 16.6476L222.04 13.8418L221.684 13.6368Z" fill="#C7C7C7"/>
<path d="M212.272 12.5593L212.976 32.3473L210.952 32.3196L211.723 12.5538L212.272 12.5593Z" fill="#C7C7C7"/>
<path d="M224.6 24.0062L211.285 32.4971L210.32 30.7224L224.334 23.5182L224.6 24.0062Z" fill="#A6A6A6"/>
<path d="M212.654 30.9054C212.654 31.0425 212.614 31.1765 212.538 31.2905C212.461 31.4045 212.353 31.4934 212.226 31.5458C212.1 31.5983 211.96 31.612 211.826 31.5853C211.691 31.5585 211.568 31.4925 211.471 31.3956C211.374 31.2986 211.308 31.1751 211.281 31.0406C211.255 30.9061 211.268 30.7667 211.321 30.6401C211.373 30.5134 211.462 30.4051 211.576 30.329C211.69 30.2528 211.824 30.2121 211.961 30.2121C212.052 30.2114 212.143 30.2288 212.227 30.2634C212.312 30.298 212.389 30.349 212.453 30.4135C212.518 30.478 212.569 30.5548 212.603 30.6392C212.638 30.7236 212.655 30.8141 212.654 30.9054Z" fill="#C7C7C7"/>
<path d="M0 202.542L29.5711 202.403L59.1422 202.359L118.29 202.265L177.432 202.353L207.009 202.403L236.58 202.542L207.009 202.675L177.432 202.725L118.29 202.819L59.1422 202.725L29.5711 202.675L0 202.542Z" fill="#263238"/>
<path d="M19.0171 132.042C19.0171 132.042 19.5273 132.042 20.1263 134.26C20.4424 135.474 18.5789 145.773 18.7619 156.71C18.9006 164.918 19.3165 173.902 19.9321 179.032C19.9321 179.032 20.5311 180.236 22.4999 179.87C20.924 172.148 20.0644 164.296 19.9321 156.416C19.849 148.724 21.4074 139.939 21.363 133.955C21.3845 133.232 21.5564 132.522 21.8677 131.87L19.0171 132.042Z" fill="#455A64"/>
<path d="M20.8362 129.191C20.8362 129.191 18.5346 127.477 18.6178 124.86C18.701 122.242 19.6161 120.212 20.8972 118.975C22.1783 117.739 22.6275 117.816 22.6275 117.816C22.6275 117.816 24.0639 117.628 24.9347 120.639C25.8054 123.65 26.665 126.185 25.6279 127.738C23.6369 130.661 20.8362 129.191 20.8362 129.191Z" fill="#219ABF"/>
<path opacity="0.3" d="M20.8362 129.191C20.8362 129.191 18.5346 127.477 18.6178 124.86C18.701 122.242 19.6161 120.212 20.8972 118.975C22.1783 117.739 22.6275 117.816 22.6275 117.816C22.6275 117.816 24.0639 117.628 24.9347 120.639C25.8054 123.65 26.665 126.185 25.6279 127.738C23.6369 130.661 20.8362 129.191 20.8362 129.191Z" fill="black"/>
<path d="M17.0039 125.275C17.0039 125.275 16.0168 122.724 16.9041 120.789C17.7915 118.853 18.4514 118.848 18.6456 118.798C18.8397 118.748 20.0986 119.114 20.5645 120.972C21.0303 122.83 21.0192 124.144 20.7197 124.915C20.4203 125.686 19.2002 126.257 19.2002 126.257C18.7808 126.294 18.359 126.223 17.9747 126.051C17.5904 125.879 17.2562 125.612 17.0039 125.275Z" fill="#219ABF"/>
<path opacity="0.2" d="M17.0039 125.275C17.0039 125.275 16.0168 122.724 16.9041 120.789C17.7915 118.853 18.4514 118.848 18.6456 118.798C18.8397 118.748 20.0986 119.114 20.5645 120.972C21.0303 122.83 21.0192 124.144 20.7197 124.915C20.4203 125.686 19.2002 126.257 19.2002 126.257C18.7808 126.294 18.359 126.223 17.9747 126.051C17.5904 125.879 17.2562 125.612 17.0039 125.275Z" fill="black"/>
<path d="M17.1148 119.985C17.1148 119.985 16.0721 120.256 15.7671 122.042C15.58 123.46 15.6457 124.901 15.9612 126.296C16.0721 126.679 16.3716 130.345 18.285 131.803C20.1983 133.262 20.5699 132.358 20.5699 132.358C21.0661 132.007 21.4745 131.546 21.7631 131.011C22.0517 130.476 22.2128 129.882 22.2337 129.274C22.4064 127.425 22.2181 125.561 21.6791 123.784C21.1578 122.214 20.9526 121.332 19.8822 120.767C18.8118 120.201 17.4919 119.785 17.1148 119.985Z" fill="#219ABF"/>
<path opacity="0.1" d="M17.1148 119.985C17.1148 119.985 16.0721 120.256 15.7671 122.042C15.58 123.46 15.6457 124.901 15.9612 126.296C16.0721 126.679 16.3716 130.345 18.285 131.803C20.1983 133.262 20.5699 132.358 20.5699 132.358C21.0661 132.007 21.4745 131.546 21.7631 131.011C22.0517 130.476 22.2128 129.882 22.2337 129.274C22.4064 127.425 22.2181 125.561 21.6791 123.784C21.1578 122.214 20.9526 121.332 19.8822 120.767C18.8118 120.201 17.4919 119.785 17.1148 119.985Z" fill="black"/>
<path d="M21.9454 132.79C21.9454 132.79 19.6382 133.156 18.9727 129.851C18.3072 126.545 19.0947 125.458 19.25 124.993C19.4053 124.527 19.2112 124.011 19.5772 123.445C19.9433 122.88 20.1762 123.002 20.6365 122.242C21.0968 121.482 21.241 120.362 21.6182 120.023C21.7808 119.859 21.9783 119.732 22.1961 119.653C22.4139 119.575 22.6466 119.546 22.8771 119.569C23.5527 119.786 24.2093 120.059 24.8404 120.384C25.395 120.595 25.2341 121.654 25.6002 122.109C25.9662 122.563 27.031 123.878 26.5873 126.396C26.1437 128.914 25.8331 130.6 24.7183 131.548C23.6036 132.496 22.7052 132.79 21.9454 132.79Z" fill="#219ABF"/>
<path d="M18.6788 132.624C18.2795 132.685 17.3201 132.718 16.1554 131.298C14.7301 129.563 14.8743 127.072 14.78 126.435C14.6773 125.211 14.4751 123.998 14.1755 122.808C13.8261 121.859 13.9148 121.316 14.0202 121.249C14.1256 121.183 14.9908 121.504 15.4511 122.625C15.9114 123.745 16.893 124.782 17.0539 126.429C17.2147 128.076 17.1371 130.439 18.0466 131.42C18.9561 132.402 19.9489 132.158 19.7104 132.613C19.3671 132.637 19.0226 132.641 18.6788 132.624Z" fill="#219ABF"/>
<path d="M19.4719 158.745C19.4719 158.745 18.0965 154.309 22.3891 146.206C26.6816 138.103 30.5749 135.669 30.5749 135.669C30.5749 135.669 30.5361 140.177 26.7648 147.665C22.9936 155.152 20.0487 158.413 19.4719 158.745Z" fill="#455A64"/>
<path d="M28.473 139.14C28.6005 138.907 28.6504 139.14 28.5284 139.362C27.0033 142.235 21.7402 150.898 20.0431 156.871C19.971 157.12 19.7658 156.871 19.849 156.616C23.1766 146.544 26.9256 142.063 28.473 139.14Z" fill="#37474F"/>
<path d="M30.2754 151.414C30.2754 151.414 30.5638 145.762 29.0164 144.331C27.4691 142.901 27.1364 143.272 26.6816 143.161C26.1346 143.16 25.5924 143.264 25.0844 143.466C25.0844 143.466 27.4247 143.993 27.9572 145.585L30.2754 151.414Z" fill="#219ABF"/>
<path opacity="0.2" d="M30.2754 151.414C30.2754 151.414 30.5638 145.762 29.0164 144.331C27.4691 142.901 27.1364 143.272 26.6816 143.161C26.1346 143.16 25.5924 143.264 25.0844 143.466C25.0844 143.466 27.4247 143.993 27.9572 145.585L30.2754 151.414Z" fill="black"/>
<path d="M32.7433 153.133C33.2159 153.9 33.3933 154.813 33.2425 155.701C31.9835 167.902 28.8778 174.391 23.7866 182.321C23.7866 182.321 22.7828 184.884 24.0362 184.307C24.0362 184.307 32.0667 175.821 34.1575 156.283C34.1575 156.283 34.2518 154.065 35.6993 153.122C35.6993 153.127 32.9818 152.478 32.7433 153.133Z" fill="#455A64"/>
<path d="M32.3274 140.954C32.6702 140.936 33.0072 141.048 33.2705 141.268C33.5339 141.488 33.7042 141.8 33.7472 142.141C34.0466 143.45 36.4148 150.548 35.411 152.589C34.4071 154.63 33.9912 153.754 33.0927 153.865C32.1111 154.009 29.987 152.584 29.6265 151.425C29.266 150.266 28.6449 147.886 28.8334 146.528C29.022 145.169 28.6393 140.998 32.3274 140.954Z" fill="#219ABF"/>
<path opacity="0.1" d="M32.3274 140.954C32.6702 140.936 33.0072 141.048 33.2705 141.268C33.5339 141.488 33.7042 141.8 33.7472 142.141C34.0466 143.45 36.4148 150.548 35.411 152.589C34.4071 154.63 33.9912 153.754 33.0927 153.865C32.1111 154.009 29.987 152.584 29.6265 151.425C29.266 150.266 28.6449 147.886 28.8334 146.528C29.022 145.169 28.6393 140.998 32.3274 140.954Z" fill="black"/>
<path d="M38.5223 140.261C38.5223 140.261 39.6925 141.248 39.7368 142.368C39.7812 143.488 40.3746 148.469 39.088 150.914C37.8013 153.36 36.7254 154.037 34.9229 154.026C33.1205 154.015 36.2928 141.492 36.2928 141.492C36.2928 141.492 37.8734 139.562 38.5223 140.261Z" fill="#219ABF"/>
<path opacity="0.2" d="M38.5223 140.261C38.5223 140.261 39.6925 141.248 39.7368 142.368C39.7812 143.488 40.3746 148.469 39.088 150.914C37.8013 153.36 36.7254 154.037 34.9229 154.026C33.1205 154.015 36.2928 141.492 36.2928 141.492C36.2928 141.492 37.8734 139.562 38.5223 140.261Z" fill="black"/>
<path d="M35.9877 140.971C35.9877 140.971 37.7569 141.054 38.4057 142.368C39.2247 144.126 39.5488 146.074 39.343 148.003C39.0435 149.905 38.6387 154.564 34.5568 154.009C31.4733 153.588 30.7967 149.428 30.9464 145.99C31.0518 143.466 32.6102 143.078 33.4865 142.174C34.1434 141.478 35.0341 141.05 35.9877 140.971Z" fill="#219ABF"/>
<path d="M34.5126 153.965C34.5126 153.965 31.1129 154.453 29.621 152.384C28.1292 150.316 28.6283 148.846 28.3787 147.393C28.2306 146.514 27.9599 145.661 27.5746 144.858C27.5746 144.858 28.5063 145.308 29.2384 148.103C29.9704 150.898 32.3275 153.71 34.5126 153.965Z" fill="#219ABF"/>
<path d="M24.0751 183.93C24.0751 183.93 25.5503 177.668 31.8394 171.762C37.8346 166.105 41.6059 165.933 42.6818 165.373L42.8093 165.295C43.6801 164.668 38.8273 171.396 34.6179 175.211C30.4086 179.027 26.9701 182.599 24.0751 183.93Z" fill="#455A64"/>
<path d="M38.1729 169.033C32.882 172.427 29.0942 176.714 25.8331 181.506C25.6834 181.728 25.5281 182.183 25.6778 181.966C29.0992 177.114 33.2744 172.839 38.0453 169.305C38.2561 169.144 38.3947 168.894 38.1729 169.033Z" fill="#37474F"/>
<path d="M11.702 143.072C11.702 143.072 14.4029 142.113 15.0961 139.584C15.7893 137.055 15.5065 134.848 14.6469 133.284C13.7873 131.72 13.3436 131.648 13.3436 131.648C13.3436 131.648 12.0292 131.043 10.3099 133.667C8.59069 136.29 7.02118 138.464 7.53695 140.244C8.59069 143.649 11.702 143.072 11.702 143.072Z" fill="#219ABF"/>
<path opacity="0.3" d="M11.702 143.072C11.702 143.072 14.4029 142.113 15.0961 139.584C15.7893 137.055 15.5065 134.848 14.6469 133.284C13.7873 131.72 13.3436 131.648 13.3436 131.648C13.3436 131.648 12.0292 131.043 10.3099 133.667C8.59069 136.29 7.02118 138.464 7.53695 140.244C8.59069 143.649 11.702 143.072 11.702 143.072Z" fill="black"/>
<path d="M12.6559 145.718C12.6559 145.718 12.1456 145.718 11.5467 147.936C10.9921 150.066 8.5352 165.007 14.2254 177.524C14.2254 177.524 14.7467 179.665 12.7779 179.304C12.7779 179.304 6.71612 164.729 10.3099 147.631C10.3938 146.898 10.2149 146.159 9.80523 145.546L12.6559 145.718Z" fill="#455A64"/>
<path d="M16.5158 140.46C16.5158 140.46 18.2129 138.336 17.9079 136.201C17.6028 134.066 16.9983 133.888 16.7987 133.783C16.599 133.678 15.3179 133.655 14.3252 135.297C13.3325 136.939 12.9609 138.198 13.0163 139.018C13.0718 139.839 14.0756 140.749 14.0756 140.749C14.4727 140.915 14.9061 140.976 15.3337 140.926C15.7613 140.875 16.1685 140.715 16.5158 140.46Z" fill="#219ABF"/>
<path opacity="0.2" d="M16.5158 140.46C16.5158 140.46 18.2129 138.336 17.9079 136.201C17.6028 134.066 16.9983 133.888 16.7987 133.783C16.599 133.678 15.3179 133.655 14.3252 135.297C13.3325 136.939 12.9609 138.198 13.0163 139.018C13.0718 139.839 14.0756 140.749 14.0756 140.749C14.4727 140.915 14.9061 140.976 15.3337 140.926C15.7613 140.875 16.1685 140.715 16.5158 140.46Z" fill="black"/>
<path d="M17.9689 135.369C17.9689 135.369 18.884 135.924 18.6511 137.732C18.4107 139.141 17.9225 140.497 17.2091 141.736C16.9984 142.074 15.6285 145.485 13.3658 146.317C11.103 147.149 11.0254 146.173 11.0254 146.173C10.6499 145.692 10.391 145.131 10.2688 144.533C10.1466 143.936 10.1645 143.318 10.321 142.729C10.6995 140.909 11.4305 139.181 12.4728 137.643C13.4323 136.295 13.8926 135.513 15.0795 135.291C16.2663 135.07 17.6694 135.064 17.9689 135.369Z" fill="#219ABF"/>
<path opacity="0.1" d="M17.9689 135.369C17.9689 135.369 18.884 135.924 18.6511 137.732C18.4107 139.141 17.9225 140.497 17.2091 141.736C16.9984 142.074 15.6285 145.485 13.3658 146.317C11.103 147.149 11.0254 146.173 11.0254 146.173C10.6499 145.692 10.391 145.131 10.2688 144.533C10.1466 143.936 10.1645 143.318 10.321 142.729C10.6995 140.909 11.4305 139.181 12.4728 137.643C13.4323 136.295 13.8926 135.513 15.0795 135.291C16.2663 135.07 17.6694 135.064 17.9689 135.369Z" fill="black"/>
<path d="M9.58898 146.178C9.58898 146.178 11.6854 147.21 13.2937 144.243C14.902 141.276 14.4694 140.011 14.4639 139.517C14.4583 139.024 14.7855 138.597 14.6081 137.942C14.4306 137.288 14.1588 137.343 13.9426 136.484C13.7263 135.624 13.9426 134.504 13.6542 134.094C13.548 133.887 13.3966 133.707 13.2113 133.567C13.026 133.426 12.8116 133.33 12.5838 133.284C11.8748 133.29 11.1678 133.359 10.4708 133.489C9.87182 133.522 9.72208 134.598 9.23403 134.914C8.74599 135.23 7.34286 136.184 7.01565 138.713C6.68844 141.242 6.49987 142.956 7.2874 144.193C8.07493 145.429 8.85136 145.967 9.58898 146.178Z" fill="#219ABF"/>
<path d="M12.7557 146.982C13.1162 147.16 14.0202 147.476 15.5564 146.461C17.4309 145.224 18.0243 142.801 18.2961 142.218C18.7611 141.067 19.3175 139.954 19.9599 138.891C20.5699 138.087 20.642 137.543 20.5644 137.449C20.4868 137.355 19.5606 137.404 18.7952 138.347C18.0299 139.29 16.7987 140 16.1332 141.52C15.4677 143.039 14.8742 145.33 13.7151 146.001C12.556 146.672 11.6853 146.145 11.774 146.65C12.0935 146.782 12.4214 146.893 12.7557 146.982Z" fill="#219ABF"/>
<path d="M11.1086 171.168C11.1086 171.168 12.484 166.732 8.18584 158.629C3.88772 150.526 0 148.092 0 148.092C0 148.092 0.0443682 152.6 3.81562 160.087C7.58688 167.575 10.5318 170.836 11.1086 171.168Z" fill="#455A64"/>
<path d="M2.10188 151.558C1.97987 151.33 1.92996 151.558 2.05197 151.785C3.57156 154.658 8.83468 163.315 10.5317 169.294C10.6038 169.543 10.809 169.294 10.7314 169.039C7.39828 158.967 3.64921 154.481 2.10188 151.558Z" fill="#37474F"/>
<path d="M3.26099 202.542H42.2047L40.4855 183.985L40.1084 179.892H5.35736L4.98023 183.985L3.26099 202.542Z" fill="#219ABF"/>
<path opacity="0.1" d="M5.09668 182.676L40.4855 183.985L40.1083 179.892H5.35734L5.09668 182.676Z" fill="black"/>
<path d="M3.12786 181.34H42.3323V176.409H3.12786V181.34Z" fill="#219ABF"/>
<path d="M178.741 129.856C177.293 147.343 165.985 185.438 158.093 191.938C153.002 196.12 131.179 200.762 119.743 200.778C115.051 200.778 111.568 168.639 118.634 168.179C130.774 167.391 139.365 166.282 142.598 164.613C145.116 163.31 151.438 151.186 168.564 128.082C174.886 119.48 179.54 120.034 178.741 129.856Z" fill="#D3766A"/>
<path d="M125.921 200.102C125.328 200.251 116.915 202.353 111.94 202.658C108.224 202.886 97.5203 203.257 96.8603 199.198C96.4111 196.425 102.684 195.465 107.098 194.689C109.427 194.278 112.55 192.642 112.234 191.128C111.679 188.494 105.651 189.664 101.58 190.951C93.6991 193.435 82.7791 198.643 79.3184 194.151C78.0096 192.454 80.4276 190.441 83.6942 188.666C78.6307 190.452 73.3898 191.672 71.8647 189.842C70.9829 188.799 71.1825 187.684 72.0588 186.553C70.5891 186.691 69.3967 186.331 68.7312 185.249C67.622 183.419 68.831 181.367 70.9219 179.421C70.6595 179.329 70.4225 179.176 70.2298 178.976C70.0372 178.776 69.8943 178.533 69.8127 178.267C67.8217 172.926 86.1233 162.988 91.6693 162.927C108.047 162.716 124.285 167.78 124.285 167.78C129.293 174.03 125.932 200.09 125.921 200.102Z" fill="#D3766A"/>
<path d="M106.266 180.652C102.436 180.402 98.5967 180.969 95.0024 182.316C90.4769 184.029 87.177 186.486 83.1784 188.816C83.1608 188.83 83.149 188.85 83.145 188.872C83.1409 188.894 83.145 188.917 83.1564 188.936C83.1678 188.956 83.1858 188.971 83.2071 188.978C83.2285 188.985 83.2517 188.985 83.2727 188.976C85.1749 187.867 92.9337 183.857 94.9192 182.992C98.4851 181.38 102.371 180.601 106.283 180.713C106.311 180.724 106.311 180.657 106.266 180.652Z" fill="#263238"/>
<path d="M104.852 173.403C100.515 173.608 96.0728 173.797 91.8468 174.879C87.2214 176.06 83.2006 178.761 79.2574 181.384C76.8948 182.948 74.5656 184.562 72.2695 186.226C72.1752 186.298 72.2695 186.458 72.3638 186.392C76.3717 183.689 80.4609 181.11 84.6315 178.655C88.4898 176.35 92.7668 174.833 97.2153 174.191C99.7553 173.825 102.318 173.636 104.874 173.481C104.896 173.481 104.902 173.403 104.852 173.403Z" fill="#263238"/>
<path d="M101.78 166.654C97.6256 166.582 94.0152 166.499 90.011 167.841C84.7257 169.61 79.1687 173.348 77.2165 174.679C75.0535 176.143 72.9461 177.685 70.8608 179.254C70.7776 179.321 70.8885 179.471 70.9773 179.404C75.7063 175.996 80.6507 172.896 85.7794 170.126C88.2038 168.771 90.8227 167.798 93.5438 167.242C96.27 166.821 99.0272 166.636 101.785 166.687L101.78 166.654Z" fill="#263238"/>
<path d="M172.59 170.359L150.667 148.874C150.667 148.874 163.722 130.339 172.529 122.253C177.465 117.711 181.054 121.488 181.026 127.549C180.926 148.768 172.59 170.359 172.59 170.359Z" fill="#219ABF"/>
<path d="M172.59 170.359L150.667 148.874C150.667 148.874 163.722 130.339 172.529 122.253C177.465 117.711 181.054 121.488 181.026 127.549C180.926 148.768 172.59 170.359 172.59 170.359Z" fill="#219ABF"/>
<path opacity="0.1" d="M173.977 141.508C174.585 140.902 175.231 140.335 175.912 139.811C175.469 140.172 175.042 140.56 174.615 140.921L173.977 141.508ZM180.893 131.881C180.427 131.675 179.939 131.492 179.44 131.326V131.431C179.442 131.442 179.442 131.454 179.44 131.465C179.452 131.51 179.461 131.557 179.467 131.603C179.528 131.947 179.589 132.286 179.645 132.629C179.822 133.976 180.109 135.306 180.504 136.606C180.453 137.112 180.397 137.617 180.338 138.12C179.716 136.811 179.308 135.41 179.129 133.971C178.828 139.708 177.426 145.332 174.997 150.537C175.023 150.568 175.042 150.604 175.053 150.643C176.761 156.715 174.864 161.735 169.901 165.412C169.901 165.473 169.873 165.528 169.856 165.583C169.812 165.739 169.584 165.667 169.596 165.517C170.023 160.282 168.692 154.253 174.116 151.436C175.29 148.186 176.257 144.864 177.011 141.492C174.609 146.178 171.304 149.256 165.808 151.064C165.793 151.096 165.77 151.123 165.74 151.142C165.711 151.161 165.676 151.171 165.641 151.171C165.606 151.171 165.572 151.161 165.542 151.142C165.513 151.123 165.489 151.096 165.475 151.064C165.467 151.05 165.463 151.033 165.463 151.017C165.463 151.001 165.467 150.984 165.475 150.97C166.01 147.113 167.74 143.521 170.422 140.699C172.424 138.625 174.892 138.198 177.632 138.408C178.673 132.486 178.694 126.429 177.693 120.5C170.422 129.601 165.763 140.322 160.911 150.87V150.931C161.033 153.588 161.798 156.555 161.221 159.25L160.489 158.535C160.888 156.355 160.489 154.009 160.334 151.802C160.216 153.766 159.968 155.721 159.591 157.653L159.452 157.514C159.791 155.67 160.033 153.81 160.179 151.94C159.446 153.338 158.748 154.747 158.088 156.178L158.038 156.133C158.731 154.691 159.452 153.266 160.19 151.846L160.223 151.569C160.062 151.785 159.901 151.99 159.735 152.196C158.966 153.349 158.261 154.525 157.622 155.723L157.483 155.59C157.955 154.73 158.459 153.881 158.992 153.061C158.354 153.776 157.694 154.464 157.078 155.196L156.441 154.564C157.626 153.208 158.925 151.955 160.323 150.82C160.325 150.805 160.325 150.79 160.323 150.776C160.325 150.766 160.329 150.757 160.335 150.749C160.342 150.741 160.35 150.735 160.359 150.731C160.369 150.727 160.379 150.726 160.389 150.727C160.399 150.728 160.409 150.731 160.417 150.737L160.761 150.437C161.681 147.831 162.687 145.243 163.778 142.673C161.937 144.631 160.079 146.76 157.738 147.992C156.246 148.774 153.645 149.339 151.482 149.694L151.061 149.284C152.965 148.963 154.826 148.424 156.607 147.676C159.13 146.511 161.521 144.232 163.595 142.218C162.349 143.244 161.025 144.171 159.635 144.991V144.964C161.06 144.004 162.408 142.973 163.733 141.88C160.96 142.823 158.104 143.472 155.498 144.825C154.351 145.422 153.24 146.085 152.17 146.81L152.337 146.583C153.335 145.89 154.374 145.256 155.448 144.686C158.172 143.38 161.03 142.374 163.972 141.686C161.068 141.348 158.13 141.902 155.548 143.272C155.032 143.562 154.533 143.882 154.056 144.232L154.305 143.899C154.85 143.527 155.423 143.198 156.019 142.917C158.496 141.723 161.27 141.287 163.994 141.664L164.133 141.547C160.761 140.699 157.877 140.909 155.143 142.74C155.487 142.274 155.858 141.78 156.252 141.276C158.515 140.039 161.121 139.784 164.327 141.398C167.572 133.838 171.785 126.731 176.861 120.256C177.408 120.29 177.937 120.464 178.397 120.761C178.963 123.954 179.248 127.19 179.251 130.433C179.279 130.555 179.301 130.683 179.329 130.805C179.868 130.833 180.403 130.917 180.926 131.054C180.926 131.332 180.909 131.609 180.893 131.881ZM174.598 151.719V151.641L174.487 151.719H174.454C174.362 151.775 174.275 151.838 174.193 151.907C174.157 151.927 174.124 151.952 174.093 151.979C171.636 153.82 170.527 156.283 170.422 159.45C170.394 160.215 170.422 160.975 170.378 161.723C170.383 162.795 170.276 163.864 170.056 164.912C171.72 162.822 173.694 161.28 174.493 158.579C175.073 156.333 175.109 153.981 174.598 151.719ZM166.135 150.149C167.61 147.376 168.448 144.287 170.799 142.03C172.284 140.59 174.128 139.577 176.14 139.096C173.156 139.346 171.198 140.327 169.196 143.339C167.749 145.513 166.978 147.764 166.135 150.149ZM166.135 150.415C167.64 148.096 169.387 145.943 171.348 143.993C172.191 143.128 173.078 142.329 173.982 141.508C173.09 142.379 172.258 143.305 171.465 144.115C169.649 145.984 167.981 147.991 166.473 150.116C168.425 148.496 170.616 147.21 172.396 145.357C174.197 143.404 175.813 141.288 177.221 139.035H177.077C176.676 139.269 176.289 139.526 175.918 139.806C176.239 139.538 176.576 139.29 176.927 139.063C174.471 139.516 172.223 140.738 170.505 142.551C168.359 144.83 167.621 147.864 166.068 150.487L166.135 150.415ZM177.443 139.029H177.343C175.969 141.252 174.407 143.352 172.674 145.307C170.75 147.209 168.625 148.894 166.335 150.332L166.251 150.449C168.237 149.306 170.433 148.38 172.186 146.938C174.703 144.875 175.968 141.847 177.438 139.029H177.443ZM158.925 145.441C156.596 147.16 153.723 148.214 150.889 149.095L150.673 148.885C153.512 147.964 156.38 147.26 158.903 145.452L158.925 145.441ZM174.687 151.541L174.604 151.73C174.543 151.857 174.482 151.985 174.426 152.118C174.299 154.275 174.226 156.405 173.45 158.468C172.574 160.701 171.439 162.823 170.067 164.79C170.059 164.843 170.048 164.895 170.034 164.946C170.037 164.986 170.037 165.027 170.034 165.068C170.034 165.107 169.967 165.095 169.973 165.068C169.975 165.023 169.975 164.979 169.973 164.935C169.965 164.936 169.957 164.936 169.949 164.934C169.941 164.932 169.934 164.928 169.928 164.923C169.922 164.918 169.917 164.911 169.914 164.903C169.911 164.895 169.911 164.887 169.912 164.879C169.908 164.873 169.905 164.867 169.905 164.86C169.905 164.853 169.908 164.846 169.912 164.84C169.95 164.696 170 164.552 170.039 164.402C170.128 163.526 170.233 162.65 170.372 161.779C170.927 158.285 171.975 154.908 174.088 152.035C174.204 151.863 174.332 151.696 174.465 151.53C174.465 151.414 174.465 151.292 174.465 151.175H174.493C174.493 151.286 174.493 151.391 174.493 151.497C174.592 151.369 174.687 151.242 174.792 151.114C174.792 151.114 174.842 151.114 174.825 151.114C174.709 151.253 174.598 151.397 174.487 151.536V151.735V151.774L174.52 151.713C174.565 151.635 174.609 151.552 174.653 151.48C174.698 151.408 174.703 151.48 174.681 151.53L174.687 151.541ZM174.393 152.184C172.668 156.067 171.62 160.148 170.2 164.136C170.2 164.247 170.161 164.363 170.134 164.474C171.381 162.561 172.447 160.535 173.317 158.424C173.979 156.414 174.339 154.317 174.387 152.201L174.393 152.184ZM174.421 151.768C174.421 151.707 174.421 151.646 174.421 151.585C174.326 151.707 174.232 151.835 174.149 151.957C172.835 153.681 171.878 155.649 171.331 157.747C170.882 159.538 170.671 161.374 170.366 163.188C170.921 161.324 171.564 159.472 172.174 157.614C172.723 155.614 173.466 153.673 174.393 151.818C174.393 151.818 174.415 151.78 174.415 151.757L174.421 151.768ZM179.467 131.465H179.423C179.425 131.476 179.425 131.487 179.423 131.498L179.484 131.626C179.876 132.469 180.297 133.293 180.748 134.099C180.746 134.149 180.746 134.199 180.748 134.249C180.333 133.478 179.939 132.701 179.573 131.908C179.922 132.945 180.277 133.994 180.682 135.025L180.649 135.419C180.272 134.514 179.946 133.588 179.673 132.646C179.545 132.236 179.434 131.825 179.334 131.42L178.968 131.265L179.329 131.409V131.354C179.329 131.293 179.279 131.237 179.257 131.182C179.234 131.126 179.257 131.149 179.284 131.182C179.284 131.182 179.323 131.149 179.329 131.182C179.334 131.215 179.401 131.382 179.434 131.481H179.484C179.973 131.691 180.449 131.93 180.909 132.197C180.912 132.219 180.912 132.241 180.909 132.263C180.447 131.959 179.963 131.688 179.462 131.454L179.467 131.465Z" fill="black"/>
<path opacity="0.1" d="M152.775 150.937L172.59 170.348C172.59 170.348 180.909 148.757 181.026 127.544C181.026 125.275 180.543 123.329 179.661 121.998L152.775 150.937Z" fill="black"/>
<path d="M154.81 146.184C158.454 149.206 168.12 157.697 173.666 164.036C173.7 164.075 173.572 164.214 173.533 164.186C168.12 159.611 158.005 149.722 154.622 146.395C154.555 146.334 154.744 146.101 154.81 146.184Z" fill="#263238"/>
<path d="M231.05 202.986L155.625 202.791L160.19 174.385C160.19 174.385 153.668 166.46 154.899 157.858C156.252 148.43 173.201 124.582 174.648 123.212C180.405 117.816 186.428 116.374 191.902 119.203C210.719 128.908 231.05 202.986 231.05 202.986Z" fill="#219ABF"/>
<path opacity="0.1" d="M203.066 168.933C203.183 169.784 203.246 170.642 203.254 171.501C203.254 170.946 203.176 170.359 203.132 169.793L203.066 168.933ZM208.434 202.93H207.513C207.136 202.657 206.741 202.409 206.332 202.187C203.598 200.717 201.407 201.155 198.74 201.316L198.241 201.344L198.54 201.66V201.693C198.928 202.109 199.283 202.52 199.649 202.908H198.856C198.367 202.329 197.99 201.663 197.747 200.945C200.609 200.434 203.143 200.107 205.85 201.338C206.775 201.758 207.643 202.293 208.434 202.93ZM210.697 202.93H209.837C209.034 201.105 208.372 199.222 207.857 197.295H207.807C205.428 196.236 202.749 194.772 201.552 192.304C200.354 189.836 200.808 186.314 201.086 183.658C201.087 183.622 201.102 183.588 201.128 183.563C201.154 183.538 201.188 183.525 201.224 183.525C201.246 183.524 201.268 183.528 201.287 183.538C201.306 183.548 201.323 183.562 201.335 183.58C205.489 187.069 208.961 190.94 208.085 196.563C208.777 198.756 209.65 200.888 210.697 202.936V202.93ZM207.513 196.569L207.68 196.646C207.67 196.626 207.664 196.603 207.664 196.58C207.664 196.557 207.67 196.534 207.68 196.513C207.699 196.479 207.728 196.452 207.763 196.436C207.691 193.596 207.536 191.328 205.639 188.893C204.43 187.351 203.11 185.882 201.757 184.456L201.546 184.235L201.435 184.113L201.402 184.079L201.352 184.024V184.09C201.355 184.118 201.355 184.146 201.352 184.174C201.468 186.497 201.258 188.882 201.906 191.128C202.677 193.763 205.062 195.46 207.513 196.569ZM211.002 146.528C210.076 149.14 209.066 151.685 208.994 154.569C208.994 151.746 209.87 148.896 210.835 146.167C210.908 146.267 210.941 146.383 211.002 146.505V146.528ZM227.257 190.241C226.658 190.429 226.054 190.59 225.455 190.734H225.421C224.606 194.848 222.903 198.734 220.43 202.12C220.43 202.409 220.43 202.675 220.397 202.98H219.426C219.714 198.092 219.397 193.188 218.483 188.377C218.289 187.368 218.062 186.37 217.823 185.377C217.768 185.379 217.713 185.367 217.663 185.344C214.522 183.793 211.532 181.953 208.734 179.848L208.39 179.681C204.008 184.828 197.298 181.473 192.456 178.96C192.408 178.942 192.366 178.909 192.337 178.867C192.307 178.824 192.292 178.774 192.292 178.722C192.292 178.67 192.307 178.62 192.337 178.577C192.366 178.534 192.408 178.502 192.456 178.483H192.495L192.573 178.45C195.456 177.213 198.063 175.599 201.319 176.027C202.974 176.277 204.567 176.842 206.01 177.69C201.621 173.99 197.983 169.481 195.296 164.408C195.257 164.415 195.218 164.415 195.179 164.408C189.3 162.112 186.433 157.575 186.489 151.402L186.378 151.264C186.283 151.131 186.478 150.992 186.588 151.092C190.515 154.586 196.128 157.148 195.107 163.182C196.998 166.082 199.069 168.86 201.307 171.501C199.011 166.759 198.535 162.256 200.409 156.793C200.393 156.763 200.386 156.728 200.388 156.694C200.39 156.66 200.402 156.627 200.423 156.599C200.443 156.571 200.471 156.55 200.502 156.537C200.534 156.524 200.569 156.521 200.603 156.527C200.638 156.525 200.672 156.537 200.697 156.56C203.448 159.305 205.269 162.843 205.905 166.676C206.354 169.527 205.206 171.751 203.382 173.83C207.484 178.228 212.308 181.891 217.646 184.662C214.756 173.376 208.994 163.21 203.493 152.983C203.493 152.983 203.454 152.983 203.437 152.955C200.869 151.208 197.442 149.894 195.8 147.082C194.026 144.037 194.297 139.822 194.32 136.434C194.32 136.434 194.48 136.34 194.486 136.378C197.259 138.503 200.232 140.871 201.979 143.943C203.493 146.605 203.698 149.578 203.892 152.556L203.925 152.589C203.933 152.595 203.94 152.602 203.944 152.611C203.949 152.62 203.951 152.629 203.951 152.639C203.951 152.649 203.949 152.659 203.944 152.667C203.94 152.676 203.933 152.683 203.925 152.689C203.925 152.839 203.925 152.989 203.953 153.138C205.484 155.445 206.942 157.806 208.329 160.221C207.874 157.564 207.292 154.802 207.719 152.196C208.024 150.321 209.416 147.476 210.492 145.446L210.741 146.001C209.826 147.742 209.119 149.585 208.634 151.491C208.046 154.209 208.429 157.492 208.783 160.365C208.71 158.747 208.762 157.127 208.939 155.518H208.972C208.878 157.231 208.889 158.934 208.972 160.648C209.887 157.875 211.091 155.196 211.584 152.301C211.786 151.122 211.923 149.934 211.995 148.74L212.078 148.929C212.033 150.066 211.918 151.2 211.734 152.323C211.137 155.287 210.218 158.177 208.994 160.942C211.014 158.827 212.342 156.148 212.804 153.26C212.912 152.459 212.951 151.65 212.921 150.842C212.971 150.959 213.026 151.081 213.076 151.203C213.074 152.097 212.983 152.989 212.804 153.865C212.262 156.569 210.932 159.052 208.983 161.003C208.983 161.064 208.983 161.119 208.983 161.18C212.006 158.745 213.608 156 213.459 152.118C213.664 152.6 213.869 153.077 214.069 153.565C214.035 156.727 212.821 159.533 208.994 161.424C215.949 173.858 220.641 187.534 220.48 201.355C223.104 195.957 224.745 190.136 225.327 184.162C225.599 184.983 225.882 185.787 226.109 186.569C225.998 187.656 225.843 188.736 225.643 189.808C225.893 188.96 226.109 188.144 226.342 187.301C226.414 187.523 226.481 187.745 226.547 187.961C226.359 188.544 226.159 189.121 225.926 189.697C225.926 189.697 225.926 189.697 225.926 189.725C225.859 189.897 225.787 190.063 225.715 190.23L225.793 190.202C226.248 190.058 226.691 189.914 227.129 189.753C227.141 189.847 227.196 190.036 227.257 190.219V190.241ZM194.941 136.883C198.423 140.71 201.115 145.189 202.86 150.06C202.433 147.914 202.189 145.762 201.014 143.716C199.433 140.948 197.237 138.93 194.941 136.861V136.883ZM203.054 151.89C200.919 149.955 198.618 147.969 197.22 145.446C195.773 142.773 195.163 139.523 194.475 136.573C194.785 139.595 195.057 143.888 196.532 146.522C197.936 148.995 200.714 150.332 203.054 151.868V151.89ZM197.237 145.147C198.579 147.737 200.914 149.683 203.038 151.68C200.532 146.532 197.717 141.541 194.608 136.733C195.379 139.517 195.889 142.523 197.237 145.124V145.147ZM203.31 151.935C203.237 151.685 203.165 151.43 203.104 151.175C201.264 146.015 198.487 141.24 194.913 137.088C198.012 141.76 200.752 146.66 203.11 151.746L203.31 151.935ZM194.536 163.293L194.608 163.326C194.611 163.282 194.611 163.237 194.608 163.193C194.61 163.18 194.61 163.167 194.608 163.154V163.127C194.613 163.023 194.613 162.919 194.608 162.816C194.611 162.774 194.611 162.731 194.608 162.688C194.608 159.605 193.321 157.237 190.853 155.246C190.249 154.758 189.639 154.303 189.051 153.837C188.204 153.187 187.426 152.453 186.727 151.646C187.409 154.225 187.443 156.738 189.117 158.989C190.554 160.836 192.412 162.311 194.536 163.293ZM200.886 157.475C202.228 160.337 204.175 162.855 204.557 166.094C204.819 168.142 204.522 170.223 203.698 172.117C205.295 169.582 205.689 167.43 204.491 164.02C203.615 161.552 202.284 159.583 200.886 157.47V157.475ZM203.016 173.12C202.062 170.686 201.32 168.173 200.797 165.611C200.437 162.929 200.37 160.216 200.598 157.52C200.598 157.475 200.57 157.431 200.559 157.387C200.276 159.66 199.694 161.968 199.788 164.236C199.915 167.497 201.574 170.336 202.938 173.198L203.016 173.12ZM203.237 172.76C204.349 170.531 204.727 168.007 204.319 165.55C203.792 162.461 201.818 160.043 200.67 157.231C200.67 157.27 200.67 157.309 200.67 157.348C201.614 159.947 202.282 162.639 202.661 165.378C202.838 166.571 202.955 167.769 203.06 168.972C202.894 167.741 202.661 166.515 202.505 165.395C202.101 162.803 201.498 160.246 200.703 157.747C200.814 160.282 200.525 162.81 200.936 165.345C201.411 167.959 202.128 170.523 203.077 173.004L203.171 172.871C203.227 172.409 203.255 171.944 203.254 171.479C203.274 171.904 203.269 172.33 203.237 172.754V172.76ZM207.913 179.443L207.813 179.393H207.785L207.669 179.332C207.364 179.182 207.064 179.027 206.77 178.872C204.984 177.929 203.237 176.98 201.147 176.709C198.69 176.393 196.638 177.396 194.491 178.256C194.092 178.411 193.693 178.567 193.282 178.705L193.343 178.738L193.443 178.788L194.747 179.493C196.677 180.535 198.668 181.545 200.847 181.711C203.565 181.916 205.728 180.885 207.913 179.437V179.443ZM195.068 163.515L194.824 163.293C194.863 163.454 194.907 163.609 194.946 163.764C194.946 163.764 194.913 163.803 194.907 163.764C194.869 163.587 194.824 163.409 194.774 163.238L194.63 163.11L194.597 163.082L194.625 163.149C194.664 163.228 194.7 163.31 194.73 163.393C194.73 163.448 194.675 163.476 194.647 163.426L194.547 163.249L194.347 162.871C192.684 161.468 191.047 160.132 189.861 158.268C188.607 156.225 187.596 154.041 186.849 151.763L186.744 151.641L186.661 151.547C186.661 151.519 186.661 151.48 186.705 151.502L186.805 151.597C186.809 151.59 186.816 151.584 186.823 151.58C186.83 151.576 186.838 151.574 186.846 151.574C186.855 151.574 186.863 151.576 186.87 151.58C186.877 151.584 186.883 151.59 186.888 151.597H186.927L187.193 151.963C187.84 152.558 188.47 153.172 189.084 153.804C191.547 156.355 193.621 159.239 194.63 162.677C194.697 162.872 194.752 163.071 194.802 163.271L195.068 163.515ZM194.297 162.849C192.256 159.15 189.617 155.834 187.282 152.312L187.049 152.057C187.826 154.203 188.803 156.271 189.966 158.235C191.175 159.976 192.635 161.529 194.297 162.844V162.849ZM194.752 163.243C194.713 163.099 194.675 162.96 194.625 162.816C194.038 160.719 193.039 158.76 191.685 157.054C190.526 155.612 189.19 154.342 187.925 153C189.068 154.58 190.143 156.2 191.286 157.797C192.462 159.494 193.732 161.174 194.564 163.077L194.619 163.127L194.752 163.243ZM208.184 179.421C208.212 179.421 208.184 179.471 208.184 179.465L207.879 179.365H207.83C205.732 180.586 203.327 181.175 200.903 181.062C199.6 180.981 198.314 180.722 197.081 180.291C196.338 180.042 195.506 179.787 194.736 179.454C194.277 179.267 193.84 179.031 193.432 178.75L193.343 178.694L192.75 178.883C192.678 178.883 192.639 178.794 192.711 178.772L193.116 178.639C193.125 178.635 193.135 178.635 193.144 178.639H193.16L193.077 178.578L193.205 178.644C193.599 178.517 193.998 178.389 194.403 178.273C196.291 177.657 198.268 177.359 200.254 177.391C202.466 177.556 204.64 178.061 206.698 178.888C207.086 179.027 207.469 179.182 207.841 179.337L208.19 179.138L207.857 179.337L207.913 179.365L208.096 179.404V179.443L208.184 179.421ZM193.909 178.544C198.407 178.009 202.962 178.232 207.386 179.204C205.095 178.45 202.727 177.635 200.32 177.541C198.142 177.5 195.972 177.838 193.909 178.539V178.544ZM207.83 179.354H207.796L207.669 179.326C202.998 178.38 198.208 178.165 193.471 178.689H193.41C197.941 181.134 203.176 181.9 207.785 179.371L207.83 179.354ZM208.013 196.968L207.713 196.713C207.713 196.824 207.713 196.929 207.713 197.04C207.709 197.051 207.702 197.061 207.693 197.068C207.683 197.075 207.672 197.078 207.66 197.078C207.649 197.078 207.637 197.075 207.628 197.068C207.618 197.061 207.611 197.051 207.608 197.04C207.608 196.89 207.574 196.741 207.558 196.591C207.559 196.615 207.559 196.639 207.558 196.663C207.558 196.663 207.53 196.696 207.525 196.663L207.491 196.552C205.772 195.066 204.086 193.435 203.054 191.378C201.945 189.159 201.64 186.669 201.418 184.229L201.357 184.157C201.357 184.157 201.307 184.101 201.285 184.068C201.263 184.035 201.285 184.018 201.324 184.035L201.352 184.074L201.407 184.135C201.41 184.111 201.41 184.087 201.407 184.063C201.407 184.063 201.407 184.096 201.407 184.113C201.407 184.129 201.407 184.162 201.407 184.185L201.596 184.395L201.507 184.235L201.363 183.963H201.391C201.502 184.135 201.613 184.307 201.718 184.479C201.768 184.551 201.812 184.628 201.862 184.706C204.901 188.034 207.225 191.949 207.624 196.547C207.624 196.574 207.624 196.602 207.624 196.63L207.985 196.957C208.101 196.935 208.051 197.001 208.013 196.963V196.968ZM207.569 196.458C207.305 194.267 206.683 192.135 205.728 190.147C204.772 188.33 203.59 186.642 202.211 185.122C203.032 186.503 203.742 187.939 204.458 189.387C203.648 187.784 202.727 186.237 201.857 184.667C201.746 184.528 201.629 184.395 201.518 184.262C201.851 186.481 202.162 188.804 203.071 190.917C204.047 193.136 205.717 194.8 207.48 196.375C206.911 194.539 206.168 192.762 205.262 191.067C206.202 192.766 206.955 194.563 207.508 196.425L207.569 196.458ZM206.565 202.93H206.144C205.764 202.758 205.375 202.606 204.979 202.475C203.248 201.962 201.463 201.657 199.66 201.566C201.26 201.93 202.838 202.385 204.385 202.93H203.587C202.006 202.375 200.392 201.921 198.745 201.494H198.424C199.004 202.01 199.611 202.495 200.243 202.947H200.004C199.494 202.558 199.006 202.154 198.546 201.727V201.693L198.318 201.482H198.141C198.063 201.482 198.063 201.394 198.113 201.355C198.108 201.351 198.105 201.346 198.102 201.34C198.099 201.334 198.098 201.328 198.098 201.322C198.098 201.315 198.099 201.309 198.102 201.303C198.105 201.298 198.108 201.293 198.113 201.288L198.019 201.189C198.016 201.186 198.013 201.183 198.012 201.179C198.01 201.176 198.009 201.172 198.009 201.168C198.008 201.164 198.009 201.161 198.01 201.157C198.011 201.153 198.013 201.15 198.016 201.147C198.019 201.144 198.022 201.142 198.025 201.14C198.029 201.138 198.032 201.137 198.036 201.137C198.04 201.137 198.044 201.137 198.048 201.138C198.051 201.14 198.055 201.142 198.058 201.144L198.229 201.299L198.49 201.349C198.579 201.349 198.668 201.349 198.756 201.349C200.897 201.39 203.022 201.723 205.073 202.337C205.584 202.497 206.082 202.694 206.565 202.924V202.93ZM227.046 189.559C226.641 189.738 226.224 189.89 225.798 190.013L225.743 190.108C225.728 190.138 225.712 190.168 225.693 190.196C225.654 190.257 225.549 190.196 225.588 190.147L225.638 190.058L225.499 190.097L225.41 190.169C225.377 190.169 225.349 190.169 225.344 190.135C225.144 190.185 224.944 190.235 224.745 190.269C224.545 190.302 224.606 190.102 224.745 190.08C225.05 190.025 225.355 189.947 225.654 189.864L225.871 189.675C225.878 189.659 225.887 189.644 225.898 189.631C225.898 189.631 225.898 189.631 225.898 189.603C226.153 189.143 226.397 188.677 226.636 188.211L226.702 188.427C226.519 188.766 226.336 189.098 226.148 189.426L226.824 188.816C226.824 188.865 226.858 188.915 226.869 188.96C226.575 189.226 226.281 189.475 225.981 189.719L225.948 189.775C226.304 189.657 226.652 189.518 226.991 189.359C226.991 189.431 227.03 189.492 227.046 189.553V189.559ZM174.615 140.943C175.042 140.566 175.469 140.177 175.913 139.834C175.231 140.357 174.585 140.924 173.977 141.531L174.615 140.943ZM160.927 150.925C161.072 154.031 162.092 157.581 160.833 160.559C159.879 162.838 157.866 164.657 155.808 166.232C155.747 166.055 155.692 165.866 155.636 165.678C157.389 164.014 159.164 162.101 159.99 160.221C161.144 157.597 160.545 154.575 160.351 151.78C160.095 154.647 159.912 157.708 158.726 160.315C157.858 162.077 156.773 163.724 155.498 165.217C155.498 165.151 155.459 165.084 155.442 165.012C156.62 163.624 157.636 162.105 158.47 160.487C159.735 157.858 159.879 154.813 160.195 151.918C158.287 155.62 156.568 159.417 155.043 163.293L154.993 163.021C156.524 159.211 158.321 155.506 160.206 151.852L160.24 151.574C160.079 151.791 159.918 151.996 159.752 152.201C157.691 155.288 156.049 158.636 154.871 162.156C154.871 161.951 154.827 161.746 154.805 161.54C155.876 158.564 157.286 155.72 159.008 153.066C157.555 154.697 155.98 156.189 155.054 158.363C154.954 158.596 154.866 158.823 154.777 159.056C154.777 158.668 154.843 158.274 154.899 157.88C154.981 157.353 155.09 156.831 155.226 156.316C156.496 154.137 158.409 152.484 160.328 150.826C160.331 150.811 160.331 150.796 160.328 150.781C160.33 150.771 160.335 150.762 160.341 150.754C160.347 150.746 160.356 150.74 160.365 150.736C160.374 150.733 160.385 150.731 160.395 150.732C160.405 150.733 160.414 150.737 160.423 150.742L160.766 150.443C161.687 147.836 162.693 145.248 163.783 142.679C162.382 144.299 160.832 145.784 159.153 147.115C159.441 146.561 159.746 146.006 160.051 145.452C161.304 144.448 162.491 143.305 163.589 142.241C162.648 143.024 161.661 143.749 160.633 144.415L160.739 144.22C161.759 143.494 162.746 142.723 163.711 141.924C163.04 142.152 162.364 142.363 161.687 142.579C161.737 142.485 161.792 142.396 161.848 142.302C162.547 142.102 163.246 141.913 163.933 141.747C163.379 141.697 162.791 141.669 162.225 141.675L162.281 141.581C162.853 141.585 163.423 141.631 163.989 141.719L164.127 141.603C163.579 141.462 163.024 141.351 162.464 141.27C162.558 141.115 162.647 140.954 162.746 140.799C163.283 140.977 163.806 141.196 164.31 141.453C167.065 135.082 170.481 129.018 174.504 123.362C174.549 123.31 174.597 123.26 174.648 123.212C175.465 122.441 176.33 121.722 177.238 121.06C170.222 130.017 165.664 140.555 160.911 150.87L160.927 150.925ZM187.981 144.27H187.942C187.915 144.263 187.89 144.25 187.87 144.232C185.147 142.673 182.285 141.564 180.66 138.686C179.858 137.22 179.344 135.614 179.146 133.955C178.842 139.698 177.434 145.328 174.997 150.537C175.023 150.568 175.042 150.604 175.053 150.643C176.761 156.715 174.864 161.735 169.901 165.412C169.901 165.473 169.873 165.528 169.856 165.583C169.812 165.739 169.585 165.667 169.596 165.517C170.023 160.282 168.692 154.253 174.116 151.436C175.29 148.186 176.257 144.864 177.011 141.492C174.609 146.178 171.304 149.256 165.808 151.064C165.793 151.096 165.77 151.123 165.74 151.142C165.711 151.161 165.676 151.171 165.641 151.171C165.606 151.171 165.572 151.161 165.543 151.142C165.513 151.123 165.49 151.096 165.475 151.064C165.467 151.05 165.463 151.033 165.463 151.017C165.463 151.001 165.467 150.984 165.475 150.97C166.01 147.113 167.74 143.521 170.422 140.699C172.424 138.625 174.892 138.198 177.632 138.408C178.659 132.562 178.692 126.585 177.732 120.728C177.931 120.584 178.136 120.45 178.342 120.323C178.959 123.658 179.271 127.042 179.273 130.433C179.301 130.555 179.323 130.683 179.351 130.805C186.1 131.21 187.454 138.569 188.363 143.965V143.999C188.382 144.049 188.385 144.104 188.37 144.156C188.355 144.208 188.323 144.254 188.28 144.286C188.237 144.319 188.184 144.336 188.13 144.337C188.076 144.337 188.024 144.319 187.981 144.287V144.27ZM174.598 151.702V151.624L174.487 151.702H174.454C174.362 151.758 174.275 151.821 174.193 151.89C174.157 151.911 174.124 151.935 174.093 151.963C171.637 153.804 170.527 156.266 170.422 159.433C170.394 160.198 170.422 160.958 170.378 161.707C170.384 162.778 170.276 163.847 170.056 164.896C171.72 162.805 173.694 161.263 174.493 158.562C175.07 156.322 175.106 153.976 174.598 151.719V151.702ZM166.135 150.132C167.61 147.359 168.448 144.27 170.799 142.013C172.284 140.574 174.129 139.56 176.14 139.079C173.156 139.329 171.198 140.311 169.196 143.322C167.749 145.513 166.978 147.764 166.135 150.149V150.132ZM166.135 150.399C167.64 148.079 169.387 145.926 171.348 143.976C172.191 143.111 173.079 142.313 173.983 141.492C173.09 142.363 172.258 143.289 171.465 144.098C169.649 145.968 167.981 147.974 166.473 150.099C168.425 148.48 170.616 147.193 172.396 145.341C174.197 143.388 175.813 141.271 177.221 139.018H177.077C176.676 139.252 176.289 139.509 175.918 139.789C176.239 139.521 176.576 139.273 176.927 139.046C174.471 139.5 172.223 140.721 170.505 142.534C168.359 144.814 167.621 147.847 166.068 150.471L166.135 150.399ZM177.443 139.013H177.343C175.969 141.235 174.407 143.335 172.674 145.291C170.75 147.192 168.625 148.877 166.335 150.315L166.251 150.432C168.237 149.289 170.433 148.363 172.186 146.921C174.703 144.875 175.968 141.847 177.438 139.029L177.443 139.013ZM186.633 142.79C186.982 143 187.332 143.217 187.67 143.45C187.67 143.45 187.67 143.405 187.67 143.383C187.67 143.361 187.67 143.344 187.67 143.328C187.581 142.801 187.504 142.268 187.426 141.736C187.099 139.59 186.699 137.421 185.551 135.635C184.06 133.289 181.935 132.186 179.451 131.315V131.42C179.453 131.431 179.453 131.443 179.451 131.454C179.463 131.499 179.472 131.546 179.479 131.592C179.54 131.936 179.601 132.274 179.656 132.618C179.978 134.598 180.272 136.55 181.32 138.369C182.557 140.555 184.625 141.581 186.627 142.806L186.633 142.79ZM193.554 128.625C192.295 131.099 189.223 132.823 186.927 134.204C186.907 134.219 186.883 134.227 186.858 134.229C186.834 134.231 186.809 134.226 186.787 134.214C186.765 134.203 186.747 134.185 186.734 134.164C186.722 134.143 186.716 134.118 186.716 134.093C186.713 134.079 186.713 134.064 186.716 134.049C186.993 128.631 187.997 123.512 193.016 120.844L193.493 120.162C193.615 120.24 193.737 120.328 193.859 120.423L193.732 120.589C193.733 120.606 193.733 120.622 193.732 120.639C194.342 123.19 194.785 126.213 193.549 128.642L193.554 128.625ZM193.349 121.31C193.349 121.249 193.321 121.194 193.31 121.133C193.298 121.15 193.283 121.165 193.264 121.177C193.246 121.188 193.226 121.196 193.205 121.199C193.163 121.213 193.119 121.213 193.077 121.199C190.859 122.963 189.14 124.455 188.341 127.438C187.831 129.33 187.454 131.276 187.11 133.212L187.06 133.511C187.048 133.562 187.039 133.614 187.032 133.666V133.711C187.035 133.735 187.035 133.759 187.032 133.783L187.088 133.739L187.149 133.689C188.934 132.191 190.959 130.916 192.378 129.074C194.031 126.867 193.926 123.955 193.343 121.327L193.349 121.31ZM174.687 151.513L174.604 151.702C174.543 151.829 174.482 151.957 174.426 152.09C174.299 154.248 174.227 156.377 173.45 158.44C172.575 160.673 171.439 162.795 170.067 164.763C170.059 164.815 170.048 164.867 170.034 164.918C170.037 164.959 170.037 164.999 170.034 165.04C170.034 165.079 169.967 165.068 169.973 165.04C169.976 164.996 169.976 164.951 169.973 164.907C169.965 164.909 169.957 164.909 169.949 164.907C169.941 164.905 169.934 164.901 169.928 164.895C169.922 164.89 169.917 164.883 169.914 164.875C169.912 164.868 169.911 164.859 169.912 164.851C169.908 164.846 169.906 164.839 169.906 164.832C169.906 164.825 169.908 164.818 169.912 164.813C169.951 164.668 170.001 164.524 170.039 164.374C170.128 163.498 170.233 162.622 170.372 161.751C170.927 158.257 171.975 154.88 174.088 152.007C174.204 151.835 174.332 151.669 174.465 151.502C174.465 151.386 174.465 151.264 174.465 151.147H174.493C174.493 151.258 174.493 151.364 174.493 151.469C174.593 151.341 174.687 151.214 174.792 151.086C174.792 151.086 174.842 151.086 174.826 151.086C174.709 151.225 174.598 151.369 174.487 151.508V151.707V151.746L174.52 151.685C174.565 151.608 174.609 151.524 174.654 151.452C174.698 151.38 174.703 151.48 174.681 151.53L174.687 151.513ZM174.393 152.157C172.668 156.039 171.62 160.121 170.2 164.108C170.2 164.219 170.161 164.336 170.134 164.447C171.381 162.533 172.447 160.508 173.317 158.396C173.976 156.395 174.337 154.307 174.387 152.201L174.393 152.157ZM174.421 151.741C174.421 151.68 174.421 151.619 174.421 151.558C174.326 151.68 174.232 151.807 174.149 151.929C172.832 153.662 171.874 155.64 171.332 157.747C170.882 159.538 170.672 161.374 170.367 163.188C170.921 161.324 171.564 159.472 172.175 157.614C172.723 155.614 173.466 153.673 174.393 151.818C174.393 151.818 174.415 151.78 174.415 151.757L174.421 151.741ZM188.103 143.882L187.748 143.638C187.748 143.638 187.748 143.638 187.72 143.638L187.67 143.588V143.694C187.67 143.694 187.67 143.694 187.642 143.694V143.555C187.315 143.328 186.988 143.095 186.666 142.856C185.017 141.709 183.57 140.296 182.385 138.674C181.189 136.821 180.286 134.796 179.706 132.668C179.578 132.258 179.467 131.847 179.368 131.443L179.002 131.287L179.362 131.431V131.376C179.362 131.315 179.312 131.26 179.29 131.204C179.268 131.149 179.29 131.171 179.318 131.204C179.318 131.204 179.357 131.171 179.362 131.204C179.368 131.237 179.434 131.404 179.467 131.504H179.517C181.76 132.444 183.685 134.009 185.063 136.012C185.776 137.105 186.336 138.29 186.727 139.534C186.966 140.255 187.254 141.043 187.459 141.836C187.596 142.356 187.678 142.89 187.703 143.427V143.477L188.213 143.832C188.23 143.799 188.169 143.882 188.103 143.882ZM179.49 131.62C181.542 135.917 184.254 139.867 187.526 143.328L187.576 143.366C186.794 138.275 184.248 133.633 179.462 131.476H179.418C179.42 131.487 179.42 131.498 179.418 131.509L179.49 131.62ZM187.154 143.067C184.02 139.795 181.455 136.022 179.567 131.903C180.344 134.188 181.12 136.567 182.473 138.558C183.763 140.311 185.347 141.827 187.154 143.039V143.067ZM193.338 121.271V121.305L193.377 121.243C193.377 121.243 193.427 121.243 193.41 121.243L193.343 121.332C193.194 123.601 192.905 125.924 191.874 127.987C190.765 130.206 188.968 131.953 187.154 133.6C187.154 133.633 187.154 133.666 187.154 133.694C187.152 133.731 187.152 133.768 187.154 133.805C187.154 133.805 187.099 133.805 187.104 133.805C187.102 133.789 187.102 133.772 187.104 133.755C187.102 133.729 187.102 133.703 187.104 133.678L187.049 133.727L187.082 133.694C187.099 133.674 187.118 133.656 187.138 133.639L187.187 133.361L187.11 133.539C187.065 133.628 187.027 133.722 186.982 133.811C186.938 133.899 186.943 133.811 186.949 133.811C187.016 133.622 187.088 133.439 187.16 133.256L187.26 132.99C188.103 128.553 189.811 124.349 193.255 121.26L193.305 121.21C193.305 121.044 193.305 120.883 193.349 120.722C193.352 120.714 193.358 120.706 193.365 120.701C193.373 120.696 193.382 120.693 193.391 120.693C193.4 120.693 193.409 120.696 193.416 120.701C193.423 120.706 193.429 120.714 193.432 120.722C193.432 120.855 193.432 120.988 193.404 121.121L193.649 120.9C193.704 120.855 193.776 120.938 193.726 120.983L193.338 121.271ZM193.233 121.371C191.639 122.9 190.311 124.682 189.3 126.645C188.426 128.501 187.789 130.459 187.404 132.474C188.014 130.988 188.74 129.557 189.461 128.115C188.663 129.729 187.986 131.393 187.243 133.034C187.204 133.206 187.16 133.378 187.121 133.55C188.713 131.931 190.365 130.3 191.48 128.315C192.672 126.196 192.977 123.878 193.188 121.51C192.061 123.065 191.086 124.726 190.277 126.468C191.069 124.704 192.049 123.031 193.199 121.476C193.199 121.476 193.233 121.371 193.233 121.343V121.371ZM161.748 196.724C161.327 197.112 160.911 197.5 160.478 197.872C161.15 197.336 161.787 196.758 162.386 196.142L161.748 196.724ZM157.151 202.825H156.385C156.255 202.261 156.092 201.705 155.897 201.161L156.119 199.797C156.587 200.749 156.934 201.758 157.151 202.797V202.825ZM170.749 186.58C170.279 190.437 168.611 194.049 165.98 196.907C164.005 199.015 161.543 199.48 158.77 199.32C158.592 200.484 158.448 201.643 158.348 202.814H157.389C157.691 197.399 158.986 192.087 161.21 187.141C161.185 187.109 161.166 187.074 161.155 187.035C159.347 180.99 161.155 175.943 166.057 172.178C166.057 172.122 166.085 172.067 166.102 172.006C166.141 171.856 166.373 171.923 166.362 172.067C166.024 177.313 167.472 183.319 162.075 186.226C160.958 189.492 160.048 192.826 159.352 196.208C161.67 191.483 164.898 188.333 170.389 186.453C170.403 186.421 170.427 186.394 170.456 186.375C170.486 186.356 170.52 186.346 170.555 186.346C170.59 186.346 170.624 186.356 170.654 186.375C170.683 186.394 170.707 186.421 170.721 186.453C170.733 186.467 170.742 186.482 170.746 186.5C170.751 186.517 170.752 186.535 170.749 186.553V186.58ZM161.587 185.982V186.054L161.698 185.97C161.698 185.97 161.698 185.97 161.731 185.97C161.82 185.911 161.909 185.845 161.998 185.771C162.037 185.752 162.073 185.726 162.103 185.693C164.521 183.813 165.586 181.334 165.641 178.173C165.641 177.396 165.641 176.631 165.641 175.877C165.62 174.818 165.709 173.761 165.908 172.721C164.294 174.845 162.33 176.415 161.587 179.127C161.052 181.371 161.052 183.71 161.587 185.954V185.982ZM159.058 198.704C160.399 196.462 161.928 194.337 163.628 192.354C165.514 190.411 167.606 188.679 169.867 187.191C169.891 187.152 169.917 187.115 169.945 187.08C167.982 188.25 165.802 189.215 164.072 190.685C161.582 192.792 160.373 195.837 158.942 198.682L159.058 198.704ZM170.084 187.401C168.653 190.224 167.865 193.302 165.547 195.598C164.089 197.065 162.26 198.109 160.256 198.621C163.24 198.321 165.176 197.306 167.128 194.262C168.542 192.038 169.274 189.775 170.084 187.374V187.401ZM170.167 187.057L170.078 187.135C168.61 189.48 166.898 191.662 164.97 193.646C164.144 194.522 163.268 195.354 162.386 196.169C163.257 195.282 164.077 194.35 164.854 193.518C166.633 191.613 168.263 189.574 169.729 187.418C167.804 189.082 165.63 190.396 163.889 192.276C162.118 194.257 160.538 196.399 159.169 198.676H159.33C159.73 198.435 160.115 198.17 160.484 197.883C160.164 198.155 159.829 198.409 159.48 198.643C161.929 198.148 164.158 196.89 165.847 195.049C167.949 192.725 168.636 189.681 170.167 187.03V187.057ZM188.369 187.135C188.324 187.191 188.175 187.407 188.152 187.418C183.965 192.875 179.834 199.841 172.069 196.097C171.11 198.377 170.084 200.623 168.975 202.83H167.915C170.594 197.523 172.94 192.021 175.341 186.569C175.337 186.549 175.337 186.529 175.341 186.508C175.142 183.408 174.066 179.898 175.275 176.875C176.584 173.603 180.078 171.224 182.762 169.155C182.762 169.155 182.934 169.227 182.906 169.255C182.934 172.743 182.906 176.548 181.553 179.792C180.388 182.626 178.17 184.612 175.94 186.603C175.937 186.617 175.937 186.632 175.94 186.647C175.938 186.657 175.934 186.666 175.928 186.674C175.921 186.682 175.913 186.688 175.904 186.692C175.894 186.696 175.884 186.697 175.874 186.696C175.864 186.695 175.854 186.692 175.846 186.686L175.508 186.991C174.631 189.616 173.668 192.217 172.618 194.794C174.432 192.803 176.251 190.646 178.569 189.376C181.414 187.823 188.408 187.013 188.43 187.035C188.452 187.057 188.402 187.091 188.369 187.107V187.135ZM176.428 185.261C179.366 180.637 181.421 175.509 182.49 170.137C180.713 175.446 178.533 180.611 175.968 185.588C175.968 185.682 175.968 185.776 175.968 185.865C176.107 185.649 176.267 185.438 176.428 185.233V185.261ZM182.584 169.676C180.86 172.033 178.791 174.268 177.565 176.931C176.34 179.593 176.256 182.593 175.968 185.477C178.491 180.339 180.7 175.053 182.584 169.649V169.676ZM182.673 170.037C181.794 175.13 179.918 180 177.155 184.368C178.58 182.704 180.133 181.195 181.037 179.005C182.213 176.049 182.451 173.087 182.673 170.009V170.037ZM175.835 185.665C176.046 182.793 176.173 179.731 177.321 177.102C178.536 174.329 180.726 171.834 182.629 169.471C180.438 171.573 177.227 174.429 176.057 177.236C174.948 179.831 175.602 182.848 175.835 185.638V185.665ZM185.019 190.84C183.684 192.31 182.099 193.532 180.338 194.45C177.873 195.691 175.096 196.173 172.358 195.837L172.224 195.948C176.168 196.874 179.434 196.375 182.512 193.563C183.414 192.709 184.252 191.789 185.019 190.812V190.84ZM186.799 188.621C186.078 189.22 185.291 189.758 184.542 190.285C183.378 191.15 182.159 191.937 180.893 192.642C178.188 193.991 175.344 195.044 172.413 195.781C175.322 196.074 178.251 195.472 180.81 194.056C183.178 192.687 184.986 190.612 186.799 188.599V188.621ZM187.908 187.318C185.135 188.15 182.39 188.427 179.667 189.708C177.155 190.917 174.809 193.236 172.768 195.282C173.999 194.23 175.307 193.273 176.683 192.42C175.275 193.408 173.944 194.461 172.635 195.571C175.408 194.589 178.236 193.907 180.821 192.492C183.274 191.196 185.536 189.567 187.542 187.651C184.104 189.065 180.466 189.675 177.382 191.96C180.355 189.686 184.265 188.522 187.809 187.39L187.908 187.318ZM166.107 172.782C166.068 172.932 166.024 173.076 165.985 173.226C165.919 174.091 165.824 174.956 165.702 175.816C165.214 179.321 164.222 182.72 162.164 185.632C162.042 185.81 161.915 185.982 161.781 186.153V186.508V186.187C161.682 186.314 161.587 186.447 161.482 186.575H161.449C161.565 186.436 161.676 186.292 161.781 186.148C161.781 186.081 161.781 186.015 161.781 185.948V185.909L161.748 185.97L161.621 186.209C161.593 186.259 161.521 186.209 161.543 186.159C161.572 186.101 161.598 186.042 161.621 185.982C161.682 185.848 161.743 185.715 161.798 185.582C161.887 183.419 161.926 181.295 162.663 179.215C163.504 176.969 164.604 174.829 165.941 172.838C165.949 172.785 165.96 172.733 165.974 172.682C165.971 172.642 165.971 172.601 165.974 172.56C165.974 172.521 166.035 172.533 166.035 172.56C166.032 172.605 166.032 172.649 166.035 172.693C166.043 172.692 166.051 172.692 166.059 172.694C166.067 172.696 166.074 172.7 166.08 172.705C166.086 172.71 166.091 172.717 166.094 172.725C166.096 172.733 166.097 172.741 166.096 172.749L166.091 172.76L166.107 172.782ZM165.652 174.446C165.098 176.32 164.51 178.184 163.933 180.047C163.323 182.016 162.78 184.057 161.792 185.876C161.792 185.904 161.792 185.926 161.792 185.948C161.792 185.97 161.792 186.07 161.792 186.131C161.887 186.004 161.981 185.876 162.064 185.749C163.348 183.999 164.272 182.012 164.782 179.903C165.176 178.062 165.359 176.221 165.636 174.385L165.652 174.446ZM165.802 173.514C165.802 173.398 165.841 173.287 165.863 173.17C164.648 175.103 163.618 177.145 162.785 179.271C162.15 181.279 161.815 183.371 161.792 185.477C163.451 181.595 164.443 177.474 165.786 173.47L165.802 173.514ZM156.003 202.791H155.803C155.77 202.692 155.725 202.597 155.686 202.497L155.736 202.165C155.831 202.375 155.919 202.581 156.003 202.791Z" fill="black"/>
<path d="M173.245 172.216C176.62 172.526 179.967 173.082 183.261 173.88C184.891 174.302 186.494 174.795 188.091 175.322C188.89 175.583 189.694 175.821 190.498 176.049C191.335 176.316 192.201 176.48 193.077 176.537C193.093 176.537 193.109 176.543 193.12 176.555C193.132 176.566 193.138 176.582 193.138 176.598C193.138 176.614 193.132 176.629 193.12 176.641C193.109 176.652 193.093 176.659 193.077 176.659C192.249 176.7 191.419 176.685 190.593 176.614C189.794 176.518 189.003 176.368 188.225 176.165C186.561 175.755 184.897 175.272 183.272 174.845C179.944 173.986 176.617 173.126 173.206 172.51C173.187 172.508 173.168 172.502 173.151 172.492C173.134 172.482 173.12 172.469 173.108 172.454C173.096 172.438 173.087 172.421 173.082 172.402C173.077 172.383 173.076 172.363 173.079 172.344C173.081 172.325 173.087 172.306 173.097 172.289C173.107 172.272 173.12 172.258 173.135 172.246C173.151 172.234 173.168 172.225 173.187 172.22C173.206 172.215 173.226 172.214 173.245 172.216Z" fill="#263238"/>
<path d="M164.909 175.211C167.687 174.918 170.479 174.783 173.273 174.806C174.676 174.806 176.046 174.923 177.454 175.056C178.12 175.123 178.78 175.195 179.445 175.283C180.111 175.372 180.887 175.566 181.619 175.649C181.697 175.649 181.697 175.777 181.619 175.771C180.926 175.71 180.222 175.771 179.528 175.771L177.443 175.716C176.051 175.683 174.67 175.661 173.261 175.616C170.488 175.522 167.715 175.455 164.904 175.455C164.754 175.439 164.765 175.222 164.909 175.211Z" fill="#263238"/>
<path d="M201.058 127.305C219.864 151.269 241.211 195.815 235.193 204.444C228.488 214.055 201.796 183.924 202.888 182.532C203.814 181.34 195.828 152.512 190.199 131.581C184.57 110.651 196.41 121.377 201.058 127.305Z" fill="#D3766A"/>
<path d="M224.157 156.083L193.604 158.601C193.604 158.601 188.152 136.573 187.803 124.604C187.609 117.894 191.524 117.994 196.083 121.987C212.017 135.979 224.157 156.083 224.157 156.083Z" fill="#219ABF"/>
<path opacity="0.1" d="M212.017 143.244C212.017 143.244 211.945 142.973 211.928 142.901C211.928 142.867 211.928 142.856 211.872 142.901C211.817 142.945 208.179 148.912 207.658 152.112C207.43 153.895 207.482 155.703 207.813 157.47L208.428 157.42C208.189 155.411 208.246 153.378 208.595 151.386C209.238 148.43 210.747 146.101 211.784 143.416V143.549C210.491 147.038 209.011 150.837 208.972 154.58C209.066 150.737 210.824 147.498 211.828 143.915C212.101 146.677 211.995 149.463 211.512 152.196C211.179 153.93 210.692 155.632 210.059 157.281H210.297C210.894 155.64 211.35 153.952 211.662 152.234C211.888 150.803 212.018 149.358 212.05 147.909C212.089 146.988 212.144 146.034 212.116 145.091C212.588 147.764 213.109 150.493 212.732 153.172C212.533 154.568 212.108 155.922 211.473 157.181H211.579C212.095 156.097 212.482 154.956 212.732 153.782C213.09 151.826 213.101 149.823 212.765 147.864C213.055 149.066 213.257 150.288 213.37 151.519C213.569 153.444 213.213 155.386 212.344 157.115L213.325 157.037C215.039 153.027 213.231 147.914 212.017 143.244ZM208.894 155.373C208.822 156.033 208.772 156.693 208.745 157.359H208.867C208.867 156.704 208.894 156.05 208.928 155.39C208.933 155.357 208.9 155.351 208.9 155.373H208.894ZM203.903 153.022C203.903 152.872 203.903 152.722 203.875 152.573C203.883 152.567 203.89 152.56 203.894 152.551C203.899 152.542 203.901 152.533 203.901 152.523C203.901 152.513 203.899 152.503 203.894 152.495C203.89 152.486 203.883 152.478 203.875 152.473L203.842 152.44C203.648 149.461 203.443 146.489 201.929 143.827C200.182 140.754 197.203 138.386 194.436 136.262C194.436 136.223 194.258 136.306 194.27 136.317C194.27 139.706 193.976 143.921 195.75 146.966C197.414 149.778 200.819 151.092 203.387 152.839C203.387 152.839 203.426 152.839 203.443 152.867L205.988 157.586L206.731 157.525C205.818 156.002 204.872 154.501 203.892 153.022H203.903ZM201.025 143.694C202.2 145.74 202.444 147.892 202.871 150.038C201.126 145.167 198.434 140.688 194.952 136.861C197.237 138.93 199.433 140.948 201.013 143.694H201.025ZM196.543 146.467C195.068 143.832 194.796 139.54 194.486 136.517C195.174 139.473 195.784 142.723 197.231 145.391C198.601 147.914 200.93 149.9 203.065 151.835C200.714 150.332 197.935 148.996 196.532 146.494L196.543 146.467ZM194.619 136.683C197.725 141.497 200.536 146.493 203.038 151.647C200.914 149.65 198.601 147.703 197.237 145.113C195.872 142.523 195.379 139.517 194.608 136.711L194.619 136.683ZM203.121 151.696C200.763 146.61 198.023 141.71 194.924 137.038C198.498 141.19 201.275 145.965 203.115 151.125C203.176 151.38 203.248 151.635 203.321 151.885L203.121 151.696ZM202.012 157.886C201.597 157.365 201.147 156.874 200.664 156.416C200.638 156.393 200.604 156.381 200.57 156.383C200.536 156.377 200.501 156.38 200.469 156.393C200.437 156.406 200.41 156.427 200.389 156.455C200.369 156.483 200.357 156.516 200.355 156.55C200.352 156.584 200.359 156.619 200.376 156.649C200.209 157.126 200.065 157.597 199.938 158.063L200.492 158.019C200.525 157.797 200.553 157.581 200.581 157.359C200.581 157.403 200.609 157.448 200.62 157.492C200.62 157.664 200.62 157.836 200.592 158.008H200.708C200.708 157.925 200.708 157.841 200.708 157.758C200.708 157.841 200.758 157.919 200.781 158.002H200.93C200.853 157.769 200.769 157.536 200.681 157.309C200.681 157.27 200.681 157.231 200.681 157.192C200.792 157.464 200.908 157.747 201.036 157.997H201.152C201.063 157.825 200.98 157.653 200.897 157.481L201.235 157.991L202.012 157.886ZM193.138 156.56C193.316 157.32 193.454 157.891 193.537 158.224C193.604 158.335 193.665 158.446 193.721 158.562L194.464 158.501C194.101 157.808 193.649 157.165 193.122 156.588L193.138 156.56ZM193.77 120.628C193.771 120.611 193.771 120.595 193.77 120.578C193.831 120.5 193.898 120.417 193.953 120.334C193.826 120.251 193.693 120.173 193.565 120.101L193.055 120.833C190.646 122.107 188.821 124.26 187.958 126.845C187.997 127.4 188.041 127.954 188.097 128.509C188.186 128.143 188.274 127.782 188.374 127.4C189.173 124.416 190.887 122.924 193.11 121.16C193.152 121.174 193.197 121.174 193.238 121.16C193.259 121.157 193.28 121.15 193.298 121.138C193.316 121.127 193.331 121.112 193.343 121.094C193.343 121.155 193.371 121.21 193.382 121.271C193.965 123.9 194.07 126.817 192.389 129.036C191.272 130.364 189.983 131.539 188.557 132.53C188.585 132.74 188.613 132.951 188.646 133.167C190.581 131.964 192.622 130.505 193.587 128.603C194.785 126.213 194.342 123.19 193.754 120.656L193.77 120.628ZM193.687 120.911C193.737 120.866 193.687 120.783 193.61 120.828L193.366 121.049C193.366 120.916 193.366 120.783 193.393 120.65C193.39 120.642 193.384 120.634 193.377 120.629C193.37 120.624 193.361 120.621 193.352 120.621C193.343 120.621 193.334 120.624 193.326 120.629C193.319 120.634 193.313 120.642 193.31 120.65C193.31 120.811 193.282 120.972 193.266 121.138L193.216 121.188C190.837 123.385 189.088 126.176 188.147 129.274C188.147 129.346 188.147 129.418 188.147 129.49C188.442 128.491 188.826 127.52 189.295 126.59C190.305 124.626 191.634 122.844 193.227 121.316C193.227 121.343 193.227 121.377 193.227 121.404C192.077 122.959 191.097 124.632 190.304 126.396C191.114 124.654 192.089 122.993 193.216 121.438C193.005 123.8 192.7 126.124 191.508 128.243C190.659 129.659 189.636 130.963 188.463 132.125C188.46 132.175 188.46 132.225 188.463 132.274C189.822 131.022 190.962 129.55 191.835 127.921C192.866 125.874 193.155 123.551 193.305 121.266L193.371 121.177C193.371 121.177 193.371 121.138 193.338 121.177L193.299 121.238V121.205L193.687 120.911ZM189.478 128.06C189.073 128.869 188.668 129.673 188.28 130.489C188.28 130.555 188.28 130.616 188.28 130.683C188.663 129.807 189.051 128.93 189.478 128.071C189.489 128.087 189.467 128.071 189.461 128.087L189.478 128.06Z" fill="black"/>
<path d="M194.27 153.704C198.939 152.928 211.662 151.181 220.075 151.131C220.125 151.131 220.147 151.325 220.075 151.33C213.082 152.44 199 153.621 194.281 153.987C194.22 153.998 194.186 153.715 194.27 153.704Z" fill="#263238"/>
<path d="M197.325 158.302C196.079 158.302 194.833 158.328 193.587 158.379L193.826 158.557C193.271 155.19 192.567 151.857 191.813 148.535C191.059 145.213 190.227 141.88 189.234 138.63C189.7 142.013 190.343 145.363 191.025 148.702C191.707 152.04 192.5 155.357 193.382 158.657L193.432 158.862L193.621 158.834C194.857 158.679 196.094 158.507 197.325 158.302Z" fill="#263238"/>
<path d="M190.598 145.302C190.396 144.606 190.113 143.936 189.755 143.305C189.407 142.668 189.008 142.06 188.563 141.486C188.597 141.853 188.682 142.214 188.818 142.557C188.941 142.898 189.093 143.228 189.273 143.544C189.618 144.197 190.066 144.79 190.598 145.302Z" fill="#263238"/>
<path d="M188.857 122.336C188.696 123.784 183.061 133.716 176.6 134.177C174.493 134.321 173.184 122.852 173.184 122.852L172.89 122.026L168.836 110.479L181.697 99.8971L183.566 98.4718C183.566 98.4718 184.464 101.705 185.546 105.743C185.601 105.931 185.651 106.114 185.701 106.297C185.751 106.48 185.834 106.735 185.89 106.952C186.056 107.551 186.228 108.166 186.383 108.782C186.505 109.248 186.627 109.702 186.733 110.196C186.838 110.69 186.966 111.178 187.088 111.671C188.169 116.596 188.918 121.726 188.857 122.336Z" fill="#D3766A"/>
<path d="M185.546 105.743C184.746 109.213 183.199 112.468 181.014 115.28C178.828 118.092 176.056 120.394 172.89 122.026L168.836 110.479L181.697 99.8971L183.566 98.4718C183.566 98.4718 184.464 101.733 185.546 105.743Z" fill="#263238"/>
<path d="M186.766 100.624C187.149 101.077 187.439 101.601 187.62 102.165C188.435 104.733 187.287 107.373 185.845 109.464C184.298 111.682 182.124 113.718 181.375 116.391C181.027 117.434 181.074 118.569 181.508 119.58C182.063 120.689 183.172 121.244 184.309 121.571C185.446 121.898 187.01 122.059 187.831 123.129C188.132 123.591 188.321 124.118 188.38 124.666C188.44 125.214 188.37 125.769 188.175 126.285C187.354 128.941 184.492 130.328 182.789 132.385C180.959 134.557 179.826 137.23 179.54 140.055C179.294 142.702 179.824 145.364 181.065 147.714C181.658 148.865 182.414 149.925 183.311 150.859C184.315 151.891 185.529 152.689 186.577 153.671C187.626 154.652 188.469 155.817 188.43 157.22C188.43 158.302 186.211 161.657 181.614 163.321C181.286 163.437 181.519 164.025 181.897 164.025C182.621 164.038 183.345 164.007 184.065 163.931C187.038 163.625 189.897 162.617 192.404 160.989C194.911 159.361 196.995 157.161 198.485 154.569C200.055 151.77 200.916 148.628 200.991 145.418C201.036 143.638 200.936 141.836 201.28 140.078C201.615 138.54 202.313 137.104 203.315 135.89C205.184 133.533 207.602 131.648 209.061 128.969C210.336 126.551 210.991 123.855 210.968 121.122C210.938 118.314 210.304 115.546 209.107 113.006C207.911 110.466 206.181 108.214 204.036 106.403C199.777 102.726 186.555 100.369 186.766 100.624Z" fill="#263238"/>
<path d="M186.882 100.768C187.568 101.718 188.025 102.813 188.219 103.968C188.331 105.025 188.174 106.093 187.764 107.074C186.888 109.292 185.202 110.956 183.588 112.62C182.074 114.2 180.549 115.947 180.199 118.193C180.028 119.154 180.132 120.145 180.499 121.049C180.96 122.012 181.784 122.752 182.789 123.107C184.609 123.845 187.143 124.216 187.842 126.362C188.541 128.509 186.777 130.472 185.529 131.936C182.484 135.513 178.003 139.7 179.212 144.93C179.828 147.576 181.564 150.055 183.333 152.062C184.609 153.515 186.239 155.335 185.895 157.425C185.895 157.503 185.768 157.464 185.779 157.392C186.106 155.174 184.159 153.632 182.789 152.207C181.136 150.531 179.818 148.554 178.907 146.383C178.061 144.19 178.111 141.752 179.046 139.595C179.955 137.349 181.475 135.469 183.072 133.678C183.893 132.757 184.736 131.853 185.524 130.905C186.301 130.088 186.886 129.109 187.237 128.037C187.386 127.499 187.359 126.927 187.159 126.405C186.96 125.883 186.598 125.439 186.128 125.137C185.169 124.477 184.032 124.227 182.956 123.822C181.981 123.512 181.117 122.924 180.471 122.131C179.982 121.455 179.676 120.664 179.584 119.835C179.414 117.948 179.953 116.065 181.098 114.555C182.64 112.392 184.858 110.8 186.361 108.61C187.182 107.503 187.688 106.194 187.825 104.822C187.908 103.374 187.271 102.16 186.649 100.906C186.644 100.877 186.647 100.847 186.66 100.82C186.672 100.793 186.692 100.771 186.717 100.756C186.743 100.74 186.772 100.733 186.802 100.736C186.831 100.738 186.859 100.749 186.882 100.768Z" fill="#263238"/>
<path d="M206.498 106.336C210.891 109.969 212.599 115.98 211.601 121.476C211.003 124.545 209.684 127.427 207.752 129.884C205.983 132.191 203.87 134.321 202.605 136.977C201.224 139.928 201.707 143.111 201.712 146.256C201.722 148.795 201.181 151.306 200.126 153.615C198.055 158.108 194.291 161.599 189.655 163.326C189.073 163.545 188.479 163.73 187.875 163.881C187.867 163.885 187.858 163.887 187.849 163.886C187.84 163.886 187.831 163.884 187.823 163.88C187.815 163.876 187.808 163.871 187.802 163.864C187.797 163.856 187.793 163.848 187.79 163.84C187.788 163.831 187.788 163.822 187.79 163.813C187.792 163.804 187.796 163.796 187.801 163.789C187.807 163.781 187.814 163.775 187.822 163.771C187.83 163.767 187.838 163.765 187.847 163.764C192.6 162.5 196.571 159 198.851 154.691C199.981 152.567 200.664 150.235 200.858 147.836C201.086 144.875 200.437 141.886 201.052 138.963C201.607 136.19 203.42 133.944 205.184 131.836C207.114 129.535 209 127.255 210.07 124.41C212.061 119.131 211.373 112.941 207.708 108.543C203.615 103.635 197.131 102.171 191.07 101.555L188.635 101.317C188.546 101.317 188.541 101.167 188.635 101.173C194.824 101.489 201.535 102.232 206.498 106.336Z" fill="#263238"/>
<path d="M187.969 97.4624C188.912 97.6731 189.944 98.6437 189.96 99.2926C189.977 99.9415 186.927 103.94 185.679 104.04C184.431 104.14 183.915 101.883 183.915 101.883L187.969 97.4624Z" fill="#219ABF"/>
<path d="M149.636 95.0777C151.893 116.435 164.931 117.506 169.529 117.017C173.705 116.574 187.87 114.538 187.831 93.0589C187.792 71.5794 177.16 65.8837 167.555 66.3828C157.949 66.882 147.378 73.7257 149.636 95.0777Z" fill="#D3766A"/>
<path d="M151.987 92.7816C152.457 92.6335 152.918 92.4595 153.368 92.2603C153.879 92.1485 154.337 91.8694 154.671 91.4672C154.752 91.3207 154.783 91.1516 154.758 90.9861C154.732 90.8207 154.653 90.6681 154.533 90.5521C154.258 90.3588 153.937 90.2425 153.603 90.2152C153.268 90.1879 152.933 90.2506 152.631 90.3969C151.974 90.597 151.414 91.0337 151.061 91.6225C150.988 91.7618 150.957 91.9195 150.972 92.0763C150.986 92.233 151.047 92.382 151.145 92.505C151.243 92.628 151.375 92.7196 151.525 92.7688C151.674 92.8179 151.835 92.8224 151.987 92.7816Z" fill="#263238"/>
<path d="M166.451 90.53C165.958 90.5273 165.466 90.4996 164.976 90.4468C164.453 90.4886 163.931 90.3581 163.489 90.0752C163.369 89.9577 163.291 89.8039 163.267 89.6375C163.243 89.4711 163.274 89.3014 163.356 89.1546C163.561 88.8897 163.831 88.6838 164.141 88.5581C164.451 88.4323 164.789 88.3913 165.12 88.4392C165.808 88.4366 166.472 88.6896 166.983 89.1491C167.094 89.2599 167.17 89.4005 167.203 89.5538C167.235 89.707 167.222 89.8664 167.166 90.0126C167.11 90.1588 167.012 90.2855 166.885 90.3773C166.758 90.4691 166.608 90.5222 166.451 90.53Z" fill="#263238"/>
<path d="M163.894 96.2146C163.894 96.1591 164.016 96.27 164.022 96.331C164.161 97.7785 164.577 99.409 165.93 99.7196C165.974 99.7196 165.98 99.8028 165.93 99.8028C164.321 99.7862 163.795 97.6121 163.894 96.2146Z" fill="#263238"/>
<path d="M164.987 94.5231C167.283 94.0461 168.065 98.6714 165.935 99.1151C163.806 99.5588 163.062 94.9446 164.987 94.5231Z" fill="#263238"/>
<path d="M165.935 94.634C166.385 94.8281 166.862 95.2274 167.355 95.1886C167.849 95.1498 168.27 94.5952 168.564 94.0794C168.592 94.0239 168.636 94.0794 168.647 94.1182C168.814 95.0055 168.647 95.9706 167.699 96.2645C166.751 96.5584 166.096 95.8485 165.725 94.9945C165.658 94.8281 165.758 94.5563 165.935 94.634Z" fill="#263238"/>
<path d="M155.881 97.2572C155.881 97.2073 155.781 97.346 155.792 97.4014C156.091 98.8267 156.191 100.507 154.982 101.211C154.943 101.211 154.982 101.306 154.982 101.289C156.557 100.784 156.391 98.5605 155.881 97.2572Z" fill="#263238"/>
<path d="M154.339 95.9872C152.004 96.2201 152.642 100.868 154.799 100.657C156.956 100.446 156.291 95.7931 154.339 95.9872Z" fill="#263238"/>
<path d="M153.413 96.4254C153.074 96.7248 152.775 97.2184 152.337 97.3127C151.898 97.407 151.388 96.9633 151 96.5252C150.961 96.4808 150.928 96.5252 150.933 96.5862C151.033 97.4735 151.455 98.3609 152.331 98.4164C153.207 98.4718 153.596 97.6233 153.684 96.7082C153.706 96.5418 153.546 96.3089 153.413 96.4254Z" fill="#263238"/>
<path d="M167.144 106.724C166.911 107.151 166.717 107.706 166.229 107.905C165.708 108.054 165.163 108.092 164.626 108.016C164.582 108.016 164.549 108.077 164.593 108.105C164.875 108.317 165.209 108.448 165.56 108.485C165.91 108.522 166.264 108.464 166.584 108.316C166.845 108.154 167.051 107.919 167.178 107.639C167.304 107.36 167.345 107.049 167.294 106.746C167.294 106.669 167.178 106.674 167.144 106.724Z" fill="#263238"/>
<path d="M160.023 103.524C160.023 103.524 160.256 105.704 160.506 106.696C160.506 106.791 160.778 106.774 161.121 106.696C161.121 106.696 161.121 106.696 161.16 106.696C162.052 106.638 162.911 106.336 163.642 105.822C164.374 105.309 164.95 104.604 165.309 103.785C165.353 103.668 165.198 103.602 165.126 103.685C164.074 104.866 162.67 105.677 161.121 105.998C160.983 105.737 160.844 102.254 160.683 102.282C159.929 102.542 159.212 102.902 158.554 103.352C157.932 98.8323 158.043 94.2458 157.361 89.748C157.361 89.7113 157.347 89.676 157.321 89.65C157.295 89.624 157.259 89.6094 157.223 89.6094C157.186 89.6094 157.151 89.624 157.125 89.65C157.099 89.676 157.084 89.7113 157.084 89.748C156.629 94.5453 157.228 99.7696 157.749 104.456C157.81 105.06 159.668 103.79 160.023 103.524Z" fill="#263238"/>
<path d="M157.96 74.2027C157.96 74.2027 158.027 77.5802 159.746 79.5434C163.284 83.5809 168.536 80.7691 170.971 82.0724C173.25 83.2925 173.639 87.0637 175.752 88.3282C178.68 90.0863 181.475 88.2894 182.301 89.7979C183.128 91.3064 185.585 94.695 187.82 94.7893C190.055 94.8836 190.687 59.0455 163.179 66.5049C159.872 67.1791 156.807 68.7307 154.305 70.9971C149.009 76.0495 149.264 88.3171 149.264 88.3171C149.264 88.3171 149.353 88.1341 150.041 87.0638C151.011 85.5553 151.211 84.3573 151.943 83.348C153.102 81.7618 154.045 81.9726 155.27 80.3975C157.112 77.9573 157.96 74.2027 157.96 74.2027Z" fill="#263238"/>
<path d="M157.949 72.5999C157.909 74.0536 158.038 75.5071 158.332 76.9313C158.538 78.3395 159.124 79.6646 160.029 80.7635C161.045 81.719 162.373 82.2729 163.767 82.322C165.17 82.4329 166.612 82.1722 168.137 82.322C168.925 82.3981 169.677 82.6898 170.311 83.1649C170.885 83.6842 171.351 84.3118 171.681 85.0118C172.352 86.3095 173.029 87.5851 174.215 88.3116C174.808 88.6817 175.475 88.9176 176.168 89.0029C176.862 89.0882 177.566 89.0207 178.231 88.8052C179.578 88.4281 180.959 87.6239 182.446 87.8457C180.948 87.7459 179.706 88.6222 178.331 89.1269C177.618 89.3902 176.857 89.4944 176.1 89.4322C175.343 89.3699 174.609 89.1426 173.949 88.7664C172.552 88.0177 171.814 86.548 171.137 85.3112C170.837 84.6914 170.416 84.1373 169.901 83.6807C169.358 83.2912 168.72 83.0572 168.054 83.0041C166.678 82.8322 165.214 83.0707 163.717 82.9376C162.956 82.8823 162.207 82.7102 161.499 82.4273C160.769 82.167 160.117 81.724 159.607 81.1407C158.693 79.9376 158.127 78.5064 157.971 77.0034C157.791 75.5415 157.783 74.0635 157.949 72.5999Z" fill="#263238"/>
<path d="M157.783 73.9698C157.882 75.3318 157.798 76.7009 157.533 78.0405C157.3 79.4366 156.657 80.732 155.686 81.7619C155.177 82.2346 154.619 82.6528 154.023 83.0097C153.511 83.3511 153.105 83.8296 152.852 84.3906C152.677 85.052 152.437 85.6947 152.137 86.3096C151.783 86.9034 151.297 87.4081 150.717 87.7848C151.191 87.3221 151.568 86.7697 151.826 86.1598C152.062 85.5353 152.235 84.8887 152.342 84.2298C152.577 83.5298 153.027 82.9221 153.629 82.4939C154.178 82.1357 154.696 81.7312 155.176 81.2849C156.05 80.3295 156.667 79.1671 156.967 77.9074C157.328 76.6149 157.6 75.2993 157.783 73.9698Z" fill="#263238"/>
<path d="M184.17 95.0777C184.17 95.0777 187.498 87.6073 190.792 88.6721C194.087 89.7369 192.489 99.9415 189.239 101.927C188.84 102.21 188.387 102.41 187.908 102.513C187.43 102.617 186.935 102.623 186.454 102.53C185.973 102.437 185.516 102.248 185.11 101.974C184.704 101.699 184.358 101.346 184.093 100.934L184.17 95.0777Z" fill="#D3766A"/>
<path d="M190.26 91.5726C190.315 91.5726 190.338 91.6336 190.293 91.6613C188.03 93.131 187.182 95.66 186.738 98.2C187.293 97.1463 188.186 96.4586 189.572 97.0908C189.644 97.1241 189.606 97.235 189.533 97.235C189.075 97.1792 188.611 97.2678 188.205 97.4885C187.799 97.7092 187.473 98.051 187.271 98.4662C186.939 99.156 186.683 99.8793 186.505 100.624C186.433 100.862 186.012 100.823 186.051 100.552C186.051 100.552 186.051 100.513 186.051 100.496C185.396 97.3959 186.96 92.5376 190.26 91.5726Z" fill="#263238"/>
<path d="M234.788 205.221C227.579 209.569 203.315 206.74 170.855 199.358C166.362 198.338 177.077 167.192 181.946 168.051C188.047 169.116 211.545 174.568 213.215 175.184C227.263 180.375 239.663 202.27 234.788 205.221Z" fill="#D3766A"/>
<path d="M190.221 171.091C190.221 171.091 188.269 170.37 178.575 164.885C171.875 161.091 153.124 156.139 136.336 169.787C129.903 175.023 130.763 181.817 138.411 177.552C143.796 174.557 147.284 172.006 149.303 171.54C149.303 171.54 145.704 180.258 148.615 184.883C151.171 188.935 154.011 192.801 157.112 196.452C157.907 196.037 158.676 195.572 159.413 195.06C160.725 196.777 162.495 198.089 164.518 198.846C166.542 199.604 168.738 199.775 170.855 199.342L190.221 171.091Z" fill="#D3766A"/>
<path d="M171.603 162.289C167.649 163.099 159.33 164.957 153.002 168.839C146.003 173.165 133.691 183.397 136.919 188.527C139.298 192.293 144.345 188.799 144.345 188.799C144.345 188.799 140.147 194.101 143.042 197.029C145.681 199.702 149.425 196.763 149.425 196.763C149.425 196.763 147.428 200.418 150.468 202.497C154.117 205.004 157.677 196.952 163.589 196.275C164.937 196.147 171.603 162.289 171.603 162.289Z" fill="#D3766A"/>
<path d="M158.809 175.494C155.221 176.87 147.861 182.083 144.356 188.66C144.278 188.804 144.356 188.949 144.45 188.827C148.701 183.836 153.543 179.381 158.87 175.561C158.886 175.533 158.853 175.494 158.809 175.494Z" fill="#263238"/>
<path d="M162.979 182.704C160.001 184.207 152.653 189.914 149.336 196.702C149.259 196.857 149.336 196.99 149.436 196.868C153.414 191.667 157.973 186.938 163.024 182.77C163.057 182.704 163.013 182.665 162.979 182.704Z" fill="#263238"/>
<path d="M149.436 196.846C148.339 197.627 147.043 198.079 145.698 198.149C145.015 198.162 144.341 197.989 143.749 197.648C143.157 197.307 142.669 196.811 142.337 196.214C142.037 195.595 141.899 194.91 141.938 194.223C141.989 193.545 142.131 192.877 142.359 192.237C142.82 190.964 143.485 189.775 144.328 188.716L144.545 188.954C143.486 189.689 142.29 190.204 141.028 190.468C140.389 190.607 139.727 190.607 139.087 190.468C138.439 190.305 137.849 189.963 137.385 189.481C136.924 189.001 136.585 188.417 136.397 187.778C136.228 187.14 136.19 186.474 136.287 185.821C136.515 184.55 136.998 183.339 137.706 182.26C138.39 181.187 139.19 180.192 140.091 179.293C140.962 178.389 141.86 177.507 142.77 176.642C144.574 174.876 146.474 173.21 148.46 171.651L148.732 172.122C146.889 172.947 145.093 173.873 143.352 174.895C142.481 175.405 141.65 175.955 140.834 176.559C140.002 177.166 139.119 177.7 138.194 178.156C137.268 178.626 136.277 178.958 135.255 179.143C134.725 179.235 134.183 179.235 133.652 179.143C133.094 179.037 132.594 178.731 132.244 178.284C131.907 177.836 131.722 177.292 131.717 176.731C131.708 176.194 131.796 175.661 131.977 175.156C132.338 174.182 132.853 173.272 133.502 172.461C134.795 170.869 136.314 169.475 138.011 168.323C139.67 167.146 141.408 166.086 143.213 165.151C146.813 163.252 150.711 161.982 154.738 161.396C150.741 162.071 146.889 163.424 143.347 165.395C141.564 166.347 139.85 167.421 138.217 168.612C136.569 169.762 135.099 171.146 133.852 172.721C133.24 173.5 132.759 174.373 132.427 175.306C132.105 176.21 132.055 177.269 132.626 177.984C133.197 178.7 134.235 178.816 135.177 178.666C136.144 178.487 137.078 178.165 137.95 177.713C138.844 177.268 139.698 176.747 140.502 176.154C141.324 175.547 142.178 174.982 143.058 174.463C144.811 173.428 146.626 172.502 148.493 171.69L150.712 170.708L148.793 172.078C146.823 173.61 144.935 175.245 143.136 176.975C142.226 177.833 141.335 178.709 140.463 179.604C139.579 180.473 138.796 181.438 138.128 182.482C137.451 183.501 136.987 184.646 136.764 185.849C136.67 186.437 136.697 187.039 136.841 187.618C136.999 188.19 137.294 188.716 137.701 189.148C138.105 189.579 138.622 189.888 139.193 190.041C139.778 190.182 140.387 190.195 140.978 190.08C142.187 189.845 143.337 189.372 144.362 188.688L145.221 188.133L144.578 188.921C143.749 189.945 143.088 191.095 142.62 192.326C142.388 192.94 142.237 193.581 142.171 194.234C142.12 194.883 142.237 195.534 142.509 196.125C142.817 196.706 143.277 197.192 143.84 197.532C144.402 197.872 145.046 198.053 145.704 198.055C147.037 198.013 148.331 197.594 149.436 196.846Z" fill="#263238"/>
<path d="M224.545 183.735C223.436 182.488 220.225 178.539 215.117 175.971C210.647 173.753 204.286 172.549 200.969 172.15C200.886 172.15 200.847 172.233 200.93 172.261C203.792 173.237 209.621 174.479 214.407 176.786C218.081 178.627 221.467 180.994 224.456 183.813C224.512 183.863 224.595 183.813 224.545 183.735Z" fill="#263238"/>
<path d="M104.186 80.8744C104.185 84.605 105.22 88.2628 107.176 91.4392C109.133 94.6157 111.934 97.1859 115.266 98.8628C118.599 100.54 122.332 101.257 126.048 100.936C129.765 100.614 133.319 99.2655 136.314 97.0408L146.175 99.5587L142.071 90.3746C143.514 87.6761 144.323 84.6842 144.436 81.6263C144.55 78.5683 143.964 75.5247 142.725 72.7268C141.486 69.929 139.625 67.4505 137.284 65.4797C134.943 63.5089 132.183 62.0977 129.215 61.3534C126.247 60.6091 123.148 60.5512 120.154 61.1841C117.16 61.8171 114.35 63.1242 111.937 65.0062C109.524 66.8882 107.572 69.2954 106.229 72.045C104.886 74.7947 104.187 77.8143 104.186 80.8744Z" fill="white"/>
<path d="M104.186 80.8744C104.21 84.5989 105.26 88.2447 107.22 91.4118C107.707 92.1968 108.242 92.9507 108.823 93.669C109.425 94.3716 110.069 95.0365 110.753 95.66C111.108 95.9594 111.418 96.3033 111.801 96.5695L112.91 97.3903C113.282 97.6676 113.698 97.8783 114.086 98.1224L114.679 98.4773C114.885 98.5938 115.095 98.6825 115.306 98.7823C115.722 98.9764 116.138 99.1816 116.559 99.3702L117.857 99.8416C118.292 99.9994 118.736 100.127 119.188 100.224C119.637 100.33 120.076 100.474 120.53 100.535C121.437 100.701 122.355 100.801 123.276 100.834C124.199 100.9 125.127 100.887 126.049 100.796C127.883 100.628 129.686 100.208 131.406 99.5477C133.118 98.8765 134.732 97.9773 136.203 96.8745L136.275 96.8191H136.37L146.241 99.2926L145.959 99.6309L141.832 90.4523L141.777 90.3358L141.843 90.2194C143.266 87.5555 144.064 84.6032 144.179 81.5854C144.293 78.5677 143.72 75.5634 142.503 72.7995C141.267 70.0344 139.44 67.5735 137.152 65.5898C134.844 63.6254 132.118 62.2142 129.182 61.4636C126.238 60.7055 123.161 60.624 120.181 61.2251C115.671 62.1607 111.621 64.6193 108.709 68.1882C105.798 71.757 104.203 76.2188 104.192 80.8245L104.186 80.8744ZM104.186 80.8744C104.193 77.8109 104.895 74.7888 106.24 72.0363C107.585 69.2838 109.538 66.8728 111.951 64.9852C114.356 63.0809 117.166 61.7536 120.165 61.1056C123.164 60.4576 126.271 60.506 129.249 61.2473C132.247 61.9747 135.04 63.3785 137.412 65.3513C139.791 67.3352 141.685 69.8367 142.949 72.6646C144.213 75.4925 144.814 78.5719 144.705 81.6675C144.604 84.7716 143.782 87.8096 142.304 90.541V90.3026L146.386 99.4978L146.591 99.9581L146.103 99.8305L136.253 97.2683L136.42 97.235C133.395 99.4716 129.804 100.816 126.054 101.117C125.131 101.188 124.204 101.188 123.281 101.117C122.35 101.068 121.424 100.955 120.508 100.779C120.048 100.712 119.604 100.557 119.149 100.452C118.698 100.345 118.253 100.209 117.818 100.047L116.51 99.5588C116.088 99.3647 115.672 99.1484 115.256 98.9487C115.051 98.8434 114.835 98.7491 114.635 98.6382L114.042 98.2721C113.648 98.017 113.237 97.8007 112.866 97.5234L111.757 96.6804C111.391 96.3968 111.041 96.0931 110.708 95.7709C110.025 95.1417 109.38 94.4713 108.778 93.7632C108.201 93.036 107.668 92.2748 107.181 91.4838C105.22 88.2928 104.183 84.6199 104.186 80.8744Z" fill="#263238"/>
<path d="M115.029 71.7125C114.103 72.6377 113.473 73.8167 113.218 75.1001C112.962 76.3836 113.093 77.714 113.594 78.9231C114.095 80.1321 114.943 81.1655 116.031 81.8926C117.119 82.6196 118.398 83.0077 119.707 83.0077C121.015 83.0077 122.295 82.6196 123.383 81.8926C124.471 81.1655 125.319 80.1321 125.82 78.9231C126.32 77.714 126.451 76.3836 126.196 75.1001C125.941 73.8167 125.31 72.6377 124.385 71.7125C123.771 71.0976 123.042 70.6097 122.239 70.2769C121.436 69.9441 120.576 69.7727 119.707 69.7727C118.838 69.7727 117.977 69.9441 117.175 70.2769C116.372 70.6097 115.643 71.0976 115.029 71.7125ZM116.371 73.0602C116.544 72.8877 116.764 72.7704 117.004 72.7231C117.244 72.6757 117.492 72.7005 117.718 72.7943C117.944 72.888 118.137 73.0466 118.272 73.2498C118.408 73.4531 118.48 73.692 118.48 73.9364C118.48 74.1808 118.408 74.4197 118.272 74.623C118.137 74.8263 117.944 74.9848 117.718 75.0785C117.492 75.1723 117.244 75.1971 117.004 75.1498C116.764 75.1024 116.544 74.9851 116.371 74.8127C116.256 74.6978 116.164 74.5612 116.102 74.4108C116.039 74.2605 116.007 74.0992 116.007 73.9364C116.007 73.7736 116.039 73.6124 116.102 73.462C116.164 73.3116 116.256 73.1751 116.371 73.0602Z" fill="#219ABF"/>
<path d="M120.992 81.9806L122.407 83.3963L126.701 79.1022L125.286 77.6865L120.992 81.9806Z" fill="#219ABF"/>
<path d="M126.021 79.7819L123.109 82.6935L123.825 83.409L125.028 83.0374L124.657 84.2409L125.838 85.4221L127.441 85.0949L127.108 86.6922L127.374 86.9584L128.578 86.5868L128.206 87.7903L129.415 87.4187L129.038 88.6277L129.981 89.565L131.578 89.2322L131.245 90.8294L132.066 91.6503L135.31 91.9775L134.978 88.7386L126.021 79.7819Z" fill="#EBEBEB"/>
<path d="M124.955 81.6545L133.3 89.9996L133.5 89.7996L125.155 81.4545L124.955 81.6545Z" fill="#DBDBDB"/>
<path opacity="0.1" d="M113.953 76.3933C113.963 77.9154 114.572 79.3723 115.65 80.4474C116.726 81.504 118.177 82.0906 119.685 82.0781C121.192 82.0656 122.634 81.4552 123.692 80.3808C124.734 79.3163 125.318 77.8859 125.318 76.3961C125.318 74.9063 124.734 73.4758 123.692 72.4113C122.634 71.3376 121.193 70.7271 119.686 70.7135C118.178 70.7 116.727 71.2846 115.65 72.3392C114.572 73.4143 113.963 74.8712 113.953 76.3933ZM113.953 76.3933C113.951 74.8614 114.555 73.3908 115.632 72.3013C116.709 71.2119 118.172 70.5917 119.704 70.5756C120.857 70.5624 121.989 70.8923 122.954 71.5235C123.92 72.1547 124.676 73.0586 125.126 74.1204C125.577 75.1823 125.701 76.354 125.485 77.4869C125.268 78.6198 124.719 79.6626 123.908 80.4829C123.097 81.3032 122.061 81.8639 120.93 82.0939C119.8 82.3238 118.627 82.2125 117.56 81.7742C116.493 81.3359 115.58 80.5904 114.938 79.6322C114.296 78.6741 113.953 77.5467 113.953 76.3933Z" fill="black"/>
<path d="M183.954 200.584H109.488V203.923H183.954V200.584Z" fill="#455A64"/>
<path d="M146.968 200.584H109.488V203.923H146.968V200.584Z" fill="#37474F"/>
<path d="M144.694 203.917H72.1197L62.6361 154.63H135.205L144.694 203.917Z" fill="#37474F"/>
<path d="M141.744 203.917H69.1692L59.6801 154.63H132.255L141.744 203.917Z" fill="#455A64"/>
<path d="M105.129 179.276C105.193 179.84 105.136 180.411 104.962 180.951C104.787 181.491 104.5 181.988 104.118 182.408C103.736 182.828 103.27 183.162 102.749 183.387C102.228 183.612 101.665 183.723 101.097 183.713C99.8918 183.692 98.7364 183.228 97.8508 182.41C96.9652 181.592 96.4113 180.476 96.2944 179.276C96.2295 178.712 96.2859 178.141 96.4599 177.601C96.634 177.06 96.9215 176.563 97.3034 176.143C97.6852 175.723 98.1525 175.389 98.6739 175.164C99.1953 174.94 99.7587 174.829 100.326 174.84C101.531 174.862 102.686 175.327 103.572 176.145C104.457 176.963 105.011 178.077 105.129 179.276Z" fill="white"/>
</svg>
