<svg width="125" height="126" viewBox="0 0 125 126" fill="none" xmlns="http://www.w3.org/2000/svg">
<path d="M0 120.973V104.206H11.2758V107.244H3.48853V111.048H10.8257V114.086H3.48853V117.935H11.2758V120.973H0Z" fill="white"/>
<path d="M13.8386 116.292V113.366H23.9666V116.292H13.8386Z" fill="white"/>
<path d="M27.5179 120.973V104.206H31.0064V117.935H38.096V120.973H27.5179Z" fill="white"/>
<path d="M45.6779 121.243C44.4625 121.243 43.3522 120.966 42.3469 120.41C41.3566 119.855 40.5614 119.098 39.9612 118.137C39.376 117.162 39.0834 116.059 39.0834 114.829C39.0834 113.583 39.376 112.481 39.9612 111.52C40.5614 110.56 41.3566 109.802 42.3469 109.247C43.3522 108.692 44.4625 108.414 45.6779 108.414C46.8932 108.414 47.9961 108.692 48.9864 109.247C49.9767 109.802 50.7644 110.56 51.3496 111.52C51.9497 112.481 52.2498 113.583 52.2498 114.829C52.2498 116.059 51.9497 117.162 51.3496 118.137C50.7644 119.098 49.9767 119.855 48.9864 120.41C47.9961 120.966 46.8932 121.243 45.6779 121.243ZM45.6779 118.205C46.2931 118.205 46.8257 118.062 47.2759 117.777C47.741 117.492 48.1011 117.094 48.3562 116.584C48.6263 116.074 48.7613 115.489 48.7613 114.829C48.7613 114.169 48.6263 113.591 48.3562 113.096C48.1011 112.586 47.741 112.188 47.2759 111.903C46.8257 111.603 46.2931 111.453 45.6779 111.453C45.0627 111.453 44.5225 111.603 44.0574 111.903C43.5923 112.188 43.2247 112.586 42.9546 113.096C42.6995 113.591 42.572 114.169 42.572 114.829C42.572 115.489 42.6995 116.074 42.9546 116.584C43.2247 117.094 43.5923 117.492 44.0574 117.777C44.5225 118.062 45.0627 118.205 45.6779 118.205Z" fill="white"/>
<path d="M60.2704 125.925C59.3252 125.925 58.4474 125.767 57.6372 125.452C56.8269 125.137 56.1292 124.694 55.544 124.124C54.9739 123.569 54.5613 122.909 54.3062 122.143L57.4346 121.041C57.5997 121.611 57.9373 122.061 58.4474 122.391C58.9576 122.721 59.5652 122.886 60.2704 122.886C60.8256 122.886 61.3057 122.781 61.7109 122.571C62.116 122.376 62.4236 122.083 62.6336 121.693C62.8587 121.303 62.9712 120.846 62.9712 120.32V117.507L63.6239 118.317C63.2038 119.008 62.6636 119.525 62.0035 119.87C61.3433 120.2 60.5705 120.365 59.6853 120.365C58.5449 120.365 57.5246 120.11 56.6244 119.6C55.7241 119.075 55.0189 118.362 54.5087 117.462C53.9986 116.547 53.7435 115.511 53.7435 114.356C53.7435 113.201 53.9986 112.181 54.5087 111.295C55.0189 110.395 55.7166 109.69 56.6019 109.18C57.4871 108.669 58.4924 108.414 59.6177 108.414C60.503 108.414 61.2757 108.594 61.9359 108.955C62.5961 109.3 63.1588 109.832 63.6239 110.553L63.1963 111.363V108.684H66.3472V120.32C66.3472 121.401 66.0846 122.361 65.5595 123.201C65.0343 124.057 64.3141 124.724 63.3989 125.204C62.4986 125.684 61.4558 125.925 60.2704 125.925ZM60.1579 117.305C60.7281 117.305 61.2232 117.184 61.6433 116.944C62.0635 116.704 62.3861 116.367 62.6111 115.932C62.8512 115.496 62.9712 114.986 62.9712 114.401C62.9712 113.816 62.8512 113.306 62.6111 112.871C62.3711 112.421 62.041 112.075 61.6208 111.835C61.2007 111.58 60.7131 111.453 60.1579 111.453C59.5877 111.453 59.0776 111.58 58.6275 111.835C58.1923 112.075 57.8472 112.421 57.5922 112.871C57.3521 113.306 57.232 113.816 57.232 114.401C57.232 114.971 57.3521 115.474 57.5922 115.909C57.8472 116.344 58.1923 116.689 58.6275 116.944C59.0776 117.184 59.5877 117.305 60.1579 117.305Z" fill="white"/>
<path d="M75.7198 121.243C74.8796 121.243 74.0993 121.093 73.3791 120.793C72.6739 120.478 72.1038 120.02 71.6686 119.42L71.9837 118.722V120.973H68.8328V103.936H72.2088V111.025L71.6911 110.35C72.0963 109.735 72.6439 109.262 73.3341 108.932C74.0393 108.587 74.8421 108.414 75.7423 108.414C76.9127 108.414 77.9705 108.699 78.9158 109.27C79.861 109.84 80.6113 110.613 81.1664 111.588C81.7216 112.548 81.9992 113.628 81.9992 114.829C81.9992 116.014 81.7216 117.094 81.1664 118.07C80.6263 119.045 79.8836 119.818 78.9383 120.388C77.993 120.958 76.9202 121.243 75.7198 121.243ZM75.3147 118.205C75.9449 118.205 76.5001 118.062 76.9802 117.777C77.4603 117.492 77.8354 117.094 78.1055 116.584C78.3756 116.074 78.5106 115.489 78.5106 114.829C78.5106 114.169 78.3756 113.591 78.1055 113.096C77.8354 112.586 77.4603 112.188 76.9802 111.903C76.5001 111.603 75.9449 111.453 75.3147 111.453C74.7145 111.453 74.1744 111.595 73.6942 111.88C73.2291 112.166 72.8615 112.563 72.5914 113.073C72.3363 113.583 72.2088 114.169 72.2088 114.829C72.2088 115.489 72.3363 116.074 72.5914 116.584C72.8615 117.094 73.2291 117.492 73.6942 117.777C74.1744 118.062 74.7145 118.205 75.3147 118.205Z" fill="white"/>
<path d="M90.0757 121.243C88.8604 121.243 87.75 120.966 86.7447 120.41C85.7544 119.855 84.9592 119.098 84.359 118.137C83.7739 117.162 83.4813 116.059 83.4813 114.829C83.4813 113.583 83.7739 112.481 84.359 111.52C84.9592 110.56 85.7544 109.802 86.7447 109.247C87.75 108.692 88.8604 108.414 90.0757 108.414C91.2911 108.414 92.3939 108.692 93.3842 109.247C94.3745 109.802 95.1622 110.56 95.7474 111.52C96.3476 112.481 96.6476 113.583 96.6476 114.829C96.6476 116.059 96.3476 117.162 95.7474 118.137C95.1622 119.098 94.3745 119.855 93.3842 120.41C92.3939 120.966 91.2911 121.243 90.0757 121.243ZM90.0757 118.205C90.6909 118.205 91.2235 118.062 91.6737 117.777C92.1388 117.492 92.4989 117.094 92.754 116.584C93.0241 116.074 93.1591 115.489 93.1591 114.829C93.1591 114.169 93.0241 113.591 92.754 113.096C92.4989 112.586 92.1388 112.188 91.6737 111.903C91.2235 111.603 90.6909 111.453 90.0757 111.453C89.4605 111.453 88.9204 111.603 88.4552 111.903C87.9901 112.188 87.6225 112.586 87.3524 113.096C87.0973 113.591 86.9698 114.169 86.9698 114.829C86.9698 115.489 87.0973 116.074 87.3524 116.584C87.6225 117.094 87.9901 117.492 88.4552 117.777C88.9204 118.062 89.4605 118.205 90.0757 118.205Z" fill="white"/>
<path d="M104.736 121.243C103.52 121.243 102.41 120.966 101.405 120.41C100.415 119.855 99.6193 119.098 99.0191 118.137C98.4339 117.162 98.1413 116.059 98.1413 114.829C98.1413 113.583 98.4339 112.481 99.0191 111.52C99.6193 110.56 100.415 109.802 101.405 109.247C102.41 108.692 103.52 108.414 104.736 108.414C105.951 108.414 107.054 108.692 108.044 109.247C109.035 109.802 109.822 110.56 110.407 111.52C111.008 112.481 111.308 113.583 111.308 114.829C111.308 116.059 111.008 117.162 110.407 118.137C109.822 119.098 109.035 119.855 108.044 120.41C107.054 120.966 105.951 121.243 104.736 121.243ZM104.736 118.205C105.351 118.205 105.884 118.062 106.334 117.777C106.799 117.492 107.159 117.094 107.414 116.584C107.684 116.074 107.819 115.489 107.819 114.829C107.819 114.169 107.684 113.591 107.414 113.096C107.159 112.586 106.799 112.188 106.334 111.903C105.884 111.603 105.351 111.453 104.736 111.453C104.121 111.453 103.58 111.603 103.115 111.903C102.65 112.188 102.283 112.586 102.012 113.096C101.757 113.591 101.63 114.169 101.63 114.829C101.63 115.489 101.757 116.074 102.012 116.584C102.283 117.094 102.65 117.492 103.115 117.777C103.58 118.062 104.121 118.205 104.736 118.205Z" fill="white"/>
<path d="M113.297 120.973V103.936H116.673V114.851L115.412 114.446L120.836 108.684H125L120.544 113.636L124.977 120.973H121.151L117.438 114.739L119.396 114.244L115.637 118.34L116.673 116.382V120.973H113.297Z" fill="white"/>
<g clip-path="url(#clip0_1370_673)">
<path d="M48.3245 15.0021C48.3245 11.2322 51.377 8.17975 55.1328 8.17975H85.1017C88.8646 8.17975 91.91 11.2322 91.91 15.0021C91.91 18.7719 88.8575 21.8244 85.1017 21.8244H55.1398C51.377 21.8244 48.3245 18.7719 48.3245 15.0021Z" fill="white"/>
<path d="M48.3245 55.0146C48.3245 51.2448 51.377 48.1923 55.1328 48.1923H72.3855C76.1483 48.1923 79.1938 51.2448 79.1938 55.0146C79.1938 58.7845 76.1413 61.8369 72.3855 61.8369H55.1398C51.377 61.8369 48.3245 58.7845 48.3245 55.0146Z" fill="white"/>
<path d="M65.2819 76.839C65.2819 73.0691 68.3343 70.0167 72.0901 70.0167H89.3428C93.1057 70.0167 96.1511 73.0691 96.1511 76.839C96.1511 80.6089 93.0986 83.6613 89.3428 83.6613H72.0901C68.3273 83.6613 65.2819 80.6089 65.2819 76.839Z" fill="white"/>
<path d="M48.3245 35.0119C48.3245 31.242 51.377 28.1895 55.1328 28.1895H94.1818C97.9446 28.1895 100.99 31.242 100.99 35.0119C100.99 38.7817 97.9375 41.8342 94.1818 41.8342H55.1398C51.377 41.8271 48.3245 38.7747 48.3245 35.0119Z" fill="white"/>
<path d="M30.1645 6.36515C30.1645 2.84849 33.013 0 36.5226 0C40.0322 0 42.8807 2.84849 42.8807 6.36515V63.6515C42.8807 67.1682 40.0322 70.0167 36.5226 70.0167C33.013 70.0167 30.1645 67.1682 30.1645 63.6586V6.36515Z" fill="white"/>
<path d="M30.1645 70.931V9.09409H42.937C42.9018 9.38949 42.8807 9.69895 42.8807 10.0014V62.7442C42.8807 66.7603 46.1301 70.0167 50.1461 70.0167H78.3005V83.6543H42.8807C35.8544 83.6613 30.1645 77.9643 30.1645 70.931Z" fill="white"/>
</g>
<defs>
<clipPath id="clip0_1370_673">
<rect width="70.8326" height="83.6613" fill="white" transform="translate(30.1645)"/>
</clipPath>
</defs>
</svg>
