<svg width="18" height="18" viewBox="0 0 18 18" fill="none" xmlns="http://www.w3.org/2000/svg">
<g clip-path="url(#clip0_253_844)">
<path d="M7.87638 1.18823C6.54978 1.21811 5.57963 1.62335 4.99427 2.39339C4.30091 3.30527 4.17125 4.70346 4.60685 6.55026C4.45817 6.74142 4.32443 7.04709 4.35935 7.46433C4.46519 8.24157 4.76081 8.56233 5.00201 8.69409C5.11253 9.32373 5.41812 10.0166 5.72412 10.3485V11.631C5.50416 12.126 4.78789 12.4126 3.96349 12.7427C2.57245 13.2992 0.840919 13.9918 0.720679 16.1803L0.699585 16.56H12.4291C12.3478 16.3303 12.2888 16.0898 12.2611 15.84H1.48357C1.74565 14.4054 3.0074 13.9006 4.23068 13.4114C4.95556 13.1214 5.64911 12.8421 6.0806 12.375C6.19515 12.4813 6.33188 12.571 6.47716 12.6457C6.8654 12.8452 7.36455 12.96 7.91998 12.96C8.47969 12.96 8.98056 12.8338 9.3663 12.6302C9.50169 12.5587 9.62879 12.476 9.73826 12.3806C10.1769 12.8428 10.87 13.1196 11.5945 13.4078C11.8109 13.4939 12.0269 13.5836 12.24 13.6757V12.896C12.1133 12.8438 11.9841 12.7878 11.861 12.7392C11.0323 12.4094 10.3125 12.1236 10.08 11.6275V10.3485C10.3842 10.0188 10.6887 9.33106 10.8007 8.70394C11.057 8.57794 11.3734 8.25749 11.4469 7.44605C11.4807 7.04105 11.3692 6.74321 11.2155 6.55097C11.5212 5.56889 11.7897 3.88623 11.1424 2.81667C10.8353 2.30943 10.3673 1.99023 9.74951 1.86675C9.40247 1.42719 8.7483 1.18823 7.87638 1.18823ZM7.88341 1.90753C8.56417 1.90753 9.05461 2.07914 9.22849 2.37722L9.31638 2.52769L9.48935 2.55229C9.96887 2.61997 10.3072 2.8279 10.5258 3.18862C11.0474 4.05118 10.7728 5.66423 10.4604 6.53831L10.3465 6.83503L10.6312 6.97776C10.6633 7.0008 10.7506 7.12464 10.729 7.38276C10.6807 7.91484 10.5115 8.05691 10.4751 8.06339H10.1482L10.1172 8.38894C10.0521 9.0715 9.67064 9.77672 9.54068 9.87464L9.35998 9.9787V11.7C9.35998 11.696 9.29247 11.8554 9.03021 11.9939C8.76795 12.1323 8.36826 12.24 7.91998 12.24C7.4674 12.24 7.06599 12.1386 6.80623 12.0051C6.54646 11.8716 6.47998 11.7309 6.47998 11.7C6.48054 11.6445 6.46826 11.5896 6.44412 11.5396V10.1882L6.45115 9.98362L6.26974 9.87956C6.13258 9.77732 5.75131 9.0722 5.68615 8.38964L5.68123 8.0669H5.35357C5.30245 8.0471 5.14175 7.8766 5.07443 7.38628C5.04923 7.08424 5.2031 6.95878 5.2031 6.95878L5.41544 6.81815L5.35216 6.57136C4.9162 4.84912 4.9888 3.59037 5.56732 2.82933C6.01372 2.24253 6.79513 1.93237 7.88341 1.90753ZM14.76 8.63995C13.7702 8.63995 12.96 9.45013 12.96 10.44V15.48C12.96 16.8675 14.0924 18 15.48 18C16.8675 18 18 16.8675 18 15.48V10.8C18.0007 10.7522 17.9918 10.7049 17.974 10.6606C17.9563 10.6163 17.9298 10.5761 17.8964 10.5421C17.8629 10.5081 17.8229 10.4811 17.7789 10.4627C17.7349 10.4443 17.6877 10.4348 17.64 10.4348C17.5923 10.4348 17.545 10.4443 17.501 10.4627C17.457 10.4811 17.4171 10.5081 17.3836 10.5421C17.3501 10.5761 17.3237 10.6163 17.3059 10.6606C17.2881 10.7049 17.2793 10.7522 17.28 10.8V15.48C17.28 16.4785 16.4785 17.28 15.48 17.28C14.4815 17.28 13.68 16.4785 13.68 15.48V10.44C13.68 9.8393 14.1593 9.35995 14.76 9.35995C15.3606 9.35995 15.84 9.8393 15.84 10.44V15.48C15.84 15.6834 15.6834 15.84 15.48 15.84C15.2766 15.84 15.12 15.6834 15.12 15.48V10.8C15.1207 10.7522 15.1118 10.7049 15.094 10.6606C15.0763 10.6163 15.0498 10.5761 15.0164 10.5421C14.9829 10.5081 14.9429 10.4811 14.8989 10.4627C14.8549 10.4443 14.8077 10.4348 14.76 10.4348C14.7123 10.4348 14.665 10.4443 14.621 10.4627C14.577 10.4811 14.5371 10.5081 14.5036 10.5421C14.4701 10.5761 14.4437 10.6163 14.4259 10.6606C14.4081 10.7049 14.3993 10.7522 14.4 10.8V15.48C14.4 16.0721 14.8878 16.56 15.48 16.56C16.0722 16.56 16.56 16.0721 16.56 15.48V10.44C16.56 9.45013 15.7498 8.63995 14.76 8.63995Z" fill="#29C5F6"/>
</g>
<defs>
<clipPath id="clip0_253_844">
<rect width="18" height="18" fill="white"/>
</clipPath>
</defs>
</svg>
