<svg width="32" height="32" viewBox="0 0 32 32" fill="none" xmlns="http://www.w3.org/2000/svg">
<path d="M16 26.0666C15.7556 26.0666 15.5169 26.0333 15.284 25.9667C15.0511 25.9 14.8342 25.8111 14.6333 25.7C13.7222 25.1444 12.7667 24.7222 11.7667 24.4333C10.7667 24.1444 9.73334 24 8.66668 24C7.73334 24 6.81645 24.1222 5.91601 24.3666C5.01557 24.6111 4.15468 24.9555 3.33334 25.4C2.86668 25.6444 2.4169 25.6333 1.98401 25.3666C1.55112 25.1 1.33423 24.7111 1.33334 24.2V8.13331C1.33334 7.88887 1.39468 7.65554 1.51734 7.43331C1.64001 7.21109 1.82312 7.04443 2.06668 6.93331C3.0889 6.39998 4.15557 5.99998 5.26668 5.73331C6.37779 5.46665 7.51112 5.33331 8.66668 5.33331C9.95557 5.33331 11.2169 5.49998 12.4507 5.83331C13.6845 6.16665 14.8676 6.66665 16 7.33331V23.4667C17.1333 22.7555 18.3222 22.2222 19.5667 21.8666C20.8111 21.5111 22.0667 21.3333 23.3333 21.3333C24.1333 21.3333 24.9169 21.4 25.684 21.5333C26.4511 21.6666 27.2231 21.8666 28 22.1333V6.13331C28.3333 6.24443 28.6613 6.36131 28.984 6.48398C29.3067 6.60665 29.6231 6.75643 29.9333 6.93331C30.1778 7.04443 30.3613 7.21109 30.484 7.43331C30.6067 7.65554 30.6676 7.88887 30.6667 8.13331V24.2C30.6667 24.7111 30.4502 25.1 30.0173 25.3666C29.5845 25.6333 29.1342 25.6444 28.6667 25.4C27.8445 24.9555 26.9836 24.6111 26.084 24.3666C25.1845 24.1222 24.2676 24 23.3333 24C22.2667 24 21.2333 24.1444 20.2333 24.4333C19.2333 24.7222 18.2778 25.1444 17.3667 25.7C17.1667 25.8111 16.9498 25.9 16.716 25.9667C16.4822 26.0333 16.2436 26.0666 16 26.0666ZM19.7667 19C19.5445 19.2 19.3058 19.2391 19.0507 19.1173C18.7956 18.9955 18.6676 18.7898 18.6667 18.5V7.59998C18.6667 7.55554 18.7333 7.39998 18.8667 7.13331L24.2 1.79998C24.4222 1.57776 24.6667 1.5222 24.9333 1.63331C25.2 1.74443 25.3333 1.95554 25.3333 2.26665V13.7C25.3333 13.7889 25.2556 13.9555 25.1 14.2L19.7667 19Z" fill="#F72585"/>
</svg>
