<svg width="32" height="32" viewBox="0 0 32 32" fill="none" xmlns="http://www.w3.org/2000/svg">
<path d="M8 26.6667C7.26667 26.6667 6.63867 26.4054 6.116 25.8827C5.59333 25.36 5.33245 24.7325 5.33333 24V14.6667C5.33333 13.9334 5.59467 13.3054 6.11733 12.7827C6.64 12.26 7.26756 11.9992 8 12C8.73333 12 9.36133 12.2614 9.884 12.784C10.4067 13.3067 10.6676 13.9343 10.6667 14.6667V24C10.6667 24.7334 10.4053 25.3614 9.88267 25.884C9.36 26.4067 8.73245 26.6676 8 26.6667ZM16 26.6667C15.2667 26.6667 14.6387 26.4054 14.116 25.8827C13.5933 25.36 13.3324 24.7325 13.3333 24V8.00004C13.3333 7.26671 13.5947 6.63871 14.1173 6.11604C14.64 5.59338 15.2676 5.33249 16 5.33338C16.7333 5.33338 17.3613 5.59471 17.884 6.11738C18.4067 6.64004 18.6676 7.2676 18.6667 8.00004V24C18.6667 24.7334 18.4053 25.3614 17.8827 25.884C17.36 26.4067 16.7324 26.6676 16 26.6667ZM24 26.6667C23.2667 26.6667 22.6387 26.4054 22.116 25.8827C21.5933 25.36 21.3324 24.7325 21.3333 24V20C21.3333 19.2667 21.5947 18.6387 22.1173 18.116C22.64 17.5934 23.2676 17.3325 24 17.3334C24.7333 17.3334 25.3613 17.5947 25.884 18.1174C26.4067 18.64 26.6676 19.2676 26.6667 20V24C26.6667 24.7334 26.4053 25.3614 25.8827 25.884C25.36 26.4067 24.7324 26.6676 24 26.6667Z" fill="#F72585"/>
</svg>
