<svg width="32" height="32" viewBox="0 0 32 32" fill="none" xmlns="http://www.w3.org/2000/svg">
<path d="M14 13.0666C13.3333 13.0666 12.7667 12.8333 12.3 12.3666C11.8333 11.9 11.6 11.3333 11.6 10.6666C11.6 9.99997 11.8333 9.43331 12.3 8.96664C12.7667 8.49997 13.3333 8.26664 14 8.26664C14.6667 8.26664 15.2333 8.49997 15.7 8.96664C16.1667 9.43331 16.4 9.99997 16.4 10.6666C16.4 11.3333 16.1667 11.9 15.7 12.3666C15.2333 12.8333 14.6667 13.0666 14 13.0666ZM7.99999 28C7.62222 28 7.30533 27.8724 7.04933 27.6173C6.79333 27.3622 6.66577 27.0453 6.66666 26.6666C6.66666 26.2889 6.79466 25.9724 7.05066 25.7173C7.30666 25.4622 7.62311 25.3342 7.99999 25.3333H13.3333V22.6666C11.4889 22.6666 9.91644 22.0169 8.61599 20.7173C7.31555 19.4178 6.66577 17.8453 6.66666 16C6.66666 14.6444 7.01688 13.4444 7.71733 12.4C8.41777 11.3555 9.27866 10.5889 10.3 10.1C10.1889 10.6333 10.2111 11.1386 10.3667 11.616C10.5222 12.0933 10.7222 12.488 10.9667 12.8C10.4333 13.1778 10.0275 13.6555 9.74933 14.2333C9.47111 14.8111 9.33244 15.4 9.33333 16C9.33333 17.1111 9.72222 18.0555 10.5 18.8333C11.2778 19.6111 12.2222 20 13.3333 20H22.6667C23.0444 20 23.3613 20.128 23.6173 20.384C23.8733 20.64 24.0009 20.9564 24 21.3333C24 21.7111 23.872 22.028 23.616 22.284C23.36 22.54 23.0436 22.6675 22.6667 22.6666H17.3333V25.3333H24C24.3778 25.3333 24.6947 25.4613 24.9507 25.7173C25.2067 25.9733 25.3342 26.2898 25.3333 26.6666C25.3333 27.0444 25.2053 27.3613 24.9493 27.6173C24.6933 27.8733 24.3769 28.0009 24 28H7.99999ZM19.9333 15.6666C19.6222 15.7778 19.3 15.7778 18.9667 15.6666C18.6333 15.5555 18.4111 15.3222 18.3 14.9666L18.2667 14.8666C17.9111 14.9778 17.5613 14.9613 17.2173 14.8173C16.8733 14.6733 16.6453 14.4231 16.5333 14.0666L16.3667 13.5666C16.6778 13.3222 16.9836 12.9502 17.284 12.4506C17.5844 11.9511 17.7342 11.3564 17.7333 10.6666C17.7333 9.59997 17.3609 8.71108 16.616 7.99997C15.8711 7.28886 14.9769 6.93331 13.9333 6.93331L13.7667 6.49997C13.6111 6.09997 13.6111 5.74975 13.7667 5.44931C13.9222 5.14886 14.1667 4.94353 14.5 4.83331L14.6 4.79997V4.76664C14.4222 4.36664 14.4169 4.02753 14.584 3.74931C14.7511 3.47108 15.0009 3.27686 15.3333 3.16664C15.6667 3.05553 15.9889 3.04975 16.3 3.14931C16.6111 3.24886 16.8555 3.48797 17.0333 3.86664L17.0667 3.93331C17.4222 3.8222 17.7724 3.83908 18.1173 3.98397C18.4622 4.12886 18.6898 4.37864 18.8 4.73331L21.5333 12.2333C21.6889 12.6333 21.6836 12.9889 21.5173 13.3C21.3511 13.6111 21.1009 13.8222 20.7667 13.9333H20.7333L20.7667 14.0333C20.8778 14.3444 20.8613 14.6613 20.7173 14.984C20.5733 15.3066 20.312 15.5342 19.9333 15.6666Z" fill="#29C5F6"/>
</svg>
