<svg width="12" height="12" viewBox="0 0 12 12" fill="none" xmlns="http://www.w3.org/2000/svg">
<path fill-rule="evenodd" clip-rule="evenodd" d="M3.787 2.168C3.92397 1.96253 4.10954 1.79406 4.32725 1.67753C4.54496 1.561 4.78807 1.50002 5.035 1.5H6.965C7.21193 1.50002 7.45504 1.561 7.67275 1.67753C7.89046 1.79406 8.07603 1.96253 8.213 2.168L8.619 2.7775C8.66467 2.84596 8.72654 2.90208 8.79911 2.9409C8.87168 2.97971 8.9527 3.00001 9.035 3H9.5C9.89782 3 10.2794 3.15804 10.5607 3.43934C10.842 3.72064 11 4.10218 11 4.5V9C11 9.39782 10.842 9.77936 10.5607 10.0607C10.2794 10.342 9.89782 10.5 9.5 10.5H2.5C2.10218 10.5 1.72064 10.342 1.43934 10.0607C1.15804 9.77936 1 9.39782 1 9V4.5C1 4.10218 1.15804 3.72064 1.43934 3.43934C1.72064 3.15804 2.10218 3 2.5 3H2.965C3.0473 3.00001 3.12832 2.97971 3.20089 2.9409C3.27346 2.90208 3.33533 2.84596 3.381 2.7775L3.787 2.168ZM5 6.5C5 6.23478 5.10536 5.98043 5.29289 5.79289C5.48043 5.60536 5.73478 5.5 6 5.5C6.26522 5.5 6.51957 5.60536 6.70711 5.79289C6.89464 5.98043 7 6.23478 7 6.5C7 6.76522 6.89464 7.01957 6.70711 7.20711C6.51957 7.39464 6.26522 7.5 6 7.5C5.73478 7.5 5.48043 7.39464 5.29289 7.20711C5.10536 7.01957 5 6.76522 5 6.5ZM6 4.5C5.46957 4.5 4.96086 4.71071 4.58579 5.08579C4.21071 5.46086 4 5.96957 4 6.5C4 7.03043 4.21071 7.53914 4.58579 7.91421C4.96086 8.28929 5.46957 8.5 6 8.5C6.53043 8.5 7.03914 8.28929 7.41421 7.91421C7.78929 7.53914 8 7.03043 8 6.5C8 5.96957 7.78929 5.46086 7.41421 5.08579C7.03914 4.71071 6.53043 4.5 6 4.5Z" fill="white"/>
</svg>
