<svg width="12" height="12" viewBox="0 0 12 12" fill="none" xmlns="http://www.w3.org/2000/svg">
<path d="M1.5 11C1.225 11 0.989501 10.902 0.793501 10.706C0.597501 10.51 0.499668 10.2747 0.500001 10V5C0.500001 4.85833 0.548001 4.7395 0.644001 4.6435C0.740001 4.5475 0.858668 4.49967 1 4.5C1.14167 4.5 1.2605 4.548 1.3565 4.644C1.4525 4.74 1.50033 4.85867 1.5 5V10H9.5C9.64167 10 9.7605 10.048 9.8565 10.144C9.9525 10.24 10.0003 10.3587 10 10.5C10 10.6417 9.952 10.7605 9.856 10.8565C9.76 10.9525 9.64133 11.0003 9.5 11H1.5ZM3.5 9C3.225 9 2.9895 8.902 2.7935 8.706C2.5975 8.51 2.49967 8.27467 2.5 8V3.5C2.5 3.225 2.598 2.9895 2.794 2.7935C2.99 2.5975 3.22533 2.49967 3.5 2.5H5V1.5C5 1.225 5.098 0.989501 5.294 0.793501C5.49 0.597501 5.72533 0.499668 6 0.500001H8C8.275 0.500001 8.5105 0.598001 8.7065 0.794001C8.9025 0.990001 9.00033 1.22533 9 1.5V2.5H10.5C10.775 2.5 11.0105 2.598 11.2065 2.794C11.4025 2.99 11.5003 3.22533 11.5 3.5V8C11.5 8.275 11.402 8.5105 11.206 8.7065C11.01 8.9025 10.7747 9.00033 10.5 9H3.5ZM6 2.5H8V1.5H6V2.5Z" fill="#29C5F6"/>
</svg>
