<svg width="27" height="27" viewBox="0 0 27 27" fill="none" xmlns="http://www.w3.org/2000/svg">
<path d="M11.8125 15.075L17.325 9.56255C17.5313 9.3563 17.7938 9.25317 18.1125 9.25317C18.4313 9.25317 18.6938 9.3563 18.9 9.56255C19.1063 9.7688 19.2094 10.0313 19.2094 10.35C19.2094 10.6688 19.1063 10.9313 18.9 11.1375L12.6 17.4375C12.375 17.6625 12.1125 17.775 11.8125 17.775C11.5125 17.775 11.25 17.6625 11.025 17.4375L8.10002 14.5125C7.89377 14.3063 7.79065 14.0438 7.79065 13.725C7.79065 13.4063 7.89377 13.1438 8.10002 12.9375C8.30627 12.7313 8.56877 12.6282 8.88752 12.6282C9.20627 12.6282 9.46877 12.7313 9.67502 12.9375L11.8125 15.075Z" fill="#222431"/>
</svg>
