<svg width="32" height="32" viewBox="0 0 32 32" fill="none" xmlns="http://www.w3.org/2000/svg">
<path d="M22.6667 21.3333C21.5556 21.3333 20.6111 20.9444 19.8333 20.1667C19.0556 19.3889 18.6667 18.4444 18.6667 17.3333C18.6667 16.2222 19.0556 15.2778 19.8333 14.5C20.6111 13.7222 21.5556 13.3333 22.6667 13.3333C23.7778 13.3333 24.7222 13.7222 25.5 14.5C26.2778 15.2778 26.6667 16.2222 26.6667 17.3333C26.6667 18.4444 26.2778 19.3889 25.5 20.1667C24.7222 20.9444 23.7778 21.3333 22.6667 21.3333ZM12 26.8V28H6.66667C5.93334 28 5.30534 27.7391 4.78267 27.2173C4.26 26.6956 3.99911 26.0676 4 25.3333V6.66667C4 5.93334 4.26134 5.30534 4.784 4.78267C5.30667 4.26 5.93422 3.99911 6.66667 4H25.3333C26.0667 4 26.6947 4.26134 27.2173 4.784C27.74 5.30667 28.0009 5.93422 28 6.66667V13.3333C27.3111 12.4667 26.5333 11.8053 25.6667 11.3493C24.8 10.8933 23.8 10.6658 22.6667 10.6667C22.6667 10.2889 22.5387 9.972 22.2827 9.716C22.0267 9.46 21.7102 9.33245 21.3333 9.33334H10.6667C10.2889 9.33334 9.972 9.46134 9.716 9.71734C9.46 9.97334 9.33245 10.2898 9.33334 10.6667C9.33334 11.0444 9.46134 11.3613 9.71734 11.6173C9.97334 11.8733 10.2898 12.0009 10.6667 12H18.6667C18.2222 12.3556 17.8222 12.7556 17.4667 13.2C17.1111 13.6444 16.8111 14.1333 16.5667 14.6667H10.6667C10.2889 14.6667 9.972 14.7947 9.716 15.0507C9.46 15.3067 9.33245 15.6231 9.33334 16C9.33334 16.3778 9.46134 16.6947 9.71734 16.9507C9.97334 17.2067 10.2898 17.3342 10.6667 17.3333H16C16 17.8 16.0502 18.2556 16.1507 18.7C16.2511 19.1444 16.3898 19.5778 16.5667 20H10.6667C10.2889 20 9.972 20.128 9.716 20.384C9.46 20.64 9.33245 20.9564 9.33334 21.3333C9.33334 21.7111 9.46134 22.028 9.71734 22.284C9.97334 22.54 10.2898 22.6676 10.6667 22.6667H13.9333C13.3333 23.1778 12.8609 23.7947 12.516 24.5173C12.1711 25.24 11.9991 26.0009 12 26.8ZM16 30.6667C15.6222 30.6667 15.3053 30.5387 15.0493 30.2827C14.7933 30.0267 14.6658 29.7102 14.6667 29.3333V26.8C14.6667 26.3333 14.7778 25.8947 15 25.484C15.2222 25.0733 15.5333 24.7453 15.9333 24.5C16.6444 24.0778 17.2444 23.7836 17.7333 23.6173C18.2222 23.4511 18.8778 23.3009 19.7 23.1667C19.9667 23.1222 20.2333 23.128 20.5 23.184C20.7667 23.24 20.9889 23.3676 21.1667 23.5667L22.6667 25.3333L24.1333 23.5667C24.3111 23.3444 24.5333 23.2111 24.8 23.1667C25.0667 23.1222 25.3333 23.1222 25.6 23.1667C26.4222 23.3 27.0778 23.4502 27.5667 23.6173C28.0556 23.7844 28.6556 24.0787 29.3667 24.5C29.7667 24.7444 30.0836 25.0724 30.3173 25.484C30.5511 25.8956 30.6676 26.3342 30.6667 26.8V29.3333C30.6667 29.7111 30.5387 30.028 30.2827 30.284C30.0267 30.54 29.7102 30.6676 29.3333 30.6667H16Z" fill="#29C5F6"/>
</svg>
