<svg width="37" height="37" viewBox="0 0 37 37" fill="none" xmlns="http://www.w3.org/2000/svg">
<path d="M10.7917 24.6666C11.2285 24.6666 11.5949 24.5186 11.8909 24.2226C12.1869 23.9266 12.3344 23.5607 12.3333 23.125C12.3333 22.6882 12.1853 22.3218 11.8893 22.0258C11.5933 21.7298 11.2274 21.5823 10.7917 21.5833C10.3549 21.5833 9.98846 21.7313 9.69246 22.0273C9.39646 22.3233 9.24897 22.6892 9.25 23.125C9.25 23.5618 9.398 23.9282 9.694 24.2242C9.99 24.5202 10.3559 24.6677 10.7917 24.6666ZM10.7917 20.0416C11.2285 20.0416 11.5949 19.8936 11.8909 19.5976C12.1869 19.3016 12.3344 18.9357 12.3333 18.5V13.875C12.3333 13.4382 12.1853 13.0718 11.8893 12.7758C11.5933 12.4798 11.2274 12.3323 10.7917 12.3333C10.3549 12.3333 9.98846 12.4813 9.69246 12.7773C9.39646 13.0733 9.24897 13.4392 9.25 13.875V18.5C9.25 18.9368 9.398 19.3032 9.694 19.5992C9.99 19.8952 10.3559 20.0427 10.7917 20.0416ZM16.9583 23.125H26.2083C26.6451 23.125 27.0115 22.977 27.3075 22.681C27.6035 22.385 27.751 22.0191 27.75 21.5833C27.75 21.1465 27.602 20.7801 27.306 20.4841C27.01 20.1881 26.6441 20.0406 26.2083 20.0416H16.9583C16.5215 20.0416 16.1551 20.1896 15.8591 20.4856C15.5631 20.7816 15.4156 21.1475 15.4167 21.5833C15.4167 22.0201 15.5647 22.3865 15.8607 22.6825C16.1567 22.9785 16.5226 23.126 16.9583 23.125ZM16.9583 16.9583H26.2083C26.6451 16.9583 27.0115 16.8103 27.3075 16.5143C27.6035 16.2183 27.751 15.8524 27.75 15.4166C27.75 14.9798 27.602 14.6134 27.306 14.3174C27.01 14.0214 26.6441 13.8739 26.2083 13.875H16.9583C16.5215 13.875 16.1551 14.023 15.8591 14.319C15.5631 14.615 15.4156 14.9809 15.4167 15.4166C15.4167 15.8534 15.5647 16.2198 15.8607 16.5158C16.1567 16.8118 16.5226 16.9593 16.9583 16.9583ZM6.16666 30.8333C5.31875 30.8333 4.59262 30.5311 3.98829 29.9268C3.38396 29.3225 3.0823 28.5969 3.08333 27.75V9.24996C3.08333 8.40205 3.3855 7.67592 3.98983 7.07159C4.59416 6.46725 5.31978 6.1656 6.16666 6.16663H30.8333C31.6812 6.16663 32.4074 6.46879 33.0117 7.07313C33.616 7.67746 33.9177 8.40307 33.9167 9.24996V27.75C33.9167 28.5979 33.6145 29.324 33.0102 29.9283C32.4058 30.5327 31.6802 30.8343 30.8333 30.8333H6.16666Z" fill="#7209B7"/>
</svg>
