<svg width="115" height="115" viewBox="0 0 115 115" fill="none" xmlns="http://www.w3.org/2000/svg">
<path d="M33.541 100.625C30.9056 100.625 28.6487 99.6859 26.7704 97.8075C24.8921 95.9292 23.9545 93.6739 23.9577 91.0417V28.75C22.6001 28.75 21.4612 28.29 20.5412 27.37C19.6212 26.45 19.1628 25.3128 19.166 23.9584C19.166 22.6007 19.626 21.4619 20.546 20.5419C21.466 19.6219 22.6033 19.1635 23.9577 19.1667H43.1244C43.1244 17.809 43.5844 16.6702 44.5044 15.7502C45.4244 14.8302 46.5616 14.3718 47.916 14.375H67.0827C68.4403 14.375 69.5792 14.835 70.4992 15.755C71.4192 16.675 71.8776 17.8122 71.8744 19.1667H91.041C92.3987 19.1667 93.5375 19.6267 94.4575 20.5467C95.3775 21.4667 95.8359 22.6039 95.8327 23.9584C95.8327 25.316 95.3727 26.4548 94.4527 27.3748C93.5327 28.2948 92.3955 28.7532 91.041 28.75V91.0417C91.041 93.6771 90.1019 95.934 88.2235 97.8123C86.3452 99.6906 84.0899 100.628 81.4577 100.625H33.541ZM43.1244 81.4584H52.7077V38.3334H43.1244V81.4584ZM62.291 81.4584H71.8744V38.3334H62.291V81.4584Z" fill="black"/>
</svg>
