<svg width="15" height="16" viewBox="0 0 15 16" fill="none" xmlns="http://www.w3.org/2000/svg">
<path d="M1.09375 1.125H8.90625C9.51 1.125 10 1.615 10 2.21875V8.15625C10 8.44633 9.88477 8.72453 9.67965 8.92965C9.47453 9.13477 9.19633 9.25 8.90625 9.25H5.03813L3.42937 10.8581C3.30191 10.9851 3.1397 11.0715 2.9632 11.1065C2.7867 11.1414 2.6038 11.1233 2.43757 11.0545C2.27134 10.9856 2.12921 10.8691 2.02909 10.7196C1.92898 10.5701 1.87536 10.3943 1.875 10.2144V9.25H1.09375C0.803669 9.25 0.52547 9.13477 0.320352 8.92965C0.115234 8.72453 0 8.44633 0 8.15625L0 2.21875C0 1.615 0.49 1.125 1.09375 1.125ZM0.9375 2.21875V8.15625C0.9375 8.2425 1.0075 8.3125 1.09375 8.3125H2.34375C2.46807 8.3125 2.5873 8.36189 2.67521 8.44979C2.76311 8.5377 2.8125 8.65693 2.8125 8.78125V10.15L4.5125 8.45C4.55597 8.40643 4.60759 8.37186 4.66443 8.34827C4.72127 8.32468 4.78221 8.31252 4.84375 8.3125H8.90625C8.94769 8.3125 8.98743 8.29604 9.01674 8.26674C9.04604 8.23743 9.0625 8.19769 9.0625 8.15625V2.21875C9.0625 2.17731 9.04604 2.13757 9.01674 2.10826C8.98743 2.07896 8.94769 2.0625 8.90625 2.0625H1.09375C1.05231 2.0625 1.01257 2.07896 0.983265 2.10826C0.953962 2.13757 0.9375 2.17731 0.9375 2.21875Z" fill="#219ABF"/>
<path d="M14.0625 5.96875C14.0625 5.92731 14.046 5.88757 14.0167 5.85826C13.9874 5.82896 13.9477 5.8125 13.9062 5.8125H11.7188C11.5944 5.8125 11.4752 5.76311 11.3873 5.67521C11.2994 5.5873 11.25 5.46807 11.25 5.34375C11.25 5.21943 11.2994 5.1002 11.3873 5.01229C11.4752 4.92439 11.5944 4.875 11.7188 4.875H13.9062C14.51 4.875 15 5.365 15 5.96875V11.9062C15 12.1963 14.8848 12.4745 14.6796 12.6796C14.4745 12.8848 14.1963 13 13.9062 13H13.125V13.9644C13.1249 14.1444 13.0715 14.3204 12.9714 14.4701C12.8714 14.6198 12.7292 14.7365 12.5628 14.8054C12.3965 14.8743 12.2134 14.8923 12.0368 14.8572C11.8602 14.8221 11.698 14.7354 11.5706 14.6081L9.96187 13H6.71875C6.42867 13 6.15047 12.8848 5.94535 12.6796C5.74023 12.4745 5.625 12.1963 5.625 11.9062V10.9906C5.625 10.8663 5.67439 10.7471 5.76229 10.6592C5.8502 10.5713 5.96943 10.5219 6.09375 10.5219C6.21807 10.5219 6.3373 10.5713 6.42521 10.6592C6.51311 10.7471 6.5625 10.8663 6.5625 10.9906V11.9062C6.5625 11.9925 6.6325 12.0625 6.71875 12.0625H10.1562C10.2805 12.0626 10.3997 12.1121 10.4875 12.2L12.1875 13.9V12.5312C12.1875 12.4069 12.2369 12.2877 12.3248 12.1998C12.4127 12.1119 12.5319 12.0625 12.6562 12.0625H13.9062C13.9477 12.0625 13.9874 12.046 14.0167 12.0167C14.046 11.9874 14.0625 11.9477 14.0625 11.9062V5.96875Z" fill="#219ABF"/>
</svg>
