<svg width="32" height="32" viewBox="0 0 32 32" fill="none" xmlns="http://www.w3.org/2000/svg">
<path d="M2.66667 26.6667C2.28889 26.6667 1.972 26.5387 1.716 26.2827C1.46 26.0267 1.33244 25.7103 1.33333 25.3334V21.3334C1.33333 20.6 1.59467 19.972 2.11733 19.4494C2.64 18.9267 3.26756 18.6658 4 18.6667H8.36667C8.81111 18.6667 9.23333 18.7778 9.63333 19C10.0333 19.2223 10.3556 19.5223 10.6 19.9C11.2444 20.7667 12.0391 21.4445 12.984 21.9334C13.9289 22.4223 14.9342 22.6667 16 22.6667C17.0889 22.6667 18.1058 22.4223 19.0507 21.9334C19.9956 21.4445 20.7787 20.7667 21.4 19.9C21.6889 19.5223 22.028 19.2223 22.4173 19C22.8067 18.7778 23.212 18.6667 23.6333 18.6667H28C28.7333 18.6667 29.3613 18.9276 29.884 19.4494C30.4067 19.9712 30.6676 20.5992 30.6667 21.3334V25.3334C30.6667 25.7112 30.5387 26.028 30.2827 26.284C30.0267 26.54 29.7102 26.6676 29.3333 26.6667H22.6667C22.2889 26.6667 21.972 26.5387 21.716 26.2827C21.46 26.0267 21.3324 25.7103 21.3333 25.3334V23.6334C20.5556 24.1889 19.7164 24.6111 18.816 24.9C17.9156 25.1889 16.9769 25.3334 16 25.3334C15.0444 25.3334 14.1111 25.1832 13.2 24.8827C12.2889 24.5823 11.4444 24.1547 10.6667 23.6V25.3334C10.6667 25.7112 10.5387 26.028 10.2827 26.284C10.0267 26.54 9.71022 26.6676 9.33333 26.6667H2.66667ZM16 21.3334C15.1556 21.3334 14.3556 21.1387 13.6 20.7494C12.8444 20.36 12.2111 19.8214 11.7 19.1334C11.3222 18.5778 10.8498 18.1392 10.2827 17.8174C9.71555 17.4956 9.09911 17.3343 8.43333 17.3334C8.92222 16.5112 9.95555 15.8609 11.5333 15.3827C13.1111 14.9045 14.6 14.6658 16 14.6667C17.4 14.6667 18.8889 14.9054 20.4667 15.3827C22.0444 15.86 23.0778 16.5103 23.5667 17.3334C22.9222 17.3334 22.3111 17.4947 21.7333 17.8174C21.1556 18.14 20.6778 18.5787 20.3 19.1334C19.8111 19.8445 19.1889 20.3889 18.4333 20.7667C17.6778 21.1445 16.8667 21.3334 16 21.3334ZM5.33333 17.3334C4.22222 17.3334 3.27778 16.9445 2.5 16.1667C1.72222 15.3889 1.33333 14.4445 1.33333 13.3334C1.33333 12.2223 1.72222 11.2778 2.5 10.5C3.27778 9.72226 4.22222 9.33337 5.33333 9.33337C6.44444 9.33337 7.38889 9.72226 8.16667 10.5C8.94444 11.2778 9.33333 12.2223 9.33333 13.3334C9.33333 14.4445 8.94444 15.3889 8.16667 16.1667C7.38889 16.9445 6.44444 17.3334 5.33333 17.3334ZM26.6667 17.3334C25.5556 17.3334 24.6111 16.9445 23.8333 16.1667C23.0556 15.3889 22.6667 14.4445 22.6667 13.3334C22.6667 12.2223 23.0556 11.2778 23.8333 10.5C24.6111 9.72226 25.5556 9.33337 26.6667 9.33337C27.7778 9.33337 28.7222 9.72226 29.5 10.5C30.2778 11.2778 30.6667 12.2223 30.6667 13.3334C30.6667 14.4445 30.2778 15.3889 29.5 16.1667C28.7222 16.9445 27.7778 17.3334 26.6667 17.3334ZM16 13.3334C14.8889 13.3334 13.9444 12.9445 13.1667 12.1667C12.3889 11.3889 12 10.4445 12 9.33337C12 8.22226 12.3889 7.27782 13.1667 6.50004C13.9444 5.72226 14.8889 5.33337 16 5.33337C17.1111 5.33337 18.0556 5.72226 18.8333 6.50004C19.6111 7.27782 20 8.22226 20 9.33337C20 10.4445 19.6111 11.3889 18.8333 12.1667C18.0556 12.9445 17.1111 13.3334 16 13.3334Z" fill="#7209B7"/>
</svg>
