<svg width="18" height="18" viewBox="0 0 18 18" fill="none" xmlns="http://www.w3.org/2000/svg">
<path d="M10.5 4.49989L12.2197 2.78014C12.3604 2.63953 12.5511 2.56055 12.75 2.56055C12.9489 2.56055 13.1396 2.63953 13.2803 2.78014L15.2197 4.71964C15.3604 4.86028 15.4393 5.05101 15.4393 5.24989C15.4393 5.44876 15.3604 5.63949 15.2197 5.78014L13.5 7.49989M10.5 4.49989L3.21975 11.7801C3.07909 11.9208 3.00004 12.1115 3 12.3104V14.2499C3 14.4488 3.07902 14.6396 3.21967 14.7802C3.36032 14.9209 3.55109 14.9999 3.75 14.9999H5.6895C5.8884 14.9998 6.07913 14.9208 6.21975 14.7801L13.5 7.49989M10.5 4.49989L13.5 7.49989" stroke="#222431" stroke-width="1.2" stroke-linecap="round" stroke-linejoin="round"/>
</svg>
