<svg width="32" height="32" viewBox="0 0 32 32" fill="none" xmlns="http://www.w3.org/2000/svg">
<path d="M16 29.3333C15.4222 29.3333 14.9 29.1946 14.4333 28.9173C13.9667 28.64 13.6 28.2675 13.3333 27.8C12.6 27.8 11.972 27.5386 11.4493 27.016C10.9267 26.4933 10.6658 25.8657 10.6667 25.1333V20.4C9.35557 19.5333 8.30535 18.3888 7.51601 16.9666C6.72668 15.5444 6.33246 14 6.33335 12.3333C6.33335 9.6444 7.27246 7.36085 9.15068 5.48263C11.0289 3.6044 13.312 2.66574 16 2.66663C18.6889 2.66663 20.9725 3.60574 22.8507 5.48396C24.7289 7.36218 25.6676 9.64529 25.6667 12.3333C25.6667 14.0444 25.272 15.6 24.4827 17C23.6933 18.4 22.6436 19.5333 21.3333 20.4V25.1333C21.3333 25.8666 21.072 26.4946 20.5493 27.0173C20.0267 27.54 19.3991 27.8008 18.6667 27.8C18.4 28.2666 18.0333 28.6391 17.5667 28.9173C17.1 29.1955 16.5778 29.3342 16 29.3333ZM13.3333 25.1333H18.6667V23.9333H13.3333V25.1333ZM13.3333 22.6H18.6667V21.3333H13.3333V22.6ZM15 18.6666H17V15.0666L19.2333 12.8333C19.4333 12.6333 19.5333 12.4 19.5333 12.1333C19.5333 11.8666 19.4333 11.6333 19.2333 11.4333C19.0333 11.2333 18.8 11.1333 18.5333 11.1333C18.2667 11.1333 18.0445 11.2222 17.8667 11.4L16 13.2666L14.1667 11.4333C13.9667 11.2333 13.7333 11.1333 13.4667 11.1333C13.2 11.1333 12.9667 11.2333 12.7667 11.4333C12.5667 11.6333 12.4667 11.8666 12.4667 12.1333C12.4667 12.4 12.5556 12.6222 12.7333 12.8L15 15.0666V18.6666Z" fill="#29C5F6"/>
</svg>
