<svg width="18" height="18" viewBox="0 0 18 18" fill="none" xmlns="http://www.w3.org/2000/svg">
<path d="M11.625 8.25C11.95 8.25 12.2188 8.14375 12.4313 7.93125C12.6438 7.71875 12.75 7.45 12.75 7.125C12.75 6.8 12.6438 6.53125 12.4313 6.31875C12.2188 6.10625 11.95 6 11.625 6C11.3 6 11.0312 6.10625 10.8188 6.31875C10.6062 6.53125 10.5 6.8 10.5 7.125C10.5 7.45 10.6062 7.71875 10.8188 7.93125C11.0312 8.14375 11.3 8.25 11.625 8.25ZM6.375 8.25C6.7 8.25 6.96875 8.14375 7.18125 7.93125C7.39375 7.71875 7.5 7.45 7.5 7.125C7.5 6.8 7.39375 6.53125 7.18125 6.31875C6.96875 6.10625 6.7 6 6.375 6C6.05 6 5.78125 6.10625 5.56875 6.31875C5.35625 6.53125 5.25 6.8 5.25 7.125C5.25 7.45 5.35625 7.71875 5.56875 7.93125C5.78125 8.14375 6.05 8.25 6.375 8.25ZM9 16.5C7.9625 16.5 6.9875 16.303 6.075 15.909C5.1625 15.515 4.36875 14.9808 3.69375 14.3063C3.01875 13.6313 2.4845 12.8375 2.091 11.925C1.6975 11.0125 1.5005 10.0375 1.5 9C1.5 7.9625 1.697 6.9875 2.091 6.075C2.485 5.1625 3.01925 4.36875 3.69375 3.69375C4.36875 3.01875 5.1625 2.4845 6.075 2.091C6.9875 1.6975 7.9625 1.5005 9 1.5C10.0375 1.5 11.0125 1.697 11.925 2.091C12.8375 2.485 13.6313 3.01925 14.3063 3.69375C14.9813 4.36875 15.5157 5.1625 15.9097 6.075C16.3037 6.9875 16.5005 7.9625 16.5 9C16.5 10.0375 16.303 11.0125 15.909 11.925C15.515 12.8375 14.9808 13.6313 14.3063 14.3063C13.6313 14.9813 12.8375 15.5157 11.925 15.9097C11.0125 16.3037 10.0375 16.5005 9 16.5ZM6.09375 12.75C6.18125 12.75 6.272 12.725 6.366 12.675C6.46 12.625 6.53175 12.5625 6.58125 12.4875C6.85625 12.1125 7.2 11.8125 7.6125 11.5875C8.025 11.3625 8.4875 11.25 9 11.25C9.5125 11.25 9.975 11.3625 10.3875 11.5875C10.8 11.8125 11.1438 12.1125 11.4188 12.4875C11.4688 12.5625 11.5375 12.625 11.625 12.675C11.7125 12.725 11.8 12.75 11.8875 12.75C12.1125 12.75 12.2783 12.65 12.3848 12.45C12.4913 12.25 12.4692 12.0375 12.3187 11.8125C11.9937 11.325 11.5375 10.922 10.95 10.6035C10.3625 10.285 9.7125 10.1255 9 10.125C8.2875 10.125 7.6375 10.2845 7.05 10.6035C6.4625 10.9225 6 11.338 5.6625 11.85C5.525 12.0625 5.5095 12.2658 5.616 12.4598C5.7225 12.6538 5.88175 12.7505 6.09375 12.75Z" fill="#F72585"/>
</svg>
