<svg width="40" height="40" viewBox="0 0 40 40" fill="none" xmlns="http://www.w3.org/2000/svg">
<path d="M25.8335 18.3333C26.5557 18.3333 27.1529 18.0971 27.6252 17.6249C28.0974 17.1527 28.3335 16.5555 28.3335 15.8333C28.3335 15.111 28.0974 14.5138 27.6252 14.0416C27.1529 13.5694 26.5557 13.3333 25.8335 13.3333C25.1113 13.3333 24.5141 13.5694 24.0418 14.0416C23.5696 14.5138 23.3335 15.111 23.3335 15.8333C23.3335 16.5555 23.5696 17.1527 24.0418 17.6249C24.5141 18.0971 25.1113 18.3333 25.8335 18.3333ZM14.1668 18.3333C14.8891 18.3333 15.4863 18.0971 15.9585 17.6249C16.4307 17.1527 16.6668 16.5555 16.6668 15.8333C16.6668 15.111 16.4307 14.5138 15.9585 14.0416C15.4863 13.5694 14.8891 13.3333 14.1668 13.3333C13.4446 13.3333 12.8474 13.5694 12.3752 14.0416C11.9029 14.5138 11.6668 15.111 11.6668 15.8333C11.6668 16.5555 11.9029 17.1527 12.3752 17.6249C12.8474 18.0971 13.4446 18.3333 14.1668 18.3333ZM20.0002 29.1666C21.5835 29.1666 23.0279 28.8121 24.3335 28.1033C25.6391 27.3944 26.6529 26.4988 27.3752 25.4166C27.7085 24.9166 27.7574 24.4444 27.5218 23.9999C27.2863 23.5555 26.9179 23.3333 26.4168 23.3333C26.2224 23.3333 26.0279 23.3888 25.8335 23.4999C25.6391 23.611 25.4863 23.7499 25.3752 23.9166C24.7641 24.7499 24.0002 25.4166 23.0835 25.9166C22.1668 26.4166 21.1391 26.6666 20.0002 26.6666C18.8613 26.6666 17.8335 26.4166 16.9168 25.9166C16.0002 25.4166 15.2363 24.7499 14.6252 23.9166C14.5141 23.7499 14.3546 23.611 14.1468 23.4999C13.9391 23.3888 13.7374 23.3333 13.5418 23.3333C13.0696 23.3333 12.7157 23.5488 12.4802 23.9799C12.2446 24.411 12.2791 24.8621 12.5835 25.3333C13.3335 26.4721 14.3613 27.396 15.6668 28.1049C16.9724 28.8138 18.4168 29.1677 20.0002 29.1666ZM20.0002 36.6666C17.6946 36.6666 15.5279 36.2288 13.5002 35.3533C11.4724 34.4777 9.7085 33.2905 8.2085 31.7916C6.7085 30.2916 5.52127 28.5277 4.64683 26.4999C3.77239 24.4721 3.33461 22.3055 3.3335 19.9999C3.3335 17.6944 3.77127 15.5277 4.64683 13.4999C5.52239 11.4721 6.70961 9.70825 8.2085 8.20825C9.7085 6.70825 11.4724 5.52103 13.5002 4.64659C15.5279 3.77214 17.6946 3.33436 20.0002 3.33325C22.3057 3.33325 24.4724 3.77103 26.5002 4.64659C28.5279 5.52214 30.2918 6.70936 31.7918 8.20825C33.2918 9.70825 34.4796 11.4721 35.3552 13.4999C36.2307 15.5277 36.6679 17.6944 36.6668 19.9999C36.6668 22.3055 36.229 24.4721 35.3535 26.4999C34.4779 28.5277 33.2907 30.2916 31.7918 31.7916C30.2918 33.2916 28.5279 34.4794 26.5002 35.3549C24.4724 36.2305 22.3057 36.6677 20.0002 36.6666Z" fill="#29C5F6"/>
</svg>
