<svg width="34" height="34" viewBox="0 0 34 34" fill="none" xmlns="http://www.w3.org/2000/svg">
<path d="M22.8335 15.3333C23.5557 15.3333 24.1529 15.0971 24.6252 14.6249C25.0974 14.1527 25.3335 13.5555 25.3335 12.8333C25.3335 12.111 25.0974 11.5138 24.6252 11.0416C24.1529 10.5694 23.5557 10.3333 22.8335 10.3333C22.1113 10.3333 21.5141 10.5694 21.0418 11.0416C20.5696 11.5138 20.3335 12.111 20.3335 12.8333C20.3335 13.5555 20.5696 14.1527 21.0418 14.6249C21.5141 15.0971 22.1113 15.3333 22.8335 15.3333ZM11.1668 15.3333C11.8891 15.3333 12.4863 15.0971 12.9585 14.6249C13.4307 14.1527 13.6668 13.5555 13.6668 12.8333C13.6668 12.111 13.4307 11.5138 12.9585 11.0416C12.4863 10.5694 11.8891 10.3333 11.1668 10.3333C10.4446 10.3333 9.84739 10.5694 9.37516 11.0416C8.90294 11.5138 8.66683 12.111 8.66683 12.8333C8.66683 13.5555 8.90294 14.1527 9.37516 14.6249C9.84739 15.0971 10.4446 15.3333 11.1668 15.3333ZM17.0002 33.6666C14.6946 33.6666 12.5279 33.2288 10.5002 32.3533C8.47239 31.4777 6.7085 30.2905 5.2085 28.7916C3.7085 27.2916 2.52127 25.5277 1.64683 23.4999C0.772385 21.4721 0.334607 19.3055 0.333496 16.9999C0.333496 14.6944 0.771274 12.5277 1.64683 10.4999C2.52239 8.47214 3.70961 6.70825 5.2085 5.20825C6.7085 3.70825 8.47239 2.52103 10.5002 1.64659C12.5279 0.772141 14.6946 0.334363 17.0002 0.333252C19.3057 0.333252 21.4724 0.77103 23.5002 1.64659C25.5279 2.52214 27.2918 3.70936 28.7918 5.20825C30.2918 6.70825 31.4796 8.47214 32.3552 10.4999C33.2307 12.5277 33.6679 14.6944 33.6668 16.9999C33.6668 19.3055 33.229 21.4721 32.3535 23.4999C31.4779 25.5277 30.2907 27.2916 28.7918 28.7916C27.2918 30.2916 25.5279 31.4794 23.5002 32.3549C21.4724 33.2305 19.3057 33.6677 17.0002 33.6666ZM10.5418 25.3333C10.7363 25.3333 10.9379 25.2777 11.1468 25.1666C11.3557 25.0555 11.5152 24.9166 11.6252 24.7499C12.2363 23.9166 13.0002 23.2499 13.9168 22.7499C14.8335 22.2499 15.8613 21.9999 17.0002 21.9999C18.1391 21.9999 19.1668 22.2499 20.0835 22.7499C21.0002 23.2499 21.7641 23.9166 22.3752 24.7499C22.4863 24.9166 22.6391 25.0555 22.8335 25.1666C23.0279 25.2777 23.2224 25.3333 23.4168 25.3333C23.9168 25.3333 24.2852 25.111 24.5218 24.6666C24.7585 24.2221 24.7096 23.7499 24.3752 23.2499C23.6529 22.1666 22.6391 21.271 21.3335 20.5633C20.0279 19.8555 18.5835 19.501 17.0002 19.4999C15.4168 19.4999 13.9724 19.8544 12.6668 20.5633C11.3613 21.2721 10.3335 22.1955 9.5835 23.3333C9.27794 23.8055 9.2435 24.2571 9.48016 24.6883C9.71683 25.1194 10.0707 25.3344 10.5418 25.3333Z" fill="#F72585"/>
</svg>
