<svg width="34" height="34" viewBox="0 0 34 34" fill="none" xmlns="http://www.w3.org/2000/svg">
<path d="M22.8335 15.3333C23.5557 15.3333 24.1529 15.0971 24.6252 14.6249C25.0974 14.1527 25.3335 13.5555 25.3335 12.8333C25.3335 12.111 25.0974 11.5138 24.6252 11.0416C24.1529 10.5694 23.5557 10.3333 22.8335 10.3333C22.1113 10.3333 21.5141 10.5694 21.0418 11.0416C20.5696 11.5138 20.3335 12.111 20.3335 12.8333C20.3335 13.5555 20.5696 14.1527 21.0418 14.6249C21.5141 15.0971 22.1113 15.3333 22.8335 15.3333ZM11.1668 15.3333C11.8891 15.3333 12.4863 15.0971 12.9585 14.6249C13.4307 14.1527 13.6668 13.5555 13.6668 12.8333C13.6668 12.111 13.4307 11.5138 12.9585 11.0416C12.4863 10.5694 11.8891 10.3333 11.1668 10.3333C10.4446 10.3333 9.84739 10.5694 9.37516 11.0416C8.90294 11.5138 8.66683 12.111 8.66683 12.8333C8.66683 13.5555 8.90294 14.1527 9.37516 14.6249C9.84739 15.0971 10.4446 15.3333 11.1668 15.3333ZM17.0002 26.1666C18.5835 26.1666 20.0279 25.8121 21.3335 25.1033C22.6391 24.3944 23.6529 23.4988 24.3752 22.4166C24.7085 21.9166 24.7574 21.4444 24.5218 20.9999C24.2863 20.5555 23.9179 20.3333 23.4168 20.3333C23.2224 20.3333 23.0279 20.3888 22.8335 20.4999C22.6391 20.611 22.4863 20.7499 22.3752 20.9166C21.7641 21.7499 21.0002 22.4166 20.0835 22.9166C19.1668 23.4166 18.1391 23.6666 17.0002 23.6666C15.8613 23.6666 14.8335 23.4166 13.9168 22.9166C13.0002 22.4166 12.2363 21.7499 11.6252 20.9166C11.5141 20.7499 11.3546 20.611 11.1468 20.4999C10.9391 20.3888 10.7374 20.3333 10.5418 20.3333C10.0696 20.3333 9.71572 20.5488 9.48016 20.9799C9.24461 21.411 9.27905 21.8621 9.5835 22.3333C10.3335 23.4721 11.3613 24.396 12.6668 25.1049C13.9724 25.8138 15.4168 26.1677 17.0002 26.1666ZM17.0002 33.6666C14.6946 33.6666 12.5279 33.2288 10.5002 32.3533C8.47239 31.4777 6.7085 30.2905 5.2085 28.7916C3.7085 27.2916 2.52127 25.5277 1.64683 23.4999C0.772385 21.4721 0.334607 19.3055 0.333496 16.9999C0.333496 14.6944 0.771274 12.5277 1.64683 10.4999C2.52239 8.47214 3.70961 6.70825 5.2085 5.20825C6.7085 3.70825 8.47239 2.52103 10.5002 1.64659C12.5279 0.772141 14.6946 0.334363 17.0002 0.333252C19.3057 0.333252 21.4724 0.77103 23.5002 1.64659C25.5279 2.52214 27.2918 3.70936 28.7918 5.20825C30.2918 6.70825 31.4796 8.47214 32.3552 10.4999C33.2307 12.5277 33.6679 14.6944 33.6668 16.9999C33.6668 19.3055 33.229 21.4721 32.3535 23.4999C31.4779 25.5277 30.2907 27.2916 28.7918 28.7916C27.2918 30.2916 25.5279 31.4794 23.5002 32.3549C21.4724 33.2305 19.3057 33.6677 17.0002 33.6666Z" fill="#29C5F6"/>
</svg>
