<svg width="16" height="16" viewBox="0 0 16 16" fill="none" xmlns="http://www.w3.org/2000/svg">
<path d="M6 7.11812L6.69125 8.5H5.30875L6 7.11812ZM14.5 3.5V13.5C14.5001 13.5853 14.4783 13.6691 14.4368 13.7436C14.3953 13.8181 14.3355 13.8808 14.2629 13.9256C14.1904 13.9705 14.1076 13.996 14.0224 13.9999C13.9373 14.0037 13.8525 13.9857 13.7762 13.9475L12 13.0588L10.2238 13.9475C10.1543 13.9823 10.0777 14.0004 10 14.0004C9.92232 14.0004 9.84571 13.9823 9.77625 13.9475L8 13.0588L6.22375 13.9475C6.15428 13.9823 6.07768 14.0004 6 14.0004C5.92232 14.0004 5.84572 13.9823 5.77625 13.9475L4 13.0588L2.22375 13.9475C2.14749 13.9857 2.06274 14.0037 1.97756 13.9999C1.89237 13.996 1.80958 13.9705 1.73705 13.9256C1.66452 13.8808 1.60467 13.8181 1.56318 13.7436C1.52169 13.6691 1.49994 13.5853 1.5 13.5V3.5C1.5 3.23478 1.60536 2.98043 1.79289 2.79289C1.98043 2.60536 2.23478 2.5 2.5 2.5H13.5C13.7652 2.5 14.0196 2.60536 14.2071 2.79289C14.3946 2.98043 14.5 3.23478 14.5 3.5ZM8.4475 9.77625L6.4475 5.77625C6.40603 5.69305 6.34219 5.62305 6.26314 5.57413C6.18409 5.5252 6.09297 5.49928 6 5.49928C5.90703 5.49928 5.81591 5.5252 5.73686 5.57413C5.65781 5.62305 5.59397 5.69305 5.5525 5.77625L3.5525 9.77625C3.52312 9.83502 3.5056 9.899 3.50094 9.96453C3.49628 10.0301 3.50458 10.0959 3.52535 10.1582C3.54613 10.2205 3.57898 10.2782 3.62203 10.3278C3.66508 10.3774 3.71748 10.4181 3.77625 10.4475C3.83502 10.4769 3.899 10.4944 3.96453 10.4991C4.03007 10.5037 4.09588 10.4954 4.15822 10.4746C4.22055 10.4539 4.27818 10.421 4.32781 10.378C4.37745 10.3349 4.41812 10.2825 4.4475 10.2238L4.80875 9.5H7.19125L7.5525 10.2238C7.58188 10.2825 7.62255 10.3349 7.67219 10.378C7.72182 10.421 7.77945 10.4539 7.84178 10.4746C7.90412 10.4954 7.96993 10.5037 8.03547 10.4991C8.101 10.4944 8.16498 10.4769 8.22375 10.4475C8.28252 10.4181 8.33492 10.3774 8.37797 10.3278C8.42102 10.2782 8.45387 10.2205 8.47465 10.1582C8.49542 10.0959 8.50372 10.0301 8.49906 9.96453C8.4944 9.899 8.47688 9.83502 8.4475 9.77625ZM13 8C13 7.86739 12.9473 7.74021 12.8536 7.64645C12.7598 7.55268 12.6326 7.5 12.5 7.5H11.5V6.5C11.5 6.36739 11.4473 6.24021 11.3536 6.14645C11.2598 6.05268 11.1326 6 11 6C10.8674 6 10.7402 6.05268 10.6464 6.14645C10.5527 6.24021 10.5 6.36739 10.5 6.5V7.5H9.5C9.36739 7.5 9.24021 7.55268 9.14645 7.64645C9.05268 7.74021 9 7.86739 9 8C9 8.13261 9.05268 8.25979 9.14645 8.35355C9.24021 8.44732 9.36739 8.5 9.5 8.5H10.5V9.5C10.5 9.63261 10.5527 9.75979 10.6464 9.85355C10.7402 9.94732 10.8674 10 11 10C11.1326 10 11.2598 9.94732 11.3536 9.85355C11.4473 9.75979 11.5 9.63261 11.5 9.5V8.5H12.5C12.6326 8.5 12.7598 8.44732 12.8536 8.35355C12.9473 8.25979 13 8.13261 13 8Z" fill="white"/>
</svg>
