<svg width="32" height="32" viewBox="0 0 32 32" fill="none" xmlns="http://www.w3.org/2000/svg">
<path d="M6.66667 28C5.93334 28 5.30534 27.7387 4.78267 27.216C4.26 26.6933 3.99911 26.0658 4 25.3333V6.66667C4 5.93334 4.26134 5.30534 4.784 4.78267C5.30667 4.26 5.93422 3.99911 6.66667 4H21.3333L28 10.6667V25.3333C28 26.0667 27.7387 26.6947 27.216 27.2173C26.6933 27.74 26.0658 28.0009 25.3333 28H6.66667ZM10.6667 22.6667H21.3333C21.7111 22.6667 22.028 22.5387 22.284 22.2827C22.54 22.0267 22.6676 21.7102 22.6667 21.3333C22.6667 20.9556 22.5387 20.6387 22.2827 20.3827C22.0267 20.1267 21.7102 19.9991 21.3333 20H10.6667C10.2889 20 9.972 20.128 9.716 20.384C9.46 20.64 9.33245 20.9564 9.33334 21.3333C9.33334 21.7111 9.46134 22.028 9.71734 22.284C9.97334 22.54 10.2898 22.6676 10.6667 22.6667ZM10.6667 12H14.6667C15.0444 12 15.3613 11.872 15.6173 11.616C15.8733 11.36 16.0009 11.0436 16 10.6667C16 10.2889 15.872 9.972 15.616 9.716C15.36 9.46 15.0436 9.33245 14.6667 9.33334H10.6667C10.2889 9.33334 9.972 9.46134 9.716 9.71734C9.46 9.97334 9.33245 10.2898 9.33334 10.6667C9.33334 11.0444 9.46134 11.3613 9.71734 11.6173C9.97334 11.8733 10.2898 12.0009 10.6667 12ZM10.6667 17.3333H21.3333C21.7111 17.3333 22.028 17.2053 22.284 16.9493C22.54 16.6933 22.6676 16.3769 22.6667 16C22.6667 15.6222 22.5387 15.3053 22.2827 15.0493C22.0267 14.7933 21.7102 14.6658 21.3333 14.6667H10.6667C10.2889 14.6667 9.972 14.7947 9.716 15.0507C9.46 15.3067 9.33245 15.6231 9.33334 16C9.33334 16.3778 9.46134 16.6947 9.71734 16.9507C9.97334 17.2067 10.2898 17.3342 10.6667 17.3333ZM21.3333 12H25.3333L20 6.66667V10.6667C20 11.0444 20.128 11.3613 20.384 11.6173C20.64 11.8733 20.9564 12.0009 21.3333 12Z" fill="#F72585"/>
</svg>
