<svg width="16" height="16" viewBox="0 0 16 16" fill="none" xmlns="http://www.w3.org/2000/svg">
<path d="M12.6667 8.66667C12.8933 8.66667 13.1133 8.69333 13.3333 8.72667V5.33333L9.33333 1.33333H4C3.26 1.33333 2.66667 1.92667 2.66667 2.66667V13.3333C2.66667 14.0733 3.26 14.6667 4 14.6667H9.20667C8.86667 14.08 8.66667 13.4 8.66667 12.6667C8.66667 10.46 10.46 8.66667 12.6667 8.66667ZM8.66667 2.33333L12.3333 6H8.66667V2.33333ZM15.6667 13.3333L14 15.3333L12.3333 13.3333H13.3333V10.6667H14.6667V13.3333H15.6667ZM13 12H12V14.6667H10.6667V12H9.66667L11.3333 10L13 12Z" fill="white"/>
</svg>
