<svg width="18" height="18" viewBox="0 0 18 18" fill="none" xmlns="http://www.w3.org/2000/svg">
<g clip-path="url(#clip0_141_985)">
<path d="M9 1.5V6.375C9 6.67337 9.11853 6.95952 9.3295 7.1705C9.54048 7.38147 9.82663 7.5 10.125 7.5H15V11.8177L14.0303 10.848C13.9606 10.7784 13.8779 10.7231 13.7868 10.6855C13.6958 10.6478 13.5982 10.6284 13.4997 10.6285C13.4012 10.6285 13.3037 10.6479 13.2127 10.6857C13.1217 10.7234 13.039 10.7787 12.9694 10.8484C12.8997 10.9181 12.8445 11.0008 12.8068 11.0918C12.7692 11.1828 12.7498 11.2804 12.7498 11.3789C12.7499 11.4774 12.7693 11.5749 12.8071 11.6659C12.8448 11.7569 12.9001 11.8396 12.9697 11.9093L13.8105 12.75H10.5C10.3011 12.75 10.1103 12.829 9.96967 12.9697C9.82902 13.1103 9.75 13.3011 9.75 13.5C9.75 13.6989 9.82902 13.8897 9.96967 14.0303C10.1103 14.171 10.3011 14.25 10.5 14.25H13.8105L12.9697 15.0907C12.829 15.2314 12.7499 15.4222 12.7498 15.6211C12.7498 15.8201 12.8287 16.0109 12.9694 16.1516C13.11 16.2924 13.3008 16.3715 13.4997 16.3715C13.6987 16.3716 13.8895 16.2926 14.0303 16.152L14.9872 15.1943C14.9401 15.5553 14.7632 15.8869 14.4895 16.1272C14.2159 16.3675 13.8642 16.5 13.5 16.5H4.5C4.10218 16.5 3.72064 16.342 3.43934 16.0607C3.15804 15.7794 3 15.3978 3 15V3C3 2.60218 3.15804 2.22064 3.43934 1.93934C3.72064 1.65804 4.10218 1.5 4.5 1.5H9ZM15 11.8177L16.1512 12.9697C16.2919 13.1104 16.3708 13.3011 16.3708 13.5C16.3708 13.6989 16.2919 13.8896 16.1512 14.0303L15 15.1823V11.8177ZM10.5 1.53225C10.7842 1.59252 11.0447 1.73399 11.25 1.9395L14.5605 5.25C14.766 5.45529 14.9075 5.71584 14.9678 6H10.5V1.53225Z" fill="#219ABF"/>
</g>
<defs>
<clipPath id="clip0_141_985">
<rect width="18" height="18" fill="white"/>
</clipPath>
</defs>
</svg>
