<svg width="32" height="32" viewBox="0 0 32 32" fill="none" xmlns="http://www.w3.org/2000/svg">
<path d="M7.99999 28C7.62222 28 7.30533 27.872 7.04933 27.616C6.79333 27.36 6.66577 27.0436 6.66666 26.6667V6.66671C6.66666 6.28893 6.79466 5.97205 7.05066 5.71605C7.30666 5.46005 7.62311 5.33249 7.99999 5.33338H17.5667C17.8778 5.33338 18.1556 5.43338 18.4 5.63338C18.6444 5.83338 18.8 6.08893 18.8667 6.40005L19.2 8.00005H25.3333C25.7111 8.00005 26.028 8.12805 26.284 8.38405C26.54 8.64005 26.6676 8.95649 26.6667 9.33338V20C26.6667 20.3778 26.5387 20.6947 26.2827 20.9507C26.0267 21.2067 25.7102 21.3343 25.3333 21.3334H18.4333C18.1222 21.3334 17.8444 21.2334 17.6 21.0334C17.3556 20.8334 17.2 20.5778 17.1333 20.2667L16.8 18.6667H9.33333V26.6667C9.33333 27.0445 9.20533 27.3614 8.94933 27.6174C8.69333 27.8734 8.37688 28.0009 7.99999 28Z" fill="#7209B7"/>
</svg>
