<svg width="32" height="32" viewBox="0 0 32 32" fill="none" xmlns="http://www.w3.org/2000/svg">
<path d="M12 29.3334C11.2667 29.3334 10.6387 29.072 10.116 28.5494C9.59336 28.0267 9.33247 27.3991 9.33336 26.6667V22.6667H5.33336C4.60002 22.6667 3.97202 22.4054 3.44936 21.8827C2.92669 21.36 2.6658 20.7325 2.66669 20V17.3334H11.2667L13.5334 20.7334C13.6445 20.9111 13.8 21.0556 14 21.1667C14.2 21.2778 14.4111 21.3334 14.6334 21.3334C14.9222 21.3334 15.1889 21.2445 15.4334 21.0667C15.6778 20.8889 15.8445 20.6667 15.9334 20.4L17.7334 15L18.8667 16.7334C19 16.9111 19.1667 17.0556 19.3667 17.1667C19.5667 17.2778 19.7778 17.3334 20 17.3334H29.3334V20C29.3334 20.7334 29.072 21.3614 28.5494 21.884C28.0267 22.4067 27.3991 22.6676 26.6667 22.6667H22.6667V26.6667C22.6667 27.4 22.4054 28.028 21.8827 28.5507C21.36 29.0734 20.7325 29.3342 20 29.3334H12ZM14.2667 17L13.1 15.2667C12.9889 15.0889 12.8334 14.9445 12.6334 14.8334C12.4334 14.7222 12.2222 14.6667 12 14.6667H2.66669V12C2.66669 11.2667 2.92802 10.6387 3.45069 10.116C3.97336 9.59336 4.60091 9.33247 5.33336 9.33336H9.33336V5.33336C9.33336 4.60002 9.59469 3.97202 10.1174 3.44936C10.64 2.92669 11.2676 2.6658 12 2.66669H20C20.7334 2.66669 21.3614 2.92802 21.884 3.45069C22.4067 3.97336 22.6676 4.60091 22.6667 5.33336V9.33336H26.6667C27.4 9.33336 28.028 9.59469 28.5507 10.1174C29.0734 10.64 29.3342 11.2676 29.3334 12V14.6667H20.7L18.4334 11.2667C18.3222 11.0889 18.1667 10.9445 17.9667 10.8334C17.7667 10.7222 17.5556 10.6667 17.3334 10.6667C17.0445 10.6667 16.7831 10.7556 16.5494 10.9334C16.3156 11.1111 16.1547 11.3334 16.0667 11.6L14.2667 17Z" fill="#7209B7"/>
</svg>
