<svg width="25" height="25" viewBox="0 0 25 25" fill="none" xmlns="http://www.w3.org/2000/svg">
<path d="M2.08334 12.7124C2.08334 10.328 2.08334 9.13638 2.62501 8.14888C3.16459 7.16034 4.15314 6.54784 6.12918 5.32075L8.21251 4.02804C10.3011 2.73117 11.3458 2.08325 12.5 2.08325C13.6542 2.08325 14.6979 2.73117 16.7875 4.02804L18.8708 5.32075C20.8469 6.54784 21.8354 7.16034 22.3761 8.14888C22.9167 9.13638 22.9167 10.328 22.9167 12.7114V14.2968C22.9167 18.3593 22.9167 20.3916 21.6958 21.6541C20.4761 22.9166 18.5115 22.9166 14.5833 22.9166H10.4167C6.48855 22.9166 4.52397 22.9166 3.30418 21.6541C2.08334 20.3916 2.08334 18.3603 2.08334 14.2968V12.7124Z" stroke="black" stroke-width="1.5"/>
<path d="M12.5 15.625V18.75" stroke="black" stroke-width="1.5" stroke-linecap="round"/>
</svg>
