<svg width="13" height="16" viewBox="0 0 13 16" fill="none" xmlns="http://www.w3.org/2000/svg">
<path d="M4.5 0C4.132 0 3.83333 0.305021 3.83333 0.680851V1.02128V1.3617C3.83333 1.73617 3.53333 2.04255 3.16667 2.04255C2.8 2.04255 2.5 1.73651 2.5 1.3617V1.02128C2.444 1.02128 2.38833 1.02382 2.33333 1.02859C1.30767 1.11506 0.5 1.99421 0.5 3.06383V13.9574C0.5 15.0843 1.39667 16 2.5 16H10.5C11.6033 16 12.5 15.0843 12.5 13.9574V3.06383C12.5 1.93702 11.6033 1.02128 10.5 1.02128V0.680851C10.5 0.305021 10.2013 0 9.83333 0C9.46533 0 9.16667 0.305021 9.16667 0.680851V1.02128V1.3617C9.16667 1.73617 8.86667 2.04255 8.5 2.04255C8.134 2.04255 7.83333 1.73719 7.83333 1.3617V1.02128V0.680851C7.83333 0.305021 7.53467 0 7.16667 0C6.79867 0 6.5 0.305021 6.5 0.680851V1.02128V1.3617C6.5 1.73617 6.2 2.04255 5.83333 2.04255C5.46733 2.04255 5.16667 1.73719 5.16667 1.3617V1.02128V0.680851C5.16667 0.305021 4.868 0 4.5 0ZM4 4.76596H9C9.27667 4.76596 9.5 4.99404 9.5 5.2766C9.5 5.55915 9.27667 5.78723 9 5.78723H4C3.72333 5.78723 3.5 5.55915 3.5 5.2766C3.5 4.99404 3.72333 4.76596 4 4.76596ZM4 7.14894H6C6.27667 7.14894 6.5 7.37702 6.5 7.65957C6.5 7.94213 6.27667 8.17021 6 8.17021H4C3.72333 8.17021 3.5 7.94213 3.5 7.65957C3.5 7.37702 3.72333 7.14894 4 7.14894ZM4 9.53191H8C8.27667 9.53191 8.5 9.76 8.5 10.0426C8.5 10.3251 8.27667 10.5532 8 10.5532H4C3.72333 10.5532 3.5 10.3251 3.5 10.0426C3.5 9.76 3.72333 9.53191 4 9.53191ZM4 11.9149H7.33333C7.61 11.9149 7.83333 12.143 7.83333 12.4255C7.83333 12.7081 7.61 12.9362 7.33333 12.9362H4C3.72333 12.9362 3.5 12.7081 3.5 12.4255C3.5 12.143 3.72333 11.9149 4 11.9149Z" fill="#29C5F6"/>
</svg>
