<svg width="14" height="14" viewBox="0 0 14 14" fill="none" xmlns="http://www.w3.org/2000/svg">
<path d="M11.375 1.75H10.0625V1.3125C10.0625 1.19647 10.0164 1.08519 9.93436 1.00314C9.85231 0.921094 9.74103 0.875 9.625 0.875C9.50897 0.875 9.39769 0.921094 9.31564 1.00314C9.23359 1.08519 9.1875 1.19647 9.1875 1.3125V1.75H4.8125V1.3125C4.8125 1.19647 4.76641 1.08519 4.68436 1.00314C4.60231 0.921094 4.49103 0.875 4.375 0.875C4.25897 0.875 4.14769 0.921094 4.06564 1.00314C3.98359 1.08519 3.9375 1.19647 3.9375 1.3125V1.75H2.625C2.39294 1.75 2.17038 1.84219 2.00628 2.00628C1.84219 2.17038 1.75 2.39294 1.75 2.625V11.375C1.75 11.6071 1.84219 11.8296 2.00628 11.9937C2.17038 12.1578 2.39294 12.25 2.625 12.25H11.375C11.6071 12.25 11.8296 12.1578 11.9937 11.9937C12.1578 11.8296 12.25 11.6071 12.25 11.375V2.625C12.25 2.39294 12.1578 2.17038 11.9937 2.00628C11.8296 1.84219 11.6071 1.75 11.375 1.75ZM3.9375 2.625V3.0625C3.9375 3.17853 3.98359 3.28981 4.06564 3.37186C4.14769 3.45391 4.25897 3.5 4.375 3.5C4.49103 3.5 4.60231 3.45391 4.68436 3.37186C4.76641 3.28981 4.8125 3.17853 4.8125 3.0625V2.625H9.1875V3.0625C9.1875 3.17853 9.23359 3.28981 9.31564 3.37186C9.39769 3.45391 9.50897 3.5 9.625 3.5C9.74103 3.5 9.85231 3.45391 9.93436 3.37186C10.0164 3.28981 10.0625 3.17853 10.0625 3.0625V2.625H11.375V4.375H2.625V2.625H3.9375ZM11.375 11.375H2.625V5.25H11.375V11.375ZM8.62203 7.30953L7.61852 8.3125L8.62203 9.31547C8.66268 9.35612 8.69492 9.40437 8.71692 9.45748C8.73892 9.51059 8.75024 9.56751 8.75024 9.625C8.75024 9.68249 8.73892 9.73941 8.71692 9.79252C8.69492 9.84563 8.66268 9.89388 8.62203 9.93453C8.58138 9.97518 8.53313 10.0074 8.48002 10.0294C8.42691 10.0514 8.36999 10.0627 8.3125 10.0627C8.25501 10.0627 8.19809 10.0514 8.14498 10.0294C8.09187 10.0074 8.04362 9.97518 8.00297 9.93453L7 8.93102L5.99703 9.93453C5.95638 9.97518 5.90813 10.0074 5.85502 10.0294C5.80191 10.0514 5.74499 10.0627 5.6875 10.0627C5.63001 10.0627 5.57309 10.0514 5.51998 10.0294C5.46687 10.0074 5.41862 9.97518 5.37797 9.93453C5.33732 9.89388 5.30508 9.84563 5.28308 9.79252C5.26108 9.73941 5.24976 9.68249 5.24976 9.625C5.24976 9.56751 5.26108 9.51059 5.28308 9.45748C5.30508 9.40437 5.33732 9.35612 5.37797 9.31547L6.38148 8.3125L5.37797 7.30953C5.29588 7.22744 5.24976 7.1161 5.24976 7C5.24976 6.8839 5.29588 6.77256 5.37797 6.69047C5.46006 6.60838 5.5714 6.56226 5.6875 6.56226C5.8036 6.56226 5.91494 6.60838 5.99703 6.69047L7 7.69398L8.00297 6.69047C8.04362 6.64982 8.09187 6.61758 8.14498 6.59558C8.19809 6.57358 8.25501 6.56226 8.3125 6.56226C8.36999 6.56226 8.42691 6.57358 8.48002 6.59558C8.53313 6.61758 8.58138 6.64982 8.62203 6.69047C8.66268 6.73112 8.69492 6.77937 8.71692 6.83248C8.73892 6.88559 8.75024 6.94251 8.75024 7C8.75024 7.05749 8.73892 7.11441 8.71692 7.16752C8.69492 7.22063 8.66268 7.26888 8.62203 7.30953Z" fill="white"/>
</svg>
