<svg width="28" height="28" viewBox="0 0 28 28" fill="none" xmlns="http://www.w3.org/2000/svg">
<path d="M12.3209 1C11.3089 1 10.4543 1.6496 10.1844 2.568H6.92356C5.30436 2.568 4 3.8672 4 5.48V23.848C4 25.4608 5.30436 26.76 6.92356 26.76H21.3164C22.9356 26.76 24.24 25.4608 24.24 23.848V5.48C24.24 3.8672 22.9356 2.568 21.3164 2.568H18.0556C17.7632 1.6496 16.9086 1 15.9191 1H12.3209ZM12.3209 2.344H15.9191C16.4139 2.344 16.8187 2.7472 16.8187 3.24C16.8187 3.7328 16.4139 4.136 15.9191 4.136H12.3209C11.8261 4.136 11.4213 3.7328 11.4213 3.24C11.4213 2.7472 11.8261 2.344 12.3209 2.344ZM6.92356 3.912H10.1844C10.4768 4.8304 11.3314 5.48 12.3209 5.48H15.9191C16.9311 5.48 17.7857 4.8304 18.0556 3.912H21.3164C22.1935 3.912 22.8907 4.6064 22.8907 5.48V23.848C22.8907 24.7216 22.1935 25.416 21.3164 25.416H6.92356C6.04649 25.416 5.34933 24.7216 5.34933 23.848V5.48C5.34933 4.6064 6.04649 3.912 6.92356 3.912ZM9.17244 11.752C8.79013 11.752 8.49778 12.0432 8.49778 12.424C8.49778 12.8048 8.79013 13.096 9.17244 13.096H10.2969C10.6792 13.096 10.9716 12.8048 10.9716 12.424C10.9716 12.0432 10.6792 11.752 10.2969 11.752H9.17244ZM13.8951 11.752C13.5128 11.752 13.2204 12.0432 13.2204 12.424C13.2204 12.8048 13.5128 13.096 13.8951 13.096H18.8427C19.225 13.096 19.5173 12.8048 19.5173 12.424C19.5173 12.0432 19.225 11.752 18.8427 11.752H13.8951ZM9.17244 15.336C8.79013 15.336 8.49778 15.6272 8.49778 16.008C8.49778 16.3888 8.79013 16.68 9.17244 16.68H10.2969C10.6792 16.68 10.9716 16.3888 10.9716 16.008C10.9716 15.6272 10.6792 15.336 10.2969 15.336H9.17244ZM13.8951 15.336C13.5128 15.336 13.2204 15.6272 13.2204 16.008C13.2204 16.3888 13.5128 16.68 13.8951 16.68H18.8427C19.225 16.68 19.5173 16.3888 19.5173 16.008C19.5173 15.6272 19.225 15.336 18.8427 15.336H13.8951ZM9.17244 18.696C8.79013 18.696 8.49778 18.9872 8.49778 19.368C8.49778 19.7488 8.79013 20.04 9.17244 20.04H10.2969C10.6792 20.04 10.9716 19.7488 10.9716 19.368C10.9716 18.9872 10.6792 18.696 10.2969 18.696H9.17244ZM13.8951 18.696C13.5128 18.696 13.2204 18.9872 13.2204 19.368C13.2204 19.7488 13.5128 20.04 13.8951 20.04H18.8427C19.225 20.04 19.5173 19.7488 19.5173 19.368C19.5173 18.9872 19.225 18.696 18.8427 18.696H13.8951Z" fill="#8E90A3"/>
</svg>
