<svg width="16" height="16" viewBox="0 0 16 16" fill="none" xmlns="http://www.w3.org/2000/svg">
<g clip-path="url(#clip0_460_1129)">
<path d="M3.19997 2.1333C2.61063 2.1333 2.1333 2.61063 2.1333 3.19997V5.3333H5.3333V2.1333H3.19997ZM6.39997 2.1333V5.3333H9.59997V2.1333H6.39997ZM10.6666 2.1333V5.3333H13.8666V3.19997C13.8666 2.61063 13.3893 2.1333 12.8 2.1333H10.6666ZM2.1333 6.39997V9.59997H5.3333V6.39997H2.1333ZM6.39997 6.39997V9.59997H9.59997V6.39997H6.39997ZM10.6666 6.39997V8.89997C9.8945 9.26922 9.26922 9.8945 8.89997 10.6666H6.39997V13.8666H8.89997C9.50163 15.1247 10.7839 16 12.2666 16C14.3222 16 16 14.3222 16 12.2666C16 10.7839 15.1247 9.50163 13.8666 8.89997V6.39997H10.6666ZM12.2666 9.59997C13.7457 9.59997 14.9333 10.7876 14.9333 12.2666C14.9333 13.7457 13.7457 14.9333 12.2666 14.9333C10.7876 14.9333 9.59997 13.7457 9.59997 12.2666C9.59997 10.7876 10.7876 9.59997 12.2666 9.59997ZM12.2583 10.126C12.117 10.1282 11.9824 10.1864 11.884 10.2877C11.7856 10.3891 11.7314 10.5254 11.7333 10.6666V12.0458L11.0896 12.6896C11.0384 12.7387 10.9975 12.7976 10.9693 12.8627C10.9412 12.9278 10.9263 12.9979 10.9256 13.0689C10.9249 13.1398 10.9383 13.2102 10.9651 13.2759C10.992 13.3416 11.0316 13.4013 11.0818 13.4515C11.132 13.5016 11.1917 13.5413 11.2573 13.5681C11.323 13.5949 11.3934 13.6084 11.4644 13.6077C11.5353 13.6069 11.6054 13.5921 11.6706 13.5639C11.7357 13.5358 11.7946 13.4949 11.8437 13.4437L12.6437 12.6437C12.7437 12.5437 12.7999 12.4081 12.8 12.2666V10.6666C12.8009 10.5953 12.7876 10.5245 12.7607 10.4584C12.7338 10.3923 12.6939 10.3322 12.6434 10.2818C12.5929 10.2314 12.5328 10.1916 12.4667 10.1649C12.4005 10.1381 12.3297 10.1249 12.2583 10.126ZM2.1333 10.6666V12.8C2.1333 13.3893 2.61063 13.8666 3.19997 13.8666H5.3333V10.6666H2.1333Z" fill="#29C5F6"/>
</g>
<defs>
<clipPath id="clip0_460_1129">
<rect width="16" height="16" fill="white"/>
</clipPath>
</defs>
</svg>
