<svg width="18" height="18" viewBox="0 0 18 18" fill="none" xmlns="http://www.w3.org/2000/svg">
<path d="M9.75 8.7L11.625 10.575C11.7625 10.7125 11.8312 10.8875 11.8312 11.1C11.8312 11.3125 11.7625 11.4875 11.625 11.625C11.4875 11.7625 11.3125 11.8312 11.1 11.8312C10.8875 11.8312 10.7125 11.7625 10.575 11.625L8.475 9.525C8.4 9.45 8.34375 9.3655 8.30625 9.2715C8.26875 9.178 8.25 9.08125 8.25 8.98125V6C8.25 5.7875 8.322 5.60925 8.466 5.46525C8.6095 5.32175 8.7875 5.25 9 5.25C9.2125 5.25 9.39075 5.32175 9.53475 5.46525C9.67825 5.60925 9.75 5.7875 9.75 6V8.7ZM9 15.75C7.4875 15.75 6.13125 15.303 4.93125 14.409C3.73125 13.5155 2.925 12.35 2.5125 10.9125C2.45 10.6875 2.472 10.475 2.5785 10.275C2.6845 10.075 2.85 9.95 3.075 9.9C3.2875 9.85 3.47825 9.89675 3.64725 10.0402C3.81575 10.1842 3.93125 10.3625 3.99375 10.575C4.31875 11.675 4.947 12.5625 5.8785 13.2375C6.8095 13.9125 7.85 14.25 9 14.25C10.4625 14.25 11.703 13.7405 12.7215 12.7215C13.7405 11.703 14.25 10.4625 14.25 9C14.25 7.5375 13.7405 6.29675 12.7215 5.27775C11.703 4.25925 10.4625 3.75 9 3.75C8.1375 3.75 7.33125 3.95 6.58125 4.35C5.83125 4.75 5.2 5.3 4.6875 6H6C6.2125 6 6.39075 6.07175 6.53475 6.21525C6.67825 6.35925 6.75 6.5375 6.75 6.75C6.75 6.9625 6.67825 7.1405 6.53475 7.284C6.39075 7.428 6.2125 7.5 6 7.5H3C2.7875 7.5 2.6095 7.428 2.466 7.284C2.322 7.1405 2.25 6.9625 2.25 6.75V3.75C2.25 3.5375 2.322 3.35925 2.466 3.21525C2.6095 3.07175 2.7875 3 3 3C3.2125 3 3.39075 3.07175 3.53475 3.21525C3.67825 3.35925 3.75 3.5375 3.75 3.75V4.7625C4.3875 3.9625 5.16575 3.34375 6.08475 2.90625C7.00325 2.46875 7.975 2.25 9 2.25C9.9375 2.25 10.8158 2.428 11.6347 2.784C12.4532 3.1405 13.1658 3.62175 13.7723 4.22775C14.3783 4.83425 14.8595 5.54675 15.216 6.36525C15.572 7.18425 15.75 8.0625 15.75 9C15.75 9.9375 15.572 10.8155 15.216 11.634C14.8595 12.453 14.3783 13.1655 13.7723 13.7715C13.1658 14.378 12.4532 14.8595 11.6347 15.216C10.8158 15.572 9.9375 15.75 9 15.75Z" fill="white"/>
</svg>
