<svg width="16" height="16" viewBox="0 0 16 16" fill="none" xmlns="http://www.w3.org/2000/svg">
<g clip-path="url(#clip0_118_759)">
<path d="M13.4998 3.75017H11.4999C10.9486 3.75017 10.4999 3.30174 10.4999 2.75019V0.750216C10.4999 0.528594 10.7688 0.416096 10.9267 0.573344L13.6767 3.3233C13.8339 3.48055 13.7218 3.75017 13.4998 3.75017ZM5.7187 7.65637H4.68746C4.61843 7.65637 4.56247 7.71233 4.56247 7.78136V8.8126C4.56247 8.88163 4.61843 8.9376 4.68746 8.9376H5.7187C5.78773 8.9376 5.8437 8.88163 5.8437 8.8126V7.78136C5.8437 7.71233 5.78773 7.65637 5.7187 7.65637ZM5.7187 3.90642H4.68746C4.61843 3.90642 4.56247 3.96239 4.56247 4.03142V5.06265C4.56247 5.13168 4.61843 5.18765 4.68746 5.18765H5.7187C5.78773 5.18765 5.8437 5.13168 5.8437 5.06265V4.03142C5.8437 3.96239 5.78773 3.90642 5.7187 3.90642ZM13.7498 4.49829V14.5C13.7498 15.0523 13.3021 15.5 12.7498 15.5H3.24999C2.69771 15.5 2.25 15.0523 2.25 14.5V1.50021C2.25 0.947932 2.69771 0.50022 3.24999 0.50022H9.75177C9.89304 0.50022 10.0059 0.617031 10.0016 0.758247C9.99467 0.986119 9.99986 1.48496 9.99986 2.74997C9.99986 3.57836 10.6716 4.25013 11.5001 4.25013C12.7652 4.25013 13.2639 4.25532 13.4918 4.24838C13.633 4.24413 13.7498 4.35704 13.7498 4.49829ZM7.93742 4.43766C7.93742 4.57572 8.04935 4.68766 8.18741 4.68766H9.49989C9.63795 4.68766 9.74989 4.57572 9.74989 4.43766C9.74989 4.2996 9.63795 4.18767 9.49989 4.18767H8.18741C8.04935 4.18767 7.93742 4.2996 7.93742 4.43766ZM4.06247 5.43765C4.06247 5.57571 4.17441 5.68764 4.31247 5.68764H6.09369C6.23175 5.68764 6.34369 5.57571 6.34369 5.43765V3.65642C6.34369 3.51836 6.23175 3.40643 6.09369 3.40643H4.31247C4.17441 3.40643 4.06247 3.51836 4.06247 3.65642V5.43765ZM4.06247 9.18759C4.06247 9.32565 4.17441 9.43759 4.31247 9.43759H6.09369C6.23175 9.43759 6.34369 9.32565 6.34369 9.18759V7.40637C6.34369 7.26831 6.23175 7.15637 6.09369 7.15637H4.31247C4.17441 7.15637 4.06247 7.26831 4.06247 7.40637V9.18759ZM6.34316 12.9209C6.33457 12.788 6.21832 12.6875 6.08513 12.6875H4.68746C4.61843 12.6875 4.56247 12.6316 4.56247 12.5625V11.1563C4.56247 11.0127 4.44144 10.8974 4.29585 10.9068C4.16297 10.9154 4.06247 11.0317 4.06247 11.1649V12.9375C4.06247 13.0756 4.17441 13.1875 4.31247 13.1875H6.09369C6.23729 13.1875 6.35257 13.0665 6.34316 12.9209ZM7.22358 10.5577C7.12596 10.4601 6.96768 10.4601 6.87006 10.5577L5.84373 11.584L5.48927 11.2296C5.39164 11.1319 5.23336 11.1319 5.13574 11.2296C5.03808 11.3272 5.03808 11.4855 5.13574 11.5831L5.66698 12.1143C5.76464 12.212 5.92288 12.212 6.02051 12.1143L7.22361 10.9112C7.32121 10.8136 7.32121 10.6553 7.22358 10.5577ZM10.9999 12.0626C10.9999 11.9245 10.8879 11.8126 10.7499 11.8126H8.18741C8.04935 11.8126 7.93742 11.9245 7.93742 12.0626C7.93742 12.2006 8.04935 12.3125 8.18741 12.3125H10.7499C10.8879 12.3125 10.9999 12.2006 10.9999 12.0626ZM10.9999 8.00011C10.9999 7.86205 10.8879 7.75011 10.7499 7.75011H8.18741C8.04935 7.75011 7.93742 7.86205 7.93742 8.00011C7.93742 8.13817 8.04935 8.25011 8.18741 8.25011H10.7499C10.8879 8.25011 10.9999 8.1382 10.9999 8.00011Z" fill="#29C5F6"/>
</g>
<defs>
<clipPath id="clip0_118_759">
<rect width="15" height="15" fill="white" transform="translate(0.5 0.5)"/>
</clipPath>
</defs>
</svg>
