<svg width="24" height="24" viewBox="0 0 24 24" fill="none" xmlns="http://www.w3.org/2000/svg">
<path d="M2.87252 1.44C2.80874 1.44099 2.74579 1.45468 2.68736 1.48027C2.62893 1.50587 2.57618 1.54285 2.53221 1.58906L1.57221 2.59969C1.48731 2.68895 1.43999 2.80744 1.44002 2.93062V18.24C1.43776 19.1984 1.6657 20.0793 2.14971 20.7675C2.17741 20.8098 2.20306 20.8542 2.23221 20.895C2.73364 21.597 3.47569 22.08 4.32002 22.08C4.38996 22.08 4.45781 22.0715 4.52627 22.065C4.61606 22.0716 4.70546 22.0797 4.79814 22.08C4.79877 22.08 4.79939 22.08 4.80002 22.08H20.64C20.6642 22.0799 20.6883 22.0781 20.7122 22.0744C21.5261 22.0473 22.2409 21.5758 22.7278 20.8941C23.2293 20.192 23.52 19.2599 23.52 18.24C23.52 17.2201 23.2293 16.288 22.7278 15.5859C22.2432 14.9073 21.5327 14.4367 20.7235 14.4056C20.7228 14.4056 20.7222 14.4056 20.7216 14.4056C20.6946 14.4014 20.6673 14.3995 20.64 14.4H18.72V1.92C18.72 1.82508 18.6918 1.73231 18.6391 1.6534C18.5863 1.5745 18.5114 1.513 18.4237 1.47668C18.336 1.44036 18.2395 1.43085 18.1464 1.44935C18.0533 1.46785 17.9678 1.51353 17.9006 1.58062L16.3228 3.16125L14.7394 1.58062C14.6494 1.49064 14.5273 1.44009 14.4 1.44009C14.2727 1.44009 14.1507 1.49064 14.0606 1.58062L12.48 3.16125L10.8994 1.58062C10.8094 1.49064 10.6873 1.44009 10.56 1.44009C10.4327 1.44009 10.3107 1.49064 10.2206 1.58062L8.64002 3.16125L7.05939 1.58062C6.96937 1.49064 6.8473 1.44009 6.72002 1.44009C6.59274 1.44009 6.47066 1.49064 6.38064 1.58062L4.80002 3.16125L3.21939 1.58062C3.17394 1.53515 3.11981 1.49927 3.06023 1.47511C3.00064 1.45095 2.93681 1.43901 2.87252 1.44ZM6.72002 2.59875L8.30064 4.17937C8.39067 4.26936 8.51274 4.31991 8.64002 4.31991C8.7673 4.31991 8.88937 4.26936 8.97939 4.17937L10.56 2.59875L12.1406 4.17937C12.2307 4.26936 12.3527 4.31991 12.48 4.31991C12.6073 4.31991 12.7294 4.26936 12.8194 4.17937L14.4 2.59875L15.9844 4.17937C16.0744 4.26936 16.1965 4.31991 16.3238 4.31991C16.4511 4.31991 16.5731 4.26936 16.6631 4.17937L17.76 3.08062V14.4H4.32002C3.56477 14.4 2.89259 14.7882 2.40002 15.3722V3.12187L2.88846 2.60719L4.46064 4.17937C4.55066 4.26936 4.67274 4.31991 4.80002 4.31991C4.9273 4.31991 5.04937 4.26936 5.13939 4.17937L6.72002 2.59875ZM4.32002 5.76V6.72H11.04V5.76H4.32002ZM12.48 5.76V6.72H15.84V5.76H12.48ZM4.32002 7.68V8.64H7.68002V7.68H4.32002ZM9.12002 7.68V8.64H15.84V7.68H9.12002ZM4.32002 9.6V10.56H6.72002V9.6H4.32002ZM8.16002 9.6V10.56H11.52V9.6H8.16002ZM12.96 9.6V10.56H15.84V9.6H12.96ZM4.32002 11.52V12.48H9.60002V11.52H4.32002ZM11.04 11.52V12.48H15.84V11.52H11.04ZM4.32002 15.36C4.80117 15.36 5.2597 15.6287 5.62689 16.1428C5.99409 16.6569 6.24002 17.4048 6.24002 18.24C6.24002 19.0752 5.99409 19.8231 5.62689 20.3372C5.30855 20.7829 4.9212 21.0434 4.51033 21.105C3.83718 21.0417 3.3649 20.7646 3.01783 20.3325C3.00342 20.3146 2.99147 20.2939 2.97752 20.2753C2.63227 19.7639 2.4002 19.0457 2.40002 18.2409C2.40002 18.2406 2.40002 18.2403 2.40002 18.24C2.40002 17.4048 2.64595 16.6569 3.01314 16.1428C3.38034 15.6287 3.83887 15.36 4.32002 15.36ZM6.23064 15.36H18.24H20.64C21.1206 15.36 21.5786 15.6294 21.946 16.1437C22.3133 16.6581 22.56 17.4057 22.56 18.24C22.56 19.0743 22.3133 19.8219 21.946 20.3362C21.5786 20.8506 21.1206 21.12 20.64 21.12H6.23064C6.29234 21.0475 6.35193 20.9733 6.40783 20.895C6.90927 20.193 7.20002 19.2605 7.20002 18.24C7.20002 17.2195 6.90927 16.287 6.40783 15.585C6.35193 15.5067 6.29234 15.4325 6.23064 15.36ZM4.32002 16.8C4.06541 16.8 3.82123 16.9517 3.6412 17.2218C3.46116 17.4918 3.36002 17.8581 3.36002 18.24C3.36002 18.6219 3.46116 18.9882 3.6412 19.2582C3.82123 19.5283 4.06541 19.68 4.32002 19.68C4.57463 19.68 4.81881 19.5283 4.99884 19.2582C5.17888 18.9882 5.28002 18.6219 5.28002 18.24C5.28002 17.8581 5.17888 17.4918 4.99884 17.2218C4.81881 16.9517 4.57463 16.8 4.32002 16.8Z" fill="#8E90A3"/>
</svg>
