<svg width="18" height="18" viewBox="0 0 18 18" fill="none" xmlns="http://www.w3.org/2000/svg">
<path d="M5.25 1.875H10.3343L13.875 5.77013V15C13.875 15.2984 13.7565 15.5845 13.5455 15.7955C13.3345 16.0065 13.0484 16.125 12.75 16.125H5.25C4.95163 16.125 4.66548 16.0065 4.4545 15.7955C4.24353 15.5845 4.125 15.2984 4.125 15V3C4.125 2.70163 4.24353 2.41548 4.4545 2.2045C4.66548 1.99353 4.95163 1.875 5.25 1.875Z" stroke="#219ABF" stroke-width="0.6" stroke-linejoin="round"/>
<path d="M5.625 12.375H12.375M5.625 13.875H10.125" stroke="#219ABF" stroke-width="0.6" stroke-linecap="round"/>
<path d="M5.625 10.5L7.5 6L9.375 10.5M6.09375 9.375H8.90625" stroke="#219ABF" stroke-width="0.6" stroke-linecap="round" stroke-linejoin="round"/>
<path d="M11.25 8.25V10.5M10.125 9.375H12.375" stroke="#219ABF" stroke-width="0.6" stroke-linecap="round"/>
</svg>
