<svg width="18" height="18" viewBox="0 0 18 18" fill="none" xmlns="http://www.w3.org/2000/svg">
<path d="M9 4.78125C9.38939 4.78125 9.77002 4.66579 10.0938 4.44946C10.4175 4.23313 10.6699 3.92565 10.8189 3.56591C10.9679 3.20617 11.0069 2.81032 10.9309 2.42842C10.855 2.04652 10.6675 1.69572 10.3921 1.42038C10.1168 1.14505 9.76599 0.957545 9.38409 0.88158C9.00219 0.805615 8.60634 0.844603 8.2466 0.993613C7.88685 1.14262 7.57938 1.39496 7.36305 1.71872C7.14672 2.04248 7.03125 2.42312 7.03125 2.8125C7.03125 3.33465 7.23868 3.8354 7.60789 4.20462C7.9771 4.57383 8.47786 4.78125 9 4.78125ZM9 1.40625C9.27813 1.40625 9.55002 1.48873 9.78127 1.64325C10.0125 1.79777 10.1928 2.01739 10.2992 2.27435C10.4056 2.53131 10.4335 2.81406 10.3792 3.08685C10.325 3.35963 10.191 3.6102 9.99437 3.80687C9.7977 4.00354 9.54714 4.13747 9.27435 4.19173C9.00156 4.24599 8.71881 4.21814 8.46185 4.11171C8.2049 4.00527 7.98527 3.82503 7.83075 3.59377C7.67623 3.36251 7.59375 3.09063 7.59375 2.8125C7.59375 2.43954 7.74191 2.08186 8.00563 1.81813C8.26936 1.55441 8.62704 1.40625 9 1.40625ZM16.0031 6.22758C15.9519 5.97556 15.8142 5.74934 15.614 5.58797C15.4137 5.42661 15.1634 5.34023 14.9063 5.34375H3.09375C2.83754 5.34408 2.58912 5.43186 2.38958 5.59257C2.19003 5.75327 2.05132 5.97727 1.99638 6.22752C1.94145 6.47778 1.97357 6.73928 2.08746 6.96879C2.20134 7.1983 2.39015 7.38207 2.62266 7.48969H2.62688L6.41602 9.1582L4.87477 15.0152C4.75715 15.2843 4.7494 15.5887 4.85319 15.8634C4.95698 16.1381 5.16408 16.3614 5.43024 16.4855C5.57893 16.5564 5.74152 16.5934 5.90625 16.5938C6.11816 16.5937 6.32576 16.5339 6.50514 16.421C6.68451 16.3082 6.82838 16.147 6.92016 15.956L9 12.375L11.0798 15.9609C11.2092 16.2241 11.4362 16.4263 11.7125 16.5246C11.9888 16.6229 12.2925 16.6094 12.559 16.487C12.8254 16.3646 13.0336 16.143 13.1391 15.8694C13.2446 15.5958 13.2391 15.2919 13.1238 15.0223L11.5826 9.16524L15.3795 7.49461C15.6152 7.38968 15.8066 7.20545 15.9206 6.97396C16.0345 6.74248 16.0637 6.47837 16.0031 6.22758ZM15.1446 6.97711L11.1368 8.74266C11.0755 8.76959 11.0258 8.81754 10.9966 8.87787C10.9675 8.93819 10.9609 9.00693 10.9779 9.07172L12.5859 15.1833C12.5902 15.1994 12.5958 15.2152 12.6028 15.2304C12.6658 15.3656 12.6726 15.5203 12.6215 15.6605C12.5705 15.8006 12.4659 15.9148 12.3307 15.9778C12.1955 16.0408 12.0408 16.0476 11.9006 15.9965C11.7605 15.9455 11.6463 15.8409 11.5833 15.7057C11.58 15.6982 11.5762 15.6909 11.572 15.6839L9.24329 11.6719C9.21856 11.6293 9.18308 11.5939 9.14038 11.5693C9.09768 11.5447 9.04928 11.5317 9 11.5317C8.95073 11.5317 8.90232 11.5447 8.85963 11.5693C8.81693 11.5939 8.78145 11.6293 8.75672 11.6719L6.42797 15.6839C6.4238 15.6909 6.42005 15.6982 6.41672 15.7057C6.38619 15.7737 6.34245 15.835 6.28804 15.8859C6.23362 15.9369 6.16963 15.9765 6.09976 16.0025C6.0299 16.0285 5.95556 16.0404 5.88108 16.0374C5.80659 16.0344 5.73344 16.0167 5.66588 15.9852C5.59831 15.9537 5.53768 15.909 5.48751 15.8539C5.43734 15.7988 5.39863 15.7342 5.37363 15.664C5.34863 15.5938 5.33784 15.5193 5.34188 15.4448C5.34593 15.3704 5.36473 15.2975 5.39719 15.2304C5.40416 15.2152 5.40981 15.1994 5.41407 15.1833L7.02211 9.07031C7.03916 9.00553 7.03251 8.93678 7.00338 8.87646C6.97425 8.81613 6.92454 8.76819 6.86321 8.74125L2.85539 6.97711C2.74013 6.92252 2.64684 6.83038 2.59083 6.71581C2.53481 6.60123 2.51939 6.47102 2.5471 6.34653C2.57481 6.22204 2.64401 6.11067 2.74333 6.03067C2.84266 5.95067 2.96622 5.9068 3.09375 5.90625H14.9063C15.0339 5.90648 15.1577 5.95013 15.2573 6.03001C15.3568 6.1099 15.4263 6.22128 15.4541 6.34585C15.482 6.47042 15.4667 6.60077 15.4107 6.71549C15.3547 6.83021 15.2614 6.92247 15.146 6.97711H15.1446Z" fill="white"/>
</svg>
