<svg width="22" height="21" viewBox="0 0 22 21" fill="none" xmlns="http://www.w3.org/2000/svg">
<path d="M1.4 0.420044C1.2727 0.420057 1.15062 0.470632 1.0606 0.560647C0.970589 0.650661 0.920013 0.772744 0.92 0.900044V8.10004C0.920013 8.22734 0.970589 8.34943 1.0606 8.43944C1.15062 8.52946 1.2727 8.58003 1.4 8.58004H4.28V12.42H3.87031C3.84393 12.4163 3.81727 12.4147 3.79063 12.4154C3.77274 12.4159 3.7549 12.4175 3.73719 12.42H1.4C1.2727 12.4201 1.15062 12.4706 1.0606 12.5606C0.970589 12.6507 0.920013 12.7727 0.92 12.9V17.6269C0.91112 17.6797 0.91112 17.7335 0.92 17.7863V20.0269C0.907283 20.1024 0.912804 20.1798 0.936103 20.2528C0.959401 20.3257 0.999802 20.392 1.05393 20.4461C1.10806 20.5002 1.17436 20.5406 1.24728 20.5639C1.3202 20.5872 1.39764 20.5928 1.47313 20.58H8.6C8.7273 20.58 8.84938 20.5295 8.9394 20.4394C9.02941 20.3494 9.07999 20.2273 9.08 20.1V17.761C9.0861 17.7171 9.0861 17.6726 9.08 17.6288V17.22H12.92V20.1C12.92 20.2273 12.9706 20.3494 13.0606 20.4394C13.1506 20.5295 13.2727 20.58 13.4 20.58H20.6C20.7273 20.58 20.8494 20.5295 20.9394 20.4394C21.0294 20.3494 21.08 20.2273 21.08 20.1V12.9C21.08 12.7727 21.0294 12.6507 20.9394 12.5606C20.8494 12.4706 20.7273 12.4201 20.6 12.42H17.72V8.58004H20.6C20.7273 8.58003 20.8494 8.52946 20.9394 8.43944C21.0294 8.34943 21.08 8.22734 21.08 8.10004V0.900044C21.08 0.772744 21.0294 0.650661 20.9394 0.560647C20.8494 0.470632 20.7273 0.420057 20.6 0.420044H13.4C13.2727 0.420057 13.1506 0.470632 13.0606 0.560647C12.9706 0.650661 12.92 0.772744 12.92 0.900044V3.78004H9.08V0.900044C9.07999 0.772744 9.02941 0.650661 8.9394 0.560647C8.84938 0.470632 8.7273 0.420057 8.6 0.420044H1.4ZM1.88 1.38004H8.12V6.70504V7.62004H1.88V1.38004ZM13.88 1.38004H20.12V7.62004H13.88V6.48004V1.38004ZM9.08 4.74004H12.92V6.48004V8.10004C12.92 8.22734 12.9706 8.34943 13.0606 8.43944C13.1506 8.52946 13.2727 8.58003 13.4 8.58004H16.76V12.42H15.29H13.4C13.2727 12.4201 13.1506 12.4706 13.0606 12.5606C12.9706 12.6507 12.92 12.7727 12.92 12.9V16.26H9.08V15.361C9.0861 15.3171 9.0861 15.2726 9.08 15.2288V14.655V12.9C9.07999 12.7727 9.02941 12.6507 8.9394 12.5606C8.84938 12.4706 8.7273 12.4201 8.6 12.42H6.27031C6.24393 12.4163 6.21727 12.4147 6.19063 12.4154C6.17274 12.4159 6.1549 12.4175 6.13719 12.42H5.24V8.58004H8.6C8.7273 8.58003 8.84938 8.52946 8.9394 8.43944C9.02941 8.34943 9.07999 8.22734 9.08 8.10004V6.70504V4.74004ZM1.88 13.38H2.64125L1.88 14.1413V13.38ZM3.99875 13.38H5.04125L1.88 16.5413V15.4988C1.88126 15.4976 1.88251 15.4963 1.88375 15.495L3.99875 13.38ZM6.39875 13.38H7.44125L1.88 18.9413V17.8988L6.39875 13.38ZM13.88 13.38H15.29H20.12V19.62H13.88V13.38ZM8.12 14.0588V14.655V15.1013L3.65281 19.5685C3.63628 19.5845 3.62093 19.6018 3.60688 19.62H2.55875L8.12 14.0588ZM8.12 16.4588V17.5013L6.05281 19.5685C6.03628 19.5845 6.02093 19.6018 6.00688 19.62H4.95875L8.12 16.4588ZM8.12 18.8588V19.62H7.35875L8.12 18.8588Z" fill="#222431"/>
</svg>
