<svg width="20" height="20" viewBox="0 0 20 20" fill="none" xmlns="http://www.w3.org/2000/svg">
<path d="M10.0002 14.583C10.2599 14.583 10.4777 14.495 10.6537 14.319C10.8297 14.143 10.9174 13.9255 10.9168 13.6663V9.97676C10.9168 9.71704 10.8288 9.50315 10.6528 9.33509C10.4768 9.16704 10.2593 9.08301 10.0002 9.08301C9.74044 9.08301 9.52258 9.17101 9.34658 9.34701C9.17058 9.52301 9.08288 9.74056 9.0835 9.99967V13.6893C9.0835 13.949 9.1715 14.1629 9.3475 14.3309C9.5235 14.499 9.74105 14.583 10.0002 14.583ZM10.0002 7.24967C10.2599 7.24967 10.4777 7.16167 10.6537 6.98567C10.8297 6.80967 10.9174 6.59212 10.9168 6.33301C10.9168 6.07329 10.8288 5.85542 10.6528 5.67942C10.4768 5.50342 10.2593 5.41573 10.0002 5.41634C9.74044 5.41634 9.52258 5.50434 9.34658 5.68034C9.17058 5.85634 9.08288 6.0739 9.0835 6.33301C9.0835 6.59273 9.1715 6.81059 9.3475 6.98659C9.5235 7.16259 9.74105 7.25029 10.0002 7.24967ZM10.0002 19.1663C8.73211 19.1663 7.54044 18.9256 6.42516 18.444C5.30989 17.9625 4.33975 17.3095 3.51475 16.4851C2.68975 15.6601 2.03677 14.69 1.55583 13.5747C1.07489 12.4594 0.834107 11.2677 0.833496 9.99967C0.833496 8.73162 1.07427 7.53995 1.55583 6.42467C2.03739 5.3094 2.69036 4.33926 3.51475 3.51426C4.33975 2.68926 5.30989 2.03629 6.42516 1.55534C7.54044 1.0744 8.73211 0.833619 10.0002 0.833008C11.2682 0.833008 12.4599 1.07379 13.5752 1.55534C14.6904 2.0369 15.6606 2.68987 16.4856 3.51426C17.3106 4.33926 17.9639 5.3094 18.4454 6.42467C18.927 7.53995 19.1674 8.73162 19.1668 9.99967C19.1668 11.2677 18.9261 12.4594 18.4445 13.5747C17.9629 14.69 17.31 15.6601 16.4856 16.4851C15.6606 17.3101 14.6904 17.9634 13.5752 18.4449C12.4599 18.9265 11.2682 19.167 10.0002 19.1663Z" fill="#29C5F6"/>
</svg>
