<svg width="30" height="30" viewBox="0 0 30 30" fill="none" xmlns="http://www.w3.org/2000/svg">
<path d="M19.1875 25L16.75 27.4062C16.2708 27.8854 15.6875 28.125 15 28.125C14.3125 28.125 13.7292 27.8854 13.25 27.4062L10.8125 25H7.5C6.8125 25 6.22375 24.755 5.73375 24.265C5.24375 23.775 4.99917 23.1867 5 22.5V19.1875L2.59375 16.75C2.11458 16.2708 1.875 15.6875 1.875 15C1.875 14.3125 2.11458 13.7292 2.59375 13.25L5 10.8125V7.5C5 6.8125 5.245 6.22375 5.735 5.73375C6.225 5.24375 6.81333 4.99917 7.5 5H10.8125L13.25 2.59375C13.7292 2.11458 14.3125 1.875 15 1.875C15.6875 1.875 16.2708 2.11458 16.75 2.59375L19.1875 5H22.5C23.1875 5 23.7763 5.245 24.2663 5.735C24.7563 6.225 25.0008 6.81333 25 7.5V10.8125L27.4062 13.25C27.8854 13.7292 28.125 14.3125 28.125 15C28.125 15.6875 27.8854 16.2708 27.4062 16.75L25 19.1875V22.5C25 23.1875 24.755 23.7763 24.265 24.2663C23.775 24.7563 23.1867 25.0008 22.5 25H19.1875ZM15 18.0938L17.4063 19.5312C17.6354 19.6771 17.8592 19.6721 18.0775 19.5162C18.2958 19.3604 18.3742 19.1467 18.3125 18.875L17.6875 16.1563L19.8125 14.3125C20.0208 14.125 20.0833 13.9013 20 13.6413C19.9167 13.3813 19.7292 13.2404 19.4375 13.2187L16.6562 13L15.5625 10.4062C15.4583 10.1562 15.2708 10.0312 15 10.0312C14.7292 10.0312 14.5417 10.1562 14.4375 10.4062L13.3438 13L10.5625 13.2187C10.2708 13.2396 10.0833 13.3804 10 13.6413C9.91667 13.9021 9.97917 14.1258 10.1875 14.3125L12.3125 16.1563L11.6875 18.875C11.625 19.1458 11.7033 19.3596 11.9225 19.5162C12.1417 19.6729 12.3654 19.6779 12.5937 19.5312L15 18.0938Z" fill="#FF699D"/>
</svg>
