<svg width="24" height="24" viewBox="0 0 24 24" fill="none" xmlns="http://www.w3.org/2000/svg">
<path fill-rule="evenodd" clip-rule="evenodd" d="M12.0001 1.25C9.94464 1.25 7.97339 2.06652 6.51999 3.51992C5.06658 4.97333 4.25006 6.94457 4.25006 9V9.704C4.25001 10.4009 4.04367 11.0822 3.65706 11.662L2.51006 13.385C1.17606 15.385 2.19406 18.103 4.51306 18.735C5.26806 18.941 6.03006 19.115 6.79706 19.258L6.79906 19.263C7.56706 21.315 9.62206 22.75 12.0001 22.75C14.3781 22.75 16.4331 21.315 17.2021 19.263L17.2041 19.258C17.9723 19.1151 18.7342 18.9406 19.4881 18.735C21.8071 18.103 22.8251 15.385 21.4911 13.385L20.3431 11.662C19.9565 11.0822 19.7501 10.4009 19.7501 9.704V9C19.7501 6.94457 18.9335 4.97333 17.4801 3.51992C16.0267 2.06652 14.0555 1.25 12.0001 1.25ZM15.3761 19.537C13.133 19.805 10.8661 19.805 8.62306 19.537C9.33406 20.558 10.5711 21.25 12.0001 21.25C13.4291 21.25 14.6651 20.558 15.3761 19.537ZM5.75006 9C5.75006 7.3424 6.40854 5.75268 7.58065 4.58058C8.75275 3.40848 10.3425 2.75 12.0001 2.75C13.6577 2.75 15.2474 3.40848 16.4195 4.58058C17.5916 5.75268 18.2501 7.3424 18.2501 9V9.704C18.2501 10.697 18.5441 11.668 19.0951 12.494L20.2431 14.217C20.421 14.4834 20.5329 14.7883 20.5698 15.1065C20.6066 15.4247 20.5672 15.7471 20.4549 16.0471C20.3425 16.3471 20.1605 16.6161 19.9237 16.8319C19.6869 17.0476 19.4022 17.204 19.0931 17.288C14.4489 18.5546 9.55026 18.5546 4.90606 17.288C4.59723 17.2037 4.31284 17.0473 4.0763 16.8316C3.83977 16.6158 3.65786 16.347 3.54556 16.0472C3.43327 15.7475 3.39379 15.4253 3.43039 15.1073C3.46699 14.7892 3.57861 14.4844 3.75606 14.218L4.90606 12.494C5.4566 11.6677 5.75027 10.6969 5.75006 9.704V9Z" fill="black"/>
</svg>
