<svg width="18" height="18" viewBox="0 0 18 18" fill="none" xmlns="http://www.w3.org/2000/svg">
<g clip-path="url(#clip0_607_1030)">
<path d="M9 1.5C4.85775 1.5 1.5 4.85775 1.5 9C1.5 13.1422 4.85775 16.5 9 16.5C13.1422 16.5 16.5 13.1422 16.5 9C16.5 4.85775 13.1422 1.5 9 1.5Z" stroke="white" stroke-width="1.5" stroke-linecap="round" stroke-linejoin="round"/>
<path d="M3.20337 13.7595C3.20337 13.7595 4.87512 11.625 9.00012 11.625C13.1251 11.625 14.7976 13.7595 14.7976 13.7595M9.00012 9C9.59686 9 10.1692 8.76295 10.5911 8.34099C11.0131 7.91903 11.2501 7.34674 11.2501 6.75C11.2501 6.15326 11.0131 5.58097 10.5911 5.15901C10.1692 4.73705 9.59686 4.5 9.00012 4.5C8.40338 4.5 7.83109 4.73705 7.40913 5.15901C6.98717 5.58097 6.75012 6.15326 6.75012 6.75C6.75012 7.34674 6.98717 7.91903 7.40913 8.34099C7.83109 8.76295 8.40338 9 9.00012 9Z" stroke="white" stroke-width="1.5" stroke-linecap="round" stroke-linejoin="round"/>
</g>
<defs>
<clipPath id="clip0_607_1030">
<rect width="18" height="18" fill="white"/>
</clipPath>
</defs>
</svg>
