<svg width="13" height="13" viewBox="0 0 13 13" fill="none" xmlns="http://www.w3.org/2000/svg">
<path d="M2.70833 10.2917H7.58333V8.125C7.58333 7.97153 7.63533 7.84279 7.73933 7.73879C7.84297 7.63515 7.97153 7.58333 8.125 7.58333H10.2917V2.70833H2.70833V10.2917ZM2.70833 11.375C2.41042 11.375 2.15529 11.269 1.94296 11.057C1.73099 10.8447 1.625 10.5896 1.625 10.2917V2.70833C1.625 2.41042 1.73099 2.15529 1.94296 1.94296C2.15529 1.73099 2.41042 1.625 2.70833 1.625H10.2917C10.5896 1.625 10.8447 1.73099 11.057 1.94296C11.269 2.15529 11.375 2.41042 11.375 2.70833V8.125L8.125 11.375H2.70833ZM4.33333 7.58333C4.17986 7.58333 4.05113 7.53133 3.94713 7.42733C3.84349 7.32369 3.79167 7.19514 3.79167 7.04167C3.79167 6.88819 3.84349 6.75946 3.94713 6.65546C4.05113 6.55182 4.17986 6.5 4.33333 6.5H5.95833C6.11181 6.5 6.24054 6.55182 6.34454 6.65546C6.44818 6.75946 6.5 6.88819 6.5 7.04167C6.5 7.19514 6.44818 7.32369 6.34454 7.42733C6.24054 7.53133 6.11181 7.58333 5.95833 7.58333H4.33333ZM4.33333 5.41667C4.17986 5.41667 4.05113 5.36467 3.94713 5.26067C3.84349 5.15703 3.79167 5.02847 3.79167 4.875C3.79167 4.72153 3.84349 4.59279 3.94713 4.48879C4.05113 4.38515 4.17986 4.33333 4.33333 4.33333H8.66667C8.82014 4.33333 8.94869 4.38515 9.05233 4.48879C9.15633 4.59279 9.20833 4.72153 9.20833 4.875C9.20833 5.02847 9.15633 5.15703 9.05233 5.26067C8.94869 5.36467 8.82014 5.41667 8.66667 5.41667H4.33333Z" fill="white"/>
</svg>
