<svg width="16" height="16" viewBox="0 0 16 16" fill="none" xmlns="http://www.w3.org/2000/svg">
<path d="M8.03039 0.700227C7.50539 0.700227 7.01508 0.939289 6.59714 1.33076C6.17927 1.72232 5.82152 2.26763 5.5233 2.92816C5.4608 3.06654 5.40111 3.21035 5.34405 3.3587C5.19017 3.33427 5.03563 3.3142 4.88061 3.29851C4.7003 3.28054 4.52436 3.26938 4.35342 3.26538C3.8403 3.2532 3.37133 3.30523 2.9603 3.42982C2.4123 3.59598 1.96011 3.90116 1.69761 4.35576C1.43511 4.81045 1.39699 5.35463 1.52708 5.91232C1.65724 6.46998 1.95058 7.05245 2.37355 7.64101C2.4623 7.76445 2.55711 7.88826 2.65717 8.01204C2.55928 8.13288 2.46482 8.25648 2.37392 8.38266C1.95092 8.9712 1.65758 9.55366 1.52745 10.1114C1.39733 10.669 1.43549 11.2132 1.69799 11.6678C1.96049 12.1225 2.41267 12.4277 2.96067 12.5938C3.5087 12.7599 4.15983 12.7971 4.88099 12.7251C5.03217 12.7099 5.18661 12.6898 5.34373 12.665C5.3995 12.8104 5.45938 12.9543 5.5233 13.0963C5.82152 13.7569 6.17923 14.3022 6.59714 14.6937C7.01505 15.0852 7.50542 15.3243 8.03039 15.3243C8.55533 15.3243 9.0457 15.0852 9.46361 14.6937C9.88148 14.3021 10.2392 13.7569 10.5375 13.0963C10.6014 12.9543 10.6612 12.8105 10.717 12.6651C10.874 12.6898 11.0283 12.71 11.1793 12.7251C11.9005 12.7971 12.5517 12.7599 13.0996 12.5938C13.6477 12.4276 14.0999 12.1224 14.3624 11.6678C14.6249 11.2131 14.663 10.669 14.5329 10.1114C14.4028 9.55369 14.1094 8.97123 13.6865 8.38266C13.5955 8.25649 13.5011 8.1329 13.4032 8.01204C13.5012 7.89109 13.5958 7.76737 13.6868 7.64104C14.1098 7.05248 14.4031 6.47001 14.5332 5.91235C14.6634 5.35466 14.6252 4.81048 14.3627 4.35579C14.1002 3.9012 13.648 3.59601 13.1 3.42985C12.689 3.30526 12.22 3.25323 11.707 3.26538C11.5359 3.26938 11.3599 3.28054 11.1796 3.29851C11.0284 3.31363 10.8738 3.33391 10.7166 3.35866C10.6609 3.21351 10.6011 3.06996 10.5373 2.92816C10.2391 2.26754 9.88139 1.72223 9.46348 1.33073C9.04558 0.939227 8.5552 0.700195 8.03027 0.700195L8.03039 0.700227ZM8.03039 1.2842C8.38055 1.2842 8.72389 1.43804 9.06433 1.75701C9.40473 2.07591 9.72986 2.55866 10.0052 3.16848C10.0499 3.26797 10.0925 3.36845 10.1329 3.46982C9.46358 3.61863 8.75473 3.84695 8.0302 4.15201C7.30583 3.84701 6.59708 3.61876 5.92792 3.46995C5.96923 3.36651 6.01167 3.2657 6.05561 3.16845C6.33092 2.5586 6.65605 2.07585 6.99648 1.75688C7.33692 1.43798 7.68023 1.28413 8.03045 1.28413L8.03039 1.2842ZM4.1682 3.84848C4.22458 3.84791 4.28186 3.84829 4.34002 3.8496C4.49502 3.85304 4.65617 3.86304 4.82261 3.8797C4.92905 3.89032 5.03783 3.90391 5.14836 3.91995C4.94255 4.57391 4.78586 5.30188 4.68767 6.08182C4.06117 6.55682 3.50899 7.05663 3.04549 7.56191C2.97765 7.47612 2.91173 7.38882 2.84777 7.3001C2.4573 6.75679 2.20183 6.23385 2.0958 5.77954C1.9898 5.32523 2.0283 4.95101 2.20336 4.64776C2.37842 4.34451 2.68336 4.1241 3.12974 3.98876C3.4227 3.89991 3.77349 3.85204 4.16817 3.84845L4.1682 3.84848ZM11.8922 3.84848C12.2869 3.85207 12.6377 3.89995 12.9306 3.98879C13.3771 4.1241 13.6819 4.34451 13.857 4.64776C14.032 4.95101 14.0706 5.32526 13.9646 5.77954C13.8586 6.23382 13.603 6.75679 13.2126 7.3001C13.1487 7.38883 13.0828 7.47615 13.015 7.56198C12.5515 7.05676 11.9995 6.55707 11.3732 6.08213C11.275 5.30207 11.1182 4.57401 10.9124 3.91995C11.0228 3.90391 11.1314 3.89026 11.2378 3.8797C11.3982 3.86344 11.5592 3.85339 11.7204 3.84957C11.7777 3.84827 11.8349 3.84788 11.8922 3.84841V3.84848ZM10.3322 4.02473C10.4875 4.50716 10.6161 5.03948 10.7121 5.6091C10.402 5.39967 10.0847 5.20127 9.76064 5.01426C9.43684 4.82721 9.10653 4.65165 8.77033 4.48791C9.31158 4.2862 9.8368 4.13145 10.3322 4.02479V4.02473ZM5.72855 4.02482C6.22386 4.13151 6.74902 4.28626 7.29011 4.48795C6.95392 4.65168 6.62361 4.82723 6.2998 5.01426C5.97589 5.20119 5.65867 5.39948 5.34874 5.60876C5.44467 5.03929 5.57324 4.50713 5.72855 4.02482ZM8.0302 4.7892C8.50542 4.99882 8.9878 5.24245 9.46864 5.52007C9.94967 5.79782 10.4021 6.09382 10.8213 6.4007C10.8774 6.91716 10.9076 7.45688 10.9076 8.01226C10.9076 8.56732 10.8775 9.10682 10.8214 9.62307C10.4022 9.92988 9.94986 10.2258 9.46898 10.5035C8.98805 10.7812 8.50555 11.0249 8.03023 11.2345C7.55486 11.0249 7.07236 10.7812 6.59142 10.5035C6.11064 10.2259 5.65848 9.93007 5.23942 9.62338C5.18333 9.10704 5.15317 8.56745 5.15317 8.01223C5.15317 7.45676 5.18333 6.91698 5.23949 6.40045C5.65864 6.09366 6.11089 5.7977 6.59177 5.52007C7.07264 5.24248 7.55502 4.99882 8.0302 4.78926V4.7892ZM8.0697 5.66782L6.39777 6.6996L8.0697 7.73148L9.74164 6.6996L8.0697 5.66779V5.66782ZM4.60845 6.89076C4.58218 7.26398 4.56908 7.63802 4.56917 8.01216C4.56917 8.39335 4.58261 8.76754 4.60848 9.13291C4.16317 8.7651 3.76652 8.3876 3.42639 8.01188C3.76652 7.6362 4.16314 7.25863 4.60845 6.89076ZM11.4524 6.89107C11.8975 7.25888 12.294 7.63629 12.634 8.01191C12.294 8.38754 11.8975 8.76495 11.4524 9.13266C11.4786 8.75975 11.4917 8.38603 11.4916 8.0122C11.4916 7.63082 11.4782 7.25657 11.4523 6.89107H11.4524ZM6.02111 7.15338V9.19082L7.77705 10.2745V8.23713L6.02111 7.15338ZM10.1167 7.15445L8.36114 8.23788V10.2743L10.1167 9.19082V7.15445H10.1167ZM3.04542 8.46195C3.50899 8.96726 4.06111 9.46694 4.68755 9.94195C4.78567 10.7218 4.94242 11.4497 5.14817 12.1037C5.03786 12.1196 4.92923 12.1333 4.82298 12.1439C4.15723 12.2104 3.57652 12.1701 3.13011 12.0348C2.68367 11.8995 2.37886 11.679 2.20377 11.3758C2.0287 11.0725 1.99017 10.6983 2.09617 10.244C2.20217 9.7897 2.45767 9.26673 2.84814 8.72341C2.91197 8.63481 2.97772 8.54763 3.04542 8.46195ZM13.0149 8.46204C13.0839 8.54954 13.1499 8.63673 13.2122 8.72341C13.6026 9.2667 13.8581 9.78966 13.9641 10.2439C14.0701 10.6982 14.0317 11.0724 13.8566 11.3757C13.6815 11.679 13.3766 11.8995 12.9302 12.0348C12.4838 12.1701 11.9032 12.2103 11.2375 12.1439C11.1289 12.1328 11.0206 12.1194 10.9126 12.1037C11.1184 11.4496 11.2751 10.7215 11.3732 9.94151C11.9995 9.46663 12.5515 8.96707 13.015 8.46198L13.0149 8.46204ZM10.7122 10.4146C10.6163 10.9842 10.4877 11.5165 10.3324 11.9989C9.83695 11.8923 9.31167 11.7374 8.77039 11.5357C9.10668 11.3719 9.4371 11.1963 9.76102 11.0092C10.085 10.8223 10.4023 10.6239 10.7123 10.4146H10.7122ZM5.34861 10.4149C5.65844 10.6242 5.97555 10.8224 6.29936 11.0092C6.62329 11.1963 6.9537 11.3719 7.28998 11.5357C6.74886 11.7374 6.22374 11.8922 5.72833 11.9989C5.57302 11.5165 5.44455 10.9844 5.34861 10.4149ZM8.04767 10.4415L8.06892 10.4546L8.09008 10.4415H8.0477H8.04767ZM8.03017 11.8717C8.75486 12.1767 9.46374 12.405 10.1331 12.5538C10.0927 12.6555 10.05 12.7562 10.0052 12.856C9.72986 13.4658 9.40474 13.9485 9.0643 14.2674C8.72389 14.5864 8.38055 14.7403 8.03039 14.7403C7.6802 14.7403 7.33686 14.5864 6.99645 14.2674C6.65605 13.9485 6.33092 13.4658 6.05561 12.8559C6.01075 12.7562 5.96808 12.6554 5.92764 12.5538C6.59689 12.4049 7.3057 12.1767 8.03023 11.8717H8.03017Z" fill="white"/>
</svg>
