<svg width="28" height="28" viewBox="0 0 28 28" fill="none" xmlns="http://www.w3.org/2000/svg">
<path d="M16.3591 18.6911C16.9281 18.2467 17.3891 17.672 17.7057 17.0124C18.0223 16.3527 18.1859 15.6262 18.1836 14.8902C18.1836 13.6176 17.6933 12.3971 16.8207 11.4972C15.9481 10.5973 14.7646 10.0918 13.5305 10.0918C12.2965 10.0918 11.113 10.5973 10.2403 11.4972C9.36773 12.3971 8.8775 13.6176 8.8775 14.8902C8.87512 15.6262 9.03871 16.3527 9.35535 17.0124C9.67199 17.672 10.133 18.2467 10.702 18.6911C9.25469 19.2539 7.99309 20.2307 7.06527 21.507C6.94836 21.6677 6.89816 21.8698 6.92572 22.0687C6.95328 22.2676 7.05633 22.4471 7.21221 22.5677C7.36809 22.6883 7.56403 22.74 7.75692 22.7116C7.94982 22.6832 8.12386 22.5769 8.24078 22.4162C8.85668 21.5693 9.65533 20.8819 10.5735 20.4085C11.4916 19.9351 12.504 19.6886 13.5305 19.6886C14.557 19.6886 15.5695 19.9351 16.4876 20.4085C17.4057 20.8819 18.2044 21.5693 18.8203 22.4162C18.9372 22.5769 19.1112 22.6832 19.3041 22.7116C19.497 22.74 19.693 22.6883 19.8488 22.5677C19.926 22.508 19.9911 22.4332 20.0402 22.3476C20.0894 22.262 20.1217 22.1672 20.1353 22.0687C20.149 21.9702 20.1437 21.8699 20.1197 21.7735C20.0958 21.6772 20.0537 21.5866 19.9958 21.507C19.068 20.2307 17.8064 19.2539 16.3591 18.6911ZM13.5305 11.6071C14.1602 11.6071 14.7757 11.7996 15.2993 12.1604C15.8228 12.5211 16.2309 13.0339 16.4718 13.6338C16.7128 14.2337 16.7758 14.8938 16.653 15.5307C16.5302 16.1676 16.2269 16.7526 15.7817 17.2117C15.3365 17.6709 14.7692 17.9836 14.1516 18.1102C13.5341 18.2369 12.8939 18.1719 12.3122 17.9234C11.7305 17.6749 11.2332 17.2541 10.8834 16.7142C10.5336 16.1743 10.3469 15.5395 10.3469 14.8902C10.3501 14.0205 10.6866 13.1873 11.2829 12.5723C11.8793 11.9574 12.6872 11.6104 13.5305 11.6071ZM22.3468 1H4.71427C4.25962 1 3.82359 1.18625 3.5021 1.51779C3.18061 1.84932 3 2.29898 3 2.76784V24.9922C3 25.461 3.18061 25.9107 3.5021 26.2422C3.82359 26.5737 4.25962 26.76 4.71427 26.76H22.3468C22.8014 26.76 23.2375 26.5737 23.559 26.2422C23.8804 25.9107 24.0611 25.461 24.0611 24.9922V2.76784C24.0611 2.29898 23.8804 1.84932 23.559 1.51779C23.2375 1.18625 22.8014 1 22.3468 1ZM22.5917 24.9922C22.5917 25.0591 22.5659 25.1234 22.52 25.1707C22.474 25.2181 22.4117 25.2447 22.3468 25.2447H4.71427C4.64932 25.2447 4.58703 25.2181 4.5411 25.1707C4.49518 25.1234 4.46938 25.0591 4.46938 24.9922V2.76784C4.46938 2.70086 4.49518 2.63663 4.5411 2.58926C4.58703 2.5419 4.64932 2.51529 4.71427 2.51529H22.3468C22.4117 2.51529 22.474 2.5419 22.52 2.58926C22.5659 2.63663 22.5917 2.70086 22.5917 2.76784V24.9922ZM8.8775 5.79843C8.8775 5.59749 8.95491 5.40478 9.09269 5.26269C9.23047 5.12061 9.41734 5.04078 9.61219 5.04078H17.4489C17.6437 5.04078 17.8306 5.12061 17.9684 5.26269C18.1061 5.40478 18.1836 5.59749 18.1836 5.79843C18.1836 5.99937 18.1061 6.19208 17.9684 6.33417C17.8306 6.47625 17.6437 6.55608 17.4489 6.55608H9.61219C9.41734 6.55608 9.23047 6.47625 9.09269 6.33417C8.95491 6.19208 8.8775 5.99937 8.8775 5.79843Z" fill="#222431"/>
</svg>
