<svg width="24" height="25" viewBox="0 0 24 25" fill="none" xmlns="http://www.w3.org/2000/svg">
<path d="M12 1.42151C5.88726 1.42151 0.92157 6.3872 0.92157 12.4999C0.92157 18.6127 5.88726 23.5784 12 23.5784C18.1128 23.5784 23.0784 18.6127 23.0784 12.4999C23.0784 6.3872 18.1128 1.42151 12 1.42151ZM11.52 2.43776V7.20588C10.2876 7.1768 9.1159 7.039 8.03532 6.81307C8.22559 6.23667 8.44182 5.70101 8.6822 5.22026C9.4756 3.63344 10.4819 2.66765 11.52 2.43776ZM12.48 2.43776C13.5181 2.66765 14.5244 3.63344 15.3178 5.22026C15.559 5.70255 15.7759 6.24017 15.9666 6.8187C14.8873 7.04236 13.714 7.17741 12.48 7.20588V2.43776ZM9.20251 2.77526C8.68152 3.32104 8.21695 4.00387 7.82345 4.79088C7.54921 5.33936 7.30866 5.94445 7.09876 6.58995C6.15646 6.33592 5.30429 6.01628 4.56844 5.64495C5.80681 4.30285 7.39732 3.29259 9.20251 2.77526ZM14.7975 2.77526C16.6009 3.29209 18.19 4.30105 19.4278 5.6412C18.7028 6.01931 17.8516 6.34255 16.9041 6.59745C16.6936 5.9491 16.4519 5.34148 16.1766 4.79088C15.7831 4.00387 15.3185 3.32104 14.7975 2.77526ZM20.0559 6.3912C21.2546 7.97031 22.0078 9.90629 22.1063 12.0199H17.7666C17.7315 10.4084 17.5256 8.88691 17.1731 7.5237C18.2502 7.23232 19.2209 6.85052 20.0559 6.3912ZM3.93844 6.3987C4.7825 6.84687 5.75487 7.22417 6.82876 7.51526C6.47503 8.88059 6.26855 10.4052 6.23345 12.0199H1.89376C1.99205 9.90962 2.74315 7.97646 3.93844 6.3987ZM7.76438 7.7412C8.93191 7.98962 10.1938 8.13756 11.52 8.16682V12.0199H7.19345C7.22916 10.4779 7.43076 9.02584 7.76438 7.7412ZM16.2375 7.74776C16.5701 9.03079 16.7709 10.4805 16.8066 12.0199H12.48V8.16682C13.8069 8.13838 15.0703 7.99384 16.2375 7.74776ZM1.89376 12.9799H6.23345C6.26848 14.5915 6.47445 16.113 6.82688 17.4762C5.74985 17.7676 4.7791 18.1494 3.94407 18.6087C2.74545 17.0296 1.9922 15.0936 1.89376 12.9799ZM7.19345 12.9799H11.52V16.8331C10.1931 16.8615 8.9297 17.0061 7.76251 17.2521C7.42989 15.9691 7.22909 14.5194 7.19345 12.9799ZM12.48 12.9799H16.8066C16.7709 14.522 16.5693 15.9741 16.2356 17.2587C15.0681 17.0103 13.8062 16.8623 12.48 16.8331V12.9799ZM17.7666 12.9799H22.1063C22.008 15.0903 21.2569 17.0234 20.0616 18.6012C19.2175 18.153 18.2451 17.7757 17.1713 17.4846C17.525 16.1193 17.7315 14.5947 17.7666 12.9799ZM11.52 17.794V22.5621C10.4819 22.3322 9.4756 21.3665 8.6822 19.7796C8.44105 19.2973 8.22415 18.7597 8.03344 18.1812C9.11268 17.9575 10.286 17.8225 11.52 17.794ZM12.48 17.794C13.7124 17.8231 14.8841 17.9609 15.9647 18.1868C15.7744 18.7632 15.5582 19.2989 15.3178 19.7796C14.5244 21.3665 13.5181 22.3322 12.48 22.5621V17.794ZM7.09594 18.4024C7.3064 19.0508 7.54815 19.6584 7.82345 20.209C8.21695 20.996 8.68152 21.6789 9.20251 22.2246C7.39907 21.7078 5.81005 20.6988 4.5722 19.3587C5.29717 18.9806 6.14839 18.6573 7.09594 18.4024ZM16.9013 18.4099C17.8436 18.664 18.6957 18.9836 19.4316 19.3549C18.1932 20.697 16.6027 21.7073 14.7975 22.2246C15.3185 21.6789 15.7831 20.996 16.1766 20.209C16.4508 19.6605 16.6914 19.0554 16.9013 18.4099Z" fill="#8E90A3"/>
</svg>
