<svg width="16" height="15" viewBox="0 0 16 15" fill="none" xmlns="http://www.w3.org/2000/svg">
<path d="M6.068 5.13636L2.2271 8.95454C1.24982 9.93181 1.24982 11.5 2.2271 12.4773C3.20437 13.4545 4.77255 13.4545 5.74982 12.4773L9.63619 8.5909L6.068 5.13636ZM11.9316 6.31817L8.40891 2.79545L6.38619 4.81817L9.97709 8.27272L11.9316 6.31817ZM12.3635 6.11363C12.6362 6.38636 13.068 6.38636 13.3407 6.11363L14.2953 5.15908C14.4316 5.02272 14.4998 4.86363 14.4998 4.68181C14.4998 4.49999 14.4316 4.31817 14.2953 4.20454L10.5453 0.43181C10.2725 0.159083 9.84073 0.159083 9.568 0.43181L8.61346 1.38636C8.34073 1.65908 8.34073 2.0909 8.61346 2.36363L12.3635 6.11363ZM12.3407 7.65908C11.7953 8.3409 10.8862 9.5909 10.8862 10.3182C10.8862 11.3182 11.7044 12.1136 12.6816 12.1136C13.6816 12.1136 14.4998 11.2954 14.4998 10.3182C14.4998 9.5909 13.5907 8.3409 13.0453 7.65908C12.8635 7.43181 12.4998 7.43181 12.3407 7.65908ZM9.61346 11.2045C9.49982 11.2045 9.38619 11.25 9.29528 11.3636C8.79528 11.9773 8.20437 12.8409 8.20437 13.3636C8.20437 14.1364 8.84073 14.7727 9.59073 14.7727C10.3635 14.7727 10.9998 14.1364 10.9998 13.3636C10.9998 12.8409 10.4089 11.9773 9.90891 11.3636C9.86346 11.2727 9.74982 11.2045 9.61346 11.2045Z" fill="#29C5F6"/>
</svg>
