<svg width="12" height="15" viewBox="0 0 12 15" fill="none" xmlns="http://www.w3.org/2000/svg">
<path d="M3.00005 3C3.00005 1.3425 4.34255 0 6.00005 0C7.65755 0 9.00005 1.3425 9.00005 3C9.00005 4.6575 7.65755 6 6.00005 6C4.34255 6 3.00005 4.6575 3.00005 3ZM9.75005 15H10.5C11.325 15 12 14.325 12 13.5V9.915C12 9.075 11.5425 8.3025 10.7925 7.92C10.47 7.755 10.125 7.5975 9.75005 7.455V15ZM6.25505 11.25L8.25005 6.9975C7.55255 6.84 6.80255 6.75 6.00005 6.75C4.10255 6.75 2.46755 7.275 1.20755 7.92C0.841593 8.10849 0.535025 8.3947 0.321873 8.74686C0.108722 9.09902 -0.00267402 9.50336 4.87427e-05 9.915V15H1.75505C1.59005 14.6625 1.50005 14.28 1.50005 13.875C1.50005 12.4275 2.67755 11.25 4.12505 11.25H6.25505ZM4.50005 15L5.55755 12.75H4.12505C3.50255 12.75 3.00005 13.2525 3.00005 13.875C3.00005 14.4975 3.50255 15 4.12505 15H4.50005Z" fill="#219ABF"/>
</svg>
