<svg width="17" height="16" viewBox="0 0 17 16" fill="none" xmlns="http://www.w3.org/2000/svg">
<path d="M7.96676 2.66667C7.37743 2.66667 6.9001 3.144 6.9001 3.73333V12.2667C6.9001 12.856 7.37743 13.3333 7.96676 13.3333H13.3001C13.8894 13.3333 14.3668 12.856 14.3668 12.2667V3.73333C14.3668 3.144 13.8894 2.66667 13.3001 2.66667H7.96676ZM3.16676 3.2C2.87236 3.2 2.63343 3.43893 2.63343 3.73333C2.63343 4.02773 2.87236 4.26667 3.16676 4.26667H5.3001C5.5945 4.26667 5.83343 4.02773 5.83343 3.73333C5.83343 3.43893 5.5945 3.2 5.3001 3.2H3.16676ZM7.96676 3.73333H13.3001V5.86667H7.96676V3.73333ZM2.63343 5.33333C2.33903 5.33333 2.1001 5.57227 2.1001 5.86667C2.1001 6.16107 2.33903 6.4 2.63343 6.4V9.5625C2.63343 9.91877 2.81136 10.2521 3.10843 10.45L3.7001 10.8448V11.7333C3.6991 11.804 3.71215 11.8742 3.73851 11.9398C3.76486 12.0053 3.80399 12.065 3.85361 12.1154C3.90324 12.1657 3.96237 12.2057 4.02757 12.2329C4.09278 12.2602 4.16275 12.2743 4.23343 12.2743C4.30411 12.2743 4.37409 12.2602 4.43929 12.2329C4.50449 12.2057 4.56363 12.1657 4.61325 12.1154C4.66287 12.065 4.702 12.0053 4.72835 11.9398C4.75471 11.8742 4.76776 11.804 4.76676 11.7333V10.8448L5.35843 10.45C5.6555 10.2521 5.83343 9.91877 5.83343 9.5625V5.86667V5.33333H2.63343ZM8.5001 6.93333C8.7945 6.93333 9.03343 7.17227 9.03343 7.46667C9.03343 7.76107 8.7945 8 8.5001 8C8.2057 8 7.96676 7.76107 7.96676 7.46667C7.96676 7.17227 8.2057 6.93333 8.5001 6.93333ZM10.6334 6.93333C10.9278 6.93333 11.1668 7.17227 11.1668 7.46667C11.1668 7.76107 10.9278 8 10.6334 8C10.339 8 10.1001 7.76107 10.1001 7.46667C10.1001 7.17227 10.339 6.93333 10.6334 6.93333ZM12.7668 6.93333C13.0612 6.93333 13.3001 7.17227 13.3001 7.46667C13.3001 7.76107 13.0612 8 12.7668 8C12.4724 8 12.2334 7.76107 12.2334 7.46667C12.2334 7.17227 12.4724 6.93333 12.7668 6.93333ZM8.5001 9.06667C8.7945 9.06667 9.03343 9.3056 9.03343 9.6C9.03343 9.8944 8.7945 10.1333 8.5001 10.1333C8.2057 10.1333 7.96676 9.8944 7.96676 9.6C7.96676 9.3056 8.2057 9.06667 8.5001 9.06667ZM10.6334 9.06667C10.9278 9.06667 11.1668 9.3056 11.1668 9.6C11.1668 9.8944 10.9278 10.1333 10.6334 10.1333C10.339 10.1333 10.1001 9.8944 10.1001 9.6C10.1001 9.3056 10.339 9.06667 10.6334 9.06667ZM12.7668 9.06667C13.0612 9.06667 13.3001 9.3056 13.3001 9.6C13.3001 9.8944 13.0612 10.1333 12.7668 10.1333C12.4724 10.1333 12.2334 9.8944 12.2334 9.6C12.2334 9.3056 12.4724 9.06667 12.7668 9.06667ZM8.5001 11.2C8.7945 11.2 9.03343 11.4389 9.03343 11.7333C9.03343 12.0277 8.7945 12.2667 8.5001 12.2667C8.2057 12.2667 7.96676 12.0277 7.96676 11.7333C7.96676 11.4389 8.2057 11.2 8.5001 11.2ZM10.6334 11.2H12.7668C13.0612 11.2 13.3001 11.4389 13.3001 11.7333C13.3001 12.0277 13.0612 12.2667 12.7668 12.2667H10.6334C10.339 12.2667 10.1001 12.0277 10.1001 11.7333C10.1001 11.4389 10.339 11.2 10.6334 11.2ZM4.23343 13.3333C4.09198 13.3333 3.95633 13.3895 3.85631 13.4895C3.75629 13.5896 3.7001 13.7252 3.7001 13.8667C3.7001 14.0081 3.75629 14.1438 3.85631 14.2438C3.95633 14.3438 4.09198 14.4 4.23343 14.4C4.37488 14.4 4.51054 14.3438 4.61055 14.2438C4.71057 14.1438 4.76676 14.0081 4.76676 13.8667C4.76676 13.7252 4.71057 13.5896 4.61055 13.4895C4.51054 13.3895 4.37488 13.3333 4.23343 13.3333Z" fill="#29C5F6"/>
</svg>
