<svg width="22" height="22" viewBox="0 0 22 22" fill="none" xmlns="http://www.w3.org/2000/svg">
<path d="M4.58333 19.25C4.07917 19.25 3.64742 19.0706 3.28808 18.7119C2.92875 18.3532 2.74939 17.9214 2.75 17.4167V4.58333C2.75 4.07917 2.92967 3.64742 3.289 3.28808C3.64833 2.92875 4.07978 2.74939 4.58333 2.75H14.6667L19.25 7.33333V17.4167C19.25 17.9208 19.0703 18.3526 18.711 18.7119C18.3517 19.0713 17.9202 19.2506 17.4167 19.25H4.58333ZM17.4167 8.25L13.75 4.58333V7.33333C13.75 7.59306 13.838 7.81092 14.014 7.98692C14.19 8.16292 14.4076 8.25061 14.6667 8.25H17.4167ZM7.33334 8.25C7.59306 8.25 7.81092 8.16231 7.98692 7.98692C8.16292 7.81153 8.25061 7.59367 8.25 7.33333C8.25 7.07361 8.162 6.85575 7.986 6.67975C7.81 6.50375 7.59245 6.41606 7.33334 6.41667C7.07361 6.41667 6.85575 6.50467 6.67975 6.68067C6.50375 6.85667 6.41606 7.07422 6.41667 7.33333C6.41667 7.59306 6.50467 7.81092 6.68067 7.98692C6.85667 8.16292 7.07422 8.25061 7.33334 8.25ZM7.33334 11.9167C7.59306 11.9167 7.81092 11.829 7.98692 11.6536C8.16292 11.4782 8.25061 11.2603 8.25 11C8.25 10.7403 8.162 10.5224 7.986 10.3464C7.81 10.1704 7.59245 10.0827 7.33334 10.0833C7.07361 10.0833 6.85575 10.1713 6.67975 10.3473C6.50375 10.5233 6.41606 10.7409 6.41667 11C6.41667 11.2597 6.50467 11.4776 6.68067 11.6536C6.85667 11.8296 7.07422 11.9173 7.33334 11.9167ZM7.33334 15.5833C7.59306 15.5833 7.81092 15.4956 7.98692 15.3203C8.16292 15.1449 8.25061 14.927 8.25 14.6667C8.25 14.4069 8.162 14.1894 7.986 14.014C7.81 13.8386 7.59245 13.7506 7.33334 13.75C7.07361 13.75 6.85575 13.838 6.67975 14.014C6.50375 14.19 6.41606 14.4076 6.41667 14.6667C6.41667 14.9264 6.50467 15.1443 6.68067 15.3203C6.85667 15.4963 7.07422 15.5839 7.33334 15.5833Z" fill="#29C5F6"/>
</svg>
