<svg width="24" height="24" viewBox="0 0 24 24" fill="none" xmlns="http://www.w3.org/2000/svg">
<g clip-path="url(#clip0_49_847)">
<path d="M12 0.963745C5.90848 0.963745 0.960022 5.91221 0.960022 12.0037C0.960022 18.0953 5.90848 23.0437 12 23.0437C18.0916 23.0437 23.04 18.0953 23.04 12.0037C23.04 5.91221 18.0916 0.963745 12 0.963745ZM12 1.92375C17.5727 1.92375 22.08 6.43103 22.08 12.0037C22.08 14.7554 20.9779 17.2444 19.1944 19.0622C18.3161 18.4174 17.2455 18.0939 16.3388 17.7712C15.8281 17.5895 15.369 17.4095 15.0338 17.2087C14.7127 17.0165 14.5345 16.8189 14.4403 16.5919C14.3962 16.0414 14.4052 15.5982 14.4085 15.075C14.4666 15.0171 14.5412 14.9764 14.6006 14.9062C14.7408 14.7408 14.8835 14.5398 15.0197 14.3137C15.2533 13.9261 15.4232 13.452 15.5185 12.9712C15.6639 12.8971 15.8192 12.8811 15.9375 12.7303C16.1559 12.452 16.3033 12.0602 16.3688 11.5144C16.4268 11.0324 16.2715 10.701 16.0716 10.4466C16.2867 9.74344 16.553 8.62528 16.4625 7.46812C16.4128 6.83149 16.2526 6.19068 15.8672 5.65781C15.4993 5.14907 14.902 4.78337 14.1375 4.65093C13.652 4.09966 12.8807 3.84 11.9588 3.84H11.9541H11.9503C9.88502 3.87791 8.55245 4.73272 7.9819 6.03656C7.43936 7.27639 7.55599 8.81988 7.94533 10.4269C7.73604 10.6813 7.57209 11.0191 7.63127 11.5144C7.69696 12.06 7.8443 12.4519 8.06252 12.7303C8.18072 12.8811 8.33609 12.8971 8.48158 12.9712C8.5768 13.4516 8.74679 13.9251 8.98033 14.3128C9.11654 14.5389 9.2591 14.7397 9.3994 14.9053C9.45884 14.9755 9.53336 15.017 9.59158 15.075C9.5947 15.5979 9.60357 16.0409 9.55971 16.5919C9.46576 16.8181 9.28772 17.0158 8.96721 17.2087C8.63254 17.4102 8.17395 17.5913 7.66408 17.7741C6.75833 18.0987 5.68831 18.4245 4.80752 19.0641C3.02288 17.2461 1.92002 14.7564 1.92002 12.0037C1.92002 6.43103 6.42731 1.92375 12 1.92375ZM11.9625 4.80093C12.8477 4.80184 13.4046 5.06393 13.5572 5.33156L13.6744 5.53687L13.9078 5.56874C14.5108 5.65253 14.8477 5.88651 15.0891 6.22031C15.3305 6.5541 15.4644 7.01994 15.5053 7.54312C15.5871 8.58947 15.2876 9.82507 15.0975 10.3969L14.9766 10.7597L15.3038 10.9584C15.2705 10.9382 15.4576 11.0489 15.4153 11.4C15.3641 11.8271 15.255 12.0446 15.1819 12.1378C15.1088 12.231 15.0775 12.2191 15.0853 12.2184L14.6897 12.2512L14.6475 12.6459C14.6113 12.985 14.4206 13.4476 14.1975 13.8178C14.086 14.0029 13.9673 14.1678 13.8675 14.2856C13.7677 14.4034 13.6614 14.4764 13.7016 14.4553L13.4447 14.5894V14.88C13.4447 15.5157 13.4188 16.0355 13.486 16.7756L13.4916 16.8394L13.5141 16.8994C13.703 17.4077 14.0973 17.7664 14.5406 18.0319C14.984 18.2974 15.4927 18.4893 16.0172 18.6759C16.8817 18.9835 17.7828 19.2862 18.4697 19.7334C16.7195 21.1994 14.4651 22.0837 12 22.0837C9.5359 22.0837 7.28214 21.2003 5.53221 19.7353C6.22301 19.2907 7.12549 18.9871 7.98846 18.6778C8.51263 18.4899 9.01997 18.2972 9.46221 18.0309C9.90445 17.7647 10.2973 17.4061 10.486 16.8994L10.5085 16.8394L10.5141 16.7756C10.5807 16.0361 10.5553 15.5161 10.5553 14.88V14.5894L10.2985 14.4544C10.3387 14.4754 10.2324 14.4025 10.1325 14.2847C10.0327 14.1669 9.91406 14.003 9.80252 13.8178C9.57945 13.4475 9.38871 12.9846 9.35252 12.6459L9.31033 12.2512L8.91471 12.2184C8.92213 12.2191 8.89116 12.231 8.81815 12.1378C8.74513 12.0447 8.63614 11.8273 8.58471 11.4C8.54275 11.0489 8.73197 10.9367 8.69627 10.9584L9.00096 10.7737L8.9119 10.4278C8.49888 8.83819 8.43642 7.39181 8.86127 6.42093C9.2857 5.45101 10.1359 4.83565 11.9625 4.80093Z" fill="#8E90A3"/>
</g>
<defs>
<clipPath id="clip0_49_847">
<rect width="24" height="24" fill="white"/>
</clipPath>
</defs>
</svg>
