<svg width="32" height="28" viewBox="0 0 32 28" fill="none" xmlns="http://www.w3.org/2000/svg">
<path d="M5.3512 1.68C5.27679 1.68115 5.20335 1.69713 5.13518 1.72699C5.06701 1.75685 5.00547 1.79999 4.95417 1.85391L3.83417 3.03297C3.73513 3.13711 3.67991 3.27535 3.67995 3.41906V21.28C3.67732 22.3981 3.94324 23.4259 4.50792 24.2288C4.54024 24.2781 4.57017 24.3299 4.60417 24.3775C5.18918 25.1965 6.0549 25.76 7.03995 25.76C7.12155 25.76 7.20071 25.7501 7.28058 25.7425C7.38533 25.7502 7.48963 25.7596 7.59776 25.76C7.59849 25.76 7.59922 25.76 7.59995 25.76H26.08C26.1081 25.7599 26.1363 25.7577 26.1642 25.7534C27.1137 25.7219 27.9477 25.1718 28.5157 24.3764C29.1008 23.5573 29.44 22.4699 29.44 21.28C29.44 20.0901 29.1008 19.0027 28.5157 18.1836C27.9503 17.3919 27.1214 16.8428 26.1773 16.8066C26.1766 16.8065 26.1758 16.8066 26.1751 16.8066C26.1436 16.8017 26.1118 16.7995 26.08 16.8H23.84V2.24C23.8399 2.12927 23.807 2.02103 23.7455 1.92897C23.684 1.83692 23.5965 1.76517 23.4942 1.72279C23.3919 1.68042 23.2793 1.66932 23.1707 1.69091C23.0621 1.71249 22.9623 1.76579 22.884 1.84406L21.0432 3.68813L19.1959 1.84406C19.0909 1.73908 18.9484 1.68011 18.8 1.68011C18.6515 1.68011 18.509 1.73908 18.404 1.84406L16.56 3.68813L14.7159 1.84406C14.6109 1.73908 14.4684 1.68011 14.32 1.68011C14.1715 1.68011 14.029 1.73908 13.924 1.84406L12.08 3.68813L10.2359 1.84406C10.1309 1.73908 9.98845 1.68011 9.83995 1.68011C9.69145 1.68011 9.54904 1.73908 9.44401 1.84406L7.59995 3.68813L5.75589 1.84406C5.70286 1.79101 5.63971 1.74915 5.57019 1.72097C5.50068 1.69278 5.42621 1.67885 5.3512 1.68ZM9.83995 3.03188L11.684 4.87594C11.789 4.98092 11.9315 5.03989 12.08 5.03989C12.2284 5.03989 12.3709 4.98092 12.4759 4.87594L14.32 3.03188L16.164 4.87594C16.269 4.98092 16.4115 5.03989 16.56 5.03989C16.7084 5.03989 16.8509 4.98092 16.9559 4.87594L18.8 3.03188L20.6484 4.87594C20.7534 4.98092 20.8958 5.03989 21.0443 5.03989C21.1928 5.03989 21.3352 4.98092 21.4403 4.87594L22.72 3.59406V16.8H7.03995C6.15883 16.8 5.37461 17.2529 4.79995 17.9342V3.64219L5.36979 3.04172L7.20401 4.87594C7.30904 4.98092 7.45145 5.03989 7.59995 5.03989C7.74845 5.03989 7.89086 4.98092 7.99589 4.87594L9.83995 3.03188ZM7.03995 6.72V7.84H14.88V6.72H7.03995ZM16.56 6.72V7.84H20.48V6.72H16.56ZM7.03995 8.96V10.08H10.96V8.96H7.03995ZM12.64 8.96V10.08H20.48V8.96H12.64ZM7.03995 11.2V12.32H9.83995V11.2H7.03995ZM11.52 11.2V12.32H15.44V11.2H11.52ZM17.12 11.2V12.32H20.48V11.2H17.12ZM7.03995 13.44V14.56H13.2V13.44H7.03995ZM14.88 13.44V14.56H20.48V13.44H14.88ZM7.03995 17.92C7.6013 17.92 8.13624 18.2335 8.56464 18.8333C8.99303 19.433 9.27995 20.3056 9.27995 21.28C9.27995 22.2544 8.99303 23.127 8.56464 23.7267C8.19324 24.2467 7.74133 24.5506 7.26198 24.6225C6.47663 24.5487 5.92565 24.2254 5.52073 23.7213C5.50392 23.7003 5.48998 23.6762 5.4737 23.6545C5.07091 23.0579 4.80016 22.2199 4.79995 21.2811C4.79995 21.2807 4.79995 21.2804 4.79995 21.28C4.79995 20.3056 5.08687 19.433 5.51526 18.8333C5.94366 18.2335 6.4786 17.92 7.03995 17.92ZM9.26901 17.92H23.28H26.08C26.6406 17.92 27.175 18.2343 27.6035 18.8344C28.0321 19.4344 28.32 20.3066 28.32 21.28C28.32 22.2534 28.0321 23.1256 27.6035 23.7256C27.175 24.3257 26.6406 24.64 26.08 24.64H9.26901C9.34099 24.5555 9.41051 24.4688 9.47573 24.3775C10.0607 23.5585 10.4 22.4706 10.4 21.28C10.4 20.0894 10.0607 19.0015 9.47573 18.1825C9.41051 18.0912 9.34099 18.0045 9.26901 17.92ZM7.03995 19.6C6.74291 19.6 6.45803 19.777 6.24799 20.0921C6.03795 20.4071 5.91995 20.8344 5.91995 21.28C5.91995 21.7256 6.03795 22.1529 6.24799 22.4679C6.45803 22.783 6.74291 22.96 7.03995 22.96C7.33699 22.96 7.62187 22.783 7.83191 22.4679C8.04195 22.1529 8.15995 21.7256 8.15995 21.28C8.15995 20.8344 8.04195 20.4071 7.83191 20.0921C7.62187 19.777 7.33699 19.6 7.03995 19.6Z" fill="#8E90A3"/>
</svg>
