<svg width="18" height="18" viewBox="0 0 18 18" fill="none" xmlns="http://www.w3.org/2000/svg">
<g clip-path="url(#clip0_127_588)">
<path d="M12.9913 1.93124C12.0484 1.93124 11.1064 2.30481 10.4001 3.04999L5.27507 8.45624C3.35883 10.4784 3.35883 13.7291 5.27507 15.7512C5.33415 15.8135 5.40514 15.8632 5.48382 15.8975C5.48507 15.8979 5.48632 15.8983 5.48757 15.8987C7.41822 17.7283 10.4297 17.7078 12.2838 15.7512L15.8888 11.9475C15.9499 11.8872 15.9981 11.8152 16.0308 11.7358C16.0634 11.6565 16.0798 11.5713 16.0789 11.4855C16.078 11.3997 16.0598 11.315 16.0255 11.2363C15.9912 11.1577 15.9414 11.0867 15.8791 11.0277C15.8168 10.9687 15.7433 10.9228 15.6629 10.8927C15.5825 10.8627 15.4969 10.8491 15.4111 10.8528C15.3254 10.8566 15.2413 10.8775 15.1638 10.9143C15.0863 10.9512 15.017 11.0033 14.9601 11.0675L11.3551 14.8712C9.91394 16.392 7.64621 16.392 6.20507 14.8712C4.76388 13.3504 4.76388 10.8571 6.20507 9.33624L11.3288 3.92999C12.2662 2.94101 13.7177 2.94101 14.6551 3.92999C15.5924 4.91888 15.5924 6.55111 14.6551 7.53999L9.99132 12.4612C9.55683 12.9193 8.92258 12.919 8.48882 12.4612C8.05506 12.0035 8.05506 11.2327 8.48882 10.775L12.2401 6.81624C12.3011 6.75591 12.3494 6.68393 12.382 6.60456C12.4147 6.5252 12.431 6.44008 12.4301 6.35427C12.4292 6.26846 12.411 6.18371 12.3767 6.10506C12.3424 6.02641 12.2926 5.95546 12.2303 5.89644C12.168 5.83741 12.0945 5.79152 12.0141 5.76148C11.9337 5.73144 11.8481 5.71788 11.7624 5.72159C11.6767 5.72531 11.5925 5.74622 11.515 5.7831C11.4376 5.81997 11.3683 5.87205 11.3113 5.93624L7.55882 9.895C6.64987 10.8542 6.64987 12.382 7.55882 13.3412C7.61949 13.4051 7.69269 13.4557 7.77382 13.49C8.69583 14.2602 10.0732 14.2341 10.9201 13.3412L15.5838 8.41999C16.9383 6.99102 16.9578 4.75469 15.7151 3.25749C15.6851 3.18051 15.6406 3.11004 15.5838 3.04999C14.8775 2.30481 13.9342 1.93124 12.9913 1.93124Z" fill="#29C5F6"/>
</g>
<defs>
<clipPath id="clip0_127_588">
<rect width="18" height="18" fill="white"/>
</clipPath>
</defs>
</svg>
