<svg width="72" height="64" viewBox="0 0 72 64" fill="none" xmlns="http://www.w3.org/2000/svg">
<path d="M12.33 6.7735C12.0523 6.52661 11.7225 6.33077 11.3596 6.19716C10.9967 6.06354 10.6078 5.99477 10.215 5.99477C9.82221 5.99477 9.43326 6.06354 9.07037 6.19716C8.70748 6.33077 8.37775 6.52661 8.1 6.7735C7.53907 7.2721 7.22394 7.94836 7.22394 8.6535C7.22394 9.35863 7.53907 10.0349 8.1 10.5335L14.22 16.0002H12C8.67 16.0002 6.03 18.3735 6.03 21.3335L6 50.6668C6 53.6268 8.67 56.0002 12 56.0002H59.22L63.09 59.4402C63.3677 59.6871 63.6975 59.8829 64.0604 60.0165C64.4233 60.1501 64.8122 60.2189 65.205 60.2189C65.5978 60.2189 65.9867 60.1501 66.3496 60.0165C66.7125 59.8829 67.0423 59.6871 67.32 59.4402C67.5977 59.1933 67.8181 58.9002 67.9684 58.5776C68.1187 58.255 68.1961 57.9093 68.1961 57.5602C68.1961 57.211 68.1187 56.8653 67.9684 56.5427C67.8181 56.2201 67.5977 55.927 67.32 55.6802L12.33 6.7735ZM30 10.6668H42V16.0002H31.2L66 46.9335V21.3335C66 18.3735 63.33 16.0002 60 16.0002H48V10.6668C48 7.70683 45.33 5.3335 42 5.3335H30C27.03 5.3335 24.6 7.20016 24.12 9.70683L30 14.9335V10.6668Z" fill="#354357"/>
</svg>
