<svg width="40" height="40" viewBox="0 0 40 40" fill="none" xmlns="http://www.w3.org/2000/svg">
<path d="M12.2085 19.0416C12.4585 19.2916 12.7502 19.4166 13.0835 19.4166C13.4168 19.4166 13.7085 19.2916 13.9585 19.0416L14.8335 18.1666L15.7085 19.0416C15.9585 19.2916 16.2502 19.4166 16.5835 19.4166C16.9168 19.4166 17.2085 19.2916 17.4585 19.0416C17.7085 18.7916 17.8335 18.4999 17.8335 18.1666C17.8335 17.8333 17.7085 17.5416 17.4585 17.2916L16.5835 16.4166L17.4585 15.5416C17.7085 15.2916 17.8335 14.9999 17.8335 14.6666C17.8335 14.3333 17.7085 14.0416 17.4585 13.7916C17.2085 13.5416 16.9168 13.4166 16.5835 13.4166C16.2502 13.4166 15.9585 13.5416 15.7085 13.7916L14.8335 14.6666L13.9585 13.7916C13.7085 13.5416 13.4168 13.4166 13.0835 13.4166C12.7502 13.4166 12.4585 13.5416 12.2085 13.7916C11.9585 14.0416 11.8335 14.3333 11.8335 14.6666C11.8335 14.9999 11.9585 15.2916 12.2085 15.5416L13.0835 16.4166L12.2085 17.2916C11.9585 17.5416 11.8335 17.8333 11.8335 18.1666C11.8335 18.4999 11.9585 18.7916 12.2085 19.0416ZM22.5418 19.0416C22.7918 19.2916 23.0835 19.4166 23.4168 19.4166C23.7502 19.4166 24.0418 19.2916 24.2918 19.0416L25.1668 18.1666L26.0418 19.0416C26.2918 19.2916 26.5835 19.4166 26.9168 19.4166C27.2502 19.4166 27.5418 19.2916 27.7918 19.0416C28.0418 18.7916 28.1668 18.4999 28.1668 18.1666C28.1668 17.8333 28.0418 17.5416 27.7918 17.2916L26.9168 16.4166L27.7918 15.5416C28.0418 15.2916 28.1668 14.9999 28.1668 14.6666C28.1668 14.3333 28.0418 14.0416 27.7918 13.7916C27.5418 13.5416 27.2502 13.4166 26.9168 13.4166C26.5835 13.4166 26.2918 13.5416 26.0418 13.7916L25.1668 14.6666L24.2918 13.7916C24.0418 13.5416 23.7502 13.4166 23.4168 13.4166C23.0835 13.4166 22.7918 13.5416 22.5418 13.7916C22.2918 14.0416 22.1668 14.3333 22.1668 14.6666C22.1668 14.9999 22.2918 15.2916 22.5418 15.5416L23.4168 16.4166L22.5418 17.2916C22.2918 17.5416 22.1668 17.8333 22.1668 18.1666C22.1668 18.4999 22.2918 18.7916 22.5418 19.0416ZM20.0002 36.6666C17.6946 36.6666 15.5279 36.2288 13.5002 35.3533C11.4724 34.4777 9.7085 33.2905 8.2085 31.7916C6.7085 30.2916 5.52127 28.5277 4.64683 26.4999C3.77239 24.4721 3.33461 22.3055 3.3335 19.9999C3.3335 17.6944 3.77127 15.5277 4.64683 13.4999C5.52239 11.4721 6.70961 9.70825 8.2085 8.20825C9.7085 6.70825 11.4724 5.52103 13.5002 4.64659C15.5279 3.77214 17.6946 3.33436 20.0002 3.33325C22.3057 3.33325 24.4724 3.77103 26.5002 4.64659C28.5279 5.52214 30.2918 6.70936 31.7918 8.20825C33.2918 9.70825 34.4796 11.4721 35.3552 13.4999C36.2307 15.5277 36.6679 17.6944 36.6668 19.9999C36.6668 22.3055 36.229 24.4721 35.3535 26.4999C34.4779 28.5277 33.2907 30.2916 31.7918 31.7916C30.2918 33.2916 28.5279 34.4794 26.5002 35.3549C24.4724 36.2305 22.3057 36.6677 20.0002 36.6666ZM12.9168 28.3333H27.0835C27.4724 28.3333 27.7502 28.201 27.9168 27.9366C28.0835 27.6721 28.0696 27.3738 27.8752 27.0416C27.0696 25.6805 25.9863 24.5833 24.6252 23.7499C23.2641 22.9166 21.7224 22.4999 20.0002 22.4999C18.2779 22.4999 16.7363 22.9166 15.3752 23.7499C14.0141 24.5833 12.9307 25.6805 12.1252 27.0416C11.9307 27.3749 11.9168 27.6733 12.0835 27.9366C12.2502 28.1999 12.5279 28.3321 12.9168 28.3333Z" fill="#D1495B"/>
</svg>
