<svg width="18" height="18" viewBox="0 0 18 18" fill="none" xmlns="http://www.w3.org/2000/svg">
<path d="M4.5 16.5C4.0875 16.5 3.73425 16.353 3.44025 16.059C3.14625 15.765 2.9995 15.412 3 15V7.5C3 7.0875 3.147 6.73425 3.441 6.44025C3.735 6.14625 4.088 5.9995 4.5 6H5.25V4.5C5.25 3.4625 5.61575 2.578 6.34725 1.8465C7.07875 1.115 7.963 0.749501 9 0.750001C10.0375 0.750001 10.922 1.11575 11.6535 1.84725C12.385 2.57875 12.7505 3.463 12.75 4.5V6H13.5C13.9125 6 14.2658 6.147 14.5598 6.441C14.8538 6.735 15.0005 7.088 15 7.5V15C15 15.4125 14.853 15.7657 14.559 16.0597C14.265 16.3538 13.912 16.5005 13.5 16.5H4.5ZM9 12.75C9.4125 12.75 9.76575 12.603 10.0598 12.309C10.3538 12.015 10.5005 11.662 10.5 11.25C10.5 10.8375 10.353 10.4843 10.059 10.1903C9.765 9.89625 9.412 9.7495 9 9.75C8.5875 9.75 8.23425 9.897 7.94025 10.191C7.64625 10.485 7.4995 10.838 7.5 11.25C7.5 11.6625 7.647 12.0158 7.941 12.3098C8.235 12.6038 8.588 12.7505 9 12.75ZM6.75 6H11.25V4.5C11.25 3.875 11.0313 3.34375 10.5938 2.90625C10.1563 2.46875 9.625 2.25 9 2.25C8.375 2.25 7.84375 2.46875 7.40625 2.90625C6.96875 3.34375 6.75 3.875 6.75 4.5V6Z" fill="#219ABF"/>
</svg>
