<svg width="253" height="305" viewBox="0 0 253 305" fill="none" xmlns="http://www.w3.org/2000/svg">
<g clip-path="url(#clip0_2239_98)">
<path d="M215.023 93.2971V107.993C236.997 101.358 253 80.9444 253 56.7877V53.4791C253 23.9433 229.079 0 199.569 0H53.5843C24.0766 0 0.155919 23.9433 0.155919 53.4791V56.7877C0.155919 57.1727 0.161117 57.5551 0.171511 57.9374C0.161117 58.1091 0.155919 58.2782 0.155919 58.4525V150.707V154.015V241.062C0.0519731 242.417 0 243.788 0 245.172V250.657C0 254.221 0.350819 257.701 1.01088 261.07C5.50915 286.051 27.3327 305.003 53.5843 305.003H199.569C229.077 305.003 252.997 281.059 252.997 251.523V248.215C252.997 218.679 229.077 194.736 199.569 194.736H180.334C191.83 184.927 199.125 170.327 199.125 154.02V150.712C199.125 134.559 191.971 120.078 180.661 110.272H197.903V96.5719H113.218V54.0514C113.218 37.9816 106.176 23.5584 95.0121 13.7027H198.878C221.738 13.7027 240.272 32.2539 240.272 55.136C240.272 72.2826 229.862 86.9998 215.023 93.2971ZM122.069 118.302C122.069 114.228 125.367 110.928 129.436 110.928H143.274C166.543 110.928 185.404 129.809 185.404 153.097C185.404 175.573 167.2 193.792 144.748 193.792H136.066C128.335 193.792 122.069 187.52 122.069 179.782V118.302ZM198.878 208.433C221.738 208.433 240.272 226.984 240.272 249.867C240.272 272.749 221.738 291.3 198.878 291.3H94.4196C105.776 281.436 112.958 266.886 112.958 250.655V247.874H97.5458V249.867C97.5458 272.749 79.0121 291.3 56.1518 291.3C33.2914 291.3 14.7578 272.749 14.7578 249.867C14.7578 226.984 33.2914 208.433 56.1518 208.433H90.1786C94.2481 208.433 97.5458 211.734 97.5458 215.807V227.952H112.958V208.436H198.878V208.433ZM97.5458 55.3935V89.4527C97.5458 93.526 94.2481 96.8268 90.1786 96.8268H56.1518C33.2914 96.8268 14.7578 78.2756 14.7578 55.3935C14.7578 32.5115 33.2914 13.9602 56.1518 13.9602C79.0121 13.9602 97.5458 32.5115 97.5458 55.3935Z" fill="#00C2FF"/>
</g>
<defs>
<clipPath id="clip0_2239_98">
<rect width="253" height="305" fill="white"/>
</clipPath>
</defs>
</svg>
