<svg width="32" height="32" viewBox="0 0 32 32" fill="none" xmlns="http://www.w3.org/2000/svg">
<path d="M9.33333 21.3333V22.6666C9.33333 23.0444 9.46133 23.3613 9.71733 23.6173C9.97333 23.8733 10.2898 24.0009 10.6667 24C11.0444 24 11.3613 23.8724 11.6173 23.6173C11.8733 23.3622 12.0009 23.0453 12 22.6666V21.3333H13.3333C13.7111 21.3333 14.028 21.2057 14.284 20.9506C14.54 20.6955 14.6675 20.3786 14.6667 20C14.6667 19.6222 14.5387 19.3057 14.2827 19.0506C14.0267 18.7955 13.7102 18.6675 13.3333 18.6666H12V17.3333C12 16.9555 11.872 16.6391 11.616 16.384C11.36 16.1288 11.0435 16.0008 10.6667 16C10.2889 16 9.97199 16.128 9.71599 16.384C9.45999 16.64 9.33244 16.9564 9.33333 17.3333V18.6666H7.99999C7.62221 18.6666 7.30533 18.7946 7.04933 19.0506C6.79333 19.3066 6.66577 19.6231 6.66666 20C6.66666 20.3777 6.79466 20.6946 7.05066 20.9506C7.30666 21.2066 7.6231 21.3342 7.99999 21.3333H9.33333ZM24.3333 19.3333C24.6222 19.3333 24.8609 19.2391 25.0493 19.0506C25.2378 18.8622 25.3324 18.6231 25.3333 18.3333C25.3333 18.0444 25.2387 17.8057 25.0493 17.6173C24.86 17.4289 24.6213 17.3342 24.3333 17.3333H18.3333C18.0444 17.3333 17.8058 17.428 17.6173 17.6173C17.4289 17.8066 17.3342 18.0453 17.3333 18.3333C17.3333 18.6222 17.428 18.8613 17.6173 19.0506C17.8067 19.24 18.0453 19.3342 18.3333 19.3333H24.3333ZM21.6667 23.3333C21.9555 23.3333 22.1942 23.2391 22.3827 23.0506C22.5711 22.8622 22.6658 22.6231 22.6667 22.3333C22.6667 22.0444 22.572 21.8057 22.3827 21.6173C22.1933 21.4289 21.9547 21.3342 21.6667 21.3333H18.3333C18.0444 21.3333 17.8058 21.428 17.6173 21.6173C17.4289 21.8066 17.3342 22.0453 17.3333 22.3333C17.3333 22.6222 17.428 22.8613 17.6173 23.0506C17.8067 23.24 18.0453 23.3342 18.3333 23.3333H21.6667ZM20 9.33329H26.6667C27.4 9.33329 28.028 9.59463 28.5507 10.1173C29.0733 10.64 29.3342 11.2675 29.3333 12V26.6666C29.3333 27.4 29.072 28.028 28.5493 28.5506C28.0267 29.0733 27.3991 29.3342 26.6667 29.3333H5.33333C4.59999 29.3333 3.97199 29.0724 3.44933 28.5506C2.92666 28.0289 2.66577 27.4009 2.66666 26.6666V12C2.66666 11.2666 2.92799 10.6386 3.45066 10.116C3.97333 9.5933 4.60088 9.33241 5.33333 9.33329H12V5.33329C12 4.59996 12.2613 3.97196 12.784 3.44929C13.3067 2.92663 13.9342 2.66574 14.6667 2.66663H17.3333C18.0667 2.66663 18.6947 2.92796 19.2173 3.45063C19.74 3.97329 20.0009 4.60085 20 5.33329V9.33329ZM14.6667 12H17.3333V5.33329H14.6667V12Z" fill="#7209B7"/>
</svg>
