<svg width="32" height="32" viewBox="0 0 32 32" fill="none" xmlns="http://www.w3.org/2000/svg">
<path d="M18.6667 11.7C18.6667 11.5 18.7392 11.2942 18.884 11.0826C19.0289 10.8711 19.1898 10.7324 19.3667 10.6666C20.0112 10.4444 20.6556 10.2778 21.3 10.1666C21.9445 10.0555 22.6223 9.99998 23.3334 9.99998C23.7778 9.99998 24.2169 10.028 24.6507 10.084C25.0845 10.14 25.512 10.212 25.9334 10.3C26.1334 10.3444 26.3058 10.4555 26.4507 10.6333C26.5956 10.8111 26.6676 11.0111 26.6667 11.2333C26.6667 11.6111 26.5445 11.8889 26.3 12.0666C26.0556 12.2444 25.7445 12.2889 25.3667 12.2C25.0556 12.1333 24.728 12.0831 24.384 12.0493C24.04 12.0155 23.6898 11.9991 23.3334 12C22.7556 12 22.1889 12.0555 21.6334 12.1666C21.0778 12.2778 20.5445 12.4222 20.0334 12.6C19.6334 12.7555 19.3058 12.7444 19.0507 12.5666C18.7956 12.3889 18.6676 12.1 18.6667 11.7ZM18.6667 19.0333C18.6667 18.8333 18.7392 18.6275 18.884 18.416C19.0289 18.2044 19.1898 18.0658 19.3667 18C20.0112 17.7778 20.6556 17.6111 21.3 17.5C21.9445 17.3889 22.6223 17.3333 23.3334 17.3333C23.7778 17.3333 24.2169 17.3613 24.6507 17.4173C25.0845 17.4733 25.512 17.5453 25.9334 17.6333C26.1334 17.6778 26.3058 17.7889 26.4507 17.9666C26.5956 18.1444 26.6676 18.3444 26.6667 18.5666C26.6667 18.9444 26.5445 19.2222 26.3 19.4C26.0556 19.5778 25.7445 19.6222 25.3667 19.5333C25.0556 19.4666 24.728 19.4164 24.384 19.3826C24.04 19.3489 23.6898 19.3324 23.3334 19.3333C22.7556 19.3333 22.1889 19.3835 21.6334 19.484C21.0778 19.5844 20.5445 19.7231 20.0334 19.9C19.6334 20.0555 19.3054 20.0498 19.0494 19.8826C18.7934 19.7155 18.6658 19.4324 18.6667 19.0333ZM18.6667 15.3666C18.6667 15.1666 18.7392 14.9609 18.884 14.7493C19.0289 14.5378 19.1898 14.3991 19.3667 14.3333C20.0112 14.1111 20.6556 13.9444 21.3 13.8333C21.9445 13.7222 22.6223 13.6666 23.3334 13.6666C23.7778 13.6666 24.2169 13.6946 24.6507 13.7506C25.0845 13.8066 25.512 13.8786 25.9334 13.9666C26.1334 14.0111 26.3058 14.1222 26.4507 14.3C26.5956 14.4778 26.6676 14.6778 26.6667 14.9C26.6667 15.2778 26.5445 15.5555 26.3 15.7333C26.0556 15.9111 25.7445 15.9555 25.3667 15.8666C25.0556 15.8 24.728 15.7498 24.384 15.716C24.04 15.6822 23.6898 15.6658 23.3334 15.6666C22.7556 15.6666 22.1889 15.7222 21.6334 15.8333C21.0778 15.9444 20.5445 16.0889 20.0334 16.2666C19.6334 16.4222 19.3058 16.4111 19.0507 16.2333C18.7956 16.0555 18.6676 15.7666 18.6667 15.3666ZM17.3334 22.7333C18.3112 22.2666 19.2943 21.9169 20.2827 21.684C21.2712 21.4511 22.288 21.3342 23.3334 21.3333C24.1334 21.3333 24.9169 21.4 25.684 21.5333C26.4512 21.6666 27.2232 21.8666 28 22.1333V8.93331C27.2667 8.6222 26.5054 8.38887 25.716 8.23331C24.9267 8.07776 24.1325 7.99998 23.3334 7.99998C22.2889 7.99998 21.2556 8.13331 20.2334 8.39998C19.2112 8.66665 18.2445 9.06665 17.3334 9.59998V22.7333ZM16 25.9666C15.6889 25.9666 15.3943 25.928 15.116 25.8506C14.8378 25.7733 14.5769 25.6675 14.3334 25.5333C13.4667 25.0222 12.5556 24.6386 11.6 24.3826C10.6445 24.1266 9.66671 23.9991 8.66671 24C7.73337 24 6.81648 24.1222 5.91604 24.3666C5.0156 24.6111 4.15471 24.9555 3.33337 25.4C2.86671 25.6444 2.41693 25.6333 1.98404 25.3666C1.55115 25.1 1.33426 24.7111 1.33337 24.2V8.13331C1.33337 7.88887 1.39471 7.65553 1.51737 7.43331C1.64004 7.21109 1.82315 7.04442 2.06671 6.93331C3.08893 6.39998 4.1556 5.99998 5.26671 5.73331C6.37782 5.46665 7.51115 5.33331 8.66671 5.33331C9.9556 5.33331 11.2169 5.49998 12.4507 5.83331C13.6845 6.16665 14.8676 6.66665 16 7.33331C17.1334 6.66665 18.3169 6.16665 19.5507 5.83331C20.7845 5.49998 22.0454 5.33331 23.3334 5.33331C24.4889 5.33331 25.6223 5.46665 26.7334 5.73331C27.8445 5.99998 28.9112 6.39998 29.9334 6.93331C30.1778 7.04442 30.3614 7.21109 30.484 7.43331C30.6067 7.65553 30.6676 7.88887 30.6667 8.13331V24.2C30.6667 24.7111 30.4503 25.1 30.0174 25.3666C29.5845 25.6333 29.1343 25.6444 28.6667 25.4C27.8445 24.9555 26.9836 24.6111 26.084 24.3666C25.1845 24.1222 24.2676 24 23.3334 24C22.3334 24 21.3556 24.128 20.4 24.384C19.4445 24.64 18.5334 25.0231 17.6667 25.5333C17.4223 25.6666 17.1609 25.7724 16.8827 25.8506C16.6045 25.9289 16.3103 25.9675 16 25.9666Z" fill="#F72585"/>
</svg>
