<svg width="18" height="18" viewBox="0 0 18 18" fill="none" xmlns="http://www.w3.org/2000/svg">
<path d="M3.375 15.75C3.375 15.75 2.25 15.75 2.25 14.625C2.25 13.5 3.375 10.125 9 10.125C14.625 10.125 15.75 13.5 15.75 14.625C15.75 15.75 14.625 15.75 14.625 15.75H3.375ZM9 9C9.89511 9 10.7536 8.64442 11.3865 8.01149C12.0194 7.37855 12.375 6.52011 12.375 5.625C12.375 4.72989 12.0194 3.87145 11.3865 3.23851C10.7536 2.60558 9.89511 2.25 9 2.25C8.10489 2.25 7.24645 2.60558 6.61351 3.23851C5.98058 3.87145 5.625 4.72989 5.625 5.625C5.625 6.52011 5.98058 7.37855 6.61351 8.01149C7.24645 8.64442 8.10489 9 9 9Z" fill="#219ABF"/>
</svg>
