<svg width="18" height="18" viewBox="0 0 18 18" fill="none" xmlns="http://www.w3.org/2000/svg">
<path d="M15.1875 2.95312H9.42188V1.6875C9.42188 1.57561 9.37743 1.46831 9.29831 1.38919C9.21919 1.31007 9.11189 1.26562 9 1.26562C8.88811 1.26562 8.78081 1.31007 8.70169 1.38919C8.62257 1.46831 8.57812 1.57561 8.57812 1.6875V2.95312H2.8125C2.55143 2.95312 2.30105 3.05684 2.11644 3.24144C1.93184 3.42605 1.82813 3.67643 1.82812 3.9375V12.375C1.82812 12.6361 1.93184 12.8865 2.11644 13.0711C2.30105 13.2557 2.55143 13.3594 2.8125 13.3594H5.8725L4.17023 15.4863C4.13561 15.5296 4.10985 15.5793 4.09443 15.6326C4.07902 15.6859 4.07424 15.7416 4.08038 15.7967C4.09277 15.908 4.14887 16.0098 4.23633 16.0798C4.32379 16.1497 4.43544 16.182 4.54674 16.1696C4.65803 16.1572 4.75984 16.1011 4.82977 16.0137L6.9525 13.3594H11.0475L13.1702 16.0137C13.2049 16.057 13.2477 16.093 13.2962 16.1198C13.3448 16.1466 13.3982 16.1635 13.4533 16.1696C13.5084 16.1758 13.5641 16.171 13.6174 16.1556C13.6707 16.1401 13.7204 16.1144 13.7637 16.0798C13.807 16.0451 13.843 16.0023 13.8698 15.9538C13.8966 15.9052 13.9135 15.8518 13.9196 15.7967C13.9258 15.7416 13.921 15.6859 13.9056 15.6326C13.8901 15.5793 13.8644 15.5296 13.8298 15.4863L12.1275 13.3594H15.1875C15.4486 13.3594 15.699 13.2557 15.8836 13.0711C16.0682 12.8865 16.1719 12.6361 16.1719 12.375V3.9375C16.1719 3.67643 16.0682 3.42605 15.8836 3.24144C15.699 3.05684 15.4486 2.95312 15.1875 2.95312ZM15.3281 12.375C15.3281 12.4123 15.3133 12.4481 15.2869 12.4744C15.2606 12.5008 15.2248 12.5156 15.1875 12.5156H2.8125C2.7752 12.5156 2.73944 12.5008 2.71306 12.4744C2.68669 12.4481 2.67188 12.4123 2.67188 12.375V3.9375C2.67188 3.9002 2.68669 3.86444 2.71306 3.83806C2.73944 3.81169 2.7752 3.79688 2.8125 3.79688H15.1875C15.2248 3.79688 15.2606 3.81169 15.2869 3.83806C15.3133 3.86444 15.3281 3.9002 15.3281 3.9375V12.375ZM7.17188 8.4375V10.125C7.17188 10.2369 7.12743 10.3442 7.04831 10.4233C6.96919 10.5024 6.86189 10.5469 6.75 10.5469C6.63811 10.5469 6.53081 10.5024 6.45169 10.4233C6.37257 10.3442 6.32812 10.2369 6.32812 10.125V8.4375C6.32812 8.32561 6.37257 8.21831 6.45169 8.13919C6.53081 8.06007 6.63811 8.01562 6.75 8.01562C6.86189 8.01562 6.96919 8.06007 7.04831 8.13919C7.12743 8.21831 7.17188 8.32561 7.17188 8.4375ZM9.42188 7.3125V10.125C9.42188 10.2369 9.37743 10.3442 9.29831 10.4233C9.21919 10.5024 9.11189 10.5469 9 10.5469C8.88811 10.5469 8.78081 10.5024 8.70169 10.4233C8.62257 10.3442 8.57812 10.2369 8.57812 10.125V7.3125C8.57812 7.20061 8.62257 7.09331 8.70169 7.01419C8.78081 6.93507 8.88811 6.89062 9 6.89062C9.11189 6.89062 9.21919 6.93507 9.29831 7.01419C9.37743 7.09331 9.42188 7.20061 9.42188 7.3125ZM11.6719 6.1875V10.125C11.6719 10.2369 11.6274 10.3442 11.5483 10.4233C11.4692 10.5024 11.3619 10.5469 11.25 10.5469C11.1381 10.5469 11.0308 10.5024 10.9517 10.4233C10.8726 10.3442 10.8281 10.2369 10.8281 10.125V6.1875C10.8281 6.07561 10.8726 5.96831 10.9517 5.88919C11.0308 5.81007 11.1381 5.76562 11.25 5.76562C11.3619 5.76562 11.4692 5.81007 11.5483 5.88919C11.6274 5.96831 11.6719 6.07561 11.6719 6.1875Z" fill="#219ABF"/>
</svg>
