<svg width="18" height="18" viewBox="0 0 18 18" fill="none" xmlns="http://www.w3.org/2000/svg">
<path d="M15.1875 2.8125H9.5625V1.6875C9.5625 1.53832 9.50324 1.39524 9.39775 1.28975C9.29226 1.18426 9.14918 1.125 9 1.125C8.85082 1.125 8.70774 1.18426 8.60225 1.28975C8.49676 1.39524 8.4375 1.53832 8.4375 1.6875V2.8125H2.8125C2.51413 2.8125 2.22798 2.93103 2.017 3.142C1.80603 3.35298 1.6875 3.63913 1.6875 3.9375V12.375C1.6875 12.6734 1.80603 12.9595 2.017 13.1705C2.22798 13.3815 2.51413 13.5 2.8125 13.5H5.58L4.06055 15.3984C3.96731 15.515 3.92418 15.6638 3.94067 15.8121C3.95715 15.9605 4.03189 16.0962 4.14844 16.1895C4.26499 16.2827 4.4138 16.3258 4.56215 16.3093C4.71049 16.2929 4.84621 16.2181 4.93945 16.1016L7.02 13.5H10.98L13.0605 16.1016C13.1067 16.1593 13.1638 16.2073 13.2285 16.243C13.2933 16.2786 13.3644 16.3012 13.4379 16.3093C13.5113 16.3175 13.5856 16.3111 13.6566 16.2905C13.7276 16.27 13.7939 16.2356 13.8516 16.1895C13.9093 16.1433 13.9573 16.0862 13.993 16.0215C14.0286 15.9567 14.0512 15.8856 14.0593 15.8121C14.0675 15.7387 14.0611 15.6644 14.0405 15.5934C14.02 15.5224 13.9856 15.4561 13.9395 15.3984L12.42 13.5H15.1875C15.4859 13.5 15.772 13.3815 15.983 13.1705C16.194 12.9595 16.3125 12.6734 16.3125 12.375V3.9375C16.3125 3.63913 16.194 3.35298 15.983 3.142C15.772 2.93103 15.4859 2.8125 15.1875 2.8125ZM15.1875 12.375H2.8125V3.9375H15.1875V12.375Z" fill="#219ABF"/>
</svg>
