<svg width="16" height="16" viewBox="0 0 16 16" fill="none" xmlns="http://www.w3.org/2000/svg">
<path d="M4.66666 10.6667C4.85555 10.6667 5.01399 10.6027 5.14199 10.4747C5.26955 10.3471 5.33333 10.1889 5.33333 10C5.33333 9.81111 5.26955 9.65267 5.14199 9.52467C5.01399 9.39711 4.85555 9.33333 4.66666 9.33333C4.47777 9.33333 4.31933 9.39711 4.19133 9.52467C4.06377 9.65267 3.99999 9.81111 3.99999 10C3.99999 10.1889 4.06377 10.3471 4.19133 10.4747C4.31933 10.6027 4.47777 10.6667 4.66666 10.6667ZM4.66666 8.66667C4.85555 8.66667 5.01399 8.60267 5.14199 8.47467C5.26955 8.34711 5.33333 8.18889 5.33333 8V6C5.33333 5.81111 5.26955 5.65267 5.14199 5.52467C5.01399 5.39711 4.85555 5.33333 4.66666 5.33333C4.47777 5.33333 4.31933 5.39711 4.19133 5.52467C4.06377 5.65267 3.99999 5.81111 3.99999 6V8C3.99999 8.18889 4.06377 8.34711 4.19133 8.47467C4.31933 8.60267 4.47777 8.66667 4.66666 8.66667ZM7.33333 10H11.3333C11.5222 10 11.6804 9.936 11.808 9.808C11.936 9.68044 12 9.52222 12 9.33333C12 9.14444 11.936 8.986 11.808 8.858C11.6804 8.73044 11.5222 8.66667 11.3333 8.66667H7.33333C7.14444 8.66667 6.98622 8.73044 6.85866 8.858C6.73066 8.986 6.66666 9.14444 6.66666 9.33333C6.66666 9.52222 6.73066 9.68044 6.85866 9.808C6.98622 9.936 7.14444 10 7.33333 10ZM7.33333 7.33333H11.3333C11.5222 7.33333 11.6804 7.26933 11.808 7.14133C11.936 7.01378 12 6.85556 12 6.66667C12 6.47778 11.936 6.31933 11.808 6.19133C11.6804 6.06378 11.5222 6 11.3333 6H7.33333C7.14444 6 6.98622 6.06378 6.85866 6.19133C6.73066 6.31933 6.66666 6.47778 6.66666 6.66667C6.66666 6.85556 6.73066 7.01378 6.85866 7.14133C6.98622 7.26933 7.14444 7.33333 7.33333 7.33333ZM2.66666 13.3333C2.29999 13.3333 1.98622 13.2029 1.72533 12.942C1.46399 12.6807 1.33333 12.3667 1.33333 12V4C1.33333 3.63333 1.46399 3.31956 1.72533 3.05867C1.98622 2.79733 2.29999 2.66667 2.66666 2.66667H13.3333C13.7 2.66667 14.014 2.79733 14.2753 3.05867C14.5362 3.31956 14.6667 3.63333 14.6667 4V12C14.6667 12.3667 14.5362 12.6807 14.2753 12.942C14.014 13.2029 13.7 13.3333 13.3333 13.3333H2.66666Z" fill="white"/>
</svg>
