<svg width="24" height="24" viewBox="0 0 24 24" fill="none" xmlns="http://www.w3.org/2000/svg">
<path d="M11.9993 17.3001L8.29933 20.1251C8.116 20.2751 7.916 20.3461 7.69933 20.3381C7.48266 20.3301 7.291 20.2674 7.12433 20.1501C6.95766 20.0334 6.82866 19.8751 6.73733 19.6751C6.646 19.4751 6.64166 19.2584 6.72433 19.0251L8.14933 14.4001L4.52433 11.8251C4.32433 11.6918 4.19933 11.5168 4.14933 11.3001C4.09933 11.0834 4.10766 10.8834 4.17433 10.7001C4.241 10.5168 4.35766 10.3541 4.52433 10.2121C4.691 10.0701 4.891 9.99944 5.12433 10.0001H9.59933L11.0493 5.2001C11.1327 4.96677 11.262 4.78744 11.4373 4.6621C11.6127 4.53677 11.8 4.47444 11.9993 4.4751C12.1993 4.4751 12.387 4.53777 12.5623 4.6631C12.7377 4.78844 12.8667 4.96744 12.9493 5.2001L14.3993 10.0001H18.8743C19.1077 10.0001 19.3077 10.0711 19.4743 10.2131C19.641 10.3551 19.7577 10.5174 19.8243 10.7001C19.891 10.8834 19.8993 11.0834 19.8493 11.3001C19.7993 11.5168 19.6743 11.6918 19.4743 11.8251L15.8493 14.4001L17.2743 19.0251C17.3577 19.2584 17.3537 19.4751 17.2623 19.6751C17.171 19.8751 17.0417 20.0334 16.8743 20.1501C16.7077 20.2668 16.516 20.3294 16.2993 20.3381C16.0827 20.3468 15.8827 20.2758 15.6993 20.1251L11.9993 17.3001Z" fill="black"/>
</svg>
