<svg width="16" height="16" viewBox="0 0 16 16" fill="none" xmlns="http://www.w3.org/2000/svg">
<path d="M12.94 4.94L9.72 1.72C9.47334 1.47333 9.13334 1.33333 8.78 1.33333H4.00001C3.26667 1.33333 2.67334 1.93333 2.67334 2.66667L2.66667 13.3333C2.66667 14.0667 3.26 14.6667 3.99334 14.6667H12C12.7333 14.6667 13.3333 14.0667 13.3333 13.3333V5.88667C13.3333 5.53333 13.1933 5.19333 12.94 4.94ZM6.82 11.5267L5.40667 10.1133C5.34495 10.0516 5.29599 9.97834 5.26259 9.89769C5.22918 9.81705 5.21199 9.73062 5.21199 9.64333C5.21199 9.55605 5.22918 9.46961 5.26259 9.38897C5.29599 9.30833 5.34495 9.23505 5.40667 9.17333C5.46839 9.11161 5.54167 9.06265 5.62231 9.02925C5.70295 8.99584 5.78938 8.97865 5.87667 8.97865C5.96396 8.97865 6.05039 8.99584 6.13103 9.02925C6.21168 9.06265 6.28495 9.11161 6.34667 9.17333L7.28667 10.1133L9.64667 7.75333C9.70839 7.69161 9.78167 7.64265 9.86231 7.60925C9.94295 7.57584 10.0294 7.55865 10.1167 7.55865C10.204 7.55865 10.2904 7.57584 10.371 7.60925C10.4517 7.64265 10.525 7.69161 10.5867 7.75333C10.6484 7.81505 10.6974 7.88833 10.7308 7.96897C10.7642 8.04961 10.7814 8.13605 10.7814 8.22333C10.7814 8.31062 10.7642 8.39705 10.7308 8.47769C10.6974 8.55834 10.6484 8.63161 10.5867 8.69333L7.76 11.52C7.50667 11.7867 7.08 11.7867 6.82 11.5267ZM9.33334 6C8.96667 6 8.66667 5.7 8.66667 5.33333V2.33333L12.3333 6H9.33334Z" fill="white"/>
</svg>
