<svg width="40" height="40" viewBox="0 0 40 40" fill="none" xmlns="http://www.w3.org/2000/svg">
<path d="M20.0002 25.9166L21.9168 27.8333C22.0835 27.9999 22.2779 28.0833 22.5002 28.0833C22.7224 28.0833 22.9168 27.9999 23.0835 27.8333L25.0002 25.9166L25.7502 26.6666C26.0002 26.9166 26.2918 27.0416 26.6252 27.0416C26.9585 27.0416 27.2502 26.9166 27.5002 26.6666C27.7502 26.4166 27.8752 26.1249 27.8752 25.7916C27.8752 25.4583 27.7502 25.1666 27.5002 24.9166L25.5835 22.9999C25.4168 22.8333 25.2224 22.7499 25.0002 22.7499C24.7779 22.7499 24.5835 22.8333 24.4168 22.9999L22.5002 24.9166L20.5835 22.9999C20.4168 22.8333 20.2224 22.7499 20.0002 22.7499C19.7779 22.7499 19.5835 22.8333 19.4168 22.9999L17.5002 24.9166L15.5835 22.9999C15.4168 22.8333 15.2224 22.7499 15.0002 22.7499C14.7779 22.7499 14.5835 22.8333 14.4168 22.9999L12.5002 24.9166C12.2502 25.1666 12.1252 25.4583 12.1252 25.7916C12.1252 26.1249 12.2502 26.4166 12.5002 26.6666C12.7502 26.9166 13.0418 27.0416 13.3752 27.0416C13.7085 27.0416 14.0002 26.9166 14.2502 26.6666L15.0002 25.9166L16.9168 27.8333C17.0835 27.9999 17.2779 28.0833 17.5002 28.0833C17.7224 28.0833 17.9168 27.9999 18.0835 27.8333L20.0002 25.9166ZM14.1252 16.6666L11.9585 18.2499C11.6807 18.4721 11.5068 18.7499 11.4368 19.0833C11.3668 19.4166 11.4435 19.7221 11.6668 19.9999C11.8891 20.2777 12.1668 20.4516 12.5002 20.5216C12.8335 20.5916 13.1391 20.5149 13.4168 20.2916L17.4585 17.3333C17.6807 17.1666 17.7918 16.9444 17.7918 16.6666C17.7918 16.3888 17.6807 16.1666 17.4585 15.9999L13.4168 13.0416C13.1391 12.8194 12.8335 12.7427 12.5002 12.8116C12.1668 12.8805 11.8891 13.0544 11.6668 13.3333C11.4446 13.611 11.3613 13.9166 11.4168 14.2499C11.4724 14.5833 11.6529 14.861 11.9585 15.0833L14.1252 16.6666ZM25.8752 16.6666L28.0418 15.0833C28.3196 14.861 28.4935 14.5833 28.5635 14.2499C28.6335 13.9166 28.5568 13.611 28.3335 13.3333C28.1113 13.0555 27.8335 12.8816 27.5002 12.8116C27.1668 12.7416 26.8613 12.8183 26.5835 13.0416L22.5418 15.9999C22.3196 16.1666 22.2085 16.3888 22.2085 16.6666C22.2085 16.9444 22.3196 17.1666 22.5418 17.3333L26.5835 20.2916C26.8613 20.5138 27.1668 20.5905 27.5002 20.5216C27.8335 20.4527 28.1113 20.2788 28.3335 19.9999C28.5557 19.7221 28.639 19.4166 28.5835 19.0833C28.5279 18.7499 28.3474 18.4721 28.0418 18.2499L25.8752 16.6666ZM20.0002 36.6666C17.6946 36.6666 15.5279 36.2288 13.5002 35.3533C11.4724 34.4777 9.7085 33.2905 8.2085 31.7916C6.7085 30.2916 5.52127 28.5277 4.64683 26.4999C3.77239 24.4721 3.33461 22.3055 3.3335 19.9999C3.3335 17.6944 3.77127 15.5277 4.64683 13.4999C5.52239 11.4721 6.70961 9.70825 8.2085 8.20825C9.7085 6.70825 11.4724 5.52103 13.5002 4.64659C15.5279 3.77214 17.6946 3.33436 20.0002 3.33325C22.3057 3.33325 24.4724 3.77103 26.5002 4.64659C28.5279 5.52214 30.2918 6.70936 31.7918 8.20825C33.2918 9.70825 34.4796 11.4721 35.3552 13.4999C36.2307 15.5277 36.6679 17.6944 36.6668 19.9999C36.6668 22.3055 36.229 24.4721 35.3535 26.4999C34.4779 28.5277 33.2907 30.2916 31.7918 31.7916C30.2918 33.2916 28.5279 34.4794 26.5002 35.3549C24.4724 36.2305 22.3057 36.6677 20.0002 36.6666Z" fill="#7209B7"/>
</svg>
