<svg width="32" height="32" viewBox="0 0 32 32" fill="none" xmlns="http://www.w3.org/2000/svg">
<path d="M29.3333 22.6667C28.9556 22.6667 28.6387 22.5387 28.3827 22.2827C28.1267 22.0267 27.9991 21.7103 28 21.3334V13.4667L17.3 19.3001C17.1 19.4112 16.8947 19.4947 16.684 19.5507C16.4733 19.6067 16.2453 19.6343 16 19.6334C15.7556 19.6334 15.5276 19.6058 15.316 19.5507C15.1045 19.4956 14.8991 19.4121 14.7 19.3001L3.46667 13.1667C3.24445 13.0556 3.07201 12.8943 2.94934 12.6827C2.82667 12.4712 2.76578 12.2436 2.76667 12.0001C2.76667 11.7556 2.82801 11.5276 2.95067 11.3161C3.07334 11.1045 3.24534 10.9436 3.46667 10.8334L14.7333 4.70005C14.9333 4.58894 15.1391 4.50539 15.3507 4.44939C15.5622 4.39339 15.7787 4.36583 16 4.36672C16.2222 4.36672 16.4391 4.39472 16.6507 4.45072C16.8622 4.50672 17.0676 4.58983 17.2667 4.70005L29.9667 11.6334C30.1889 11.7445 30.3613 11.9058 30.484 12.1174C30.6067 12.3289 30.6676 12.5565 30.6667 12.8001V21.3334C30.6667 21.7112 30.5387 22.0281 30.2827 22.2841C30.0267 22.5401 29.7102 22.6676 29.3333 22.6667ZM16 27.6334C15.7778 27.6334 15.5609 27.6054 15.3493 27.5494C15.1378 27.4934 14.9325 27.4103 14.7333 27.3001L8.06667 23.7001C7.62223 23.4556 7.27778 23.1281 7.03334 22.7174C6.78889 22.3067 6.66667 21.8454 6.66667 21.3334V16.2667L14.2333 20.3667C14.5222 20.5223 14.8111 20.6614 15.1 20.7841C15.3889 20.9067 15.6889 20.9676 16 20.9667C16.3111 20.9667 16.6169 20.9001 16.9173 20.7667C17.2178 20.6334 17.512 20.4889 17.8 20.3334L25.3333 16.2667V21.3334C25.3333 21.8445 25.2111 22.3058 24.9667 22.7174C24.7222 23.1289 24.3778 23.4565 23.9333 23.7001L17.2667 27.3001C17.0667 27.4112 16.8613 27.4947 16.6507 27.5507C16.44 27.6067 16.2231 27.6343 16 27.6334Z" fill="#F72585"/>
</svg>
