<svg width="25" height="24" viewBox="0 0 25 24" fill="none" xmlns="http://www.w3.org/2000/svg">
<path d="M21.2825 3.21745C21.1813 3.1167 21.0534 3.04695 20.9139 3.01639C20.7744 2.98584 20.6291 2.99574 20.495 3.04495L3.995 9.04495C3.8527 9.09892 3.73019 9.19491 3.64374 9.32016C3.55729 9.44542 3.51099 9.59401 3.51099 9.7462C3.51099 9.89839 3.55729 10.047 3.64374 10.1722C3.73019 10.2975 3.8527 10.3935 3.995 10.4474L10.4375 13.0199L15.1925 8.24995L16.25 9.30745L11.4725 14.0849L14.0525 20.5274C14.1081 20.667 14.2043 20.7866 14.3286 20.8709C14.453 20.9551 14.5998 21.0001 14.75 20.9999C14.9016 20.9968 15.0486 20.9479 15.1718 20.8595C15.295 20.7711 15.3885 20.6475 15.44 20.5049L21.44 4.00495C21.4911 3.87226 21.5034 3.72777 21.4755 3.58834C21.4477 3.44891 21.3807 3.32028 21.2825 3.21745Z" fill="white"/>
</svg>
