<svg width="312" height="66" viewBox="0 0 312 66" fill="none" xmlns="http://www.w3.org/2000/svg">
<path fill-rule="evenodd" clip-rule="evenodd" d="M0 6.00002V15C0 15 6 19 43.2 29.1565C65.6 32.8011 88 32.8011 110.4 31.3433C132.8 29.8855 155.2 27.6987 177.6 35.7168C200 43.7348 222.4 63.4155 244.8 65.6022C267.2 68.5179 289.6 54.6685 301.248 48.1083L312 41.5481V2.14341e-05H301.248C289.6 2.14341e-05 267.2 2.14341e-05 244.8 2.14341e-05C222.4 2.14341e-05 200 2.14341e-05 177.6 2.14341e-05C155.2 2.14341e-05 132.8 2.14341e-05 110.4 2.14341e-05C88 2.14341e-05 65.6 2.14341e-05 43.2 2.14341e-05C20.8 2.14341e-05 21.852 -4.34622e-05 0 4.76457e-06V2.00002V6.00002Z" fill="#D4F3FD"/>
</svg>
