<svg width="312" height="50" viewBox="0 0 312 50" fill="none" xmlns="http://www.w3.org/2000/svg">
<path fill-rule="evenodd" clip-rule="evenodd" d="M0 7.5V13C10.752 16.3132 20.8 18.775 43.2 22.0883C65.6 24.8493 88 24.8493 110.4 23.7449C132.8 22.6405 155.2 20.9839 177.6 27.0581C200 33.1324 222.4 48.042 244.8 49.6986C267.2 51.9075 289.6 41.4155 301.248 36.4457L312 31.4758V0H301.248C289.6 0 267.2 0 244.8 0C222.4 0 200 0 177.6 0C155.2 0 132.8 0 110.4 0C88 0 65.6 0 43.2 0C20.8 0 10.752 0 0 0V4V7.5Z" fill="#29C5F6"/>
</svg>
