<svg width="18" height="18" viewBox="0 0 18 18" fill="none" xmlns="http://www.w3.org/2000/svg">
<path d="M6.46875 0.5625C5.94679 0.563096 5.44637 0.770708 5.07729 1.13979C4.70821 1.50887 4.5006 2.00929 4.5 2.53125V6.1875H5.0625V2.53125C5.0625 2.15829 5.21066 1.8006 5.47438 1.53688C5.7381 1.27316 6.09579 1.125 6.46875 1.125H12.9375V3.09375C12.9373 3.14936 12.9538 3.20375 12.9848 3.24988C13.0158 3.29601 13.06 3.33175 13.1116 3.35248C13.1629 3.37416 13.2194 3.38015 13.2741 3.36969C13.3287 3.35923 13.3791 3.33278 13.4187 3.2937L14.0625 2.64661L14.7063 3.2937C14.7596 3.34613 14.8315 3.37536 14.9062 3.375C14.9432 3.376 14.9799 3.36829 15.0134 3.35248C15.065 3.33175 15.1092 3.29601 15.1402 3.24988C15.1712 3.20375 15.1877 3.14936 15.1875 3.09375V1.15302C15.5047 1.21869 15.7897 1.39152 15.9946 1.64249C16.1994 1.89346 16.3117 2.20729 16.3125 2.53125V15.4688C16.3125 15.8417 16.1643 16.1994 15.9006 16.4631C15.6369 16.7268 15.2792 16.875 14.9062 16.875H9V17.4375H14.9062C15.4282 17.4369 15.9286 17.2293 16.2977 16.8602C16.6668 16.4911 16.8744 15.9907 16.875 15.4688V2.53125C16.8744 2.00929 16.6668 1.50887 16.2977 1.13979C15.9286 0.770708 15.4282 0.563096 14.9062 0.5625H6.46875ZM13.5 1.125H14.625V2.41589L14.2625 2.05005C14.2093 1.9972 14.1374 1.96753 14.0625 1.96753C13.9876 1.96753 13.9157 1.9972 13.8625 2.05005L13.5 2.41589V1.125ZM6.1875 2.25V2.8125H6.75V2.25H6.1875ZM7.3125 2.25V2.8125H8.4375V2.25H7.3125ZM6.1875 3.375V3.9375H8.4375V3.375H6.1875ZM14.4261 4.30115L13.9933 4.73401C13.7017 4.54105 13.3489 4.46324 13.0033 4.51567C12.6576 4.56811 12.3437 4.74705 12.1225 5.01778C11.9013 5.28852 11.7886 5.63177 11.8061 5.98094C11.8237 6.33011 11.9702 6.66033 12.2175 6.90754C12.4647 7.15475 12.7949 7.30135 13.1441 7.31888C13.4932 7.33642 13.8365 7.22365 14.1072 7.00245C14.378 6.78125 14.5569 6.46738 14.6093 6.12173C14.6618 5.77607 14.584 5.42325 14.391 5.13171L14.8239 4.69885L14.4261 4.30115ZM9 5.0625V5.625H11.25V5.0625H9ZM13.2083 5.0625C13.2118 5.06248 13.2153 5.06248 13.2188 5.0625C13.3441 5.06305 13.4676 5.09197 13.5802 5.14709L12.7386 5.98865L13.1364 6.3858L13.9779 5.5448C14.033 5.65735 14.062 5.78092 14.0625 5.90625C14.0625 6.07268 14.0133 6.23539 13.921 6.37391C13.8287 6.51243 13.6976 6.62057 13.544 6.68473C13.3904 6.74888 13.2213 6.76619 13.0579 6.73447C12.8946 6.70275 12.7442 6.62342 12.6258 6.50646C12.5074 6.3895 12.4262 6.24014 12.3925 6.07716C12.3588 5.91418 12.374 5.74487 12.4363 5.59053C12.4985 5.43618 12.6051 5.3037 12.7424 5.20974C12.8798 5.11579 13.0419 5.06456 13.2083 5.0625ZM9 6.1875V6.75H11.25V6.1875H9ZM4.72357 6.7511C4.21168 6.7661 3.72578 6.97998 3.36898 7.34734C3.01218 7.7147 2.81257 8.20664 2.8125 8.71875V9.28125C2.58872 9.28125 2.37411 9.37014 2.21588 9.52838C2.05764 9.68661 1.96875 9.90122 1.96875 10.125C1.96875 10.3488 2.05764 10.5634 2.21588 10.7216C2.37411 10.8799 2.58872 10.9688 2.8125 10.9688H2.8938C3.02306 11.3948 3.29153 11.7653 3.65625 12.0207V12.7546L2.79272 13.1375C2.29647 13.3594 1.875 13.7201 1.5791 14.1762C1.28319 14.6322 1.12549 15.1641 1.125 15.7077V17.1562C1.125 17.2308 1.15463 17.3024 1.20738 17.3551C1.26012 17.4079 1.33166 17.4375 1.40625 17.4375H8.15625C8.23084 17.4375 8.30238 17.4079 8.35512 17.3551C8.40787 17.3024 8.4375 17.2308 8.4375 17.1562V15.7077C8.43705 15.1637 8.27906 14.6315 7.98261 14.1754C7.68617 13.7193 7.26397 13.3588 6.76703 13.1375L5.90625 12.7546V12.0207C6.27097 11.7653 6.53944 11.3948 6.6687 10.9688H6.75C6.97378 10.9688 7.18839 10.8799 7.34662 10.7216C7.50486 10.5634 7.59375 10.3488 7.59375 10.125C7.59375 9.90122 7.50486 9.68661 7.34662 9.52838C7.18839 9.37014 6.97378 9.28125 6.75 9.28125V8.71875C6.74997 8.45538 6.69709 8.19469 6.5945 7.95212C6.4919 7.70955 6.34168 7.49003 6.15273 7.30655C5.96378 7.12308 5.73993 6.97939 5.49445 6.88398C5.24896 6.78857 4.98683 6.74338 4.72357 6.7511ZM4.82245 7.31305C5.18813 7.32377 5.53524 7.47657 5.7901 7.73902C6.04496 8.00147 6.18751 8.35291 6.1875 8.71875V8.73853C6.09428 8.72585 6.00033 8.71924 5.90625 8.71875C5.47729 8.72787 5.05563 8.8316 4.67139 9.02252C4.3559 9.1817 4.00944 9.27 3.65625 9.28125C3.56189 9.28224 3.46767 9.27378 3.375 9.25598V8.71875C3.37499 8.53061 3.41274 8.34437 3.48601 8.17108C3.55927 7.99779 3.66657 7.84096 3.80154 7.70988C3.93651 7.57881 4.09641 7.47615 4.27177 7.40798C4.44713 7.33982 4.63439 7.30754 4.82245 7.31305ZM14.4261 7.9574L13.9933 8.39026C13.8103 8.26904 13.6016 8.19231 13.3837 8.16622C13.1658 8.14014 12.9448 8.16541 12.7384 8.24002C12.532 8.31462 12.346 8.4365 12.1951 8.59589C12.0443 8.75528 11.9328 8.94777 11.8697 9.15794C11.8066 9.36812 11.7935 9.59016 11.8316 9.80629C11.8696 10.0224 11.9577 10.2267 12.0888 10.4026C12.2199 10.5786 12.3904 10.7215 12.5866 10.8198C12.7828 10.9181 12.9993 10.9691 13.2188 10.9688C13.4729 10.9692 13.7224 10.9007 13.9407 10.7705C14.1589 10.6404 14.3378 10.4534 14.4581 10.2295C14.5784 10.0056 14.6358 9.75332 14.6239 9.49945C14.6121 9.24557 14.5316 8.99967 14.391 8.78796L14.8239 8.3551L14.4261 7.9574ZM9 8.71875V9.28125H11.25V8.71875H9ZM13.2083 8.71875C13.2118 8.71873 13.2153 8.71873 13.2188 8.71875C13.3441 8.7193 13.4676 8.74822 13.5802 8.80334L12.7386 9.6449L13.1364 10.0421L13.9779 9.20105C14.033 9.3136 14.062 9.43717 14.0625 9.5625C14.0625 9.72893 14.0133 9.89164 13.921 10.0302C13.8287 10.1687 13.6976 10.2768 13.544 10.341C13.3904 10.4051 13.2213 10.4224 13.0579 10.3907C12.8946 10.359 12.7442 10.2797 12.6258 10.1627C12.5074 10.0458 12.4262 9.89639 12.3925 9.73341C12.3588 9.57043 12.374 9.40112 12.4363 9.24678C12.4985 9.09243 12.6051 8.95995 12.7424 8.86599C12.8798 8.77204 13.0419 8.72081 13.2083 8.71875ZM5.90625 9.28125C6.00061 9.28026 6.09483 9.28872 6.1875 9.30652V10.4062C6.1875 10.7792 6.03934 11.1369 5.77562 11.4006C5.5119 11.6643 5.15421 11.8125 4.78125 11.8125C4.40829 11.8125 4.0506 11.6643 3.78688 11.4006C3.52316 11.1369 3.375 10.7792 3.375 10.4062V9.82397C3.46822 9.83665 3.56217 9.84326 3.65625 9.84375C4.08521 9.83463 4.50687 9.7309 4.89111 9.53998C5.2066 9.3808 5.55306 9.2925 5.90625 9.28125ZM2.80096 9.84375C2.80481 9.84367 2.80866 9.84367 2.8125 9.84375V10.4062C2.73791 10.4078 2.66576 10.3796 2.61194 10.328C2.55811 10.2763 2.52701 10.2054 2.52548 10.1308C2.52395 10.0562 2.55212 9.98403 2.60378 9.93021C2.65544 9.87638 2.72637 9.84528 2.80096 9.84375ZM6.75 9.84375C6.82459 9.84375 6.89613 9.87338 6.94887 9.92613C7.00162 9.97887 7.03125 10.0504 7.03125 10.125C7.03125 10.1996 7.00162 10.2711 6.94887 10.3239C6.89613 10.3766 6.82459 10.4062 6.75 10.4062V9.84375ZM9 9.84375V10.4062H11.25V9.84375H9ZM14.4261 11.3324L13.9933 11.7653C13.8103 11.644 13.6016 11.5673 13.3837 11.5412C13.1658 11.5151 12.9448 11.5404 12.7384 11.615C12.532 11.6896 12.346 11.8115 12.1951 11.9709C12.0443 12.1303 11.9328 12.3228 11.8697 12.5329C11.8066 12.7431 11.7935 12.9652 11.8316 13.1813C11.8696 13.3974 11.9577 13.6017 12.0888 13.7776C12.2199 13.9536 12.3904 14.0965 12.5866 14.1948C12.7828 14.2931 12.9993 14.3441 13.2188 14.3438C13.4729 14.3442 13.7224 14.2757 13.9407 14.1455C14.1589 14.0154 14.3378 13.8284 14.4581 13.6045C14.5784 13.3806 14.6358 13.1283 14.6239 12.8744C14.6121 12.6206 14.5316 12.3747 14.391 12.163L14.8239 11.7301L14.4261 11.3324ZM9 12.0938V12.6562H11.25V12.0938H9ZM13.2083 12.0938C13.2118 12.0937 13.2153 12.0937 13.2188 12.0938C13.3441 12.0943 13.4676 12.1232 13.5802 12.1783L12.7386 13.0199L13.1364 13.4171L13.9779 12.576C14.033 12.6886 14.062 12.8122 14.0625 12.9375C14.0625 13.1039 14.0133 13.2666 13.921 13.4052C13.8287 13.5437 13.6976 13.6518 13.544 13.716C13.3904 13.7801 13.2213 13.7974 13.0579 13.7657C12.8946 13.734 12.7442 13.6547 12.6258 13.5377C12.5074 13.4208 12.4262 13.2714 12.3925 13.1084C12.3588 12.9454 12.374 12.7761 12.4363 12.6218C12.4985 12.4674 12.6051 12.3349 12.7424 12.241C12.8798 12.147 13.0419 12.0958 13.2083 12.0938ZM4.21875 12.2937C4.58587 12.4024 4.97663 12.4024 5.34375 12.2937V12.8699L4.78125 13.9949L4.21875 12.8699V12.2937ZM9 13.2188V13.7812H11.25V13.2188H9ZM3.80511 13.3033L4.02484 13.7417L3.56067 14.1158L3.43103 13.4692L3.80511 13.3033ZM5.75739 13.3033L6.13147 13.4692L6.00183 14.1158L5.53766 13.7417L5.75739 13.3033ZM2.90533 13.7137L3.09924 14.681C3.10891 14.7283 3.13056 14.7722 3.16211 14.8087C3.19367 14.8451 3.23406 14.8729 3.27942 14.8892C3.31001 14.9005 3.34238 14.9063 3.375 14.9062C3.43933 14.9055 3.50165 14.8837 3.55243 14.8442L4.28357 14.2564L4.53076 14.7513C4.55433 14.7975 4.5902 14.8363 4.6344 14.8633C4.6786 14.8904 4.72942 14.9047 4.78125 14.9047C4.83308 14.9047 4.8839 14.8904 4.9281 14.8633C4.9723 14.8363 5.00817 14.7975 5.03174 14.7513L5.27893 14.2564L6.01007 14.8442C6.06085 14.8837 6.12317 14.9055 6.1875 14.9062C6.22012 14.9063 6.25249 14.9005 6.28308 14.8892C6.32844 14.8729 6.36883 14.8451 6.40039 14.8087C6.43194 14.7722 6.45359 14.7283 6.46326 14.681L6.65717 13.7137C7.02327 13.9027 7.33045 14.1886 7.5452 14.5402C7.75996 14.8918 7.87404 15.2957 7.875 15.7077V16.875H1.6875V15.7077C1.68846 15.2957 1.80254 14.8918 2.0173 14.5402C2.23205 14.1886 2.53923 13.9027 2.90533 13.7137Z" fill="#29C5F6"/>
</svg>
