<svg width="12" height="11" viewBox="0 0 12 11" fill="none" xmlns="http://www.w3.org/2000/svg">
<path d="M2.11085 9.59626C1.45088 8.93629 1.07529 8.19536 0.984073 7.37347C0.892856 6.55157 1.00328 5.78401 1.31535 5.07077L2.88867 1.44685C2.95938 1.28186 3.08029 1.18169 3.25141 1.14633C3.42253 1.11098 3.56961 1.15505 3.69265 1.27856C3.8105 1.39641 3.92092 1.5865 4.02393 1.84884C4.12693 2.11118 4.12257 2.37481 4.01084 2.63974L3.33025 4.22189C3.31847 4.24546 3.3332 4.3368 3.37445 4.4959L3.52506 4.64651L7.67931 0.492256C7.80306 0.368513 7.95049 0.306641 8.12161 0.306641C8.29273 0.306641 8.43993 0.368512 8.5632 0.492256C8.68694 0.616 8.74881 0.763431 8.74881 0.934551C8.74881 1.10567 8.68694 1.25287 8.5632 1.37614L5.64638 4.29296C5.59924 4.3401 5.57567 4.39902 5.57567 4.46973C5.57567 4.54044 5.59924 4.59937 5.64638 4.64651C5.69352 4.69365 5.75245 4.71722 5.82316 4.71722C5.89387 4.71722 5.95279 4.69365 5.99994 4.64651L9.62386 1.02259C9.7476 0.898843 9.89503 0.836971 10.0662 0.836971C10.2373 0.836971 10.3845 0.898843 10.5077 1.02259C10.6315 1.14633 10.6934 1.29376 10.6934 1.46488C10.6934 1.636 10.6315 1.7832 10.5077 1.90647L6.88382 5.53039C6.83668 5.57753 6.81311 5.63646 6.81311 5.70717C6.81311 5.77788 6.83668 5.83681 6.88382 5.88395C6.93096 5.93109 6.98988 5.95466 7.0606 5.95466C7.13131 5.95466 7.19023 5.93109 7.23737 5.88395L10.331 2.79035C10.4547 2.66661 10.6021 2.60474 10.7733 2.60474C10.9444 2.60474 11.0916 2.66661 11.2148 2.79035C11.3386 2.9141 11.4005 3.06153 11.4005 3.23265C11.4005 3.40377 11.3386 3.55096 11.2148 3.67424L8.12126 6.76783C8.07411 6.81497 8.05054 6.8739 8.05054 6.94461C8.05054 7.01532 8.07411 7.07424 8.12126 7.12138C8.1684 7.16852 8.22732 7.19209 8.29803 7.19209C8.36874 7.19209 8.42767 7.16852 8.47481 7.12138L10.5077 5.08845C10.6315 4.96471 10.7789 4.90284 10.95 4.90284C11.1212 4.90284 11.2684 4.96471 11.3916 5.08845C11.5154 5.21219 11.5772 5.35963 11.5772 5.53075C11.5772 5.70187 11.5154 5.84906 11.3916 5.97233L7.7677 9.59626C6.9781 10.3859 6.03529 10.7807 4.93927 10.7807C3.84326 10.7807 2.90045 10.3859 2.11085 9.59626Z" fill="#29C5F6"/>
</svg>
