<svg width="18" height="18" viewBox="0 0 18 18" fill="none" xmlns="http://www.w3.org/2000/svg">
<path d="M3.65625 17.4375H2.53125C2.30747 17.4375 2.09286 17.3486 1.93463 17.1904C1.77639 17.0321 1.6875 16.8175 1.6875 16.5938V11.5312C1.6875 11.3075 1.77639 11.0929 1.93463 10.9346C2.09286 10.7764 2.30747 10.6875 2.53125 10.6875H3.65625C3.88003 10.6875 4.09464 10.7764 4.25287 10.9346C4.41111 11.0929 4.5 11.3075 4.5 11.5312V16.5938C4.5 16.8175 4.41111 17.0321 4.25287 17.1904C4.09464 17.3486 3.88003 17.4375 3.65625 17.4375ZM11.5312 17.4375H10.4062C10.1825 17.4375 9.96786 17.3486 9.80963 17.1904C9.6514 17.0321 9.5625 16.8175 9.5625 16.5938V8.15625C9.5625 7.93247 9.6514 7.71786 9.80963 7.55963C9.96786 7.40139 10.1825 7.3125 10.4062 7.3125H11.5312C11.755 7.3125 11.9696 7.40139 12.1279 7.55963C12.2861 7.71786 12.375 7.93247 12.375 8.15625V16.5938C12.375 16.8175 12.2861 17.0321 12.1279 17.1904C11.9696 17.3486 11.755 17.4375 11.5312 17.4375ZM15.4688 17.4375H14.3438C14.12 17.4375 13.9054 17.3486 13.7471 17.1904C13.5889 17.0321 13.5 16.8175 13.5 16.5938V4.21875C13.5 3.99497 13.5889 3.78036 13.7471 3.62213C13.9054 3.46389 14.12 3.375 14.3438 3.375H15.4688C15.6925 3.375 15.9071 3.46389 16.0654 3.62213C16.2236 3.78036 16.3125 3.99497 16.3125 4.21875V16.5938C16.3125 16.8175 16.2236 17.0321 16.0654 17.1904C15.9071 17.3486 15.6925 17.4375 15.4688 17.4375ZM7.59375 17.4375H6.46875C6.24497 17.4375 6.03036 17.3486 5.87213 17.1904C5.71389 17.0321 5.625 16.8175 5.625 16.5938V1.40625C5.625 1.18247 5.71389 0.967862 5.87213 0.809629C6.03036 0.651395 6.24497 0.5625 6.46875 0.5625H7.59375C7.81753 0.5625 8.03214 0.651395 8.19037 0.809629C8.34861 0.967862 8.4375 1.18247 8.4375 1.40625V16.5938C8.4375 16.8175 8.34861 17.0321 8.19037 17.1904C8.03214 17.3486 7.81753 17.4375 7.59375 17.4375Z" fill="#219ABF"/>
</svg>
