<svg width="32" height="32" viewBox="0 0 32 32" fill="none" xmlns="http://www.w3.org/2000/svg">
<path d="M6.66667 28C5.93334 28 5.30534 27.7391 4.78267 27.2173C4.26 26.6956 3.99911 26.0676 4 25.3333V6.66667C4 5.93334 4.26134 5.30534 4.784 4.78267C5.30667 4.26 5.93422 3.99911 6.66667 4H21.3333L28 10.6667V25.3333C28 26.0667 27.7387 26.6947 27.216 27.2173C26.6933 27.74 26.0658 28.0009 25.3333 28H6.66667ZM25.3333 12L20 6.66667V10.6667C20 11.0444 20.128 11.3613 20.384 11.6173C20.64 11.8733 20.9564 12.0009 21.3333 12H25.3333ZM10.6667 12C11.0444 12 11.3613 11.8724 11.6173 11.6173C11.8733 11.3622 12.0009 11.0453 12 10.6667C12 10.2889 11.872 9.972 11.616 9.716C11.36 9.46 11.0436 9.33245 10.6667 9.33334C10.2889 9.33334 9.972 9.46134 9.716 9.71734C9.46 9.97334 9.33245 10.2898 9.33334 10.6667C9.33334 11.0444 9.46134 11.3613 9.71734 11.6173C9.97334 11.8733 10.2898 12.0009 10.6667 12ZM10.6667 17.3333C11.0444 17.3333 11.3613 17.2058 11.6173 16.9507C11.8733 16.6956 12.0009 16.3787 12 16C12 15.6222 11.872 15.3053 11.616 15.0493C11.36 14.7933 11.0436 14.6658 10.6667 14.6667C10.2889 14.6667 9.972 14.7947 9.716 15.0507C9.46 15.3067 9.33245 15.6231 9.33334 16C9.33334 16.3778 9.46134 16.6947 9.71734 16.9507C9.97334 17.2067 10.2898 17.3342 10.6667 17.3333ZM10.6667 22.6667C11.0444 22.6667 11.3613 22.5391 11.6173 22.284C11.8733 22.0289 12.0009 21.712 12 21.3333C12 20.9556 11.872 20.6391 11.616 20.384C11.36 20.1289 11.0436 20.0009 10.6667 20C10.2889 20 9.972 20.128 9.716 20.384C9.46 20.64 9.33245 20.9564 9.33334 21.3333C9.33334 21.7111 9.46134 22.028 9.71734 22.284C9.97334 22.54 10.2898 22.6676 10.6667 22.6667Z" fill="#29C5F6"/>
</svg>
