<svg width="32" height="32" viewBox="0 0 32 32" fill="none" xmlns="http://www.w3.org/2000/svg">
<path d="M21.8667 22.1667L22 21.1667C22.0444 20.8333 22.0667 20.5 22.0667 20.1667C22.0667 18.3889 21.6778 16.7613 20.9 15.284C20.1222 13.8067 19.0667 12.5787 17.7333 11.6L15.8 13.5333C15.5778 13.7556 15.3333 13.8111 15.0667 13.7C14.8 13.5889 14.6667 13.3778 14.6667 13.0667V4.66667C14.6667 4.48889 14.7333 4.33333 14.8667 4.2C15 4.06667 15.1555 4 15.3333 4H23.7333C24.0444 4 24.2555 4.13333 24.3667 4.4C24.4778 4.66667 24.4222 4.91111 24.2 5.13333L22.2667 7.06667C23.4222 8.11111 24.3444 9.35556 25.0333 10.8C25.7222 12.2444 26.0667 13.8111 26.0667 15.5C26.0667 16.9 25.8333 18.2111 25.3667 19.4333C24.9 20.6556 24.2555 21.7667 23.4333 22.7667C23.0555 23.2111 22.6778 23.3556 22.3 23.2C21.9222 23.0444 21.7778 22.7 21.8667 22.1667ZM8.26665 28C7.95554 28 7.74443 27.8667 7.63332 27.6C7.52221 27.3333 7.57776 27.0889 7.79999 26.8667L9.73332 24.9333C8.55554 23.8889 7.62799 22.6444 6.95065 21.2C6.27332 19.7556 5.93421 18.1889 5.93332 16.5C5.93332 15.1 6.16665 13.7889 6.63332 12.5667C7.09999 11.3444 7.75554 10.2333 8.59999 9.23333C8.97776 8.78889 9.35554 8.64444 9.73332 8.8C10.1111 8.95556 10.2444 9.3 10.1333 9.83333C10.0667 10.1444 10.0169 10.4667 9.98399 10.8C9.9511 11.1333 9.93421 11.4778 9.93332 11.8333C9.93332 13.6111 10.328 15.2391 11.1173 16.7173C11.9067 18.1956 12.9564 19.4231 14.2667 20.4L16.2 18.4667C16.4222 18.2444 16.6667 18.1889 16.9333 18.3C17.2 18.4111 17.3333 18.6222 17.3333 18.9333V27.3333C17.3333 27.5111 17.2667 27.6667 17.1333 27.8C17 27.9333 16.8444 28 16.6667 28H8.26665Z" fill="#7209B7"/>
</svg>
